  0
SECTION
  2
HEADER
  9
$ANGBASE
  50
0.0
  9
$ANGDIR
  70
1
  9
$MEASUREMENT
  70
1
  0
ENDSEC
  0
SECTION
  2
TABLES
  0
TABLE
  2
LTYPE
  70
4
  0
LTYPE
  5
40F
  2
CONTINUOUS
  70
0
  3
Solid line
  72
65
  73
0
  40
0.0
  0
LTYPE
  5
410
  2
DASHDOT
 70
0
  3
Dash Dot ____ _ ____ _
 72
65
 73
4
 40
2.0
 49
1.25
 49
-0.25
 49
0.25
 49
-0.25
  0
LTYPE
  5
411
  2
DASHED
 70
0
  3
Dashed __ __ __ __ __
 72
65
 73
2
 40
0.75
 49
0.5
 49
-0.25
  0
LTYPE
  5
43B
  2
DOTTED
 70
0
  3
Dotted .  .  .  .
 72
65
 73
2
 40
0.2
 49
0.0
 49
-0.2
  0
ENDTAB
  0
TABLE
  2
STYLE
  70
4
  0
STYLE
  2
KICAD
  70
0
  40
0
  41
1
  42
1
  50
0
  71
0
  3
isocp.shx
  0
STYLE
  2
KICADB
  70
0
  40
0
  41
1
  42
1
  50
0
  71
0
  3
isocp.shx
  0
STYLE
  2
KICADI
  70
0
  40
0
  41
1
  42
1
  50
15
  71
0
  3
isocp.shx
  0
STYLE
  2
KICADBI
  70
0
  40
0
  41
1
  42
1
  50
15
  71
0
  3
isocp.shx
  0
ENDTAB
  0
TABLE
  2
LAYER
  70
1
  0
LAYER
  2
BLACK
  70
0
  62
7
  6
CONTINUOUS
  0
ENDTAB
  0
ENDSEC
  0
SECTION
  2
ENTITIES
0
LINE
8
BLACK
6
CONTINUOUS
10
-68.9565549999999945
20
25.3624249999999982
11
-51.5869949999999946
21
23.2297119999999993
0
LINE
8
BLACK
6
CONTINUOUS
10
-16.6368410000000004
20
14.3919829999999997
11
-13.1144609999999986
21
17.149169999999998
0
ARC
8
BLACK
10
97.8466090000000008
20
-38.0616279999999989
40
1.0000764369787154
50
-172.99563541
51
-83.00435164
0
LINE
8
BLACK
6
CONTINUOUS
10
26.8044820000000001
20
-62.1868869999999987
11
83.3860650000000021
21
-55.2395429999999976
0
LINE
8
BLACK
6
CONTINUOUS
10
6.5
20
-7.
11
-6.5
21
-7.
0
LINE
8
BLACK
6
CONTINUOUS
10
-96.4422390000000007
20
-34.9155170000000012
11
-96.8440049999999957
21
-38.1876419999999968
0
ARC
8
BLACK
10
-110.813367999999997
20
-32.4425479999999951
40
4.9998338957348993
50
-187.00190954
51
-96.99809623
0
ARC
8
BLACK
10
-11.572080999999999
20
15.1816689999999994
40
2.4999997019708755
50
-51.90383053
51
128.09389954
0
ARC
8
BLACK
10
21.8183070000000008
20
-64.6067290000000014
40
2.5000007897457297
50
-213.09574612
51
-33.09438702
0
CIRCLE
8
BLACK
10
-11.5720419999999997
20
15.1816999999999993
40
1.05
0
ARC
8
BLACK
10
-95.4497929999999997
20
-35.0372580000000013
40
0.9998858026929788
50
82.99342847
51
173.00655858
0
LINE
8
BLACK
6
CONTINUOUS
10
-85.0813440000000014
20
-36.3104599999999991
11
-85.4238479999999925
21
-39.099933
0
LINE
8
BLACK
6
CONTINUOUS
10
-23.9027309999999993
20
-65.9758609999999948
11
-26.0785920000000004
21
-62.6374629999999968
0
LINE
8
BLACK
6
CONTINUOUS
10
-90.8927509999999899
20
19.2338929999999984
11
-90.8127240000000029
21
19.224066999999998
0
ARC
8
BLACK
10
110.8233169999999888
20
-32.4384559999999951
40
4.9998718029702154
50
-83.00146935
51
7.00147511
0
LINE
8
BLACK
6
CONTINUOUS
10
-50.5421829999999943
20
21.8924139999999987
11
-50.799633
21
19.7956590000000006
0
ARC
8
BLACK
10
83.1423229999999904
20
-53.2544479999999965
40
2.0000021663715799
50
-82.99992394
51
6.99996881
0
LINE
8
BLACK
6
CONTINUOUS
10
-19.4336819999999975
20
-54.791844999999995
11
19.443165999999998
21
-54.7883069999999961
0
LINE
8
BLACK
6
CONTINUOUS
10
96.8539969999999926
20
-38.1835829999999987
11
96.4522309999999976
21
-34.9114579999999961
0
ARC
8
BLACK
10
-90.7708669999999955
20
20.2264510000000008
40
1.0000127805474766
50
-186.99930210
51
-97.00077469
0
LINE
8
BLACK
6
CONTINUOUS
10
-85.1174259999999947
20
-53.0147699999999986
11
-83.0963169999999991
21
-36.5541550000000015
0
ARC
8
BLACK
10
-91.0367019999999911
20
-35.579304999999998
40
1.0000718225575977
50
-6.99591269
51
82.99589974
0
LINE
8
BLACK
6
CONTINUOUS
10
-90.3865789999999976
20
-38.4905860000000004
11
-90.0440749999999923
21
-35.7011129999999994
0
ARC
8
BLACK
10
71.7525579999999934
20
22.3714329999999997
40
1.2002432185195235
50
-172.98831348
51
-83.01138790
0
LINE
8
BLACK
6
CONTINUOUS
10
-83.376072999999991
20
-55.2436019999999957
11
-26.7944899999999997
21
-62.1909459999999967
0
ARC
8
BLACK
10
94.2234119999999962
20
21.0163559999999983
40
2.5126509045918874
50
-353.00014204
51
-172.99986328
0
LINE
8
BLACK
6
CONTINUOUS
10
85.4338399999999893
20
-39.0958739999999949
11
85.0913359999999983
21
-36.306401000000001
0
ARC
8
BLACK
10
-71.7424749999999989
20
22.3672559999999976
40
1.200136773790913
50
-96.99369206
51
-7.00660656
0
ARC
8
BLACK
10
49.6187249999999977
20
19.6533549999999977
40
1.1998596372196011
50
-83.00673306
51
7.00662263
0
ARC
8
BLACK
10
87.9152100000000019
20
-38.7912449999999964
40
2.5000001376421603
50
-173.00102673
51
7.00103249
0
LINE
8
BLACK
6
CONTINUOUS
10
-6.5
20
7.
11
6.5
21
7.
0
ARC
8
BLACK
10
-49.6087769999999963
20
19.6492629999999977
40
1.199821733876693
50
-187.00843310
51
-96.99145647
0
ARC
8
BLACK
10
-11.2445769999999996
20
10.9963719999999991
40
1.0000132451556258
50
-232.00563709
51
-89.99404686
0
ARC
8
BLACK
10
-51.7333709999999982
20
22.0385549999999988
40
1.2001181748292391
50
-6.99436698
51
82.99444748
0
LINE
8
BLACK
6
CONTINUOUS
10
109.8490209999999934
20
16.5230420000000002
11
115.7859049999999996
21
-31.8289979999999986
0
CIRCLE
8
BLACK
10
11.5820340000000002
20
15.1857589999999991
40
1.05
0
LINE
8
BLACK
6
CONTINUOUS
10
8.00122
20
-9.9900749999999992
11
8.001218999999999
21
-50.9900729999999953
0
LINE
8
BLACK
6
CONTINUOUS
10
-11.2444729999999993
20
9.996357999999999
11
11.2558179999999997
21
9.9995839999999987
0
LINE
8
BLACK
6
CONTINUOUS
10
96.8835770000000025
20
19.968634999999999
11
104.2769429999999886
21
20.8764259999999986
0
LINE
8
BLACK
6
CONTINUOUS
10
7.00122
20
-51.9900759999999948
11
-6.99878
21
-51.9900759999999948
0
LINE
8
BLACK
6
CONTINUOUS
10
-10.0296229999999991
20
13.2142279999999985
11
-11.8601689999999991
21
11.7844529999999992
0
ARC
8
BLACK
10
-94.2134219999999942
20
21.0122870000000006
40
2.5126509045863519
50
-6.99992666
51
172.99993199
0
LINE
8
BLACK
6
CONTINUOUS
10
71.8985950000000003
20
21.1801069999999996
11
88.3204459999999898
21
23.1964569999999988
0
ARC
8
BLACK
10
-87.9052129999999892
20
-38.7952519999999978
40
2.500000137247302
50
-186.99985083
51
-7.00015493
0
LINE
8
BLACK
6
CONTINUOUS
10
15.0697309999999991
20
15.6282109999999985
11
16.6468330000000009
21
14.3960419999999996
0
LINE
8
BLACK
6
CONTINUOUS
10
-104.2669509999999917
20
20.8723670000000006
11
-96.8735849999999914
21
19.9645759999999974
0
ARC
8
BLACK
10
-88.432344999999998
20
22.1998789999999993
40
0.9999761865860609
50
82.99860817
51
173.00137889
0
ARC
8
BLACK
10
-19.4335839999999997
20
-55.7918529999999961
40
1.0000082557447489
50
90.00563121
51
172.36307561
0
ARC
8
BLACK
10
91.0465399999999931
20
-35.5751270000000019
40
0.9999346591973208
50
-263.00375855
51
-172.99622850
0
LINE
8
BLACK
6
CONTINUOUS
10
13.124452999999999
20
17.1532319999999991
11
15.0697309999999991
21
15.6282109999999985
0
ARC
8
BLACK
10
-104.8761639999999886
20
15.9094639999999998
40
5.0001548696929277
50
83.00176857
51
172.99822567
0
ARC
8
BLACK
10
-6.9985099999999996
20
-50.9898049999999969
40
1.0002705364590134
50
-179.98456297
51
-90.01549433
0
LINE
8
BLACK
6
CONTINUOUS
10
50.8096249999999969
20
19.7997179999999986
11
50.5521749999999983
21
21.8964730000000003
0
LINE
8
BLACK
6
CONTINUOUS
10
90.0540669999999892
20
-35.6970540000000014
11
90.3965709999999945
21
-38.4865269999999953
0
CIRCLE
8
BLACK
10
87.9152059999999977
20
-38.7911999999999964
40
1.050001
0
LINE
8
BLACK
6
CONTINUOUS
10
-88.3104539999999929
20
23.1923979999999972
11
-71.8886030000000034
21
21.176047999999998
0
ARC
8
BLACK
10
6.4999919999999998
20
6.4999929999999999
40
0.5000075000562492
50
0.00085942
51
89.99914058
0
LINE
8
BLACK
6
CONTINUOUS
10
111.4325209999999942
20
-37.4010759999999962
11
97.9684129999999982
21
-39.0542599999999993
0
ARC
8
BLACK
10
88.4423419999999965
20
22.2039459999999984
40
0.9999690134458594
50
6.99821009
51
97.00180286
0
LINE
8
BLACK
6
CONTINUOUS
10
26.0885839999999973
20
-62.6334039999999987
11
23.9127229999999997
21
-65.9718019999999967
0
LINE
8
BLACK
6
CONTINUOUS
10
7.
20
6.5
11
7.
21
-6.5
0
ARC
8
BLACK
10
-97.8365739999999988
20
-38.0657439999999951
40
1.0000257272337922
50
-96.99855337
51
-7.00145957
0
ARC
8
BLACK
10
-90.6908829999999995
20
20.2166499999999978
40
1.0000322223137252
50
-96.99818126
51
-7.00183168
0
LINE
8
BLACK
6
CONTINUOUS
10
20.4343779999999988
20
-55.6553419999999974
11
21.107721999999999
21
-60.6744559999999993
0
ARC
8
BLACK
10
90.7009180000000015
20
20.2207650000000001
40
1.0000829323879441
50
-172.99526334
51
-83.00472371
0
LINE
8
BLACK
6
CONTINUOUS
10
-6.99878
20
-8.9900749999999992
11
7.00122
21
-8.9900749999999992
0
ARC
8
BLACK
10
19.4432259999999992
20
-55.7883409999999955
40
1.0000348977999212
50
7.64271112
51
90.00347990
0
LINE
8
BLACK
6
CONTINUOUS
10
51.5969869999999986
20
23.2337709999999973
11
68.9665469999999914
21
25.3664839999999998
0
CIRCLE
8
BLACK
10
-21.8083320000000001
20
-64.6107650000000007
40
1.050001
0
CIRCLE
8
BLACK
10
94.2234129999999936
20
21.0163489999999982
40
1.05
0
LINE
8
BLACK
6
CONTINUOUS
10
91.7294909999999959
20
20.710134
11
91.7734189999999899
21
20.3523679999999985
0
LINE
8
BLACK
6
CONTINUOUS
10
89.4348619999999954
20
22.3257799999999982
11
89.7082999999999942
21
20.0988030000000002
0
ARC
8
BLACK
10
-6.9987919999999999
20
-9.9900629999999992
40
0.9999880000720008
50
-270.00068756
51
-179.99931244
0
ARC
8
BLACK
10
104.8861989999999906
20
15.9135799999999996
40
5.0001041612076929
50
7.00119330
51
96.99881246
0
ARC
8
BLACK
10
-21.8083059999999982
20
-64.6108049999999992
40
2.5000007900511347
50
-146.90605766
51
33.09619080
0
LINE
8
BLACK
6
CONTINUOUS
10
-49.7548199999999952
20
18.458361
11
-16.6368410000000004
21
14.3919829999999997
0
LINE
8
BLACK
6
CONTINUOUS
10
16.6468330000000009
20
14.3960419999999996
11
49.7648119999999992
21
18.4624199999999981
0
ARC
8
BLACK
10
6.5000349999999996
20
-6.5000349999999996
40
0.4999645012603394
50
-90.00406829
51
0.00406829
0
ARC
8
BLACK
10
95.459740999999994
20
-35.0332529999999949
40
0.9999343457490697
50
6.99622348
51
97.00378946
0
ARC
8
BLACK
10
7.0012399999999992
20
-9.9900549999999999
40
0.9999800002000039
50
-0.00114594
51
90.00114594
0
LINE
8
BLACK
6
CONTINUOUS
10
19.723908999999999
20
-63.2416319999999956
11
20.9544099999999993
21
-61.3532930000000007
0
ARC
8
BLACK
10
11.5820299999999996
20
15.1857609999999994
40
2.4999997014837572
50
-308.09512858
51
-128.09494042
0
LINE
8
BLACK
6
CONTINUOUS
10
-7.
20
-6.5
11
-7.
21
6.5
0
ARC
8
BLACK
10
11.2557299999999998
20
10.9995649999999987
40
0.9999806362081999
50
-89.99499379
51
52.01106434
0
CIRCLE
8
BLACK
10
21.8183240000000005
20
-64.6067060000000026
40
1.050001
0
LINE
8
BLACK
6
CONTINUOUS
10
-97.9584210000000013
20
-39.0583189999999973
11
-111.4225289999999973
21
-37.4051350000000014
0
LINE
8
BLACK
6
CONTINUOUS
10
90.9247439999999898
20
-34.5826379999999958
11
95.337814999999992
21
-34.0407809999999955
0
LINE
8
BLACK
6
CONTINUOUS
10
-95.3278229999999951
20
-34.0448400000000007
11
-90.9147519999999929
21
-34.5866970000000009
0
ARC
8
BLACK
10
-20.1065819999999995
20
-60.8113989999999944
40
1.000016646422222
50
-187.63620466
51
-146.91087171
0
LINE
8
BLACK
6
CONTINUOUS
10
-20.9444179999999989
20
-61.3573519999999988
11
-19.7139169999999986
21
-63.2456909999999937
0
LINE
8
BLACK
6
CONTINUOUS
10
-91.763426999999993
20
20.3483090000000004
11
-91.719498999999999
21
20.7060749999999985
0
ARC
8
BLACK
10
26.9263479999999973
20
-63.1794299999999964
40
0.9999968646877068
50
96.99984316
51
146.90505259
0
LINE
8
BLACK
6
CONTINUOUS
10
70.3038430000000005
20
24.3216730000000005
11
70.5612919999999946
21
22.2249169999999978
0
ARC
8
BLACK
10
84.0988219999999984
20
-36.4282429999999948
40
0.9999651383422942
50
-352.99921336
51
-173.00073987
0
LINE
8
BLACK
6
CONTINUOUS
10
96.8831330000000008
20
19.9722519999999975
11
96.7173349999999914
21
21.3225639999999999
0
ARC
8
BLACK
10
20.1166249999999991
20
-60.8073519999999945
40
0.9999665877998432
50
-33.09019285
51
7.63726923
0
ARC
8
BLACK
10
-83.1323739999999987
20
-53.2585399999999964
40
1.9999642583446877
50
-187.00105482
51
-96.99899005
0
LINE
8
BLACK
6
CONTINUOUS
10
-7.99878
20
-50.9900749999999974
11
-7.99878
21
-9.9900749999999992
0
ARC
8
BLACK
10
51.7433189999999996
20
22.0426469999999988
40
1.2000802633691905
50
-262.99625718
51
-173.00382333
0
LINE
8
BLACK
6
CONTINUOUS
10
90.8227159999999998
20
19.2281259999999996
11
90.902743000000001
21
19.2379519999999999
0
LINE
8
BLACK
6
CONTINUOUS
10
-70.5512999999999977
20
22.2208579999999998
11
-70.2938510000000036
21
24.317613999999999
0
CIRCLE
8
BLACK
10
-87.9052140000000009
20
-38.7952590000000015
40
1.050001
0
LINE
8
BLACK
6
CONTINUOUS
10
-21.0977299999999985
20
-60.6785149999999973
11
-20.4247219999999992
21
-55.6589570000000009
0
LINE
8
BLACK
6
CONTINUOUS
10
-89.6983079999999973
20
20.0947439999999986
11
-89.4248699999999985
21
22.3217210000000001
0
ARC
8
BLACK
10
-26.9163849999999982
20
-63.1835349999999991
40
1.0000456791272971
50
33.09624873
51
82.99885553
0
LINE
8
BLACK
6
CONTINUOUS
10
11.8712280000000003
20
11.7876789999999989
11
10.0396149999999995
21
13.2182870000000001
0
ARC
8
BLACK
10
-6.5000079999999993
20
-6.5000070000000001
40
0.4999925000562508
50
-180.00085945
51
-89.99914055
0
CIRCLE
8
BLACK
10
-94.2134209999999968
20
21.0122900000000001
40
1.05
0
ARC
8
BLACK
10
7.0011559999999999
20
-50.9900139999999951
40
1.0000620019203943
50
-89.99639058
51
-0.00338024
0
ARC
8
BLACK
10
-6.4999649999999995
20
6.4999649999999995
40
0.5000355012601605
50
90.00406771
51
179.99593229
0
LINE
8
BLACK
6
CONTINUOUS
10
-115.7759129999999885
20
-31.8330570000000002
11
-109.8390289999999965
21
16.5189829999999986
0
LINE
8
BLACK
6
CONTINUOUS
10
-96.7073429999999945
20
21.3185049999999983
11
-96.8731409999999897
21
19.9681929999999994
0
ARC
8
BLACK
10
69.1126809999999949
20
24.1752929999999999
40
1.2001214394612987
50
7.00582056
51
96.99408064
0
ARC
8
BLACK
10
90.7808160000000015
20
20.2305430000000008
40
1.0000506901017536
50
-82.99705345
51
6.99713025
0
LINE
8
BLACK
6
CONTINUOUS
10
83.106308999999996
20
-36.5500959999999964
11
85.1274179999999916
21
-53.0107110000000006
0
ARC
8
BLACK
10
-84.0888360000000006
20
-36.432347
40
0.9999651399590662
50
-6.99667705
51
172.99663027
0
ARC
8
BLACK
10
-69.1026080000000036
20
24.1711290000000005
40
1.2002156938942927
50
83.01041777
51
172.98968103
0
LINE
8
BLACK
6
CONTINUOUS
10
52.9638569999999973
20
-22.3155939999999973
11
41.0533029999999997
21
-23.7780260000000006
0
LINE
8
BLACK
6
CONTINUOUS
10
52.9638569999999973
20
-22.3155939999999973
11
54.0782719999999983
21
-23.1862709999999979
0
LINE
8
BLACK
6
CONTINUOUS
10
40.1826259999999991
20
-24.8924419999999991
11
41.0533029999999997
21
-23.7780260000000006
0
LINE
8
BLACK
6
CONTINUOUS
10
40.1826259999999991
20
-24.8924419999999991
11
41.7181799999999967
21
-37.3985229999999973
0
LINE
8
BLACK
6
CONTINUOUS
10
55.613825999999996
20
-35.6923519999999996
11
54.0782719999999983
21
-23.1862709999999979
0
LINE
8
BLACK
6
CONTINUOUS
10
41.7181799999999967
20
-37.3985229999999973
11
42.8325949999999978
21
-38.2691999999999979
0
LINE
8
BLACK
6
CONTINUOUS
10
54.7431489999999954
20
-36.8067679999999982
11
55.613825999999996
21
-35.6923519999999996
0
LINE
8
BLACK
6
CONTINUOUS
10
42.8325949999999978
20
-38.2691999999999979
11
54.7431489999999954
21
-36.8067679999999982
0
LINE
8
BLACK
6
CONTINUOUS
10
71.2914590000000032
20
-15.2669819999999987
11
59.3809049999999985
21
-16.7294139999999985
0
LINE
8
BLACK
6
CONTINUOUS
10
71.2914590000000032
20
-15.2669819999999987
11
72.4058739999999972
21
-16.1376589999999993
0
LINE
8
BLACK
6
CONTINUOUS
10
58.5102279999999979
20
-17.8438300000000005
11
59.3809049999999985
21
-16.7294139999999985
0
LINE
8
BLACK
6
CONTINUOUS
10
58.5102279999999979
20
-17.8438300000000005
11
60.0457819999999955
21
-30.3499109999999988
0
LINE
8
BLACK
6
CONTINUOUS
10
73.9414280000000019
20
-28.6437399999999975
11
72.4058739999999972
21
-16.1376589999999993
0
LINE
8
BLACK
6
CONTINUOUS
10
60.0457819999999955
20
-30.3499109999999988
11
61.1601969999999966
21
-31.2205879999999993
0
LINE
8
BLACK
6
CONTINUOUS
10
73.0707510000000013
20
-29.7581559999999996
11
73.9414280000000019
21
-28.6437399999999975
0
LINE
8
BLACK
6
CONTINUOUS
10
61.1601969999999966
20
-31.2205879999999993
11
73.0707510000000013
21
-29.7581559999999996
0
LINE
8
BLACK
6
CONTINUOUS
10
-31.1919229999999992
20
-1.312371
11
-19.281368999999998
21
-2.7748029999999999
0
LINE
8
BLACK
6
CONTINUOUS
10
-31.1919229999999992
20
-1.312371
11
-32.0625999999999962
21
-0.197955
0
LINE
8
BLACK
6
CONTINUOUS
10
-18.1669540000000005
20
-1.904126
11
-19.281368999999998
21
-2.7748029999999999
0
LINE
8
BLACK
6
CONTINUOUS
10
-18.1669540000000005
20
-1.904126
11
-16.6313999999999993
21
10.6019550000000002
0
LINE
8
BLACK
6
CONTINUOUS
10
-30.5270459999999986
20
12.3081259999999997
11
-32.0625999999999962
21
-0.197955
0
LINE
8
BLACK
6
CONTINUOUS
10
-16.6313999999999993
20
10.6019550000000002
11
-17.5020769999999999
21
11.7163709999999988
0
LINE
8
BLACK
6
CONTINUOUS
10
-29.4126309999999975
20
13.1788030000000003
11
-30.5270459999999986
21
12.3081259999999997
0
LINE
8
BLACK
6
CONTINUOUS
10
-17.5020769999999999
20
11.7163709999999988
11
-29.4126309999999975
21
13.1788030000000003
0
LINE
8
BLACK
6
CONTINUOUS
10
-33.5135339999999999
20
-20.2203750000000007
11
-21.6029799999999987
21
-21.6828070000000004
0
LINE
8
BLACK
6
CONTINUOUS
10
-33.5135339999999999
20
-20.2203750000000007
11
-34.3842110000000005
21
-19.1059589999999986
0
LINE
8
BLACK
6
CONTINUOUS
10
-20.4885649999999977
20
-20.8121299999999998
11
-21.6029799999999987
21
-21.6828070000000004
0
LINE
8
BLACK
6
CONTINUOUS
10
-20.4885649999999977
20
-20.8121299999999998
11
-18.9530110000000001
21
-8.3060489999999998
0
LINE
8
BLACK
6
CONTINUOUS
10
-32.8486569999999958
20
-6.5998779999999995
11
-34.3842110000000005
21
-19.1059589999999986
0
LINE
8
BLACK
6
CONTINUOUS
10
-18.9530110000000001
20
-8.3060489999999998
11
-19.8236880000000006
21
-7.1916329999999995
0
LINE
8
BLACK
6
CONTINUOUS
10
-31.7342419999999983
20
-5.7292009999999998
11
-32.8486569999999958
21
-6.5998779999999995
0
LINE
8
BLACK
6
CONTINUOUS
10
-19.8236880000000006
20
-7.1916329999999995
11
-31.7342419999999983
21
-5.7292009999999998
0
LINE
8
BLACK
6
CONTINUOUS
10
-61.4612089999999966
20
-41.7750759999999985
11
-62.9236409999999964
21
-53.6856299999999962
0
LINE
8
BLACK
6
CONTINUOUS
10
-61.4612089999999966
20
-41.7750759999999985
11
-60.3467929999999981
21
-40.904398999999998
0
LINE
8
BLACK
6
CONTINUOUS
10
-62.0529639999999958
20
-54.8000449999999972
11
-62.9236409999999964
21
-53.6856299999999962
0
LINE
8
BLACK
6
CONTINUOUS
10
-62.0529639999999958
20
-54.8000449999999972
11
-49.5468830000000011
21
-56.3355989999999949
0
LINE
8
BLACK
6
CONTINUOUS
10
-47.8407119999999964
20
-42.4399529999999956
11
-60.3467929999999981
21
-40.904398999999998
0
LINE
8
BLACK
6
CONTINUOUS
10
-49.5468830000000011
20
-56.3355989999999949
11
-48.4324669999999955
21
-55.4649219999999943
0
LINE
8
BLACK
6
CONTINUOUS
10
-46.9700349999999958
20
-43.5543679999999966
11
-47.8407119999999964
21
-42.4399529999999956
0
LINE
8
BLACK
6
CONTINUOUS
10
-48.4324669999999955
20
-55.4649219999999943
11
-46.9700349999999958
21
-43.5543679999999966
0
LINE
8
BLACK
6
CONTINUOUS
10
90.7798659999999984
20
-17.6723719999999993
11
78.8693119999999936
21
-19.134803999999999
0
LINE
8
BLACK
6
CONTINUOUS
10
90.7798659999999984
20
-17.6723719999999993
11
91.8942809999999923
21
-18.5430489999999999
0
LINE
8
BLACK
6
CONTINUOUS
10
77.9986349999999931
20
-20.2492199999999976
11
78.8693119999999936
21
-19.134803999999999
0
LINE
8
BLACK
6
CONTINUOUS
10
77.9986349999999931
20
-20.2492199999999976
11
79.5341889999999978
21
-32.7553009999999958
0
LINE
8
BLACK
6
CONTINUOUS
10
93.4298349999999971
20
-31.0491299999999981
11
91.8942809999999923
21
-18.5430489999999999
0
LINE
8
BLACK
6
CONTINUOUS
10
79.5341889999999978
20
-32.7553009999999958
11
80.6486039999999917
21
-33.6259779999999964
0
LINE
8
BLACK
6
CONTINUOUS
10
92.5591579999999965
20
-32.1635459999999966
11
93.4298349999999971
21
-31.0491299999999981
0
LINE
8
BLACK
6
CONTINUOUS
10
80.6486039999999917
20
-33.6259779999999964
11
92.5591579999999965
21
-32.1635459999999966
0
CIRCLE
8
BLACK
10
12.5294949999999989
20
3.7509949999999996
40
0.7999999999999999
0
LINE
8
BLACK
6
CONTINUOUS
10
88.4582549999999941
20
1.2356319999999998
11
76.5477010000000035
21
-0.2268
0
LINE
8
BLACK
6
CONTINUOUS
10
88.4582549999999941
20
1.2356319999999998
11
89.5726700000000022
21
0.364955
0
LINE
8
BLACK
6
CONTINUOUS
10
75.677024000000003
20
-1.341216
11
76.5477010000000035
21
-0.2268
0
LINE
8
BLACK
6
CONTINUOUS
10
75.677024000000003
20
-1.341216
11
77.2125779999999935
21
-13.8472969999999993
0
LINE
8
BLACK
6
CONTINUOUS
10
91.1082239999999928
20
-12.1411259999999999
11
89.5726700000000022
21
0.364955
0
LINE
8
BLACK
6
CONTINUOUS
10
77.2125779999999935
20
-13.8472969999999993
11
78.3269930000000016
21
-14.7179739999999999
0
LINE
8
BLACK
6
CONTINUOUS
10
90.2375469999999922
20
-13.2555420000000002
11
91.1082239999999928
21
-12.1411259999999999
0
LINE
8
BLACK
6
CONTINUOUS
10
78.3269930000000016
20
-14.7179739999999999
11
90.2375469999999922
21
-13.2555420000000002
0
CIRCLE
8
BLACK
10
-20.2213309999999993
20
-52.3926159999999967
40
0.7999999999999999
0
LINE
8
BLACK
6
CONTINUOUS
10
-80.3692139999999995
20
-39.4534680000000009
11
-81.8316459999999921
21
-51.3640219999999985
0
LINE
8
BLACK
6
CONTINUOUS
10
-80.3692139999999995
20
-39.4534680000000009
11
-79.2547979999999939
21
-38.5827910000000003
0
LINE
8
BLACK
6
CONTINUOUS
10
-80.9609689999999915
20
-52.4784369999999996
11
-81.8316459999999921
21
-51.3640219999999985
0
LINE
8
BLACK
6
CONTINUOUS
10
-80.9609689999999915
20
-52.4784369999999996
11
-68.4548879999999969
21
-54.0139909999999972
0
LINE
8
BLACK
6
CONTINUOUS
10
-66.7487169999999992
20
-40.1183449999999979
11
-79.2547979999999939
21
-38.5827910000000003
0
LINE
8
BLACK
6
CONTINUOUS
10
-68.4548879999999969
20
-54.0139909999999972
11
-67.3404719999999912
21
-53.1433139999999966
0
LINE
8
BLACK
6
CONTINUOUS
10
-65.8780399999999986
20
-41.232759999999999
11
-66.7487169999999992
21
-40.1183449999999979
0
LINE
8
BLACK
6
CONTINUOUS
10
-67.3404719999999912
20
-53.1433139999999966
11
-65.8780399999999986
21
-41.232759999999999
0
CIRCLE
8
BLACK
10
62.0355009999999965
20
-47.753107
40
0.7999999999999999
0
CIRCLE
8
BLACK
10
101.7140550000000019
20
0.30662
40
0.7999999999999999
0
CIRCLE
8
BLACK
10
20.2213309999999993
20
-52.3926159999999967
40
0.7999999999999999
0
CIRCLE
8
BLACK
10
-17.1727169999999987
20
-34.065016
40
0.7999999999999999
0
LINE
8
BLACK
6
CONTINUOUS
10
-92.559156999999999
20
-32.1635459999999966
11
-80.6486029999999943
21
-33.6259779999999964
0
LINE
8
BLACK
6
CONTINUOUS
10
-92.559156999999999
20
-32.1635459999999966
11
-93.4298339999999996
21
-31.0491299999999981
0
LINE
8
BLACK
6
CONTINUOUS
10
-79.5341880000000003
20
-32.7553009999999958
11
-80.6486029999999943
21
-33.6259779999999964
0
LINE
8
BLACK
6
CONTINUOUS
10
-79.5341880000000003
20
-32.7553009999999958
11
-77.9986339999999956
21
-20.2492199999999976
0
LINE
8
BLACK
6
CONTINUOUS
10
-91.8942799999999949
20
-18.5430489999999999
11
-93.4298339999999996
21
-31.0491299999999981
0
LINE
8
BLACK
6
CONTINUOUS
10
-77.9986339999999956
20
-20.2492199999999976
11
-78.8693109999999962
21
-19.134803999999999
0
LINE
8
BLACK
6
CONTINUOUS
10
-90.7798650000000009
20
-17.6723719999999993
11
-91.8942799999999949
21
-18.5430489999999999
0
LINE
8
BLACK
6
CONTINUOUS
10
-78.8693109999999962
20
-19.134803999999999
11
-90.7798650000000009
21
-17.6723719999999993
0
LINE
8
BLACK
6
CONTINUOUS
10
34.055852999999999
20
-24.637204999999998
11
22.1452989999999978
21
-26.0996369999999978
0
LINE
8
BLACK
6
CONTINUOUS
10
34.055852999999999
20
-24.637204999999998
11
35.1702680000000001
21
-25.5078819999999986
0
LINE
8
BLACK
6
CONTINUOUS
10
21.2746220000000008
20
-27.2140529999999998
11
22.1452989999999978
21
-26.0996369999999978
0
LINE
8
BLACK
6
CONTINUOUS
10
21.2746220000000008
20
-27.2140529999999998
11
22.8101759999999985
21
-39.7201340000000016
0
LINE
8
BLACK
6
CONTINUOUS
10
36.7058219999999977
20
-38.0139629999999968
11
35.1702680000000001
21
-25.5078819999999986
0
LINE
8
BLACK
6
CONTINUOUS
10
22.8101759999999985
20
-39.7201340000000016
11
23.9245909999999995
21
-40.5908109999999951
0
LINE
8
BLACK
6
CONTINUOUS
10
35.8351449999999971
20
-39.1283789999999954
11
36.7058219999999977
21
-38.0139629999999968
0
LINE
8
BLACK
6
CONTINUOUS
10
23.9245909999999995
20
-40.5908109999999951
11
35.8351449999999971
21
-39.1283789999999954
0
LINE
8
BLACK
6
CONTINUOUS
10
-50.099927000000001
20
1.0092399999999999
11
-38.1893729999999962
21
-0.453192
0
LINE
8
BLACK
6
CONTINUOUS
10
-50.099927000000001
20
1.0092399999999999
11
-50.9706039999999945
21
2.123656
0
LINE
8
BLACK
6
CONTINUOUS
10
-37.0749579999999952
20
0.417485
11
-38.1893729999999962
21
-0.453192
0
LINE
8
BLACK
6
CONTINUOUS
10
-37.0749579999999952
20
0.417485
11
-35.5394039999999976
21
12.9235659999999992
0
LINE
8
BLACK
6
CONTINUOUS
10
-49.4350499999999968
20
14.6297369999999987
11
-50.9706039999999945
21
2.123656
0
LINE
8
BLACK
6
CONTINUOUS
10
-35.5394039999999976
20
12.9235659999999992
11
-36.4100809999999981
21
14.0379819999999995
0
LINE
8
BLACK
6
CONTINUOUS
10
-48.3206349999999958
20
15.5004139999999992
11
-49.4350499999999968
21
14.6297369999999987
0
LINE
8
BLACK
6
CONTINUOUS
10
-36.4100809999999981
20
14.0379819999999995
11
-48.3206349999999958
21
15.5004139999999992
0
CIRCLE
8
BLACK
10
-104.0356709999999936
20
-18.6013829999999984
40
0.7999999999999999
0
LINE
8
BLACK
6
CONTINUOUS
10
-35.8351449999999971
20
-39.1283789999999954
11
-23.9245909999999995
21
-40.5908109999999951
0
LINE
8
BLACK
6
CONTINUOUS
10
-35.8351449999999971
20
-39.1283789999999954
11
-36.7058219999999977
21
-38.0139629999999968
0
LINE
8
BLACK
6
CONTINUOUS
10
-22.8101759999999985
20
-39.7201340000000016
11
-23.9245909999999995
21
-40.5908109999999951
0
LINE
8
BLACK
6
CONTINUOUS
10
-22.8101759999999985
20
-39.7201340000000016
11
-21.2746220000000008
21
-27.2140529999999998
0
LINE
8
BLACK
6
CONTINUOUS
10
-35.1702680000000001
20
-25.5078819999999986
11
-36.7058219999999977
21
-38.0139629999999968
0
LINE
8
BLACK
6
CONTINUOUS
10
-21.2746220000000008
20
-27.2140529999999998
11
-22.1452989999999978
21
-26.0996369999999978
0
LINE
8
BLACK
6
CONTINUOUS
10
-34.055852999999999
20
-24.637204999999998
11
-35.1702680000000001
21
-25.5078819999999986
0
LINE
8
BLACK
6
CONTINUOUS
10
-22.1452989999999978
20
-26.0996369999999978
11
-34.055852999999999
21
-24.637204999999998
0
LINE
8
BLACK
6
CONTINUOUS
10
-40.189703999999999
20
-44.386887999999999
11
-41.6521359999999987
21
-56.2974419999999967
0
LINE
8
BLACK
6
CONTINUOUS
10
-40.189703999999999
20
-44.386887999999999
11
-39.0752880000000005
21
-43.5162109999999984
0
LINE
8
BLACK
6
CONTINUOUS
10
-40.7814589999999981
20
-57.4118569999999977
11
-41.6521359999999987
21
-56.2974419999999967
0
LINE
8
BLACK
6
CONTINUOUS
10
-40.7814589999999981
20
-57.4118569999999977
11
-28.2753779999999999
21
-58.9474109999999953
0
LINE
8
BLACK
6
CONTINUOUS
10
-26.5692069999999987
20
-45.0517649999999961
11
-39.0752880000000005
21
-43.5162109999999984
0
LINE
8
BLACK
6
CONTINUOUS
10
-28.2753779999999999
20
-58.9474109999999953
11
-27.1609619999999978
21
-58.0767339999999948
0
LINE
8
BLACK
6
CONTINUOUS
10
-25.6985299999999981
20
-46.1661799999999971
11
-26.5692069999999987
21
-45.0517649999999961
0
LINE
8
BLACK
6
CONTINUOUS
10
-27.1609619999999978
20
-58.0767339999999948
11
-25.6985299999999981
21
-46.1661799999999971
0
LINE
8
BLACK
6
CONTINUOUS
10
-109.7259529999999899
20
-15.660931999999999
11
-97.8153989999999993
21
-17.1233639999999987
0
LINE
8
BLACK
6
CONTINUOUS
10
-109.7259529999999899
20
-15.660931999999999
11
-110.5966299999999904
21
-14.5465159999999987
0
LINE
8
BLACK
6
CONTINUOUS
10
-96.7009839999999912
20
-16.2526869999999981
11
-97.8153989999999993
21
-17.1233639999999987
0
LINE
8
BLACK
6
CONTINUOUS
10
-96.7009839999999912
20
-16.2526869999999981
11
-95.1654300000000006
21
-3.7466059999999999
0
LINE
8
BLACK
6
CONTINUOUS
10
-109.0610759999999999
20
-2.040435
11
-110.5966299999999904
21
-14.5465159999999987
0
LINE
8
BLACK
6
CONTINUOUS
10
-95.1654300000000006
20
-3.7466059999999999
11
-96.0361070000000012
21
-2.63219
0
LINE
8
BLACK
6
CONTINUOUS
10
-107.9466609999999918
20
-1.1697579999999999
11
-109.0610759999999999
21
-2.040435
0
LINE
8
BLACK
6
CONTINUOUS
10
-96.0361070000000012
20
-2.63219
11
-107.9466609999999918
21
-1.1697579999999999
0
LINE
8
BLACK
6
CONTINUOUS
10
86.1366439999999898
20
20.1436360000000008
11
74.2260899999999992
21
18.6812039999999975
0
LINE
8
BLACK
6
CONTINUOUS
10
86.1366439999999898
20
20.1436360000000008
11
87.2510589999999979
21
19.2729590000000002
0
LINE
8
BLACK
6
CONTINUOUS
10
73.3554129999999986
20
17.566787999999999
11
74.2260899999999992
21
18.6812039999999975
0
LINE
8
BLACK
6
CONTINUOUS
10
73.3554129999999986
20
17.566787999999999
11
74.8909670000000034
21
5.0607069999999998
0
LINE
8
BLACK
6
CONTINUOUS
10
88.7866130000000027
20
6.7668779999999993
11
87.2510589999999979
21
19.2729590000000002
0
LINE
8
BLACK
6
CONTINUOUS
10
74.8909670000000034
20
5.0607069999999998
11
76.0053819999999973
21
4.1900300000000001
0
LINE
8
BLACK
6
CONTINUOUS
10
87.9159360000000021
20
5.6524619999999999
11
88.7866130000000027
21
6.7668779999999993
0
LINE
8
BLACK
6
CONTINUOUS
10
76.0053819999999973
20
4.1900300000000001
11
87.9159360000000021
21
5.6524619999999999
0
LINE
8
BLACK
6
CONTINUOUS
10
105.6250509999999991
20
17.7382460000000002
11
93.7144969999999944
21
16.2758140000000004
0
LINE
8
BLACK
6
CONTINUOUS
10
105.6250509999999991
20
17.7382460000000002
11
106.7394659999999931
21
16.8675689999999996
0
LINE
8
BLACK
6
CONTINUOUS
10
92.8438199999999938
20
15.1613980000000002
11
93.7144969999999944
21
16.2758140000000004
0
LINE
8
BLACK
6
CONTINUOUS
10
92.8438199999999938
20
15.1613980000000002
11
94.3793739999999985
21
2.6553169999999997
0
LINE
8
BLACK
6
CONTINUOUS
10
108.2750199999999978
20
4.3614879999999996
11
106.7394659999999931
21
16.8675689999999996
0
LINE
8
BLACK
6
CONTINUOUS
10
94.3793739999999985
20
2.6553169999999997
11
95.4937889999999925
21
1.78464
0
LINE
8
BLACK
6
CONTINUOUS
10
107.4043429999999972
20
3.2470719999999997
11
108.2750199999999978
21
4.3614879999999996
0
LINE
8
BLACK
6
CONTINUOUS
10
95.4937889999999925
20
1.78464
11
107.4043429999999972
21
3.2470719999999997
0
LINE
8
BLACK
6
CONTINUOUS
10
-90.2375459999999947
20
-13.2555420000000002
11
-78.32699199999999
21
-14.7179739999999999
0
LINE
8
BLACK
6
CONTINUOUS
10
-90.2375459999999947
20
-13.2555420000000002
11
-91.1082229999999953
21
-12.1411259999999999
0
LINE
8
BLACK
6
CONTINUOUS
10
-77.212576999999996
20
-13.8472969999999993
11
-78.32699199999999
21
-14.7179739999999999
0
LINE
8
BLACK
6
CONTINUOUS
10
-77.212576999999996
20
-13.8472969999999993
11
-75.6770229999999913
21
-1.341216
0
LINE
8
BLACK
6
CONTINUOUS
10
-89.5726689999999905
20
0.364955
11
-91.1082229999999953
21
-12.1411259999999999
0
LINE
8
BLACK
6
CONTINUOUS
10
-75.6770229999999913
20
-1.341216
11
-76.5476999999999919
21
-0.2268
0
LINE
8
BLACK
6
CONTINUOUS
10
-88.4582539999999966
20
1.2356319999999998
11
-89.5726689999999905
21
0.364955
0
LINE
8
BLACK
6
CONTINUOUS
10
-76.5476999999999919
20
-0.2268
11
-88.4582539999999966
21
1.2356319999999998
0
LINE
8
BLACK
6
CONTINUOUS
10
-107.4043419999999998
20
3.2470719999999997
11
-95.493787999999995
21
1.78464
0
LINE
8
BLACK
6
CONTINUOUS
10
-107.4043419999999998
20
3.2470719999999997
11
-108.2750190000000003
21
4.3614879999999996
0
LINE
8
BLACK
6
CONTINUOUS
10
-94.3793730000000011
20
2.6553169999999997
11
-95.493787999999995
21
1.78464
0
LINE
8
BLACK
6
CONTINUOUS
10
-94.3793730000000011
20
2.6553169999999997
11
-92.8438189999999963
21
15.1613980000000002
0
LINE
8
BLACK
6
CONTINUOUS
10
-106.7394649999999956
20
16.8675689999999996
11
-108.2750190000000003
21
4.3614879999999996
0
LINE
8
BLACK
6
CONTINUOUS
10
-92.8438189999999963
20
15.1613980000000002
11
-93.7144959999999969
21
16.2758140000000004
0
LINE
8
BLACK
6
CONTINUOUS
10
-105.6250500000000017
20
17.7382460000000002
11
-106.7394649999999956
21
16.8675689999999996
0
LINE
8
BLACK
6
CONTINUOUS
10
-93.7144959999999969
20
16.2758140000000004
11
-105.6250500000000017
21
17.7382460000000002
0
LINE
8
BLACK
6
CONTINUOUS
10
-87.9159349999999904
20
5.6524619999999999
11
-76.0053809999999999
21
4.1900300000000001
0
LINE
8
BLACK
6
CONTINUOUS
10
-87.9159349999999904
20
5.6524619999999999
11
-88.786611999999991
21
6.7668779999999993
0
LINE
8
BLACK
6
CONTINUOUS
10
-74.8909659999999917
20
5.0607069999999998
11
-76.0053809999999999
21
4.1900300000000001
0
LINE
8
BLACK
6
CONTINUOUS
10
-74.8909659999999917
20
5.0607069999999998
11
-73.3554120000000012
21
17.566787999999999
0
LINE
8
BLACK
6
CONTINUOUS
10
-87.2510580000000004
20
19.2729590000000002
11
-88.786611999999991
21
6.7668779999999993
0
LINE
8
BLACK
6
CONTINUOUS
10
-73.3554120000000012
20
17.566787999999999
11
-74.2260890000000018
21
18.6812039999999975
0
LINE
8
BLACK
6
CONTINUOUS
10
-86.1366429999999923
20
20.1436360000000008
11
-87.2510580000000004
21
19.2729590000000002
0
LINE
8
BLACK
6
CONTINUOUS
10
-74.2260890000000018
20
18.6812039999999975
11
-86.1366429999999923
21
20.1436360000000008
0
LINE
8
BLACK
6
CONTINUOUS
10
-70.7491389999999996
20
-10.8501519999999996
11
-58.8385849999999948
21
-12.3125839999999993
0
LINE
8
BLACK
6
CONTINUOUS
10
-70.7491389999999996
20
-10.8501519999999996
11
-71.6198160000000001
21
-9.7357359999999993
0
LINE
8
BLACK
6
CONTINUOUS
10
-57.7241700000000009
20
-11.4419069999999987
11
-58.8385849999999948
21
-12.3125839999999993
0
LINE
8
BLACK
6
CONTINUOUS
10
-57.7241700000000009
20
-11.4419069999999987
11
-56.1886159999999961
21
1.064174
0
LINE
8
BLACK
6
CONTINUOUS
10
-70.0842619999999954
20
2.7703449999999998
11
-71.6198160000000001
21
-9.7357359999999993
0
LINE
8
BLACK
6
CONTINUOUS
10
-56.1886159999999961
20
1.064174
11
-57.0592929999999967
21
2.1785899999999998
0
LINE
8
BLACK
6
CONTINUOUS
10
-68.9698470000000015
20
3.641022
11
-70.0842619999999954
21
2.7703449999999998
0
LINE
8
BLACK
6
CONTINUOUS
10
-57.0592929999999967
20
2.1785899999999998
11
-68.9698470000000015
21
3.641022
0
LINE
8
BLACK
6
CONTINUOUS
10
110.2696409999999929
20
-20.0745480000000001
11
98.3590870000000024
21
-21.5369799999999998
0
LINE
8
BLACK
6
CONTINUOUS
10
110.2696409999999929
20
-20.0745480000000001
11
111.3840560000000011
21
-20.9452250000000006
0
LINE
8
BLACK
6
CONTINUOUS
10
97.4884100000000018
20
-22.6513959999999983
11
98.3590870000000024
21
-21.5369799999999998
0
LINE
8
BLACK
6
CONTINUOUS
10
97.4884100000000018
20
-22.6513959999999983
11
99.0239639999999923
21
-35.1574770000000001
0
LINE
8
BLACK
6
CONTINUOUS
10
112.9196099999999916
20
-33.4513059999999953
11
111.3840560000000011
21
-20.9452250000000006
0
LINE
8
BLACK
6
CONTINUOUS
10
99.0239639999999923
20
-35.1574770000000001
11
100.1383790000000005
21
-36.0281540000000007
0
LINE
8
BLACK
6
CONTINUOUS
10
112.048932999999991
20
-34.5657220000000009
11
112.9196099999999916
21
-33.4513059999999953
0
LINE
8
BLACK
6
CONTINUOUS
10
100.1383790000000005
20
-36.0281540000000007
11
112.048932999999991
21
-34.5657220000000009
0
CIRCLE
8
BLACK
10
17.1727169999999987
20
-34.065016
40
0.7999999999999999
0
CIRCLE
8
BLACK
10
-62.7372449999999944
20
5.1174049999999998
40
0.7999999999999999
0
CIRCLE
8
BLACK
10
-12.5294949999999989
20
3.7509949999999996
40
0.7999999999999999
0
CIRCLE
8
BLACK
10
-67.3866309999999942
20
-32.6977890000000002
40
0.7999999999999999
0
CIRCLE
8
BLACK
10
62.7372449999999944
20
5.1174049999999998
40
0.7999999999999999
0
CIRCLE
8
BLACK
10
25.5078019999999981
20
-4.2520020000000001
40
0.7999999999999999
0
LINE
8
BLACK
6
CONTINUOUS
10
-112.0413959999999918
20
-34.5697559999999982
11
-100.1308420000000012
21
-36.0321879999999979
0
LINE
8
BLACK
6
CONTINUOUS
10
-112.0413959999999918
20
-34.5697559999999982
11
-112.9120729999999924
21
-33.4553399999999996
0
LINE
8
BLACK
6
CONTINUOUS
10
-99.0164269999999931
20
-35.1615109999999973
11
-100.1308420000000012
21
-36.0321879999999979
0
LINE
8
BLACK
6
CONTINUOUS
10
-99.0164269999999931
20
-35.1615109999999973
11
-97.4808730000000025
21
-22.6554299999999991
0
LINE
8
BLACK
6
CONTINUOUS
10
-111.3765190000000018
20
-20.9492589999999979
11
-112.9120729999999924
21
-33.4553399999999996
0
LINE
8
BLACK
6
CONTINUOUS
10
-97.4808730000000025
20
-22.6554299999999991
11
-98.3515499999999889
21
-21.5410140000000006
0
LINE
8
BLACK
6
CONTINUOUS
10
-110.2621039999999937
20
-20.0785820000000008
11
-111.3765190000000018
21
-20.9492589999999979
0
LINE
8
BLACK
6
CONTINUOUS
10
-98.3515499999999889
20
-21.5410140000000006
11
-110.2621039999999937
21
-20.0785820000000008
0
CIRCLE
8
BLACK
10
67.3866289999999992
20
-32.6977869999999982
40
0.7999999999999999
0
LINE
8
BLACK
6
CONTINUOUS
10
-54.7431489999999954
20
-36.8067679999999982
11
-42.8325949999999978
21
-38.2691999999999979
0
LINE
8
BLACK
6
CONTINUOUS
10
-54.7431489999999954
20
-36.8067679999999982
11
-55.613825999999996
21
-35.6923519999999996
0
LINE
8
BLACK
6
CONTINUOUS
10
-41.7181799999999967
20
-37.3985229999999973
11
-42.8325949999999978
21
-38.2691999999999979
0
LINE
8
BLACK
6
CONTINUOUS
10
-41.7181799999999967
20
-37.3985229999999973
11
-40.1826259999999991
21
-24.8924419999999991
0
LINE
8
BLACK
6
CONTINUOUS
10
-54.0782719999999983
20
-23.1862709999999979
11
-55.613825999999996
21
-35.6923519999999996
0
LINE
8
BLACK
6
CONTINUOUS
10
-40.1826259999999991
20
-24.8924419999999991
11
-41.0533029999999997
21
-23.7780260000000006
0
LINE
8
BLACK
6
CONTINUOUS
10
-52.9638569999999973
20
-22.3155939999999973
11
-54.0782719999999983
21
-23.1862709999999979
0
LINE
8
BLACK
6
CONTINUOUS
10
-41.0533029999999997
20
-23.7780260000000006
11
-52.9638569999999973
21
-22.3155939999999973
0
LINE
8
BLACK
6
CONTINUOUS
10
25.513932999999998
20
-57.4512549999999962
11
24.1550899999999977
21
-46.3843649999999954
0
LINE
8
BLACK
6
CONTINUOUS
10
25.513932999999998
20
-57.4512549999999962
11
28.7109369999999977
21
-58.8722299999999947
0
LINE
8
BLACK
6
CONTINUOUS
10
25.0257669999999983
20
-45.2699500000000015
11
54.8021519999999995
21
-41.6138690000000011
0
LINE
8
BLACK
6
CONTINUOUS
10
54.5171369999999982
20
-55.7036269999999973
11
28.7109369999999977
21
-58.8722299999999947
0
LINE
8
BLACK
6
CONTINUOUS
10
55.9165670000000006
20
-42.4845459999999946
11
57.2754100000000008
21
-53.5514359999999954
0
LINE
8
BLACK
6
CONTINUOUS
10
57.2754100000000008
20
-53.5514359999999954
11
54.5171369999999982
21
-55.7036269999999973
0
ARC
8
BLACK
10
25.147634
20
-46.2624950000000013
40
0.9999988150927824
50
-263.00007534
51
-172.99996160
0
ARC
8
BLACK
10
54.9240199999999987
20
-42.6064149999999984
40
1.0000003648462454
50
7.00001346
51
96.99994960
0
LINE
8
BLACK
6
CONTINUOUS
10
-73.0707499999999897
20
-29.7581559999999996
11
-61.1601959999999991
21
-31.2205879999999993
0
LINE
8
BLACK
6
CONTINUOUS
10
-73.0707499999999897
20
-29.7581559999999996
11
-73.9414269999999902
21
-28.6437399999999975
0
LINE
8
BLACK
6
CONTINUOUS
10
-60.0457809999999981
20
-30.3499109999999988
11
-61.1601959999999991
21
-31.2205879999999993
0
LINE
8
BLACK
6
CONTINUOUS
10
-60.0457809999999981
20
-30.3499109999999988
11
-58.5102270000000004
21
-17.8438300000000005
0
LINE
8
BLACK
6
CONTINUOUS
10
-72.4058729999999997
20
-16.1376589999999993
11
-73.9414269999999902
21
-28.6437399999999975
0
LINE
8
BLACK
6
CONTINUOUS
10
-58.5102270000000004
20
-17.8438300000000005
11
-59.3809039999999939
21
-16.7294139999999985
0
LINE
8
BLACK
6
CONTINUOUS
10
-71.2914579999999916
20
-15.2669819999999987
11
-72.4058729999999997
21
-16.1376589999999993
0
LINE
8
BLACK
6
CONTINUOUS
10
-59.3809039999999939
20
-16.7294139999999985
11
-71.2914579999999916
21
-15.2669819999999987
0
LINE
8
BLACK
6
CONTINUOUS
10
107.9466619999999892
20
-1.1697579999999999
11
96.0361079999999987
21
-2.63219
0
LINE
8
BLACK
6
CONTINUOUS
10
107.9466619999999892
20
-1.1697579999999999
11
109.0610769999999974
21
-2.040435
0
LINE
8
BLACK
6
CONTINUOUS
10
95.1654309999999981
20
-3.7466059999999999
11
96.0361079999999987
21
-2.63219
0
LINE
8
BLACK
6
CONTINUOUS
10
95.1654309999999981
20
-3.7466059999999999
11
96.7009849999999886
21
-16.2526869999999981
0
LINE
8
BLACK
6
CONTINUOUS
10
110.5966309999999879
20
-14.5465159999999987
11
109.0610769999999974
21
-2.040435
0
LINE
8
BLACK
6
CONTINUOUS
10
96.7009849999999886
20
-16.2526869999999981
11
97.8153999999999968
21
-17.1233639999999987
0
LINE
8
BLACK
6
CONTINUOUS
10
109.7259540000000015
20
-15.660931999999999
11
110.5966309999999879
21
-14.5465159999999987
0
LINE
8
BLACK
6
CONTINUOUS
10
97.8153999999999968
20
-17.1233639999999987
11
109.7259540000000015
21
-15.660931999999999
0
LINE
8
BLACK
6
CONTINUOUS
10
29.4126309999999975
20
13.1788030000000003
11
17.5020769999999999
21
11.7163709999999988
0
LINE
8
BLACK
6
CONTINUOUS
10
29.4126309999999975
20
13.1788030000000003
11
30.5270459999999986
21
12.3081259999999997
0
LINE
8
BLACK
6
CONTINUOUS
10
16.6313999999999993
20
10.6019550000000002
11
17.5020769999999999
21
11.7163709999999988
0
LINE
8
BLACK
6
CONTINUOUS
10
16.6313999999999993
20
10.6019550000000002
11
18.1669540000000005
21
-1.904126
0
LINE
8
BLACK
6
CONTINUOUS
10
32.0625999999999962
20
-0.197955
11
30.5270459999999986
21
12.3081259999999997
0
LINE
8
BLACK
6
CONTINUOUS
10
18.1669540000000005
20
-1.904126
11
19.281368999999998
21
-2.7748029999999999
0
LINE
8
BLACK
6
CONTINUOUS
10
31.1919229999999992
20
-1.312371
11
32.0625999999999962
21
-0.197955
0
LINE
8
BLACK
6
CONTINUOUS
10
19.281368999999998
20
-2.7748029999999999
11
31.1919229999999992
21
-1.312371
0
CIRCLE
8
BLACK
10
-64.4008409999999998
20
-47.4591959999999986
40
0.7999999999999999
0
LINE
8
BLACK
6
CONTINUOUS
10
50.6422460000000001
20
-3.4075899999999999
11
38.7316919999999953
21
-4.8700219999999996
0
LINE
8
BLACK
6
CONTINUOUS
10
50.6422460000000001
20
-3.4075899999999999
11
51.7566610000000011
21
-4.2782669999999996
0
LINE
8
BLACK
6
CONTINUOUS
10
37.8610149999999948
20
-5.9844379999999999
11
38.7316919999999953
21
-4.8700219999999996
0
LINE
8
BLACK
6
CONTINUOUS
10
37.8610149999999948
20
-5.9844379999999999
11
39.3965689999999995
21
-18.490518999999999
0
LINE
8
BLACK
6
CONTINUOUS
10
53.2922149999999988
20
-16.7843479999999978
11
51.7566610000000011
21
-4.2782669999999996
0
LINE
8
BLACK
6
CONTINUOUS
10
39.3965689999999995
20
-18.490518999999999
11
40.5109840000000005
21
-19.3611959999999996
0
LINE
8
BLACK
6
CONTINUOUS
10
52.4215379999999982
20
-17.8987639999999999
11
53.2922149999999988
21
-16.7843479999999978
0
LINE
8
BLACK
6
CONTINUOUS
10
40.5109840000000005
20
-19.3611959999999996
11
52.4215379999999982
21
-17.8987639999999999
0
CIRCLE
8
BLACK
10
-25.5078019999999981
20
-4.2520020000000001
40
0.7999999999999999
0
CIRCLE
8
BLACK
10
104.0356709999999936
20
-18.6013829999999984
40
0.7999999999999999
0
LINE
8
BLACK
6
CONTINUOUS
10
31.7342419999999983
20
-5.7292009999999998
11
19.8236880000000006
21
-7.1916329999999995
0
LINE
8
BLACK
6
CONTINUOUS
10
31.7342419999999983
20
-5.7292009999999998
11
32.8486569999999958
21
-6.5998779999999995
0
LINE
8
BLACK
6
CONTINUOUS
10
18.9530110000000001
20
-8.3060489999999998
11
19.8236880000000006
21
-7.1916329999999995
0
LINE
8
BLACK
6
CONTINUOUS
10
18.9530110000000001
20
-8.3060489999999998
11
20.4885649999999977
21
-20.8121299999999998
0
LINE
8
BLACK
6
CONTINUOUS
10
34.3842110000000005
20
-19.1059589999999986
11
32.8486569999999958
21
-6.5998779999999995
0
LINE
8
BLACK
6
CONTINUOUS
10
20.4885649999999977
20
-20.8121299999999998
11
21.6029799999999987
21
-21.6828070000000004
0
LINE
8
BLACK
6
CONTINUOUS
10
33.5135339999999999
20
-20.2203750000000007
11
34.3842110000000005
21
-19.1059589999999986
0
LINE
8
BLACK
6
CONTINUOUS
10
21.6029799999999987
20
-21.6828070000000004
11
33.5135339999999999
21
-20.2203750000000007
0
CIRCLE
8
BLACK
10
-101.7140550000000019
20
0.30662
40
0.7999999999999999
0
LINE
8
BLACK
6
CONTINUOUS
10
66.6482369999999946
20
22.5490259999999978
11
54.737682999999997
21
21.0865939999999981
0
LINE
8
BLACK
6
CONTINUOUS
10
66.6482369999999946
20
22.5490259999999978
11
67.7626520000000028
21
21.6783490000000008
0
LINE
8
BLACK
6
CONTINUOUS
10
53.8670059999999964
20
19.9721779999999995
11
54.737682999999997
21
21.0865939999999981
0
LINE
8
BLACK
6
CONTINUOUS
10
53.8670059999999964
20
19.9721779999999995
11
55.402559999999994
21
7.4660969999999995
0
LINE
8
BLACK
6
CONTINUOUS
10
69.2982059999999933
20
9.172267999999999
11
67.7626520000000028
21
21.6783490000000008
0
LINE
8
BLACK
6
CONTINUOUS
10
55.402559999999994
20
7.4660969999999995
11
56.5169749999999951
21
6.5954199999999998
0
LINE
8
BLACK
6
CONTINUOUS
10
68.4275289999999927
20
8.0578520000000005
11
69.2982059999999933
21
9.172267999999999
0
LINE
8
BLACK
6
CONTINUOUS
10
56.5169749999999951
20
6.5954199999999998
11
68.4275289999999927
21
8.0578520000000005
0
LINE
8
BLACK
6
CONTINUOUS
10
48.3206349999999958
20
15.5004139999999992
11
36.4100809999999981
21
14.0379819999999995
0
LINE
8
BLACK
6
CONTINUOUS
10
48.3206349999999958
20
15.5004139999999992
11
49.4350499999999968
21
14.6297369999999987
0
LINE
8
BLACK
6
CONTINUOUS
10
35.5394039999999976
20
12.9235659999999992
11
36.4100809999999981
21
14.0379819999999995
0
LINE
8
BLACK
6
CONTINUOUS
10
35.5394039999999976
20
12.9235659999999992
11
37.0749579999999952
21
0.417485
0
LINE
8
BLACK
6
CONTINUOUS
10
50.9706039999999945
20
2.123656
11
49.4350499999999968
21
14.6297369999999987
0
LINE
8
BLACK
6
CONTINUOUS
10
37.0749579999999952
20
0.417485
11
38.1893729999999962
21
-0.453192
0
LINE
8
BLACK
6
CONTINUOUS
10
50.099927000000001
20
1.0092399999999999
11
50.9706039999999945
21
2.123656
0
LINE
8
BLACK
6
CONTINUOUS
10
38.1893729999999962
20
-0.453192
11
50.099927000000001
21
1.0092399999999999
0
LINE
8
BLACK
6
CONTINUOUS
10
63.5140679999999946
20
-41.5234549999999984
11
64.9765000000000015
21
-53.4340089999999961
0
LINE
8
BLACK
6
CONTINUOUS
10
63.5140679999999946
20
-41.5234549999999984
11
64.3847449999999952
21
-40.4090399999999974
0
LINE
8
BLACK
6
CONTINUOUS
10
66.0909159999999929
20
-54.3046859999999967
11
64.9765000000000015
21
-53.4340089999999961
0
LINE
8
BLACK
6
CONTINUOUS
10
66.0909159999999929
20
-54.3046859999999967
11
78.5969970000000018
21
-52.769131999999999
0
LINE
8
BLACK
6
CONTINUOUS
10
76.8908259999999899
20
-38.8734859999999998
11
64.3847449999999952
21
-40.4090399999999974
0
LINE
8
BLACK
6
CONTINUOUS
10
78.5969970000000018
20
-52.769131999999999
11
79.4676740000000024
21
-51.654716999999998
0
LINE
8
BLACK
6
CONTINUOUS
10
78.0052419999999955
20
-39.7441630000000004
11
76.8908259999999899
21
-38.8734859999999998
0
LINE
8
BLACK
6
CONTINUOUS
10
79.4676740000000024
20
-51.654716999999998
11
78.0052419999999955
21
-39.7441630000000004
0
LINE
8
BLACK
6
CONTINUOUS
10
-68.4275279999999952
20
8.0578520000000005
11
-56.5169739999999976
21
6.5954199999999998
0
LINE
8
BLACK
6
CONTINUOUS
10
-68.4275279999999952
20
8.0578520000000005
11
-69.2982049999999958
21
9.172267999999999
0
LINE
8
BLACK
6
CONTINUOUS
10
-55.4025589999999966
20
7.4660969999999995
11
-56.5169739999999976
21
6.5954199999999998
0
LINE
8
BLACK
6
CONTINUOUS
10
-55.4025589999999966
20
7.4660969999999995
11
-53.8670049999999989
21
19.9721779999999995
0
LINE
8
BLACK
6
CONTINUOUS
10
-67.7626509999999911
20
21.6783490000000008
11
-69.2982049999999958
21
9.172267999999999
0
LINE
8
BLACK
6
CONTINUOUS
10
-53.8670049999999989
20
19.9721779999999995
11
-54.7376819999999995
21
21.0865939999999981
0
LINE
8
BLACK
6
CONTINUOUS
10
-66.6482359999999971
20
22.5490259999999978
11
-67.7626509999999911
21
21.6783490000000008
0
LINE
8
BLACK
6
CONTINUOUS
10
-54.7376819999999995
20
21.0865939999999981
11
-66.6482359999999971
21
22.5490259999999978
0
LINE
8
BLACK
6
CONTINUOUS
10
-52.4215379999999982
20
-17.8987639999999999
11
-40.5109840000000005
21
-19.3611959999999996
0
LINE
8
BLACK
6
CONTINUOUS
10
-52.4215379999999982
20
-17.8987639999999999
11
-53.2922149999999988
21
-16.7843479999999978
0
LINE
8
BLACK
6
CONTINUOUS
10
-39.3965689999999995
20
-18.490518999999999
11
-40.5109840000000005
21
-19.3611959999999996
0
LINE
8
BLACK
6
CONTINUOUS
10
-39.3965689999999995
20
-18.490518999999999
11
-37.8610149999999948
21
-5.9844379999999999
0
LINE
8
BLACK
6
CONTINUOUS
10
-51.7566610000000011
20
-4.2782669999999996
11
-53.2922149999999988
21
-16.7843479999999978
0
LINE
8
BLACK
6
CONTINUOUS
10
-37.8610149999999948
20
-5.9844379999999999
11
-38.7316919999999953
21
-4.8700219999999996
0
LINE
8
BLACK
6
CONTINUOUS
10
-50.6422460000000001
20
-3.4075899999999999
11
-51.7566610000000011
21
-4.2782669999999996
0
LINE
8
BLACK
6
CONTINUOUS
10
-38.7316919999999953
20
-4.8700219999999996
11
-50.6422460000000001
21
-3.4075899999999999
0
LINE
8
BLACK
6
CONTINUOUS
10
68.9698479999999989
20
3.641022
11
57.0592939999999942
21
2.1785899999999998
0
LINE
8
BLACK
6
CONTINUOUS
10
68.9698479999999989
20
3.641022
11
70.0842629999999929
21
2.7703449999999998
0
LINE
8
BLACK
6
CONTINUOUS
10
56.1886170000000007
20
1.064174
11
57.0592939999999942
21
2.1785899999999998
0
LINE
8
BLACK
6
CONTINUOUS
10
56.1886170000000007
20
1.064174
11
57.7241709999999983
21
-11.4419069999999987
0
LINE
8
BLACK
6
CONTINUOUS
10
71.6198169999999976
20
-9.7357359999999993
11
70.0842629999999929
21
2.7703449999999998
0
LINE
8
BLACK
6
CONTINUOUS
10
57.7241709999999983
20
-11.4419069999999987
11
58.8385859999999994
21
-12.3125839999999993
0
LINE
8
BLACK
6
CONTINUOUS
10
70.749139999999997
20
-10.8501519999999996
11
71.6198169999999976
21
-9.7357359999999993
0
LINE
8
BLACK
6
CONTINUOUS
10
58.8385859999999994
20
-12.3125839999999993
11
70.749139999999997
21
-10.8501519999999996
  0
ENDSEC
  0
EOF
