%TF.GenerationSoftware,KiCad,Pcbnew,7.0.10-7.0.10~ubuntu23.04.1*%
%TF.CreationDate,Date%
%TF.ProjectId,plate_3_thumbs,706c6174-655f-4335-9f74-68756d62732e,v0.1*%
%TF.SameCoordinates,PX166f693PY93d1cc0*%
%TF.FileFunction,Drillmap*%
%TF.FilePolarity,Positive*%
%FSLAX45Y45*%
G04 Gerber Fmt 4.5, Leading zero omitted, Abs format (unit mm)*
G04 Created by KiCad*
%MOMM*%
%LPD*%
G01*
G04 APERTURE LIST*
%ADD10C,0.200000*%
%ADD11C,0.050000*%
G04 APERTURE END LIST*
D10*
X7768292Y-5899563D02*
X9505248Y-6112834D01*
X13000263Y-6996607D02*
X13352501Y-6720889D01*
X24349350Y-12254164D02*
G75*
G03*
X24460788Y-12341232I99260J12194D01*
G01*
X17344395Y-14654494D02*
X23002554Y-13959760D01*
X15313947Y-9135806D02*
X14013947Y-9135806D01*
X5019723Y-11927357D02*
X4979547Y-12254570D01*
X3086355Y-11619111D02*
G75*
G03*
X3521694Y-12176319I496255J-60949D01*
G01*
X13660987Y-7114385D02*
G75*
G03*
X13352501Y-6720889I-154247J196745D01*
G01*
X16636342Y-14759971D02*
G75*
G03*
X17055221Y-15032984I209438J-136509D01*
G01*
X13611743Y-6917636D02*
G75*
G03*
X13401743Y-6917636I-105000J0D01*
G01*
X13401743Y-6917636D02*
G75*
G03*
X13611743Y-6917636I105000J0D01*
G01*
X5131165Y-11840286D02*
G75*
G03*
X5019723Y-11927357I-12195J-99244D01*
G01*
X6155813Y-12066852D02*
X6121562Y-12345799D01*
X12273674Y-15033392D02*
X12056088Y-14699552D01*
X5574672Y-6512416D02*
X5582675Y-6513399D01*
X25807199Y-12175911D02*
G75*
G03*
X26242538Y-11618705I-60919J496261D01*
G01*
X9609729Y-6246564D02*
X9583984Y-6456240D01*
X23002554Y-13959759D02*
G75*
G03*
X23176689Y-13736877I-24374J198509D01*
G01*
X12720579Y-13914990D02*
X16608264Y-13914636D01*
X24349347Y-12254164D02*
X24309170Y-11926951D01*
X5487603Y-6400975D02*
G75*
G03*
X5574672Y-6512416I99257J-12185D01*
G01*
X6152205Y-13737283D02*
X6354315Y-12091221D01*
X5659546Y-12005918D02*
G75*
G03*
X5572472Y-11894475I-99266J12178D01*
G01*
X5625289Y-12284864D02*
X5659540Y-12005917D01*
X21720071Y-6213315D02*
G75*
G03*
X21853807Y-6317795I119129J14655D01*
G01*
X6326340Y-13960166D02*
X11984498Y-14654900D01*
X24335684Y-6303549D02*
G75*
G03*
X23836896Y-6364792I-249394J-30621D01*
G01*
X23207331Y-12345393D02*
X23173081Y-12066446D01*
X7475087Y-6318200D02*
G75*
G03*
X7608817Y-6213720I14613J119120D01*
G01*
X19640428Y-6589563D02*
G75*
G03*
X19744910Y-6455834I-14608J119093D01*
G01*
X23207335Y-12345393D02*
G75*
G03*
X23703604Y-12284458I248135J30463D01*
G01*
X14013947Y-7735806D02*
X15313947Y-7735806D01*
X9583985Y-6456240D02*
G75*
G03*
X9688465Y-6589969I119085J-14640D01*
G01*
X13477932Y-7257363D02*
G75*
G03*
X13539500Y-7436170I61558J-78807D01*
G01*
X9609728Y-6246564D02*
G75*
G03*
X9505248Y-6112834I-119118J14614D01*
G01*
X25648849Y-6783501D02*
X26242538Y-11618705D01*
X15927151Y-6917230D02*
G75*
G03*
X15717151Y-6917230I-105000J0D01*
G01*
X15717151Y-6917230D02*
G75*
G03*
X15927151Y-6917230I105000J0D01*
G01*
X15464069Y-9434813D02*
X15464069Y-13534813D01*
X13539500Y-7436170D02*
X15789529Y-7435847D01*
X24352305Y-6438942D02*
X25091641Y-6348163D01*
X15364069Y-13634813D02*
X13964069Y-13634813D01*
X13660985Y-7114383D02*
X13477930Y-7257360D01*
X5491997Y-6365198D02*
G75*
G03*
X4993213Y-6303955I-249392J30621D01*
G01*
X21853807Y-6317795D02*
X23495992Y-6116160D01*
X5625289Y-12284864D02*
G75*
G03*
X6121562Y-12345799I248137J-30467D01*
G01*
X16170920Y-6872985D02*
X16328630Y-6996201D01*
X4237252Y-6348569D02*
X4976589Y-6439348D01*
X5832901Y-6116571D02*
G75*
G03*
X5721460Y-6203634I-12191J-99249D01*
G01*
X12720579Y-13914988D02*
G75*
G03*
X12621475Y-14001701I11J-100002D01*
G01*
X23756422Y-11894072D02*
G75*
G03*
X23669354Y-12005511I12178J-99248D01*
G01*
X15976392Y-6720482D02*
X16170920Y-6872985D01*
X4237252Y-6348570D02*
G75*
G03*
X3680044Y-6783907I-60922J-496290D01*
G01*
X13864077Y-13534813D02*
G75*
G03*
X13964069Y-13634813I100023J23D01*
G01*
X19744910Y-6455834D02*
X19719165Y-6246158D01*
X23669354Y-12005511D02*
X23703604Y-12284458D01*
X23560468Y-12314926D02*
G75*
G03*
X23350468Y-12314926I-105000J0D01*
G01*
X23350468Y-12314926D02*
G75*
G03*
X23560468Y-12314926I105000J0D01*
G01*
X5832902Y-6116566D02*
X7475087Y-6318201D01*
X15363954Y-7785806D02*
G75*
G03*
X15313947Y-7735806I-50004J-4D01*
G01*
X25807199Y-12175913D02*
X24460788Y-12341232D01*
X23607431Y-6203228D02*
G75*
G03*
X23495992Y-6116160I-99251J-12182D01*
G01*
X17272806Y-14699146D02*
X17055220Y-15032986D01*
X15363947Y-7785806D02*
X15363947Y-9085806D01*
X4868105Y-12341637D02*
G75*
G03*
X4979547Y-12254570I12185J99257D01*
G01*
X5582675Y-6513397D02*
G75*
G03*
X5694116Y-6426331I12185J99257D01*
G01*
X16707385Y-14001340D02*
X16774719Y-14503251D01*
X23634779Y-6425925D02*
G75*
G03*
X23746219Y-6512993I99261J12195D01*
G01*
X13964069Y-9334813D02*
X15364069Y-9334813D01*
X16707385Y-14001340D02*
G75*
G03*
X16608264Y-13914636I-99115J-13300D01*
G01*
X19823646Y-6112429D02*
X21560602Y-5899157D01*
X12588114Y-14896882D02*
G75*
G03*
X12378114Y-14896882I-105000J0D01*
G01*
X12378114Y-14896882D02*
G75*
G03*
X12588114Y-14896882I105000J0D01*
G01*
X24191288Y-6334171D02*
G75*
G03*
X23981288Y-6334171I-105000J0D01*
G01*
X23981288Y-6334171D02*
G75*
G03*
X24191288Y-6334171I105000J0D01*
G01*
X23836896Y-6364792D02*
X23841289Y-6400569D01*
X23607433Y-6203228D02*
X23634777Y-6425925D01*
X13964069Y-9334809D02*
G75*
G03*
X13864069Y-9434813I1J-100001D01*
G01*
X25648854Y-6783501D02*
G75*
G03*
X25091641Y-6348163I-496284J-60949D01*
G01*
X12273673Y-15033389D02*
G75*
G03*
X12692555Y-14760375I209444J136503D01*
G01*
X9688465Y-6589970D02*
X13000263Y-6996607D01*
X16328630Y-6996201D02*
X19640428Y-6589564D01*
X15313947Y-9135807D02*
G75*
G03*
X15363947Y-9085806I3J49997D01*
G01*
X24309168Y-11926952D02*
G75*
G03*
X24197729Y-11839884I-99248J-12178D01*
G01*
X15464067Y-9434813D02*
G75*
G03*
X15364069Y-9334813I-99997J3D01*
G01*
X16636338Y-14759969D02*
X16759388Y-14571135D01*
X15976392Y-6720483D02*
G75*
G03*
X15667909Y-7113977I-154242J-196747D01*
G01*
X13963947Y-9085806D02*
X13963947Y-7785806D01*
X15789529Y-7435849D02*
G75*
G03*
X15851070Y-7257038I-9J99999D01*
G01*
X16950780Y-14896476D02*
G75*
G03*
X16740779Y-14896476I-105000J0D01*
G01*
X16740779Y-14896476D02*
G75*
G03*
X16950780Y-14896476I105000J0D01*
G01*
X4868105Y-12341638D02*
X3521694Y-12176319D01*
X23756422Y-11894069D02*
X24197729Y-11839884D01*
X5131165Y-11840290D02*
X5572472Y-11894475D01*
X12554177Y-14503658D02*
G75*
G03*
X12569505Y-14571541I99113J-13292D01*
G01*
X12569505Y-14571541D02*
X12692555Y-14760375D01*
X5487605Y-6400975D02*
X5491997Y-6365198D01*
X17344396Y-14654496D02*
G75*
G03*
X17272806Y-14699146I12184J-99254D01*
G01*
X21694332Y-6003638D02*
X21720076Y-6213314D01*
X23173082Y-12066442D02*
G75*
G03*
X22974578Y-12090815I-99252J-12188D01*
G01*
X24352260Y-6438580D02*
X24335681Y-6303549D01*
X16759388Y-14571135D02*
G75*
G03*
X16774719Y-14503251I-83778J54595D01*
G01*
X6152205Y-13737283D02*
G75*
G03*
X6326340Y-13960166I198505J-24377D01*
G01*
X13864069Y-13534813D02*
X13864069Y-9434813D01*
X19823646Y-6112427D02*
G75*
G03*
X19719165Y-6246158I14634J-119113D01*
G01*
X23746219Y-6512993D02*
X23754221Y-6512010D01*
X7608817Y-6213720D02*
X7634562Y-6004044D01*
X5978426Y-12315332D02*
G75*
G03*
X5768426Y-12315332I-105000J0D01*
G01*
X5768426Y-12315332D02*
G75*
G03*
X5978426Y-12315332I105000J0D01*
G01*
X12554174Y-14503657D02*
X12621475Y-14001701D01*
X5694116Y-6426331D02*
X5721460Y-6203634D01*
X12056089Y-14699551D02*
G75*
G03*
X11984498Y-14654900I-83779J-54609D01*
G01*
X15851070Y-7257038D02*
X15667909Y-7113977D01*
X13963954Y-9085806D02*
G75*
G03*
X14013947Y-9135806I49996J-4D01*
G01*
X5347605Y-6334577D02*
G75*
G03*
X5137605Y-6334577I-105000J0D01*
G01*
X5137605Y-6334577D02*
G75*
G03*
X5347605Y-6334577I105000J0D01*
G01*
X15364069Y-13634819D02*
G75*
G03*
X15464069Y-13534813I-9J100009D01*
G01*
X14013947Y-7735807D02*
G75*
G03*
X13963947Y-7785806I3J-50003D01*
G01*
X3086356Y-11619111D02*
X3680044Y-6783907D01*
X4993213Y-6303955D02*
X4976633Y-6438986D01*
X21694340Y-6003637D02*
G75*
G03*
X21560602Y-5899157I-119120J-14643D01*
G01*
X23754221Y-6512008D02*
G75*
G03*
X23841289Y-6400569I-12191J99258D01*
G01*
X22974578Y-12090815D02*
X23176689Y-13736877D01*
X6354308Y-12091220D02*
G75*
G03*
X6155813Y-12066848I-99248J12180D01*
G01*
X7768292Y-5899557D02*
G75*
G03*
X7634562Y-6004044I-14603J-119133D01*
G01*
D11*
X19960333Y-10667365D02*
X18769278Y-10813608D01*
X19960333Y-10667365D02*
X20071774Y-10754433D01*
X18682210Y-10925050D02*
X18769278Y-10813608D01*
X18682210Y-10925050D02*
X18835765Y-12175658D01*
X20225330Y-12005041D02*
X20071774Y-10754433D01*
X18835765Y-12175658D02*
X18947207Y-12262726D01*
X20138262Y-12116482D02*
X20225330Y-12005041D01*
X18947207Y-12262726D02*
X20138262Y-12116482D01*
X16796080Y-13675067D02*
G75*
G03*
X16576080Y-13675067I-110000J0D01*
G01*
X16576080Y-13675067D02*
G75*
G03*
X16796080Y-13675067I110000J0D01*
G01*
X21793093Y-9962504D02*
X20602038Y-10108747D01*
X21793093Y-9962504D02*
X21904535Y-10049572D01*
X20514970Y-10220189D02*
X20602038Y-10108747D01*
X20514970Y-10220189D02*
X20668525Y-11470797D01*
X22058090Y-11300180D02*
X21904535Y-10049572D01*
X20668525Y-11470797D02*
X20779967Y-11557864D01*
X21971022Y-11411621D02*
X22058090Y-11300180D01*
X20779967Y-11557864D02*
X21971022Y-11411621D01*
X11544755Y-8567043D02*
X12735810Y-8713286D01*
X11544755Y-8567043D02*
X11457687Y-8455601D01*
X12847252Y-8626218D02*
X12735810Y-8713286D01*
X12847252Y-8626218D02*
X13000807Y-7375610D01*
X11611243Y-7204993D02*
X11457687Y-8455601D01*
X13000807Y-7375610D02*
X12913739Y-7264169D01*
X11722684Y-7117925D02*
X11611243Y-7204993D01*
X12913739Y-7264169D02*
X11722684Y-7117925D01*
X11312594Y-10457843D02*
X12503649Y-10604086D01*
X11312594Y-10457843D02*
X11225526Y-10346402D01*
X12615091Y-10517019D02*
X12503649Y-10604086D01*
X12615091Y-10517019D02*
X12768646Y-9266411D01*
X11379081Y-9095794D02*
X11225526Y-10346402D01*
X12768646Y-9266411D02*
X12681578Y-9154969D01*
X11490523Y-9008726D02*
X11379081Y-9095794D01*
X12681578Y-9154969D02*
X11490523Y-9008726D01*
X23741934Y-10203043D02*
X22550878Y-10349286D01*
X23741934Y-10203043D02*
X23853375Y-10290111D01*
X22463811Y-10460728D02*
X22550878Y-10349286D01*
X22463811Y-10460728D02*
X22617366Y-11711336D01*
X24006931Y-11540719D02*
X23853375Y-10290111D01*
X22617366Y-11711336D02*
X22728808Y-11798403D01*
X23919863Y-11652160D02*
X24006931Y-11540719D01*
X22728808Y-11798403D02*
X23919863Y-11652160D01*
X16026897Y-8060706D02*
G75*
G03*
X15806897Y-8060706I-110000J0D01*
G01*
X15806897Y-8060706D02*
G75*
G03*
X16026897Y-8060706I110000J0D01*
G01*
X23509773Y-8312242D02*
X22318717Y-8458486D01*
X23509773Y-8312242D02*
X23621214Y-8399310D01*
X22231650Y-8569927D02*
X22318717Y-8458486D01*
X22231650Y-8569927D02*
X22385205Y-9820535D01*
X23774770Y-9649918D02*
X23621214Y-8399310D01*
X22385205Y-9820535D02*
X22496646Y-9907603D01*
X23687702Y-9761360D02*
X23774770Y-9649918D01*
X22496646Y-9907603D02*
X23687702Y-9761360D01*
X12751814Y-13675067D02*
G75*
G03*
X12531814Y-13675067I-110000J0D01*
G01*
X12531814Y-13675067D02*
G75*
G03*
X12751814Y-13675067I110000J0D01*
G01*
X21251751Y-12559082D02*
X21397995Y-13750137D01*
X21251751Y-12559082D02*
X21338819Y-12447640D01*
X21509436Y-13837205D02*
X21397995Y-13750137D01*
X21509436Y-13837205D02*
X22760044Y-13683649D01*
X22589427Y-12294085D02*
X21338819Y-12447640D01*
X22760044Y-13683649D02*
X22847112Y-13572208D01*
X22700869Y-12381152D02*
X22589427Y-12294085D01*
X22847112Y-13572208D02*
X22700869Y-12381152D01*
X8333863Y-13181725D02*
G75*
G03*
X8113863Y-13181725I-110000J0D01*
G01*
X8113863Y-13181725D02*
G75*
G03*
X8333863Y-13181725I110000J0D01*
G01*
X8267445Y-9814784D02*
G75*
G03*
X8047445Y-9814784I-110000J0D01*
G01*
X8047445Y-9814784D02*
G75*
G03*
X8267445Y-9814784I110000J0D01*
G01*
X23228673Y-10055405D02*
G75*
G03*
X23008673Y-10055405I-110000J0D01*
G01*
X23008673Y-10055405D02*
G75*
G03*
X23228673Y-10055405I110000J0D01*
G01*
X13056675Y-11842307D02*
G75*
G03*
X12836675Y-11842307I-110000J0D01*
G01*
X12836675Y-11842307D02*
G75*
G03*
X13056675Y-11842307I110000J0D01*
G01*
X5408032Y-11652160D02*
X6599087Y-11798403D01*
X5408032Y-11652160D02*
X5320964Y-11540719D01*
X6710528Y-11711336D02*
X6599087Y-11798403D01*
X6710528Y-11711336D02*
X6864084Y-10460728D01*
X5474519Y-10290111D02*
X5320964Y-11540719D01*
X6864084Y-10460728D02*
X6777016Y-10349286D01*
X5585961Y-10203043D02*
X5474519Y-10290111D01*
X6777016Y-10349286D02*
X5585961Y-10203043D01*
X18069533Y-10899526D02*
X16878477Y-11045769D01*
X18069533Y-10899526D02*
X18180974Y-10986594D01*
X16791409Y-11157211D02*
X16878477Y-11045769D01*
X16791409Y-11157211D02*
X16944965Y-12407819D01*
X18334529Y-12237202D02*
X18180974Y-10986594D01*
X16944965Y-12407819D02*
X17056406Y-12494887D01*
X18247462Y-12348644D02*
X18334529Y-12237202D01*
X17056406Y-12494887D02*
X18247462Y-12348644D01*
X9653955Y-8334882D02*
X10845010Y-8481125D01*
X9653955Y-8334882D02*
X9566887Y-8223440D01*
X10956451Y-8394057D02*
X10845010Y-8481125D01*
X10956451Y-8394057D02*
X11110007Y-7143449D01*
X9720442Y-6972832D02*
X9566887Y-8223440D01*
X11110007Y-7143449D02*
X11022939Y-7032007D01*
X9831884Y-6885764D02*
X9720442Y-6972832D01*
X11022939Y-7032007D02*
X9831884Y-6885764D01*
X10644977Y-12874494D02*
X10498734Y-14065550D01*
X10644977Y-12874494D02*
X10756418Y-12787427D01*
X10585801Y-14176991D02*
X10498734Y-14065550D01*
X10585801Y-14176991D02*
X11836409Y-14330547D01*
X12007026Y-12940982D02*
X10756418Y-12787427D01*
X11836409Y-14330547D02*
X11947851Y-14243479D01*
X12094094Y-13052424D02*
X12007026Y-12940982D01*
X11947851Y-14243479D02*
X12094094Y-13052424D01*
X4370380Y-10295944D02*
G75*
G03*
X4150380Y-10295944I-110000J0D01*
G01*
X4150380Y-10295944D02*
G75*
G03*
X4370380Y-10295944I110000J0D01*
G01*
X24945352Y-8405144D02*
G75*
G03*
X24725352Y-8405144I-110000J0D01*
G01*
X24725352Y-8405144D02*
G75*
G03*
X24945352Y-8405144I110000J0D01*
G01*
X11080433Y-12348644D02*
X12271488Y-12494887D01*
X11080433Y-12348644D02*
X10993365Y-12237202D01*
X12382930Y-12407819D02*
X12271488Y-12494887D01*
X12382930Y-12407819D02*
X12536485Y-11157211D01*
X11146920Y-10986594D02*
X10993365Y-12237202D01*
X12536485Y-11157211D02*
X12449417Y-11045769D01*
X11258362Y-10899526D02*
X11146920Y-10986594D01*
X12449417Y-11045769D02*
X11258362Y-10899526D01*
X21047672Y-7924065D02*
G75*
G03*
X20827672Y-7924065I-110000J0D01*
G01*
X20827672Y-7924065D02*
G75*
G03*
X21047672Y-7924065I110000J0D01*
G01*
X3691352Y-10001899D02*
X4882407Y-10148142D01*
X3691352Y-10001899D02*
X3604284Y-9890457D01*
X4993849Y-10061074D02*
X4882407Y-10148142D01*
X4993849Y-10061074D02*
X5147404Y-8810466D01*
X3757840Y-8639849D02*
X3604284Y-9890457D01*
X5147404Y-8810466D02*
X5060337Y-8699025D01*
X3869281Y-8552782D02*
X3757840Y-8639849D01*
X5060337Y-8699025D02*
X3869281Y-8552782D01*
X16491219Y-11842307D02*
G75*
G03*
X16271219Y-11842307I-110000J0D01*
G01*
X16271219Y-11842307D02*
G75*
G03*
X16491219Y-11842307I110000J0D01*
G01*
X23277612Y-6421442D02*
X22086556Y-6567685D01*
X23277612Y-6421442D02*
X23389053Y-6508510D01*
X21999489Y-6679127D02*
X22086556Y-6567685D01*
X21999489Y-6679127D02*
X22153044Y-7929735D01*
X23542608Y-7759118D02*
X23389053Y-6508510D01*
X22153044Y-7929735D02*
X22264485Y-8016803D01*
X23455541Y-7870559D02*
X23542608Y-7759118D01*
X22264485Y-8016803D02*
X23455541Y-7870559D01*
X25226452Y-6661981D02*
X24035397Y-6808224D01*
X25226452Y-6661981D02*
X25337894Y-6749049D01*
X23948329Y-6919666D02*
X24035397Y-6808224D01*
X23948329Y-6919666D02*
X24101885Y-8170274D01*
X25491449Y-7999657D02*
X25337894Y-6749049D01*
X24101885Y-8170274D02*
X24213326Y-8257342D01*
X25404381Y-8111098D02*
X25491449Y-7999657D01*
X24213326Y-8257342D02*
X25404381Y-8111098D01*
X5640193Y-9761360D02*
X6831248Y-9907603D01*
X5640193Y-9761360D02*
X5553125Y-9649918D01*
X6942689Y-9820535D02*
X6831248Y-9907603D01*
X6942689Y-9820535D02*
X7096245Y-8569927D01*
X5706680Y-8399310D02*
X5553125Y-9649918D01*
X7096245Y-8569927D02*
X7009177Y-8458486D01*
X5818122Y-8312242D02*
X5706680Y-8399310D01*
X7009177Y-8458486D02*
X5818122Y-8312242D01*
X3923513Y-8111098D02*
X5114568Y-8257342D01*
X3923513Y-8111098D02*
X3836445Y-7999657D01*
X5226010Y-8170274D02*
X5114568Y-8257342D01*
X5226010Y-8170274D02*
X5379565Y-6919666D01*
X3990001Y-6749049D02*
X3836445Y-7999657D01*
X5379565Y-6919666D02*
X5292498Y-6808224D01*
X4101442Y-6661981D02*
X3990001Y-6749049D01*
X5292498Y-6808224D02*
X4101442Y-6661981D01*
X19214911Y-8628927D02*
G75*
G03*
X18994911Y-8628927I-110000J0D01*
G01*
X18994911Y-8628927D02*
G75*
G03*
X19214911Y-8628927I110000J0D01*
G01*
X6551382Y-8164604D02*
G75*
G03*
X6331382Y-8164604I-110000J0D01*
G01*
X6331382Y-8164604D02*
G75*
G03*
X6551382Y-8164604I110000J0D01*
G01*
X5872354Y-7870559D02*
X7063409Y-8016803D01*
X5872354Y-7870559D02*
X5785286Y-7759118D01*
X7174851Y-7929735D02*
X7063409Y-8016803D01*
X7174851Y-7929735D02*
X7328406Y-6679127D01*
X5938841Y-6508510D02*
X5785286Y-7759118D01*
X7328406Y-6679127D02*
X7241338Y-6567685D01*
X6050283Y-6421442D02*
X5938841Y-6508510D01*
X7241338Y-6567685D02*
X6050283Y-6421442D01*
X7589033Y-9520821D02*
X8780089Y-9667064D01*
X7589033Y-9520821D02*
X7501966Y-9409379D01*
X8891530Y-9579996D02*
X8780089Y-9667064D01*
X8891530Y-9579996D02*
X9045086Y-8329388D01*
X7655521Y-8158771D02*
X7501966Y-9409379D01*
X9045086Y-8329388D02*
X8958018Y-8217947D01*
X7766962Y-8071703D02*
X7655521Y-8158771D01*
X8958018Y-8217947D02*
X7766962Y-8071703D01*
X10100205Y-10519646D02*
G75*
G03*
X9880205Y-10519646I-110000J0D01*
G01*
X9880205Y-10519646D02*
G75*
G03*
X10100205Y-10519646I110000J0D01*
G01*
X25177514Y-10295944D02*
G75*
G03*
X24957514Y-10295944I-110000J0D01*
G01*
X24957514Y-10295944D02*
G75*
G03*
X25177514Y-10295944I110000J0D01*
G01*
X25690911Y-10443261D02*
X24499856Y-10589504D01*
X25690911Y-10443261D02*
X25802353Y-10530328D01*
X24412788Y-10700945D02*
X24499856Y-10589504D01*
X24412788Y-10700945D02*
X24566344Y-11951553D01*
X25955908Y-11780936D02*
X25802353Y-10530328D01*
X24566344Y-11951553D02*
X24677785Y-12038621D01*
X25868840Y-11892378D02*
X25955908Y-11780936D01*
X24677785Y-12038621D02*
X25868840Y-11892378D01*
X16259058Y-9951507D02*
G75*
G03*
X16039058Y-9951507I-110000J0D01*
G01*
X16039058Y-9951507D02*
G75*
G03*
X16259058Y-9951507I110000J0D01*
G01*
X8500223Y-7924065D02*
G75*
G03*
X8280223Y-7924065I-110000J0D01*
G01*
X8280223Y-7924065D02*
G75*
G03*
X8500223Y-7924065I110000J0D01*
G01*
X13520998Y-8060706D02*
G75*
G03*
X13300998Y-8060706I-110000J0D01*
G01*
X13300998Y-8060706D02*
G75*
G03*
X13520998Y-8060706I110000J0D01*
G01*
X8035284Y-11705585D02*
G75*
G03*
X7815284Y-11705585I-110000J0D01*
G01*
X7815284Y-11705585D02*
G75*
G03*
X8035284Y-11705585I110000J0D01*
G01*
X6627026Y-12381152D02*
X6480783Y-13572208D01*
X6627026Y-12381152D02*
X6738467Y-12294085D01*
X6567850Y-13683649D02*
X6480783Y-13572208D01*
X6567850Y-13683649D02*
X7818458Y-13837205D01*
X7989075Y-12447640D02*
X6738467Y-12294085D01*
X7818458Y-13837205D02*
X7929900Y-13750137D01*
X8076143Y-12559082D02*
X7989075Y-12447640D01*
X7929900Y-13750137D02*
X8076143Y-12559082D01*
X17324727Y-8861006D02*
G75*
G03*
X17104727Y-8861006I-110000J0D01*
G01*
X17104727Y-8861006D02*
G75*
G03*
X17324727Y-8861006I110000J0D01*
G01*
X10332983Y-8628927D02*
G75*
G03*
X10112983Y-8628927I-110000J0D01*
G01*
X10112983Y-8628927D02*
G75*
G03*
X10332983Y-8628927I110000J0D01*
G01*
X19360951Y-12791242D02*
X19507194Y-13982298D01*
X19360951Y-12791242D02*
X19448019Y-12679801D01*
X19618636Y-14069366D02*
X19507194Y-13982298D01*
X19618636Y-14069366D02*
X20869244Y-13915810D01*
X20698627Y-12526246D02*
X19448019Y-12679801D01*
X20869244Y-13915810D02*
X20956311Y-13804369D01*
X20810068Y-12613313D02*
X20698627Y-12526246D01*
X20956311Y-13804369D02*
X20810068Y-12613313D01*
X3459808Y-11892781D02*
X4650863Y-12039024D01*
X3459808Y-11892781D02*
X3372740Y-11781340D01*
X4762305Y-11951957D02*
X4650863Y-12039024D01*
X4762305Y-11951957D02*
X4915860Y-10701349D01*
X3526295Y-10530732D02*
X3372740Y-11781340D01*
X4915860Y-10701349D02*
X4828792Y-10589907D01*
X3637737Y-10443664D02*
X3526295Y-10530732D01*
X4828792Y-10589907D02*
X3637737Y-10443664D01*
X21512610Y-11705584D02*
G75*
G03*
X21292610Y-11705584I-110000J0D01*
G01*
X21292610Y-11705584D02*
G75*
G03*
X21512610Y-11705584I110000J0D01*
G01*
X22996512Y-8164604D02*
G75*
G03*
X22776512Y-8164604I-110000J0D01*
G01*
X22776512Y-8164604D02*
G75*
G03*
X22996512Y-8164604I110000J0D01*
G01*
X9189632Y-12116482D02*
X10380688Y-12262726D01*
X9189632Y-12116482D02*
X9102565Y-12005041D01*
X10492129Y-12175658D02*
X10380688Y-12262726D01*
X10492129Y-12175658D02*
X10645685Y-10925050D01*
X9256120Y-10754433D02*
X9102565Y-12005041D01*
X10645685Y-10925050D02*
X10558617Y-10813608D01*
X9367562Y-10667365D02*
X9256120Y-10754433D01*
X10558617Y-10813608D02*
X9367562Y-10667365D01*
X13288837Y-9951507D02*
G75*
G03*
X13068837Y-9951507I-110000J0D01*
G01*
X13068837Y-9951507D02*
G75*
G03*
X13288837Y-9951507I110000J0D01*
G01*
X7356872Y-11411621D02*
X8547928Y-11557864D01*
X7356872Y-11411621D02*
X7269804Y-11300180D01*
X8659369Y-11470797D02*
X8547928Y-11557864D01*
X8659369Y-11470797D02*
X8812925Y-10220189D01*
X7423360Y-10049572D02*
X7269804Y-11300180D01*
X8812925Y-10220189D02*
X8725857Y-10108747D01*
X7534801Y-9962504D02*
X7423360Y-10049572D01*
X8725857Y-10108747D02*
X7534801Y-9962504D01*
X25458613Y-8552782D02*
X24267558Y-8699025D01*
X25458613Y-8552782D02*
X25570055Y-8639849D01*
X24180490Y-8810466D02*
X24267558Y-8699025D01*
X24180490Y-8810466D02*
X24334046Y-10061074D01*
X25723610Y-9890457D02*
X25570055Y-8639849D01*
X24334046Y-10061074D02*
X24445487Y-10148142D01*
X25636543Y-10001899D02*
X25723610Y-9890457D01*
X24445487Y-10148142D02*
X25636543Y-10001899D01*
X8517826Y-12613313D02*
X8371583Y-13804369D01*
X8517826Y-12613313D02*
X8629268Y-12526246D01*
X8458651Y-13915810D02*
X8371583Y-13804369D01*
X8458651Y-13915810D02*
X9709259Y-14069366D01*
X9879876Y-12679801D02*
X8629268Y-12526246D01*
X9709259Y-14069366D02*
X9820701Y-13982298D01*
X9966944Y-12791242D02*
X9879876Y-12679801D01*
X9820701Y-13982298D02*
X9966944Y-12791242D01*
X17605210Y-7117925D02*
X16414155Y-7264169D01*
X17605210Y-7117925D02*
X17716652Y-7204993D01*
X16327087Y-7375610D02*
X16414155Y-7264169D01*
X16327087Y-7375610D02*
X16480643Y-8626218D01*
X17870207Y-8455601D02*
X17716652Y-7204993D01*
X16480643Y-8626218D02*
X16592084Y-8713286D01*
X17783140Y-8567043D02*
X17870207Y-8455601D01*
X16592084Y-8713286D02*
X17783140Y-8567043D01*
X19728172Y-8776565D02*
X18537116Y-8922808D01*
X19728172Y-8776565D02*
X19839613Y-8863632D01*
X18450049Y-9034250D02*
X18537116Y-8922808D01*
X18450049Y-9034250D02*
X18603604Y-10284858D01*
X19993169Y-10114241D02*
X19839613Y-8863632D01*
X18603604Y-10284858D02*
X18715046Y-10371925D01*
X19906101Y-10225682D02*
X19993169Y-10114241D01*
X18715046Y-10371925D02*
X19906101Y-10225682D01*
X17233800Y-13052424D02*
X17380044Y-14243479D01*
X17233800Y-13052424D02*
X17320868Y-12940982D01*
X17491485Y-14330547D02*
X17380044Y-14243479D01*
X17491485Y-14330547D02*
X18742093Y-14176991D01*
X18571476Y-12787427D02*
X17320868Y-12940982D01*
X18742093Y-14176991D02*
X18829161Y-14065550D01*
X18682918Y-12874494D02*
X18571476Y-12787427D01*
X18829161Y-14065550D02*
X18682918Y-12874494D01*
X17837371Y-9008726D02*
X16646316Y-9154969D01*
X17837371Y-9008726D02*
X17948813Y-9095794D01*
X16559248Y-9266411D02*
X16646316Y-9154969D01*
X16559248Y-9266411D02*
X16712804Y-10517019D01*
X18102368Y-10346402D02*
X17948813Y-9095794D01*
X16712804Y-10517019D02*
X16824245Y-10604086D01*
X18015301Y-10457843D02*
X18102368Y-10346402D01*
X16824245Y-10604086D02*
X18015301Y-10457843D01*
X19447689Y-10519645D02*
G75*
G03*
X19227689Y-10519645I-110000J0D01*
G01*
X19227689Y-10519645D02*
G75*
G03*
X19447689Y-10519645I110000J0D01*
G01*
X4602542Y-8405144D02*
G75*
G03*
X4382542Y-8405144I-110000J0D01*
G01*
X4382542Y-8405144D02*
G75*
G03*
X4602542Y-8405144I110000J0D01*
G01*
X21328771Y-6180903D02*
X20137716Y-6327146D01*
X21328771Y-6180903D02*
X21440212Y-6267971D01*
X20050648Y-6438588D02*
X20137716Y-6327146D01*
X20050648Y-6438588D02*
X20204203Y-7689196D01*
X21593768Y-7518579D02*
X21440212Y-6267971D01*
X20204203Y-7689196D02*
X20315645Y-7776264D01*
X21506700Y-7630020D02*
X21593768Y-7518579D01*
X20315645Y-7776264D02*
X21506700Y-7630020D01*
X21280449Y-9814784D02*
G75*
G03*
X21060449Y-9814784I-110000J0D01*
G01*
X21060449Y-9814784D02*
G75*
G03*
X21280449Y-9814784I110000J0D01*
G01*
X19496011Y-6885764D02*
X18304955Y-7032007D01*
X19496011Y-6885764D02*
X19607452Y-6972832D01*
X18217888Y-7143449D02*
X18304955Y-7032007D01*
X18217888Y-7143449D02*
X18371443Y-8394057D01*
X19761008Y-8223440D02*
X19607452Y-6972832D01*
X18371443Y-8394057D02*
X18482885Y-8481125D01*
X19673940Y-8334882D02*
X19761008Y-8223440D01*
X18482885Y-8481125D02*
X19673940Y-8334882D01*
X12223167Y-8861006D02*
G75*
G03*
X12003167Y-8861006I-110000J0D01*
G01*
X12003167Y-8861006D02*
G75*
G03*
X12223167Y-8861006I110000J0D01*
G01*
X6319221Y-10055405D02*
G75*
G03*
X6099221Y-10055405I-110000J0D01*
G01*
X6099221Y-10055405D02*
G75*
G03*
X6319221Y-10055405I110000J0D01*
G01*
X21214031Y-13181725D02*
G75*
G03*
X20994031Y-13181725I-110000J0D01*
G01*
X20994031Y-13181725D02*
G75*
G03*
X21214031Y-13181725I110000J0D01*
G01*
X7821194Y-7630020D02*
X9012250Y-7776264D01*
X7821194Y-7630020D02*
X7734127Y-7518579D01*
X9123691Y-7689196D02*
X9012250Y-7776264D01*
X9123691Y-7689196D02*
X9277247Y-6438588D01*
X7887682Y-6267971D02*
X7734127Y-7518579D01*
X9277247Y-6438588D02*
X9190179Y-6327146D01*
X7999124Y-6180903D02*
X7887682Y-6267971D01*
X9190179Y-6327146D02*
X7999124Y-6180903D01*
X9421793Y-10225682D02*
X10612849Y-10371925D01*
X9421793Y-10225682D02*
X9334726Y-10114241D01*
X10724290Y-10284858D02*
X10612849Y-10371925D01*
X10724290Y-10284858D02*
X10877846Y-9034250D01*
X9488281Y-8863632D02*
X9334726Y-10114241D01*
X10877846Y-9034250D02*
X10790778Y-8922808D01*
X9599723Y-8776565D02*
X9488281Y-8863632D01*
X10790778Y-8922808D02*
X9599723Y-8776565D01*
X21560932Y-8071703D02*
X20369877Y-8217947D01*
X21560932Y-8071703D02*
X21672374Y-8158771D01*
X20282809Y-8329388D02*
X20369877Y-8217947D01*
X20282809Y-8329388D02*
X20436364Y-9579996D01*
X21825929Y-9409379D02*
X21672374Y-8158771D01*
X20436364Y-9579996D02*
X20547806Y-9667064D01*
X21738861Y-9520821D02*
X21825929Y-9409379D01*
X20547806Y-9667064D02*
X21738861Y-9520821D01*
D10*
X3333403Y-15468369D02*
X3333403Y-15268369D01*
X3333403Y-15268369D02*
X3381022Y-15268369D01*
X3381022Y-15268369D02*
X3409593Y-15277893D01*
X3409593Y-15277893D02*
X3428641Y-15296941D01*
X3428641Y-15296941D02*
X3438165Y-15315988D01*
X3438165Y-15315988D02*
X3447689Y-15354084D01*
X3447689Y-15354084D02*
X3447689Y-15382655D01*
X3447689Y-15382655D02*
X3438165Y-15420750D01*
X3438165Y-15420750D02*
X3428641Y-15439798D01*
X3428641Y-15439798D02*
X3409593Y-15458846D01*
X3409593Y-15458846D02*
X3381022Y-15468369D01*
X3381022Y-15468369D02*
X3333403Y-15468369D01*
X3533403Y-15468369D02*
X3533403Y-15335036D01*
X3533403Y-15373131D02*
X3542927Y-15354084D01*
X3542927Y-15354084D02*
X3552450Y-15344560D01*
X3552450Y-15344560D02*
X3571498Y-15335036D01*
X3571498Y-15335036D02*
X3590546Y-15335036D01*
X3657212Y-15468369D02*
X3657212Y-15335036D01*
X3657212Y-15268369D02*
X3647689Y-15277893D01*
X3647689Y-15277893D02*
X3657212Y-15287417D01*
X3657212Y-15287417D02*
X3666736Y-15277893D01*
X3666736Y-15277893D02*
X3657212Y-15268369D01*
X3657212Y-15268369D02*
X3657212Y-15287417D01*
X3781022Y-15468369D02*
X3761974Y-15458846D01*
X3761974Y-15458846D02*
X3752450Y-15439798D01*
X3752450Y-15439798D02*
X3752450Y-15268369D01*
X3885784Y-15468369D02*
X3866736Y-15458846D01*
X3866736Y-15458846D02*
X3857212Y-15439798D01*
X3857212Y-15439798D02*
X3857212Y-15268369D01*
X4114355Y-15468369D02*
X4114355Y-15268369D01*
X4114355Y-15268369D02*
X4181022Y-15411227D01*
X4181022Y-15411227D02*
X4247689Y-15268369D01*
X4247689Y-15268369D02*
X4247689Y-15468369D01*
X4428641Y-15468369D02*
X4428641Y-15363608D01*
X4428641Y-15363608D02*
X4419117Y-15344560D01*
X4419117Y-15344560D02*
X4400070Y-15335036D01*
X4400070Y-15335036D02*
X4361974Y-15335036D01*
X4361974Y-15335036D02*
X4342927Y-15344560D01*
X4428641Y-15458846D02*
X4409593Y-15468369D01*
X4409593Y-15468369D02*
X4361974Y-15468369D01*
X4361974Y-15468369D02*
X4342927Y-15458846D01*
X4342927Y-15458846D02*
X4333403Y-15439798D01*
X4333403Y-15439798D02*
X4333403Y-15420750D01*
X4333403Y-15420750D02*
X4342927Y-15401703D01*
X4342927Y-15401703D02*
X4361974Y-15392179D01*
X4361974Y-15392179D02*
X4409593Y-15392179D01*
X4409593Y-15392179D02*
X4428641Y-15382655D01*
X4523879Y-15335036D02*
X4523879Y-15535036D01*
X4523879Y-15344560D02*
X4542927Y-15335036D01*
X4542927Y-15335036D02*
X4581022Y-15335036D01*
X4581022Y-15335036D02*
X4600070Y-15344560D01*
X4600070Y-15344560D02*
X4609593Y-15354084D01*
X4609593Y-15354084D02*
X4619117Y-15373131D01*
X4619117Y-15373131D02*
X4619117Y-15430274D01*
X4619117Y-15430274D02*
X4609593Y-15449322D01*
X4609593Y-15449322D02*
X4600070Y-15458846D01*
X4600070Y-15458846D02*
X4581022Y-15468369D01*
X4581022Y-15468369D02*
X4542927Y-15468369D01*
X4542927Y-15468369D02*
X4523879Y-15458846D01*
X4704832Y-15449322D02*
X4714355Y-15458846D01*
X4714355Y-15458846D02*
X4704832Y-15468369D01*
X4704832Y-15468369D02*
X4695308Y-15458846D01*
X4695308Y-15458846D02*
X4704832Y-15449322D01*
X4704832Y-15449322D02*
X4704832Y-15468369D01*
X4704832Y-15344560D02*
X4714355Y-15354084D01*
X4714355Y-15354084D02*
X4704832Y-15363608D01*
X4704832Y-15363608D02*
X4695308Y-15354084D01*
X4695308Y-15354084D02*
X4704832Y-15344560D01*
X4704832Y-15344560D02*
X4704832Y-15363608D01*
M02*
