G04 #@! TF.GenerationSoftware,KiCad,Pcbnew,7.0.7-7.0.7~ubuntu23.04.1*
G04 #@! TF.CreationDate,2023-08-23T15:28:55+00:00*
G04 #@! TF.ProjectId,le_capybara_plate,6c655f63-6170-4796-9261-72615f706c61,v0.1*
G04 #@! TF.SameCoordinates,PX8bd8a70PY50733a9*
G04 #@! TF.FileFunction,Legend,Bot*
G04 #@! TF.FilePolarity,Positive*
%FSLAX46Y46*%
G04 Gerber Fmt 4.6, Leading zero omitted, Abs format (unit mm)*
G04 Created by KiCad (PCBNEW 7.0.7-7.0.7~ubuntu23.04.1) date 2023-08-23 15:28:55*
%MOMM*%
%LPD*%
G01*
G04 APERTURE LIST*
%ADD10C,0.150000*%
%ADD11C,2.200000*%
%ADD12C,3.987800*%
G04 APERTURE END LIST*
D10*
X151556978Y-137227874D02*
X151556978Y-137942159D01*
X151556978Y-137942159D02*
X151604597Y-138085016D01*
X151604597Y-138085016D02*
X151699835Y-138180255D01*
X151699835Y-138180255D02*
X151842692Y-138227874D01*
X151842692Y-138227874D02*
X151937930Y-138227874D01*
X150604597Y-138227874D02*
X151080787Y-138227874D01*
X151080787Y-138227874D02*
X151080787Y-137227874D01*
X149699835Y-138132635D02*
X149747454Y-138180255D01*
X149747454Y-138180255D02*
X149890311Y-138227874D01*
X149890311Y-138227874D02*
X149985549Y-138227874D01*
X149985549Y-138227874D02*
X150128406Y-138180255D01*
X150128406Y-138180255D02*
X150223644Y-138085016D01*
X150223644Y-138085016D02*
X150271263Y-137989778D01*
X150271263Y-137989778D02*
X150318882Y-137799302D01*
X150318882Y-137799302D02*
X150318882Y-137656445D01*
X150318882Y-137656445D02*
X150271263Y-137465969D01*
X150271263Y-137465969D02*
X150223644Y-137370731D01*
X150223644Y-137370731D02*
X150128406Y-137275493D01*
X150128406Y-137275493D02*
X149985549Y-137227874D01*
X149985549Y-137227874D02*
X149890311Y-137227874D01*
X149890311Y-137227874D02*
X149747454Y-137275493D01*
X149747454Y-137275493D02*
X149699835Y-137323112D01*
X148985549Y-137227874D02*
X148985549Y-137942159D01*
X148985549Y-137942159D02*
X149033168Y-138085016D01*
X149033168Y-138085016D02*
X149128406Y-138180255D01*
X149128406Y-138180255D02*
X149271263Y-138227874D01*
X149271263Y-138227874D02*
X149366501Y-138227874D01*
X148033168Y-138227874D02*
X148509358Y-138227874D01*
X148509358Y-138227874D02*
X148509358Y-137227874D01*
X147128406Y-138132635D02*
X147176025Y-138180255D01*
X147176025Y-138180255D02*
X147318882Y-138227874D01*
X147318882Y-138227874D02*
X147414120Y-138227874D01*
X147414120Y-138227874D02*
X147556977Y-138180255D01*
X147556977Y-138180255D02*
X147652215Y-138085016D01*
X147652215Y-138085016D02*
X147699834Y-137989778D01*
X147699834Y-137989778D02*
X147747453Y-137799302D01*
X147747453Y-137799302D02*
X147747453Y-137656445D01*
X147747453Y-137656445D02*
X147699834Y-137465969D01*
X147699834Y-137465969D02*
X147652215Y-137370731D01*
X147652215Y-137370731D02*
X147556977Y-137275493D01*
X147556977Y-137275493D02*
X147414120Y-137227874D01*
X147414120Y-137227874D02*
X147318882Y-137227874D01*
X147318882Y-137227874D02*
X147176025Y-137275493D01*
X147176025Y-137275493D02*
X147128406Y-137323112D01*
X146414120Y-137227874D02*
X146414120Y-137942159D01*
X146414120Y-137942159D02*
X146461739Y-138085016D01*
X146461739Y-138085016D02*
X146556977Y-138180255D01*
X146556977Y-138180255D02*
X146699834Y-138227874D01*
X146699834Y-138227874D02*
X146795072Y-138227874D01*
X145461739Y-138227874D02*
X145937929Y-138227874D01*
X145937929Y-138227874D02*
X145937929Y-137227874D01*
X144556977Y-138132635D02*
X144604596Y-138180255D01*
X144604596Y-138180255D02*
X144747453Y-138227874D01*
X144747453Y-138227874D02*
X144842691Y-138227874D01*
X144842691Y-138227874D02*
X144985548Y-138180255D01*
X144985548Y-138180255D02*
X145080786Y-138085016D01*
X145080786Y-138085016D02*
X145128405Y-137989778D01*
X145128405Y-137989778D02*
X145176024Y-137799302D01*
X145176024Y-137799302D02*
X145176024Y-137656445D01*
X145176024Y-137656445D02*
X145128405Y-137465969D01*
X145128405Y-137465969D02*
X145080786Y-137370731D01*
X145080786Y-137370731D02*
X144985548Y-137275493D01*
X144985548Y-137275493D02*
X144842691Y-137227874D01*
X144842691Y-137227874D02*
X144747453Y-137227874D01*
X144747453Y-137227874D02*
X144604596Y-137275493D01*
X144604596Y-137275493D02*
X144556977Y-137323112D01*
X143842691Y-137227874D02*
X143842691Y-137942159D01*
X143842691Y-137942159D02*
X143890310Y-138085016D01*
X143890310Y-138085016D02*
X143985548Y-138180255D01*
X143985548Y-138180255D02*
X144128405Y-138227874D01*
X144128405Y-138227874D02*
X144223643Y-138227874D01*
X142890310Y-138227874D02*
X143366500Y-138227874D01*
X143366500Y-138227874D02*
X143366500Y-137227874D01*
X141985548Y-138132635D02*
X142033167Y-138180255D01*
X142033167Y-138180255D02*
X142176024Y-138227874D01*
X142176024Y-138227874D02*
X142271262Y-138227874D01*
X142271262Y-138227874D02*
X142414119Y-138180255D01*
X142414119Y-138180255D02*
X142509357Y-138085016D01*
X142509357Y-138085016D02*
X142556976Y-137989778D01*
X142556976Y-137989778D02*
X142604595Y-137799302D01*
X142604595Y-137799302D02*
X142604595Y-137656445D01*
X142604595Y-137656445D02*
X142556976Y-137465969D01*
X142556976Y-137465969D02*
X142509357Y-137370731D01*
X142509357Y-137370731D02*
X142414119Y-137275493D01*
X142414119Y-137275493D02*
X142271262Y-137227874D01*
X142271262Y-137227874D02*
X142176024Y-137227874D01*
X142176024Y-137227874D02*
X142033167Y-137275493D01*
X142033167Y-137275493D02*
X141985548Y-137323112D01*
%LPC*%
D11*
X159168967Y-80607062D03*
X172147274Y-88610059D03*
X214026101Y-117055844D03*
X231186730Y-100554051D03*
X208676810Y-132107452D03*
X62092212Y-100554053D03*
X129466753Y-118423075D03*
X42603801Y-102959440D03*
X228865120Y-81646043D03*
X64413822Y-81646045D03*
X84602132Y-132107454D03*
X209376715Y-79240650D03*
X191049112Y-86289267D03*
D12*
X146639472Y-84358057D03*
D11*
X121131668Y-88610061D03*
X123459443Y-69702874D03*
X125418141Y-136750673D03*
X79252841Y-117055846D03*
X131788366Y-99515070D03*
X102229830Y-86289269D03*
X161490576Y-99515068D03*
X169819499Y-69702872D03*
X250675141Y-102959438D03*
X99902051Y-105196455D03*
X248353525Y-84051435D03*
X81574451Y-98147837D03*
X167860801Y-136750671D03*
X83902227Y-79240652D03*
X134109975Y-80607064D03*
X163812189Y-118423073D03*
X44925417Y-84051437D03*
X193376891Y-105196453D03*
X211704491Y-98147835D03*
%LPD*%
M02*
