M48
; DRILL file {KiCad 7.0.5.1-1-g8f565ef7f0-dirty-deb11} date Wed Aug  9 19:49:41 2023
; FORMAT={-:-/ absolute / metric / decimal}
; #@! TF.CreationDate,2023-08-09T19:49:41+00:00
; #@! TF.GenerationSoftware,Kicad,Pcbnew,7.0.5.1-1-g8f565ef7f0-dirty-deb11
; #@! TF.FileFunction,NonPlated,1,2,NPTH
FMAT,2
METRIC
; #@! TA.AperFunction,NonPlated,NPTH,ComponentDrill
T1C3.200
%
G90
G05
T1
X42.605Y-102.95
X44.927Y-84.042
X62.093Y-100.544
X64.415Y-81.636
X76.316Y-121.484
X83.903Y-79.231
X87.131Y-131.71
X102.231Y-86.279
X107.022Y-125.215
X123.339Y-140.21
X123.461Y-69.693
X132.978Y-98.055
X160.311Y-98.051
X169.828Y-69.689
X169.942Y-140.21
X186.247Y-125.252
X191.058Y-86.275
X206.15Y-131.71
X209.385Y-79.227
X216.973Y-121.48
X228.874Y-81.632
X231.195Y-100.54
X248.362Y-84.037
X250.684Y-102.945
T0
M30
