G04 #@! TF.GenerationSoftware,KiCad,Pcbnew,7.0.7-7.0.7~ubuntu23.04.1*
G04 #@! TF.CreationDate,2023-09-02T06:25:15+00:00*
G04 #@! TF.ProjectId,le_capybara_plate,6c655f63-6170-4796-9261-72615f706c61,v0.1*
G04 #@! TF.SameCoordinates,PX8bd8a70PY50733a9*
G04 #@! TF.FileFunction,Legend,Top*
G04 #@! TF.FilePolarity,Positive*
%FSLAX46Y46*%
G04 Gerber Fmt 4.6, Leading zero omitted, Abs format (unit mm)*
G04 Created by KiCad (PCBNEW 7.0.7-7.0.7~ubuntu23.04.1) date 2023-09-02 06:25:15*
%MOMM*%
%LPD*%
G01*
G04 APERTURE LIST*
%ADD10C,0.150000*%
G04 APERTURE END LIST*
D10*
X142020423Y-137327876D02*
X142020423Y-138042161D01*
X142020423Y-138042161D02*
X141972804Y-138185018D01*
X141972804Y-138185018D02*
X141877566Y-138280257D01*
X141877566Y-138280257D02*
X141734709Y-138327876D01*
X141734709Y-138327876D02*
X141639471Y-138327876D01*
X142972804Y-138327876D02*
X142496614Y-138327876D01*
X142496614Y-138327876D02*
X142496614Y-137327876D01*
X143877566Y-138232637D02*
X143829947Y-138280257D01*
X143829947Y-138280257D02*
X143687090Y-138327876D01*
X143687090Y-138327876D02*
X143591852Y-138327876D01*
X143591852Y-138327876D02*
X143448995Y-138280257D01*
X143448995Y-138280257D02*
X143353757Y-138185018D01*
X143353757Y-138185018D02*
X143306138Y-138089780D01*
X143306138Y-138089780D02*
X143258519Y-137899304D01*
X143258519Y-137899304D02*
X143258519Y-137756447D01*
X143258519Y-137756447D02*
X143306138Y-137565971D01*
X143306138Y-137565971D02*
X143353757Y-137470733D01*
X143353757Y-137470733D02*
X143448995Y-137375495D01*
X143448995Y-137375495D02*
X143591852Y-137327876D01*
X143591852Y-137327876D02*
X143687090Y-137327876D01*
X143687090Y-137327876D02*
X143829947Y-137375495D01*
X143829947Y-137375495D02*
X143877566Y-137423114D01*
X144591852Y-137327876D02*
X144591852Y-138042161D01*
X144591852Y-138042161D02*
X144544233Y-138185018D01*
X144544233Y-138185018D02*
X144448995Y-138280257D01*
X144448995Y-138280257D02*
X144306138Y-138327876D01*
X144306138Y-138327876D02*
X144210900Y-138327876D01*
X145544233Y-138327876D02*
X145068043Y-138327876D01*
X145068043Y-138327876D02*
X145068043Y-137327876D01*
X146448995Y-138232637D02*
X146401376Y-138280257D01*
X146401376Y-138280257D02*
X146258519Y-138327876D01*
X146258519Y-138327876D02*
X146163281Y-138327876D01*
X146163281Y-138327876D02*
X146020424Y-138280257D01*
X146020424Y-138280257D02*
X145925186Y-138185018D01*
X145925186Y-138185018D02*
X145877567Y-138089780D01*
X145877567Y-138089780D02*
X145829948Y-137899304D01*
X145829948Y-137899304D02*
X145829948Y-137756447D01*
X145829948Y-137756447D02*
X145877567Y-137565971D01*
X145877567Y-137565971D02*
X145925186Y-137470733D01*
X145925186Y-137470733D02*
X146020424Y-137375495D01*
X146020424Y-137375495D02*
X146163281Y-137327876D01*
X146163281Y-137327876D02*
X146258519Y-137327876D01*
X146258519Y-137327876D02*
X146401376Y-137375495D01*
X146401376Y-137375495D02*
X146448995Y-137423114D01*
X147163281Y-137327876D02*
X147163281Y-138042161D01*
X147163281Y-138042161D02*
X147115662Y-138185018D01*
X147115662Y-138185018D02*
X147020424Y-138280257D01*
X147020424Y-138280257D02*
X146877567Y-138327876D01*
X146877567Y-138327876D02*
X146782329Y-138327876D01*
X148115662Y-138327876D02*
X147639472Y-138327876D01*
X147639472Y-138327876D02*
X147639472Y-137327876D01*
X149020424Y-138232637D02*
X148972805Y-138280257D01*
X148972805Y-138280257D02*
X148829948Y-138327876D01*
X148829948Y-138327876D02*
X148734710Y-138327876D01*
X148734710Y-138327876D02*
X148591853Y-138280257D01*
X148591853Y-138280257D02*
X148496615Y-138185018D01*
X148496615Y-138185018D02*
X148448996Y-138089780D01*
X148448996Y-138089780D02*
X148401377Y-137899304D01*
X148401377Y-137899304D02*
X148401377Y-137756447D01*
X148401377Y-137756447D02*
X148448996Y-137565971D01*
X148448996Y-137565971D02*
X148496615Y-137470733D01*
X148496615Y-137470733D02*
X148591853Y-137375495D01*
X148591853Y-137375495D02*
X148734710Y-137327876D01*
X148734710Y-137327876D02*
X148829948Y-137327876D01*
X148829948Y-137327876D02*
X148972805Y-137375495D01*
X148972805Y-137375495D02*
X149020424Y-137423114D01*
X149734710Y-137327876D02*
X149734710Y-138042161D01*
X149734710Y-138042161D02*
X149687091Y-138185018D01*
X149687091Y-138185018D02*
X149591853Y-138280257D01*
X149591853Y-138280257D02*
X149448996Y-138327876D01*
X149448996Y-138327876D02*
X149353758Y-138327876D01*
X150687091Y-138327876D02*
X150210901Y-138327876D01*
X150210901Y-138327876D02*
X150210901Y-137327876D01*
X151591853Y-138232637D02*
X151544234Y-138280257D01*
X151544234Y-138280257D02*
X151401377Y-138327876D01*
X151401377Y-138327876D02*
X151306139Y-138327876D01*
X151306139Y-138327876D02*
X151163282Y-138280257D01*
X151163282Y-138280257D02*
X151068044Y-138185018D01*
X151068044Y-138185018D02*
X151020425Y-138089780D01*
X151020425Y-138089780D02*
X150972806Y-137899304D01*
X150972806Y-137899304D02*
X150972806Y-137756447D01*
X150972806Y-137756447D02*
X151020425Y-137565971D01*
X151020425Y-137565971D02*
X151068044Y-137470733D01*
X151068044Y-137470733D02*
X151163282Y-137375495D01*
X151163282Y-137375495D02*
X151306139Y-137327876D01*
X151306139Y-137327876D02*
X151401377Y-137327876D01*
X151401377Y-137327876D02*
X151544234Y-137375495D01*
X151544234Y-137375495D02*
X151591853Y-137423114D01*
%LPC*%
%LPD*%
M02*
