%TF.GenerationSoftware,KiCad,Pcbnew,7.0.7-7.0.7~ubuntu23.04.1*%
%TF.CreationDate,Date%
%TF.ProjectId,le_capybara_plate,6c655f63-6170-4796-9261-72615f706c61,v0.1*%
%TF.SameCoordinates,PX8bd8a70PY50733a9*%
%TF.FileFunction,Drillmap*%
%TF.FilePolarity,Positive*%
%FSLAX45Y45*%
G04 Gerber Fmt 4.5, Leading zero omitted, Abs format (unit mm)*
G04 Created by KiCad*
%MOMM*%
%LPD*%
G01*
G04 APERTURE LIST*
%ADD10C,0.200000*%
%ADD11C,0.220000*%
%ADD12C,0.398780*%
G04 APERTURE END LIST*
D10*
X7768292Y-5899563D02*
X9505248Y-6112834D01*
X13000263Y-6996607D02*
X13352501Y-6720889D01*
X24349350Y-12254164D02*
G75*
G03*
X24460788Y-12341232I99260J12194D01*
G01*
X17344395Y-14654494D02*
X23002554Y-13959760D01*
X15313947Y-9135806D02*
X14013947Y-9135806D01*
X5019723Y-11927357D02*
X4979547Y-12254570D01*
X3086355Y-11619111D02*
G75*
G03*
X3521694Y-12176319I496255J-60949D01*
G01*
X13660987Y-7114385D02*
G75*
G03*
X13352501Y-6720889I-154247J196745D01*
G01*
X16636342Y-14759971D02*
G75*
G03*
X17055221Y-15032984I209438J-136509D01*
G01*
X13611743Y-6917636D02*
G75*
G03*
X13611743Y-6917636I-105000J0D01*
G01*
X5131165Y-11840286D02*
G75*
G03*
X5019723Y-11927357I-12195J-99244D01*
G01*
X6155813Y-12066852D02*
X6121562Y-12345799D01*
X12273674Y-15033392D02*
X12056088Y-14699552D01*
X5574672Y-6512416D02*
X5582675Y-6513399D01*
X25807199Y-12175911D02*
G75*
G03*
X26242538Y-11618705I-60919J496261D01*
G01*
X9609729Y-6246564D02*
X9583984Y-6456240D01*
X23002554Y-13959759D02*
G75*
G03*
X23176689Y-13736877I-24374J198509D01*
G01*
X12720579Y-13914990D02*
X16608264Y-13914636D01*
X24349347Y-12254164D02*
X24309170Y-11926951D01*
X5487603Y-6400975D02*
G75*
G03*
X5574672Y-6512416I99257J-12185D01*
G01*
X6152205Y-13737283D02*
X6354315Y-12091221D01*
X5659546Y-12005918D02*
G75*
G03*
X5572472Y-11894475I-99266J12178D01*
G01*
X5625289Y-12284864D02*
X5659540Y-12005917D01*
X21720071Y-6213315D02*
G75*
G03*
X21853807Y-6317795I119129J14655D01*
G01*
X6326340Y-13960166D02*
X11984498Y-14654900D01*
X24335684Y-6303549D02*
G75*
G03*
X23836896Y-6364792I-249394J-30621D01*
G01*
X23207331Y-12345393D02*
X23173081Y-12066446D01*
X7475087Y-6318200D02*
G75*
G03*
X7608817Y-6213720I14613J119120D01*
G01*
X19640428Y-6589563D02*
G75*
G03*
X19744910Y-6455834I-14608J119093D01*
G01*
X23207335Y-12345393D02*
G75*
G03*
X23703604Y-12284458I248135J30463D01*
G01*
X14013947Y-7735806D02*
X15313947Y-7735806D01*
X9583985Y-6456240D02*
G75*
G03*
X9688465Y-6589969I119085J-14640D01*
G01*
X13477932Y-7257363D02*
G75*
G03*
X13539500Y-7436170I61558J-78807D01*
G01*
X9609728Y-6246564D02*
G75*
G03*
X9505248Y-6112834I-119118J14614D01*
G01*
X25648849Y-6783501D02*
X26242538Y-11618705D01*
X15927151Y-6917230D02*
G75*
G03*
X15927151Y-6917230I-105000J0D01*
G01*
X12646321Y-6952766D02*
X13000263Y-6996607D01*
X15464069Y-9434813D02*
X15464069Y-13534813D01*
X13539500Y-7436170D02*
X15789529Y-7435847D01*
X24352305Y-6438942D02*
X25091641Y-6348163D01*
X16328630Y-6996201D02*
X16682573Y-6952360D01*
X15364069Y-13634813D02*
X13964069Y-13634813D01*
X13660985Y-7114383D02*
X13477930Y-7257360D01*
X5491997Y-6365198D02*
G75*
G03*
X4993213Y-6303955I-249392J30621D01*
G01*
X21853807Y-6317795D02*
X23495992Y-6116160D01*
X5625289Y-12284864D02*
G75*
G03*
X6121562Y-12345799I248137J-30467D01*
G01*
X16170920Y-6872985D02*
X16328630Y-6996201D01*
X4237252Y-6348569D02*
X4976589Y-6439348D01*
X5832901Y-6116571D02*
G75*
G03*
X5721460Y-6203634I-12191J-99249D01*
G01*
X12720579Y-13914988D02*
G75*
G03*
X12621475Y-14001701I11J-100002D01*
G01*
X12646323Y-6952766D02*
G75*
G03*
X12058733Y-6880619I-300253J-16524D01*
G01*
X23756422Y-11894072D02*
G75*
G03*
X23669354Y-12005511I12178J-99248D01*
G01*
X15976392Y-6720482D02*
X16170920Y-6872985D01*
X4237252Y-6348570D02*
G75*
G03*
X3680044Y-6783907I-60922J-496290D01*
G01*
X13864077Y-13534813D02*
G75*
G03*
X13964069Y-13634813I100023J23D01*
G01*
X19744910Y-6455834D02*
X19719165Y-6246158D01*
X23669354Y-12005511D02*
X23703604Y-12284458D01*
X23560468Y-12314926D02*
G75*
G03*
X23560468Y-12314926I-105000J0D01*
G01*
X5832902Y-6116566D02*
X7475087Y-6318201D01*
X15363954Y-7785806D02*
G75*
G03*
X15313947Y-7735806I-50004J-4D01*
G01*
X25807199Y-12175913D02*
X24460788Y-12341232D01*
X23607431Y-6203228D02*
G75*
G03*
X23495992Y-6116160I-99251J-12182D01*
G01*
X17272806Y-14699146D02*
X17055220Y-15032986D01*
X15363947Y-7785806D02*
X15363947Y-9085806D01*
X4868105Y-12341637D02*
G75*
G03*
X4979547Y-12254570I12185J99257D01*
G01*
X5582675Y-6513397D02*
G75*
G03*
X5694116Y-6426331I12185J99257D01*
G01*
X16707385Y-14001340D02*
X16774719Y-14503251D01*
X23634779Y-6425925D02*
G75*
G03*
X23746219Y-6512993I99261J12195D01*
G01*
X13964069Y-9334813D02*
X15364069Y-9334813D01*
X16707385Y-14001340D02*
G75*
G03*
X16608264Y-13914636I-99115J-13300D01*
G01*
X19823646Y-6112429D02*
X21560602Y-5899157D01*
X12588114Y-14896882D02*
G75*
G03*
X12588114Y-14896882I-105000J0D01*
G01*
X24191288Y-6334171D02*
G75*
G03*
X24191288Y-6334171I-105000J0D01*
G01*
X23836896Y-6364792D02*
X23841289Y-6400569D01*
X23607433Y-6203228D02*
X23634777Y-6425925D01*
X13964069Y-9334809D02*
G75*
G03*
X13864069Y-9434813I1J-100001D01*
G01*
X25648854Y-6783501D02*
G75*
G03*
X25091641Y-6348163I-496284J-60949D01*
G01*
X12273673Y-15033389D02*
G75*
G03*
X12692555Y-14760375I209444J136503D01*
G01*
X9688465Y-6589970D02*
X12058733Y-6880619D01*
X17270160Y-6880213D02*
X19640428Y-6589564D01*
X15313947Y-9135807D02*
G75*
G03*
X15363947Y-9085806I3J49997D01*
G01*
X24309168Y-11926952D02*
G75*
G03*
X24197729Y-11839884I-99248J-12178D01*
G01*
X15464067Y-9434813D02*
G75*
G03*
X15364069Y-9334813I-99997J3D01*
G01*
X16636338Y-14759969D02*
X16759388Y-14571135D01*
X15976392Y-6720483D02*
G75*
G03*
X15667909Y-7113977I-154242J-196747D01*
G01*
X13963947Y-9085806D02*
X13963947Y-7785806D01*
X15789529Y-7435849D02*
G75*
G03*
X15851070Y-7257038I-9J99999D01*
G01*
X16950780Y-14896476D02*
G75*
G03*
X16950780Y-14896476I-105000J0D01*
G01*
X4868105Y-12341638D02*
X3521694Y-12176319D01*
X23756422Y-11894069D02*
X24197729Y-11839884D01*
X5131165Y-11840290D02*
X5572472Y-11894475D01*
X12554177Y-14503658D02*
G75*
G03*
X12569505Y-14571541I99113J-13292D01*
G01*
X12569505Y-14571541D02*
X12692555Y-14760375D01*
X5487605Y-6400975D02*
X5491997Y-6365198D01*
X17344396Y-14654496D02*
G75*
G03*
X17272806Y-14699146I12184J-99254D01*
G01*
X17270160Y-6880213D02*
G75*
G03*
X16682573Y-6952360I-287335J-88673D01*
G01*
X21694332Y-6003638D02*
X21720076Y-6213314D01*
X23173082Y-12066442D02*
G75*
G03*
X22974578Y-12090815I-99252J-12188D01*
G01*
X24352260Y-6438580D02*
X24335681Y-6303549D01*
X16759388Y-14571135D02*
G75*
G03*
X16774719Y-14503251I-83778J54595D01*
G01*
X6152205Y-13737283D02*
G75*
G03*
X6326340Y-13960166I198505J-24377D01*
G01*
X13864069Y-13534813D02*
X13864069Y-9434813D01*
X19823646Y-6112427D02*
G75*
G03*
X19719165Y-6246158I14634J-119113D01*
G01*
X23746219Y-6512993D02*
X23754221Y-6512010D01*
X7608817Y-6213720D02*
X7634562Y-6004044D01*
X5978426Y-12315332D02*
G75*
G03*
X5978426Y-12315332I-105000J0D01*
G01*
X12554174Y-14503657D02*
X12621475Y-14001701D01*
X5694116Y-6426331D02*
X5721460Y-6203634D01*
X12056089Y-14699551D02*
G75*
G03*
X11984498Y-14654900I-83779J-54609D01*
G01*
X15851070Y-7257038D02*
X15667909Y-7113977D01*
X13963954Y-9085806D02*
G75*
G03*
X14013947Y-9135806I49996J-4D01*
G01*
X5347605Y-6334577D02*
G75*
G03*
X5347605Y-6334577I-105000J0D01*
G01*
X15364069Y-13634819D02*
G75*
G03*
X15464069Y-13534813I-9J100009D01*
G01*
X14013947Y-7735807D02*
G75*
G03*
X13963947Y-7785806I3J-50003D01*
G01*
X3086356Y-11619111D02*
X3680044Y-6783907D01*
X4993213Y-6303955D02*
X4976633Y-6438986D01*
X21694340Y-6003637D02*
G75*
G03*
X21560602Y-5899157I-119120J-14643D01*
G01*
X23754221Y-6512008D02*
G75*
G03*
X23841289Y-6400569I-12191J99258D01*
G01*
X22974578Y-12090815D02*
X23176689Y-13736877D01*
X6354308Y-12091220D02*
G75*
G03*
X6155813Y-12066848I-99248J12180D01*
G01*
X7768292Y-5899557D02*
G75*
G03*
X7634562Y-6004044I-14603J-119133D01*
G01*
D11*
X4150380Y-10185944D02*
X4370380Y-10405944D01*
X4370380Y-10185944D02*
X4150380Y-10405944D01*
X4382542Y-8295144D02*
X4602542Y-8515144D01*
X4602542Y-8295144D02*
X4382542Y-8515144D01*
X6099221Y-9945405D02*
X6319221Y-10165405D01*
X6319221Y-9945405D02*
X6099221Y-10165405D01*
X6331382Y-8054604D02*
X6551382Y-8274604D01*
X6551382Y-8054604D02*
X6331382Y-8274604D01*
X7815284Y-11595585D02*
X8035284Y-11815585D01*
X8035284Y-11595585D02*
X7815284Y-11815585D01*
X8047445Y-9704784D02*
X8267445Y-9924784D01*
X8267445Y-9704784D02*
X8047445Y-9924784D01*
X8280223Y-7814065D02*
X8500223Y-8034065D01*
X8500223Y-7814065D02*
X8280223Y-8034065D01*
X8350213Y-13100745D02*
X8570213Y-13320745D01*
X8570213Y-13100745D02*
X8350213Y-13320745D01*
X9880205Y-10409646D02*
X10100205Y-10629646D01*
X10100205Y-10409646D02*
X9880205Y-10629646D01*
X10112983Y-8518927D02*
X10332983Y-8738927D01*
X10332983Y-8518927D02*
X10112983Y-8738927D01*
X12003167Y-8751006D02*
X12223167Y-8971006D01*
X12223167Y-8751006D02*
X12003167Y-8971006D01*
X12235944Y-6860287D02*
X12455944Y-7080287D01*
X12455944Y-6860287D02*
X12235944Y-7080287D01*
X12431814Y-13565067D02*
X12651814Y-13785067D01*
X12651814Y-13565067D02*
X12431814Y-13785067D01*
X12836675Y-11732307D02*
X13056675Y-11952307D01*
X13056675Y-11732307D02*
X12836675Y-11952307D01*
X13068837Y-9841507D02*
X13288837Y-10061507D01*
X13288837Y-9841507D02*
X13068837Y-10061507D01*
X13300997Y-7950706D02*
X13520997Y-8170706D01*
X13520997Y-7950706D02*
X13300997Y-8170706D01*
X15806897Y-7950706D02*
X16026897Y-8170706D01*
X16026897Y-7950706D02*
X15806897Y-8170706D01*
X16039058Y-9841507D02*
X16259058Y-10061507D01*
X16259058Y-9841507D02*
X16039058Y-10061507D01*
X16271219Y-11732307D02*
X16491219Y-11952307D01*
X16491219Y-11732307D02*
X16271219Y-11952307D01*
X16676080Y-13565067D02*
X16896080Y-13785067D01*
X16896080Y-13565067D02*
X16676080Y-13785067D01*
X16871950Y-6860287D02*
X17091950Y-7080287D01*
X17091950Y-6860287D02*
X16871950Y-7080287D01*
X17104727Y-8751006D02*
X17324727Y-8971006D01*
X17324727Y-8751006D02*
X17104727Y-8971006D01*
X18994911Y-8518927D02*
X19214911Y-8738927D01*
X19214911Y-8518927D02*
X18994911Y-8738927D01*
X19227689Y-10409645D02*
X19447689Y-10629645D01*
X19447689Y-10409645D02*
X19227689Y-10629645D01*
X20757681Y-13100745D02*
X20977681Y-13320745D01*
X20977681Y-13100745D02*
X20757681Y-13320745D01*
X20827672Y-7814065D02*
X21047672Y-8034065D01*
X21047672Y-7814065D02*
X20827672Y-8034065D01*
X21060449Y-9704784D02*
X21280449Y-9924784D01*
X21280449Y-9704784D02*
X21060449Y-9924784D01*
X21292610Y-11595584D02*
X21512610Y-11815584D01*
X21512610Y-11595584D02*
X21292610Y-11815584D01*
X22776512Y-8054604D02*
X22996512Y-8274604D01*
X22996512Y-8054604D02*
X22776512Y-8274604D01*
X23008673Y-9945405D02*
X23228673Y-10165405D01*
X23228673Y-9945405D02*
X23008673Y-10165405D01*
X24725352Y-8295143D02*
X24945352Y-8515144D01*
X24945352Y-8295143D02*
X24725352Y-8515144D01*
X24957514Y-10185944D02*
X25177514Y-10405944D01*
X25177514Y-10185944D02*
X24957514Y-10405944D01*
D12*
X14863337Y-8435806D02*
G75*
G03*
X14863337Y-8435806I-199390J0D01*
G01*
D10*
X3333403Y-15468369D02*
X3333403Y-15268369D01*
X3333403Y-15268369D02*
X3381022Y-15268369D01*
X3381022Y-15268369D02*
X3409593Y-15277893D01*
X3409593Y-15277893D02*
X3428641Y-15296941D01*
X3428641Y-15296941D02*
X3438165Y-15315988D01*
X3438165Y-15315988D02*
X3447689Y-15354084D01*
X3447689Y-15354084D02*
X3447689Y-15382655D01*
X3447689Y-15382655D02*
X3438165Y-15420750D01*
X3438165Y-15420750D02*
X3428641Y-15439798D01*
X3428641Y-15439798D02*
X3409593Y-15458846D01*
X3409593Y-15458846D02*
X3381022Y-15468369D01*
X3381022Y-15468369D02*
X3333403Y-15468369D01*
X3533403Y-15468369D02*
X3533403Y-15335036D01*
X3533403Y-15373131D02*
X3542927Y-15354084D01*
X3542927Y-15354084D02*
X3552450Y-15344560D01*
X3552450Y-15344560D02*
X3571498Y-15335036D01*
X3571498Y-15335036D02*
X3590546Y-15335036D01*
X3657212Y-15468369D02*
X3657212Y-15335036D01*
X3657212Y-15268369D02*
X3647689Y-15277893D01*
X3647689Y-15277893D02*
X3657212Y-15287417D01*
X3657212Y-15287417D02*
X3666736Y-15277893D01*
X3666736Y-15277893D02*
X3657212Y-15268369D01*
X3657212Y-15268369D02*
X3657212Y-15287417D01*
X3781022Y-15468369D02*
X3761974Y-15458846D01*
X3761974Y-15458846D02*
X3752450Y-15439798D01*
X3752450Y-15439798D02*
X3752450Y-15268369D01*
X3885784Y-15468369D02*
X3866736Y-15458846D01*
X3866736Y-15458846D02*
X3857212Y-15439798D01*
X3857212Y-15439798D02*
X3857212Y-15268369D01*
X4114355Y-15468369D02*
X4114355Y-15268369D01*
X4114355Y-15268369D02*
X4181022Y-15411227D01*
X4181022Y-15411227D02*
X4247689Y-15268369D01*
X4247689Y-15268369D02*
X4247689Y-15468369D01*
X4428641Y-15468369D02*
X4428641Y-15363608D01*
X4428641Y-15363608D02*
X4419117Y-15344560D01*
X4419117Y-15344560D02*
X4400070Y-15335036D01*
X4400070Y-15335036D02*
X4361974Y-15335036D01*
X4361974Y-15335036D02*
X4342927Y-15344560D01*
X4428641Y-15458846D02*
X4409593Y-15468369D01*
X4409593Y-15468369D02*
X4361974Y-15468369D01*
X4361974Y-15468369D02*
X4342927Y-15458846D01*
X4342927Y-15458846D02*
X4333403Y-15439798D01*
X4333403Y-15439798D02*
X4333403Y-15420750D01*
X4333403Y-15420750D02*
X4342927Y-15401703D01*
X4342927Y-15401703D02*
X4361974Y-15392179D01*
X4361974Y-15392179D02*
X4409593Y-15392179D01*
X4409593Y-15392179D02*
X4428641Y-15382655D01*
X4523879Y-15335036D02*
X4523879Y-15535036D01*
X4523879Y-15344560D02*
X4542927Y-15335036D01*
X4542927Y-15335036D02*
X4581022Y-15335036D01*
X4581022Y-15335036D02*
X4600070Y-15344560D01*
X4600070Y-15344560D02*
X4609593Y-15354084D01*
X4609593Y-15354084D02*
X4619117Y-15373131D01*
X4619117Y-15373131D02*
X4619117Y-15430274D01*
X4619117Y-15430274D02*
X4609593Y-15449322D01*
X4609593Y-15449322D02*
X4600070Y-15458846D01*
X4600070Y-15458846D02*
X4581022Y-15468369D01*
X4581022Y-15468369D02*
X4542927Y-15468369D01*
X4542927Y-15468369D02*
X4523879Y-15458846D01*
X4704832Y-15449322D02*
X4714355Y-15458846D01*
X4714355Y-15458846D02*
X4704832Y-15468369D01*
X4704832Y-15468369D02*
X4695308Y-15458846D01*
X4695308Y-15458846D02*
X4704832Y-15449322D01*
X4704832Y-15449322D02*
X4704832Y-15468369D01*
X4704832Y-15344560D02*
X4714355Y-15354084D01*
X4714355Y-15354084D02*
X4704832Y-15363608D01*
X4704832Y-15363608D02*
X4695308Y-15354084D01*
X4695308Y-15354084D02*
X4704832Y-15344560D01*
X4704832Y-15344560D02*
X4704832Y-15363608D01*
X2872626Y-15696886D02*
X3072626Y-15896886D01*
X3072626Y-15696886D02*
X2872626Y-15896886D01*
X3323879Y-15707417D02*
X3333403Y-15697893D01*
X3333403Y-15697893D02*
X3352450Y-15688369D01*
X3352450Y-15688369D02*
X3400070Y-15688369D01*
X3400070Y-15688369D02*
X3419117Y-15697893D01*
X3419117Y-15697893D02*
X3428641Y-15707417D01*
X3428641Y-15707417D02*
X3438165Y-15726465D01*
X3438165Y-15726465D02*
X3438165Y-15745512D01*
X3438165Y-15745512D02*
X3428641Y-15774084D01*
X3428641Y-15774084D02*
X3314355Y-15888369D01*
X3314355Y-15888369D02*
X3438165Y-15888369D01*
X3523879Y-15869322D02*
X3533403Y-15878846D01*
X3533403Y-15878846D02*
X3523879Y-15888369D01*
X3523879Y-15888369D02*
X3514355Y-15878846D01*
X3514355Y-15878846D02*
X3523879Y-15869322D01*
X3523879Y-15869322D02*
X3523879Y-15888369D01*
X3609593Y-15707417D02*
X3619117Y-15697893D01*
X3619117Y-15697893D02*
X3638165Y-15688369D01*
X3638165Y-15688369D02*
X3685784Y-15688369D01*
X3685784Y-15688369D02*
X3704831Y-15697893D01*
X3704831Y-15697893D02*
X3714355Y-15707417D01*
X3714355Y-15707417D02*
X3723879Y-15726465D01*
X3723879Y-15726465D02*
X3723879Y-15745512D01*
X3723879Y-15745512D02*
X3714355Y-15774084D01*
X3714355Y-15774084D02*
X3600070Y-15888369D01*
X3600070Y-15888369D02*
X3723879Y-15888369D01*
X3847689Y-15688369D02*
X3866736Y-15688369D01*
X3866736Y-15688369D02*
X3885784Y-15697893D01*
X3885784Y-15697893D02*
X3895308Y-15707417D01*
X3895308Y-15707417D02*
X3904831Y-15726465D01*
X3904831Y-15726465D02*
X3914355Y-15764560D01*
X3914355Y-15764560D02*
X3914355Y-15812179D01*
X3914355Y-15812179D02*
X3904831Y-15850274D01*
X3904831Y-15850274D02*
X3895308Y-15869322D01*
X3895308Y-15869322D02*
X3885784Y-15878846D01*
X3885784Y-15878846D02*
X3866736Y-15888369D01*
X3866736Y-15888369D02*
X3847689Y-15888369D01*
X3847689Y-15888369D02*
X3828641Y-15878846D01*
X3828641Y-15878846D02*
X3819117Y-15869322D01*
X3819117Y-15869322D02*
X3809593Y-15850274D01*
X3809593Y-15850274D02*
X3800070Y-15812179D01*
X3800070Y-15812179D02*
X3800070Y-15764560D01*
X3800070Y-15764560D02*
X3809593Y-15726465D01*
X3809593Y-15726465D02*
X3819117Y-15707417D01*
X3819117Y-15707417D02*
X3828641Y-15697893D01*
X3828641Y-15697893D02*
X3847689Y-15688369D01*
X4038165Y-15688369D02*
X4057212Y-15688369D01*
X4057212Y-15688369D02*
X4076260Y-15697893D01*
X4076260Y-15697893D02*
X4085784Y-15707417D01*
X4085784Y-15707417D02*
X4095308Y-15726465D01*
X4095308Y-15726465D02*
X4104831Y-15764560D01*
X4104831Y-15764560D02*
X4104831Y-15812179D01*
X4104831Y-15812179D02*
X4095308Y-15850274D01*
X4095308Y-15850274D02*
X4085784Y-15869322D01*
X4085784Y-15869322D02*
X4076260Y-15878846D01*
X4076260Y-15878846D02*
X4057212Y-15888369D01*
X4057212Y-15888369D02*
X4038165Y-15888369D01*
X4038165Y-15888369D02*
X4019117Y-15878846D01*
X4019117Y-15878846D02*
X4009593Y-15869322D01*
X4009593Y-15869322D02*
X4000070Y-15850274D01*
X4000070Y-15850274D02*
X3990546Y-15812179D01*
X3990546Y-15812179D02*
X3990546Y-15764560D01*
X3990546Y-15764560D02*
X4000070Y-15726465D01*
X4000070Y-15726465D02*
X4009593Y-15707417D01*
X4009593Y-15707417D02*
X4019117Y-15697893D01*
X4019117Y-15697893D02*
X4038165Y-15688369D01*
X4190546Y-15888369D02*
X4190546Y-15755036D01*
X4190546Y-15774084D02*
X4200070Y-15764560D01*
X4200070Y-15764560D02*
X4219117Y-15755036D01*
X4219117Y-15755036D02*
X4247689Y-15755036D01*
X4247689Y-15755036D02*
X4266736Y-15764560D01*
X4266736Y-15764560D02*
X4276260Y-15783608D01*
X4276260Y-15783608D02*
X4276260Y-15888369D01*
X4276260Y-15783608D02*
X4285784Y-15764560D01*
X4285784Y-15764560D02*
X4304832Y-15755036D01*
X4304832Y-15755036D02*
X4333403Y-15755036D01*
X4333403Y-15755036D02*
X4352451Y-15764560D01*
X4352451Y-15764560D02*
X4361974Y-15783608D01*
X4361974Y-15783608D02*
X4361974Y-15888369D01*
X4457213Y-15888369D02*
X4457213Y-15755036D01*
X4457213Y-15774084D02*
X4466736Y-15764560D01*
X4466736Y-15764560D02*
X4485784Y-15755036D01*
X4485784Y-15755036D02*
X4514355Y-15755036D01*
X4514355Y-15755036D02*
X4533403Y-15764560D01*
X4533403Y-15764560D02*
X4542927Y-15783608D01*
X4542927Y-15783608D02*
X4542927Y-15888369D01*
X4542927Y-15783608D02*
X4552451Y-15764560D01*
X4552451Y-15764560D02*
X4571498Y-15755036D01*
X4571498Y-15755036D02*
X4600070Y-15755036D01*
X4600070Y-15755036D02*
X4619117Y-15764560D01*
X4619117Y-15764560D02*
X4628641Y-15783608D01*
X4628641Y-15783608D02*
X4628641Y-15888369D01*
X5019117Y-15678846D02*
X4847689Y-15935988D01*
X5276260Y-15688369D02*
X5295308Y-15688369D01*
X5295308Y-15688369D02*
X5314356Y-15697893D01*
X5314356Y-15697893D02*
X5323879Y-15707417D01*
X5323879Y-15707417D02*
X5333403Y-15726465D01*
X5333403Y-15726465D02*
X5342927Y-15764560D01*
X5342927Y-15764560D02*
X5342927Y-15812179D01*
X5342927Y-15812179D02*
X5333403Y-15850274D01*
X5333403Y-15850274D02*
X5323879Y-15869322D01*
X5323879Y-15869322D02*
X5314356Y-15878846D01*
X5314356Y-15878846D02*
X5295308Y-15888369D01*
X5295308Y-15888369D02*
X5276260Y-15888369D01*
X5276260Y-15888369D02*
X5257213Y-15878846D01*
X5257213Y-15878846D02*
X5247689Y-15869322D01*
X5247689Y-15869322D02*
X5238165Y-15850274D01*
X5238165Y-15850274D02*
X5228641Y-15812179D01*
X5228641Y-15812179D02*
X5228641Y-15764560D01*
X5228641Y-15764560D02*
X5238165Y-15726465D01*
X5238165Y-15726465D02*
X5247689Y-15707417D01*
X5247689Y-15707417D02*
X5257213Y-15697893D01*
X5257213Y-15697893D02*
X5276260Y-15688369D01*
X5428641Y-15869322D02*
X5438165Y-15878846D01*
X5438165Y-15878846D02*
X5428641Y-15888369D01*
X5428641Y-15888369D02*
X5419117Y-15878846D01*
X5419117Y-15878846D02*
X5428641Y-15869322D01*
X5428641Y-15869322D02*
X5428641Y-15888369D01*
X5561975Y-15688369D02*
X5581022Y-15688369D01*
X5581022Y-15688369D02*
X5600070Y-15697893D01*
X5600070Y-15697893D02*
X5609594Y-15707417D01*
X5609594Y-15707417D02*
X5619117Y-15726465D01*
X5619117Y-15726465D02*
X5628641Y-15764560D01*
X5628641Y-15764560D02*
X5628641Y-15812179D01*
X5628641Y-15812179D02*
X5619117Y-15850274D01*
X5619117Y-15850274D02*
X5609594Y-15869322D01*
X5609594Y-15869322D02*
X5600070Y-15878846D01*
X5600070Y-15878846D02*
X5581022Y-15888369D01*
X5581022Y-15888369D02*
X5561975Y-15888369D01*
X5561975Y-15888369D02*
X5542927Y-15878846D01*
X5542927Y-15878846D02*
X5533403Y-15869322D01*
X5533403Y-15869322D02*
X5523879Y-15850274D01*
X5523879Y-15850274D02*
X5514356Y-15812179D01*
X5514356Y-15812179D02*
X5514356Y-15764560D01*
X5514356Y-15764560D02*
X5523879Y-15726465D01*
X5523879Y-15726465D02*
X5533403Y-15707417D01*
X5533403Y-15707417D02*
X5542927Y-15697893D01*
X5542927Y-15697893D02*
X5561975Y-15688369D01*
X5742927Y-15774084D02*
X5723879Y-15764560D01*
X5723879Y-15764560D02*
X5714355Y-15755036D01*
X5714355Y-15755036D02*
X5704832Y-15735988D01*
X5704832Y-15735988D02*
X5704832Y-15726465D01*
X5704832Y-15726465D02*
X5714355Y-15707417D01*
X5714355Y-15707417D02*
X5723879Y-15697893D01*
X5723879Y-15697893D02*
X5742927Y-15688369D01*
X5742927Y-15688369D02*
X5781022Y-15688369D01*
X5781022Y-15688369D02*
X5800070Y-15697893D01*
X5800070Y-15697893D02*
X5809594Y-15707417D01*
X5809594Y-15707417D02*
X5819117Y-15726465D01*
X5819117Y-15726465D02*
X5819117Y-15735988D01*
X5819117Y-15735988D02*
X5809594Y-15755036D01*
X5809594Y-15755036D02*
X5800070Y-15764560D01*
X5800070Y-15764560D02*
X5781022Y-15774084D01*
X5781022Y-15774084D02*
X5742927Y-15774084D01*
X5742927Y-15774084D02*
X5723879Y-15783608D01*
X5723879Y-15783608D02*
X5714355Y-15793131D01*
X5714355Y-15793131D02*
X5704832Y-15812179D01*
X5704832Y-15812179D02*
X5704832Y-15850274D01*
X5704832Y-15850274D02*
X5714355Y-15869322D01*
X5714355Y-15869322D02*
X5723879Y-15878846D01*
X5723879Y-15878846D02*
X5742927Y-15888369D01*
X5742927Y-15888369D02*
X5781022Y-15888369D01*
X5781022Y-15888369D02*
X5800070Y-15878846D01*
X5800070Y-15878846D02*
X5809594Y-15869322D01*
X5809594Y-15869322D02*
X5819117Y-15850274D01*
X5819117Y-15850274D02*
X5819117Y-15812179D01*
X5819117Y-15812179D02*
X5809594Y-15793131D01*
X5809594Y-15793131D02*
X5800070Y-15783608D01*
X5800070Y-15783608D02*
X5781022Y-15774084D01*
X5990546Y-15688369D02*
X5952451Y-15688369D01*
X5952451Y-15688369D02*
X5933403Y-15697893D01*
X5933403Y-15697893D02*
X5923879Y-15707417D01*
X5923879Y-15707417D02*
X5904832Y-15735988D01*
X5904832Y-15735988D02*
X5895308Y-15774084D01*
X5895308Y-15774084D02*
X5895308Y-15850274D01*
X5895308Y-15850274D02*
X5904832Y-15869322D01*
X5904832Y-15869322D02*
X5914355Y-15878846D01*
X5914355Y-15878846D02*
X5933403Y-15888369D01*
X5933403Y-15888369D02*
X5971498Y-15888369D01*
X5971498Y-15888369D02*
X5990546Y-15878846D01*
X5990546Y-15878846D02*
X6000070Y-15869322D01*
X6000070Y-15869322D02*
X6009594Y-15850274D01*
X6009594Y-15850274D02*
X6009594Y-15802655D01*
X6009594Y-15802655D02*
X6000070Y-15783608D01*
X6000070Y-15783608D02*
X5990546Y-15774084D01*
X5990546Y-15774084D02*
X5971498Y-15764560D01*
X5971498Y-15764560D02*
X5933403Y-15764560D01*
X5933403Y-15764560D02*
X5914355Y-15774084D01*
X5914355Y-15774084D02*
X5904832Y-15783608D01*
X5904832Y-15783608D02*
X5895308Y-15802655D01*
X6181022Y-15688369D02*
X6142927Y-15688369D01*
X6142927Y-15688369D02*
X6123879Y-15697893D01*
X6123879Y-15697893D02*
X6114355Y-15707417D01*
X6114355Y-15707417D02*
X6095308Y-15735988D01*
X6095308Y-15735988D02*
X6085784Y-15774084D01*
X6085784Y-15774084D02*
X6085784Y-15850274D01*
X6085784Y-15850274D02*
X6095308Y-15869322D01*
X6095308Y-15869322D02*
X6104832Y-15878846D01*
X6104832Y-15878846D02*
X6123879Y-15888369D01*
X6123879Y-15888369D02*
X6161975Y-15888369D01*
X6161975Y-15888369D02*
X6181022Y-15878846D01*
X6181022Y-15878846D02*
X6190546Y-15869322D01*
X6190546Y-15869322D02*
X6200070Y-15850274D01*
X6200070Y-15850274D02*
X6200070Y-15802655D01*
X6200070Y-15802655D02*
X6190546Y-15783608D01*
X6190546Y-15783608D02*
X6181022Y-15774084D01*
X6181022Y-15774084D02*
X6161975Y-15764560D01*
X6161975Y-15764560D02*
X6123879Y-15764560D01*
X6123879Y-15764560D02*
X6104832Y-15774084D01*
X6104832Y-15774084D02*
X6095308Y-15783608D01*
X6095308Y-15783608D02*
X6085784Y-15802655D01*
X6276260Y-15688369D02*
X6276260Y-15726465D01*
X6352451Y-15688369D02*
X6352451Y-15726465D01*
X6647689Y-15964560D02*
X6638165Y-15955036D01*
X6638165Y-15955036D02*
X6619117Y-15926465D01*
X6619117Y-15926465D02*
X6609594Y-15907417D01*
X6609594Y-15907417D02*
X6600070Y-15878846D01*
X6600070Y-15878846D02*
X6590546Y-15831227D01*
X6590546Y-15831227D02*
X6590546Y-15793131D01*
X6590546Y-15793131D02*
X6600070Y-15745512D01*
X6600070Y-15745512D02*
X6609594Y-15716941D01*
X6609594Y-15716941D02*
X6619117Y-15697893D01*
X6619117Y-15697893D02*
X6638165Y-15669322D01*
X6638165Y-15669322D02*
X6647689Y-15659798D01*
X6704832Y-15688369D02*
X6828641Y-15688369D01*
X6828641Y-15688369D02*
X6761975Y-15764560D01*
X6761975Y-15764560D02*
X6790546Y-15764560D01*
X6790546Y-15764560D02*
X6809594Y-15774084D01*
X6809594Y-15774084D02*
X6819117Y-15783608D01*
X6819117Y-15783608D02*
X6828641Y-15802655D01*
X6828641Y-15802655D02*
X6828641Y-15850274D01*
X6828641Y-15850274D02*
X6819117Y-15869322D01*
X6819117Y-15869322D02*
X6809594Y-15878846D01*
X6809594Y-15878846D02*
X6790546Y-15888369D01*
X6790546Y-15888369D02*
X6733403Y-15888369D01*
X6733403Y-15888369D02*
X6714356Y-15878846D01*
X6714356Y-15878846D02*
X6704832Y-15869322D01*
X6904832Y-15707417D02*
X6914356Y-15697893D01*
X6914356Y-15697893D02*
X6933403Y-15688369D01*
X6933403Y-15688369D02*
X6981022Y-15688369D01*
X6981022Y-15688369D02*
X7000070Y-15697893D01*
X7000070Y-15697893D02*
X7009594Y-15707417D01*
X7009594Y-15707417D02*
X7019117Y-15726465D01*
X7019117Y-15726465D02*
X7019117Y-15745512D01*
X7019117Y-15745512D02*
X7009594Y-15774084D01*
X7009594Y-15774084D02*
X6895308Y-15888369D01*
X6895308Y-15888369D02*
X7019117Y-15888369D01*
X7257213Y-15888369D02*
X7257213Y-15688369D01*
X7342927Y-15888369D02*
X7342927Y-15783608D01*
X7342927Y-15783608D02*
X7333403Y-15764560D01*
X7333403Y-15764560D02*
X7314356Y-15755036D01*
X7314356Y-15755036D02*
X7285784Y-15755036D01*
X7285784Y-15755036D02*
X7266737Y-15764560D01*
X7266737Y-15764560D02*
X7257213Y-15774084D01*
X7466737Y-15888369D02*
X7447689Y-15878846D01*
X7447689Y-15878846D02*
X7438165Y-15869322D01*
X7438165Y-15869322D02*
X7428641Y-15850274D01*
X7428641Y-15850274D02*
X7428641Y-15793131D01*
X7428641Y-15793131D02*
X7438165Y-15774084D01*
X7438165Y-15774084D02*
X7447689Y-15764560D01*
X7447689Y-15764560D02*
X7466737Y-15755036D01*
X7466737Y-15755036D02*
X7495308Y-15755036D01*
X7495308Y-15755036D02*
X7514356Y-15764560D01*
X7514356Y-15764560D02*
X7523879Y-15774084D01*
X7523879Y-15774084D02*
X7533403Y-15793131D01*
X7533403Y-15793131D02*
X7533403Y-15850274D01*
X7533403Y-15850274D02*
X7523879Y-15869322D01*
X7523879Y-15869322D02*
X7514356Y-15878846D01*
X7514356Y-15878846D02*
X7495308Y-15888369D01*
X7495308Y-15888369D02*
X7466737Y-15888369D01*
X7647689Y-15888369D02*
X7628641Y-15878846D01*
X7628641Y-15878846D02*
X7619118Y-15859798D01*
X7619118Y-15859798D02*
X7619118Y-15688369D01*
X7800070Y-15878846D02*
X7781022Y-15888369D01*
X7781022Y-15888369D02*
X7742927Y-15888369D01*
X7742927Y-15888369D02*
X7723879Y-15878846D01*
X7723879Y-15878846D02*
X7714356Y-15859798D01*
X7714356Y-15859798D02*
X7714356Y-15783608D01*
X7714356Y-15783608D02*
X7723879Y-15764560D01*
X7723879Y-15764560D02*
X7742927Y-15755036D01*
X7742927Y-15755036D02*
X7781022Y-15755036D01*
X7781022Y-15755036D02*
X7800070Y-15764560D01*
X7800070Y-15764560D02*
X7809594Y-15783608D01*
X7809594Y-15783608D02*
X7809594Y-15802655D01*
X7809594Y-15802655D02*
X7714356Y-15821703D01*
X7885784Y-15878846D02*
X7904832Y-15888369D01*
X7904832Y-15888369D02*
X7942927Y-15888369D01*
X7942927Y-15888369D02*
X7961975Y-15878846D01*
X7961975Y-15878846D02*
X7971499Y-15859798D01*
X7971499Y-15859798D02*
X7971499Y-15850274D01*
X7971499Y-15850274D02*
X7961975Y-15831227D01*
X7961975Y-15831227D02*
X7942927Y-15821703D01*
X7942927Y-15821703D02*
X7914356Y-15821703D01*
X7914356Y-15821703D02*
X7895308Y-15812179D01*
X7895308Y-15812179D02*
X7885784Y-15793131D01*
X7885784Y-15793131D02*
X7885784Y-15783608D01*
X7885784Y-15783608D02*
X7895308Y-15764560D01*
X7895308Y-15764560D02*
X7914356Y-15755036D01*
X7914356Y-15755036D02*
X7942927Y-15755036D01*
X7942927Y-15755036D02*
X7961975Y-15764560D01*
X8038165Y-15964560D02*
X8047689Y-15955036D01*
X8047689Y-15955036D02*
X8066737Y-15926465D01*
X8066737Y-15926465D02*
X8076260Y-15907417D01*
X8076260Y-15907417D02*
X8085784Y-15878846D01*
X8085784Y-15878846D02*
X8095308Y-15831227D01*
X8095308Y-15831227D02*
X8095308Y-15793131D01*
X8095308Y-15793131D02*
X8085784Y-15745512D01*
X8085784Y-15745512D02*
X8076260Y-15716941D01*
X8076260Y-15716941D02*
X8066737Y-15697893D01*
X8066737Y-15697893D02*
X8047689Y-15669322D01*
X8047689Y-15669322D02*
X8038165Y-15659798D01*
X8400070Y-15964560D02*
X8390546Y-15955036D01*
X8390546Y-15955036D02*
X8371499Y-15926465D01*
X8371499Y-15926465D02*
X8361975Y-15907417D01*
X8361975Y-15907417D02*
X8352451Y-15878846D01*
X8352451Y-15878846D02*
X8342927Y-15831227D01*
X8342927Y-15831227D02*
X8342927Y-15793131D01*
X8342927Y-15793131D02*
X8352451Y-15745512D01*
X8352451Y-15745512D02*
X8361975Y-15716941D01*
X8361975Y-15716941D02*
X8371499Y-15697893D01*
X8371499Y-15697893D02*
X8390546Y-15669322D01*
X8390546Y-15669322D02*
X8400070Y-15659798D01*
X8476261Y-15755036D02*
X8476261Y-15888369D01*
X8476261Y-15774084D02*
X8485784Y-15764560D01*
X8485784Y-15764560D02*
X8504832Y-15755036D01*
X8504832Y-15755036D02*
X8533403Y-15755036D01*
X8533403Y-15755036D02*
X8552451Y-15764560D01*
X8552451Y-15764560D02*
X8561975Y-15783608D01*
X8561975Y-15783608D02*
X8561975Y-15888369D01*
X8685784Y-15888369D02*
X8666737Y-15878846D01*
X8666737Y-15878846D02*
X8657213Y-15869322D01*
X8657213Y-15869322D02*
X8647689Y-15850274D01*
X8647689Y-15850274D02*
X8647689Y-15793131D01*
X8647689Y-15793131D02*
X8657213Y-15774084D01*
X8657213Y-15774084D02*
X8666737Y-15764560D01*
X8666737Y-15764560D02*
X8685784Y-15755036D01*
X8685784Y-15755036D02*
X8714356Y-15755036D01*
X8714356Y-15755036D02*
X8733403Y-15764560D01*
X8733403Y-15764560D02*
X8742927Y-15774084D01*
X8742927Y-15774084D02*
X8752451Y-15793131D01*
X8752451Y-15793131D02*
X8752451Y-15850274D01*
X8752451Y-15850274D02*
X8742927Y-15869322D01*
X8742927Y-15869322D02*
X8733403Y-15878846D01*
X8733403Y-15878846D02*
X8714356Y-15888369D01*
X8714356Y-15888369D02*
X8685784Y-15888369D01*
X8809594Y-15755036D02*
X8885784Y-15755036D01*
X8838165Y-15688369D02*
X8838165Y-15859798D01*
X8838165Y-15859798D02*
X8847689Y-15878846D01*
X8847689Y-15878846D02*
X8866737Y-15888369D01*
X8866737Y-15888369D02*
X8885784Y-15888369D01*
X9104832Y-15755036D02*
X9104832Y-15955036D01*
X9104832Y-15764560D02*
X9123880Y-15755036D01*
X9123880Y-15755036D02*
X9161975Y-15755036D01*
X9161975Y-15755036D02*
X9181023Y-15764560D01*
X9181023Y-15764560D02*
X9190546Y-15774084D01*
X9190546Y-15774084D02*
X9200070Y-15793131D01*
X9200070Y-15793131D02*
X9200070Y-15850274D01*
X9200070Y-15850274D02*
X9190546Y-15869322D01*
X9190546Y-15869322D02*
X9181023Y-15878846D01*
X9181023Y-15878846D02*
X9161975Y-15888369D01*
X9161975Y-15888369D02*
X9123880Y-15888369D01*
X9123880Y-15888369D02*
X9104832Y-15878846D01*
X9314356Y-15888369D02*
X9295308Y-15878846D01*
X9295308Y-15878846D02*
X9285784Y-15859798D01*
X9285784Y-15859798D02*
X9285784Y-15688369D01*
X9476261Y-15888369D02*
X9476261Y-15783608D01*
X9476261Y-15783608D02*
X9466737Y-15764560D01*
X9466737Y-15764560D02*
X9447689Y-15755036D01*
X9447689Y-15755036D02*
X9409594Y-15755036D01*
X9409594Y-15755036D02*
X9390546Y-15764560D01*
X9476261Y-15878846D02*
X9457213Y-15888369D01*
X9457213Y-15888369D02*
X9409594Y-15888369D01*
X9409594Y-15888369D02*
X9390546Y-15878846D01*
X9390546Y-15878846D02*
X9381023Y-15859798D01*
X9381023Y-15859798D02*
X9381023Y-15840750D01*
X9381023Y-15840750D02*
X9390546Y-15821703D01*
X9390546Y-15821703D02*
X9409594Y-15812179D01*
X9409594Y-15812179D02*
X9457213Y-15812179D01*
X9457213Y-15812179D02*
X9476261Y-15802655D01*
X9542927Y-15755036D02*
X9619118Y-15755036D01*
X9571499Y-15688369D02*
X9571499Y-15859798D01*
X9571499Y-15859798D02*
X9581023Y-15878846D01*
X9581023Y-15878846D02*
X9600070Y-15888369D01*
X9600070Y-15888369D02*
X9619118Y-15888369D01*
X9761975Y-15878846D02*
X9742927Y-15888369D01*
X9742927Y-15888369D02*
X9704832Y-15888369D01*
X9704832Y-15888369D02*
X9685784Y-15878846D01*
X9685784Y-15878846D02*
X9676261Y-15859798D01*
X9676261Y-15859798D02*
X9676261Y-15783608D01*
X9676261Y-15783608D02*
X9685784Y-15764560D01*
X9685784Y-15764560D02*
X9704832Y-15755036D01*
X9704832Y-15755036D02*
X9742927Y-15755036D01*
X9742927Y-15755036D02*
X9761975Y-15764560D01*
X9761975Y-15764560D02*
X9771499Y-15783608D01*
X9771499Y-15783608D02*
X9771499Y-15802655D01*
X9771499Y-15802655D02*
X9676261Y-15821703D01*
X9942927Y-15888369D02*
X9942927Y-15688369D01*
X9942927Y-15878846D02*
X9923880Y-15888369D01*
X9923880Y-15888369D02*
X9885784Y-15888369D01*
X9885784Y-15888369D02*
X9866737Y-15878846D01*
X9866737Y-15878846D02*
X9857213Y-15869322D01*
X9857213Y-15869322D02*
X9847689Y-15850274D01*
X9847689Y-15850274D02*
X9847689Y-15793131D01*
X9847689Y-15793131D02*
X9857213Y-15774084D01*
X9857213Y-15774084D02*
X9866737Y-15764560D01*
X9866737Y-15764560D02*
X9885784Y-15755036D01*
X9885784Y-15755036D02*
X9923880Y-15755036D01*
X9923880Y-15755036D02*
X9942927Y-15764560D01*
X10019118Y-15964560D02*
X10028642Y-15955036D01*
X10028642Y-15955036D02*
X10047689Y-15926465D01*
X10047689Y-15926465D02*
X10057213Y-15907417D01*
X10057213Y-15907417D02*
X10066737Y-15878846D01*
X10066737Y-15878846D02*
X10076261Y-15831227D01*
X10076261Y-15831227D02*
X10076261Y-15793131D01*
X10076261Y-15793131D02*
X10066737Y-15745512D01*
X10066737Y-15745512D02*
X10057213Y-15716941D01*
X10057213Y-15716941D02*
X10047689Y-15697893D01*
X10047689Y-15697893D02*
X10028642Y-15669322D01*
X10028642Y-15669322D02*
X10019118Y-15659798D01*
X3072626Y-16116886D02*
G75*
G03*
X3072626Y-16116886I-100000J0D01*
G01*
X3314355Y-16008369D02*
X3438165Y-16008369D01*
X3438165Y-16008369D02*
X3371498Y-16084560D01*
X3371498Y-16084560D02*
X3400070Y-16084560D01*
X3400070Y-16084560D02*
X3419117Y-16094084D01*
X3419117Y-16094084D02*
X3428641Y-16103608D01*
X3428641Y-16103608D02*
X3438165Y-16122655D01*
X3438165Y-16122655D02*
X3438165Y-16170274D01*
X3438165Y-16170274D02*
X3428641Y-16189322D01*
X3428641Y-16189322D02*
X3419117Y-16198846D01*
X3419117Y-16198846D02*
X3400070Y-16208369D01*
X3400070Y-16208369D02*
X3342927Y-16208369D01*
X3342927Y-16208369D02*
X3323879Y-16198846D01*
X3323879Y-16198846D02*
X3314355Y-16189322D01*
X3523879Y-16189322D02*
X3533403Y-16198846D01*
X3533403Y-16198846D02*
X3523879Y-16208369D01*
X3523879Y-16208369D02*
X3514355Y-16198846D01*
X3514355Y-16198846D02*
X3523879Y-16189322D01*
X3523879Y-16189322D02*
X3523879Y-16208369D01*
X3628641Y-16208369D02*
X3666736Y-16208369D01*
X3666736Y-16208369D02*
X3685784Y-16198846D01*
X3685784Y-16198846D02*
X3695308Y-16189322D01*
X3695308Y-16189322D02*
X3714355Y-16160750D01*
X3714355Y-16160750D02*
X3723879Y-16122655D01*
X3723879Y-16122655D02*
X3723879Y-16046465D01*
X3723879Y-16046465D02*
X3714355Y-16027417D01*
X3714355Y-16027417D02*
X3704831Y-16017893D01*
X3704831Y-16017893D02*
X3685784Y-16008369D01*
X3685784Y-16008369D02*
X3647689Y-16008369D01*
X3647689Y-16008369D02*
X3628641Y-16017893D01*
X3628641Y-16017893D02*
X3619117Y-16027417D01*
X3619117Y-16027417D02*
X3609593Y-16046465D01*
X3609593Y-16046465D02*
X3609593Y-16094084D01*
X3609593Y-16094084D02*
X3619117Y-16113131D01*
X3619117Y-16113131D02*
X3628641Y-16122655D01*
X3628641Y-16122655D02*
X3647689Y-16132179D01*
X3647689Y-16132179D02*
X3685784Y-16132179D01*
X3685784Y-16132179D02*
X3704831Y-16122655D01*
X3704831Y-16122655D02*
X3714355Y-16113131D01*
X3714355Y-16113131D02*
X3723879Y-16094084D01*
X3838165Y-16094084D02*
X3819117Y-16084560D01*
X3819117Y-16084560D02*
X3809593Y-16075036D01*
X3809593Y-16075036D02*
X3800070Y-16055988D01*
X3800070Y-16055988D02*
X3800070Y-16046465D01*
X3800070Y-16046465D02*
X3809593Y-16027417D01*
X3809593Y-16027417D02*
X3819117Y-16017893D01*
X3819117Y-16017893D02*
X3838165Y-16008369D01*
X3838165Y-16008369D02*
X3876260Y-16008369D01*
X3876260Y-16008369D02*
X3895308Y-16017893D01*
X3895308Y-16017893D02*
X3904831Y-16027417D01*
X3904831Y-16027417D02*
X3914355Y-16046465D01*
X3914355Y-16046465D02*
X3914355Y-16055988D01*
X3914355Y-16055988D02*
X3904831Y-16075036D01*
X3904831Y-16075036D02*
X3895308Y-16084560D01*
X3895308Y-16084560D02*
X3876260Y-16094084D01*
X3876260Y-16094084D02*
X3838165Y-16094084D01*
X3838165Y-16094084D02*
X3819117Y-16103608D01*
X3819117Y-16103608D02*
X3809593Y-16113131D01*
X3809593Y-16113131D02*
X3800070Y-16132179D01*
X3800070Y-16132179D02*
X3800070Y-16170274D01*
X3800070Y-16170274D02*
X3809593Y-16189322D01*
X3809593Y-16189322D02*
X3819117Y-16198846D01*
X3819117Y-16198846D02*
X3838165Y-16208369D01*
X3838165Y-16208369D02*
X3876260Y-16208369D01*
X3876260Y-16208369D02*
X3895308Y-16198846D01*
X3895308Y-16198846D02*
X3904831Y-16189322D01*
X3904831Y-16189322D02*
X3914355Y-16170274D01*
X3914355Y-16170274D02*
X3914355Y-16132179D01*
X3914355Y-16132179D02*
X3904831Y-16113131D01*
X3904831Y-16113131D02*
X3895308Y-16103608D01*
X3895308Y-16103608D02*
X3876260Y-16094084D01*
X4028641Y-16094084D02*
X4009593Y-16084560D01*
X4009593Y-16084560D02*
X4000070Y-16075036D01*
X4000070Y-16075036D02*
X3990546Y-16055988D01*
X3990546Y-16055988D02*
X3990546Y-16046465D01*
X3990546Y-16046465D02*
X4000070Y-16027417D01*
X4000070Y-16027417D02*
X4009593Y-16017893D01*
X4009593Y-16017893D02*
X4028641Y-16008369D01*
X4028641Y-16008369D02*
X4066736Y-16008369D01*
X4066736Y-16008369D02*
X4085784Y-16017893D01*
X4085784Y-16017893D02*
X4095308Y-16027417D01*
X4095308Y-16027417D02*
X4104831Y-16046465D01*
X4104831Y-16046465D02*
X4104831Y-16055988D01*
X4104831Y-16055988D02*
X4095308Y-16075036D01*
X4095308Y-16075036D02*
X4085784Y-16084560D01*
X4085784Y-16084560D02*
X4066736Y-16094084D01*
X4066736Y-16094084D02*
X4028641Y-16094084D01*
X4028641Y-16094084D02*
X4009593Y-16103608D01*
X4009593Y-16103608D02*
X4000070Y-16113131D01*
X4000070Y-16113131D02*
X3990546Y-16132179D01*
X3990546Y-16132179D02*
X3990546Y-16170274D01*
X3990546Y-16170274D02*
X4000070Y-16189322D01*
X4000070Y-16189322D02*
X4009593Y-16198846D01*
X4009593Y-16198846D02*
X4028641Y-16208369D01*
X4028641Y-16208369D02*
X4066736Y-16208369D01*
X4066736Y-16208369D02*
X4085784Y-16198846D01*
X4085784Y-16198846D02*
X4095308Y-16189322D01*
X4095308Y-16189322D02*
X4104831Y-16170274D01*
X4104831Y-16170274D02*
X4104831Y-16132179D01*
X4104831Y-16132179D02*
X4095308Y-16113131D01*
X4095308Y-16113131D02*
X4085784Y-16103608D01*
X4085784Y-16103608D02*
X4066736Y-16094084D01*
X4190546Y-16208369D02*
X4190546Y-16075036D01*
X4190546Y-16094084D02*
X4200070Y-16084560D01*
X4200070Y-16084560D02*
X4219117Y-16075036D01*
X4219117Y-16075036D02*
X4247689Y-16075036D01*
X4247689Y-16075036D02*
X4266736Y-16084560D01*
X4266736Y-16084560D02*
X4276260Y-16103608D01*
X4276260Y-16103608D02*
X4276260Y-16208369D01*
X4276260Y-16103608D02*
X4285784Y-16084560D01*
X4285784Y-16084560D02*
X4304832Y-16075036D01*
X4304832Y-16075036D02*
X4333403Y-16075036D01*
X4333403Y-16075036D02*
X4352451Y-16084560D01*
X4352451Y-16084560D02*
X4361974Y-16103608D01*
X4361974Y-16103608D02*
X4361974Y-16208369D01*
X4457213Y-16208369D02*
X4457213Y-16075036D01*
X4457213Y-16094084D02*
X4466736Y-16084560D01*
X4466736Y-16084560D02*
X4485784Y-16075036D01*
X4485784Y-16075036D02*
X4514355Y-16075036D01*
X4514355Y-16075036D02*
X4533403Y-16084560D01*
X4533403Y-16084560D02*
X4542927Y-16103608D01*
X4542927Y-16103608D02*
X4542927Y-16208369D01*
X4542927Y-16103608D02*
X4552451Y-16084560D01*
X4552451Y-16084560D02*
X4571498Y-16075036D01*
X4571498Y-16075036D02*
X4600070Y-16075036D01*
X4600070Y-16075036D02*
X4619117Y-16084560D01*
X4619117Y-16084560D02*
X4628641Y-16103608D01*
X4628641Y-16103608D02*
X4628641Y-16208369D01*
X5019117Y-15998846D02*
X4847689Y-16255988D01*
X5276260Y-16008369D02*
X5295308Y-16008369D01*
X5295308Y-16008369D02*
X5314356Y-16017893D01*
X5314356Y-16017893D02*
X5323879Y-16027417D01*
X5323879Y-16027417D02*
X5333403Y-16046465D01*
X5333403Y-16046465D02*
X5342927Y-16084560D01*
X5342927Y-16084560D02*
X5342927Y-16132179D01*
X5342927Y-16132179D02*
X5333403Y-16170274D01*
X5333403Y-16170274D02*
X5323879Y-16189322D01*
X5323879Y-16189322D02*
X5314356Y-16198846D01*
X5314356Y-16198846D02*
X5295308Y-16208369D01*
X5295308Y-16208369D02*
X5276260Y-16208369D01*
X5276260Y-16208369D02*
X5257213Y-16198846D01*
X5257213Y-16198846D02*
X5247689Y-16189322D01*
X5247689Y-16189322D02*
X5238165Y-16170274D01*
X5238165Y-16170274D02*
X5228641Y-16132179D01*
X5228641Y-16132179D02*
X5228641Y-16084560D01*
X5228641Y-16084560D02*
X5238165Y-16046465D01*
X5238165Y-16046465D02*
X5247689Y-16027417D01*
X5247689Y-16027417D02*
X5257213Y-16017893D01*
X5257213Y-16017893D02*
X5276260Y-16008369D01*
X5428641Y-16189322D02*
X5438165Y-16198846D01*
X5438165Y-16198846D02*
X5428641Y-16208369D01*
X5428641Y-16208369D02*
X5419117Y-16198846D01*
X5419117Y-16198846D02*
X5428641Y-16189322D01*
X5428641Y-16189322D02*
X5428641Y-16208369D01*
X5628641Y-16208369D02*
X5514356Y-16208369D01*
X5571498Y-16208369D02*
X5571498Y-16008369D01*
X5571498Y-16008369D02*
X5552451Y-16036941D01*
X5552451Y-16036941D02*
X5533403Y-16055988D01*
X5533403Y-16055988D02*
X5514356Y-16065512D01*
X5809594Y-16008369D02*
X5714355Y-16008369D01*
X5714355Y-16008369D02*
X5704832Y-16103608D01*
X5704832Y-16103608D02*
X5714355Y-16094084D01*
X5714355Y-16094084D02*
X5733403Y-16084560D01*
X5733403Y-16084560D02*
X5781022Y-16084560D01*
X5781022Y-16084560D02*
X5800070Y-16094084D01*
X5800070Y-16094084D02*
X5809594Y-16103608D01*
X5809594Y-16103608D02*
X5819117Y-16122655D01*
X5819117Y-16122655D02*
X5819117Y-16170274D01*
X5819117Y-16170274D02*
X5809594Y-16189322D01*
X5809594Y-16189322D02*
X5800070Y-16198846D01*
X5800070Y-16198846D02*
X5781022Y-16208369D01*
X5781022Y-16208369D02*
X5733403Y-16208369D01*
X5733403Y-16208369D02*
X5714355Y-16198846D01*
X5714355Y-16198846D02*
X5704832Y-16189322D01*
X5885784Y-16008369D02*
X6019117Y-16008369D01*
X6019117Y-16008369D02*
X5933403Y-16208369D01*
X6133403Y-16008369D02*
X6152451Y-16008369D01*
X6152451Y-16008369D02*
X6171498Y-16017893D01*
X6171498Y-16017893D02*
X6181022Y-16027417D01*
X6181022Y-16027417D02*
X6190546Y-16046465D01*
X6190546Y-16046465D02*
X6200070Y-16084560D01*
X6200070Y-16084560D02*
X6200070Y-16132179D01*
X6200070Y-16132179D02*
X6190546Y-16170274D01*
X6190546Y-16170274D02*
X6181022Y-16189322D01*
X6181022Y-16189322D02*
X6171498Y-16198846D01*
X6171498Y-16198846D02*
X6152451Y-16208369D01*
X6152451Y-16208369D02*
X6133403Y-16208369D01*
X6133403Y-16208369D02*
X6114355Y-16198846D01*
X6114355Y-16198846D02*
X6104832Y-16189322D01*
X6104832Y-16189322D02*
X6095308Y-16170274D01*
X6095308Y-16170274D02*
X6085784Y-16132179D01*
X6085784Y-16132179D02*
X6085784Y-16084560D01*
X6085784Y-16084560D02*
X6095308Y-16046465D01*
X6095308Y-16046465D02*
X6104832Y-16027417D01*
X6104832Y-16027417D02*
X6114355Y-16017893D01*
X6114355Y-16017893D02*
X6133403Y-16008369D01*
X6276260Y-16008369D02*
X6276260Y-16046465D01*
X6352451Y-16008369D02*
X6352451Y-16046465D01*
X6647689Y-16284560D02*
X6638165Y-16275036D01*
X6638165Y-16275036D02*
X6619117Y-16246465D01*
X6619117Y-16246465D02*
X6609594Y-16227417D01*
X6609594Y-16227417D02*
X6600070Y-16198846D01*
X6600070Y-16198846D02*
X6590546Y-16151227D01*
X6590546Y-16151227D02*
X6590546Y-16113131D01*
X6590546Y-16113131D02*
X6600070Y-16065512D01*
X6600070Y-16065512D02*
X6609594Y-16036941D01*
X6609594Y-16036941D02*
X6619117Y-16017893D01*
X6619117Y-16017893D02*
X6638165Y-15989322D01*
X6638165Y-15989322D02*
X6647689Y-15979798D01*
X6828641Y-16208369D02*
X6714356Y-16208369D01*
X6771498Y-16208369D02*
X6771498Y-16008369D01*
X6771498Y-16008369D02*
X6752451Y-16036941D01*
X6752451Y-16036941D02*
X6733403Y-16055988D01*
X6733403Y-16055988D02*
X6714356Y-16065512D01*
X7066737Y-16208369D02*
X7066737Y-16008369D01*
X7152451Y-16208369D02*
X7152451Y-16103608D01*
X7152451Y-16103608D02*
X7142927Y-16084560D01*
X7142927Y-16084560D02*
X7123879Y-16075036D01*
X7123879Y-16075036D02*
X7095308Y-16075036D01*
X7095308Y-16075036D02*
X7076260Y-16084560D01*
X7076260Y-16084560D02*
X7066737Y-16094084D01*
X7276260Y-16208369D02*
X7257213Y-16198846D01*
X7257213Y-16198846D02*
X7247689Y-16189322D01*
X7247689Y-16189322D02*
X7238165Y-16170274D01*
X7238165Y-16170274D02*
X7238165Y-16113131D01*
X7238165Y-16113131D02*
X7247689Y-16094084D01*
X7247689Y-16094084D02*
X7257213Y-16084560D01*
X7257213Y-16084560D02*
X7276260Y-16075036D01*
X7276260Y-16075036D02*
X7304832Y-16075036D01*
X7304832Y-16075036D02*
X7323879Y-16084560D01*
X7323879Y-16084560D02*
X7333403Y-16094084D01*
X7333403Y-16094084D02*
X7342927Y-16113131D01*
X7342927Y-16113131D02*
X7342927Y-16170274D01*
X7342927Y-16170274D02*
X7333403Y-16189322D01*
X7333403Y-16189322D02*
X7323879Y-16198846D01*
X7323879Y-16198846D02*
X7304832Y-16208369D01*
X7304832Y-16208369D02*
X7276260Y-16208369D01*
X7457213Y-16208369D02*
X7438165Y-16198846D01*
X7438165Y-16198846D02*
X7428641Y-16179798D01*
X7428641Y-16179798D02*
X7428641Y-16008369D01*
X7609594Y-16198846D02*
X7590546Y-16208369D01*
X7590546Y-16208369D02*
X7552451Y-16208369D01*
X7552451Y-16208369D02*
X7533403Y-16198846D01*
X7533403Y-16198846D02*
X7523879Y-16179798D01*
X7523879Y-16179798D02*
X7523879Y-16103608D01*
X7523879Y-16103608D02*
X7533403Y-16084560D01*
X7533403Y-16084560D02*
X7552451Y-16075036D01*
X7552451Y-16075036D02*
X7590546Y-16075036D01*
X7590546Y-16075036D02*
X7609594Y-16084560D01*
X7609594Y-16084560D02*
X7619118Y-16103608D01*
X7619118Y-16103608D02*
X7619118Y-16122655D01*
X7619118Y-16122655D02*
X7523879Y-16141703D01*
X7685784Y-16284560D02*
X7695308Y-16275036D01*
X7695308Y-16275036D02*
X7714356Y-16246465D01*
X7714356Y-16246465D02*
X7723879Y-16227417D01*
X7723879Y-16227417D02*
X7733403Y-16198846D01*
X7733403Y-16198846D02*
X7742927Y-16151227D01*
X7742927Y-16151227D02*
X7742927Y-16113131D01*
X7742927Y-16113131D02*
X7733403Y-16065512D01*
X7733403Y-16065512D02*
X7723879Y-16036941D01*
X7723879Y-16036941D02*
X7714356Y-16017893D01*
X7714356Y-16017893D02*
X7695308Y-15989322D01*
X7695308Y-15989322D02*
X7685784Y-15979798D01*
X8047689Y-16284560D02*
X8038165Y-16275036D01*
X8038165Y-16275036D02*
X8019118Y-16246465D01*
X8019118Y-16246465D02*
X8009594Y-16227417D01*
X8009594Y-16227417D02*
X8000070Y-16198846D01*
X8000070Y-16198846D02*
X7990546Y-16151227D01*
X7990546Y-16151227D02*
X7990546Y-16113131D01*
X7990546Y-16113131D02*
X8000070Y-16065512D01*
X8000070Y-16065512D02*
X8009594Y-16036941D01*
X8009594Y-16036941D02*
X8019118Y-16017893D01*
X8019118Y-16017893D02*
X8038165Y-15989322D01*
X8038165Y-15989322D02*
X8047689Y-15979798D01*
X8123879Y-16075036D02*
X8123879Y-16208369D01*
X8123879Y-16094084D02*
X8133403Y-16084560D01*
X8133403Y-16084560D02*
X8152451Y-16075036D01*
X8152451Y-16075036D02*
X8181022Y-16075036D01*
X8181022Y-16075036D02*
X8200070Y-16084560D01*
X8200070Y-16084560D02*
X8209594Y-16103608D01*
X8209594Y-16103608D02*
X8209594Y-16208369D01*
X8333403Y-16208369D02*
X8314356Y-16198846D01*
X8314356Y-16198846D02*
X8304832Y-16189322D01*
X8304832Y-16189322D02*
X8295308Y-16170274D01*
X8295308Y-16170274D02*
X8295308Y-16113131D01*
X8295308Y-16113131D02*
X8304832Y-16094084D01*
X8304832Y-16094084D02*
X8314356Y-16084560D01*
X8314356Y-16084560D02*
X8333403Y-16075036D01*
X8333403Y-16075036D02*
X8361975Y-16075036D01*
X8361975Y-16075036D02*
X8381022Y-16084560D01*
X8381022Y-16084560D02*
X8390546Y-16094084D01*
X8390546Y-16094084D02*
X8400070Y-16113131D01*
X8400070Y-16113131D02*
X8400070Y-16170274D01*
X8400070Y-16170274D02*
X8390546Y-16189322D01*
X8390546Y-16189322D02*
X8381022Y-16198846D01*
X8381022Y-16198846D02*
X8361975Y-16208369D01*
X8361975Y-16208369D02*
X8333403Y-16208369D01*
X8457213Y-16075036D02*
X8533403Y-16075036D01*
X8485784Y-16008369D02*
X8485784Y-16179798D01*
X8485784Y-16179798D02*
X8495308Y-16198846D01*
X8495308Y-16198846D02*
X8514356Y-16208369D01*
X8514356Y-16208369D02*
X8533403Y-16208369D01*
X8752451Y-16075036D02*
X8752451Y-16275036D01*
X8752451Y-16084560D02*
X8771499Y-16075036D01*
X8771499Y-16075036D02*
X8809594Y-16075036D01*
X8809594Y-16075036D02*
X8828642Y-16084560D01*
X8828642Y-16084560D02*
X8838165Y-16094084D01*
X8838165Y-16094084D02*
X8847689Y-16113131D01*
X8847689Y-16113131D02*
X8847689Y-16170274D01*
X8847689Y-16170274D02*
X8838165Y-16189322D01*
X8838165Y-16189322D02*
X8828642Y-16198846D01*
X8828642Y-16198846D02*
X8809594Y-16208369D01*
X8809594Y-16208369D02*
X8771499Y-16208369D01*
X8771499Y-16208369D02*
X8752451Y-16198846D01*
X8961975Y-16208369D02*
X8942927Y-16198846D01*
X8942927Y-16198846D02*
X8933403Y-16179798D01*
X8933403Y-16179798D02*
X8933403Y-16008369D01*
X9123880Y-16208369D02*
X9123880Y-16103608D01*
X9123880Y-16103608D02*
X9114356Y-16084560D01*
X9114356Y-16084560D02*
X9095308Y-16075036D01*
X9095308Y-16075036D02*
X9057213Y-16075036D01*
X9057213Y-16075036D02*
X9038165Y-16084560D01*
X9123880Y-16198846D02*
X9104832Y-16208369D01*
X9104832Y-16208369D02*
X9057213Y-16208369D01*
X9057213Y-16208369D02*
X9038165Y-16198846D01*
X9038165Y-16198846D02*
X9028642Y-16179798D01*
X9028642Y-16179798D02*
X9028642Y-16160750D01*
X9028642Y-16160750D02*
X9038165Y-16141703D01*
X9038165Y-16141703D02*
X9057213Y-16132179D01*
X9057213Y-16132179D02*
X9104832Y-16132179D01*
X9104832Y-16132179D02*
X9123880Y-16122655D01*
X9190546Y-16075036D02*
X9266737Y-16075036D01*
X9219118Y-16008369D02*
X9219118Y-16179798D01*
X9219118Y-16179798D02*
X9228642Y-16198846D01*
X9228642Y-16198846D02*
X9247689Y-16208369D01*
X9247689Y-16208369D02*
X9266737Y-16208369D01*
X9409594Y-16198846D02*
X9390546Y-16208369D01*
X9390546Y-16208369D02*
X9352451Y-16208369D01*
X9352451Y-16208369D02*
X9333403Y-16198846D01*
X9333403Y-16198846D02*
X9323880Y-16179798D01*
X9323880Y-16179798D02*
X9323880Y-16103608D01*
X9323880Y-16103608D02*
X9333403Y-16084560D01*
X9333403Y-16084560D02*
X9352451Y-16075036D01*
X9352451Y-16075036D02*
X9390546Y-16075036D01*
X9390546Y-16075036D02*
X9409594Y-16084560D01*
X9409594Y-16084560D02*
X9419118Y-16103608D01*
X9419118Y-16103608D02*
X9419118Y-16122655D01*
X9419118Y-16122655D02*
X9323880Y-16141703D01*
X9590546Y-16208369D02*
X9590546Y-16008369D01*
X9590546Y-16198846D02*
X9571499Y-16208369D01*
X9571499Y-16208369D02*
X9533403Y-16208369D01*
X9533403Y-16208369D02*
X9514356Y-16198846D01*
X9514356Y-16198846D02*
X9504832Y-16189322D01*
X9504832Y-16189322D02*
X9495308Y-16170274D01*
X9495308Y-16170274D02*
X9495308Y-16113131D01*
X9495308Y-16113131D02*
X9504832Y-16094084D01*
X9504832Y-16094084D02*
X9514356Y-16084560D01*
X9514356Y-16084560D02*
X9533403Y-16075036D01*
X9533403Y-16075036D02*
X9571499Y-16075036D01*
X9571499Y-16075036D02*
X9590546Y-16084560D01*
X9666737Y-16284560D02*
X9676261Y-16275036D01*
X9676261Y-16275036D02*
X9695308Y-16246465D01*
X9695308Y-16246465D02*
X9704832Y-16227417D01*
X9704832Y-16227417D02*
X9714356Y-16198846D01*
X9714356Y-16198846D02*
X9723880Y-16151227D01*
X9723880Y-16151227D02*
X9723880Y-16113131D01*
X9723880Y-16113131D02*
X9714356Y-16065512D01*
X9714356Y-16065512D02*
X9704832Y-16036941D01*
X9704832Y-16036941D02*
X9695308Y-16017893D01*
X9695308Y-16017893D02*
X9676261Y-15989322D01*
X9676261Y-15989322D02*
X9666737Y-15979798D01*
M02*
