%TF.GenerationSoftware,KiCad,Pcbnew,7.0.8-7.0.8~ubuntu23.04.1*%
%TF.CreationDate,Date%
%TF.ProjectId,le_capybara_plate,6c655f63-6170-4796-9261-72615f706c61,v0.1*%
%TF.SameCoordinates,PX8bd8a70PY50733a9*%
%TF.FileFunction,Drillmap*%
%TF.FilePolarity,Positive*%
%FSLAX45Y45*%
G04 Gerber Fmt 4.5, Leading zero omitted, Abs format (unit mm)*
G04 Created by KiCad*
%MOMM*%
%LPD*%
G01*
G04 APERTURE LIST*
%ADD10C,0.200000*%
G04 APERTURE END LIST*
D10*
X7768292Y-5899563D02*
X9505248Y-6112834D01*
X13000263Y-6996607D02*
X13352501Y-6720889D01*
X24349350Y-12254164D02*
G75*
G03*
X24460788Y-12341232I99260J12194D01*
G01*
X17344395Y-14654494D02*
X23002554Y-13959760D01*
X15313947Y-9135806D02*
X14013947Y-9135806D01*
X5019723Y-11927357D02*
X4979547Y-12254570D01*
X3086355Y-11619111D02*
G75*
G03*
X3521694Y-12176319I496255J-60949D01*
G01*
X13660987Y-7114385D02*
G75*
G03*
X13352501Y-6720889I-154247J196745D01*
G01*
X16636342Y-14759971D02*
G75*
G03*
X17055221Y-15032984I209438J-136509D01*
G01*
X13611743Y-6917636D02*
G75*
G03*
X13611743Y-6917636I-105000J0D01*
G01*
X5131165Y-11840286D02*
G75*
G03*
X5019723Y-11927357I-12195J-99244D01*
G01*
X6155813Y-12066852D02*
X6121562Y-12345799D01*
X12273674Y-15033392D02*
X12056088Y-14699552D01*
X5574672Y-6512416D02*
X5582675Y-6513399D01*
X25807199Y-12175911D02*
G75*
G03*
X26242538Y-11618705I-60919J496261D01*
G01*
X9609729Y-6246564D02*
X9583984Y-6456240D01*
X23002554Y-13959759D02*
G75*
G03*
X23176689Y-13736877I-24374J198509D01*
G01*
X12720579Y-13914990D02*
X16608264Y-13914636D01*
X24349347Y-12254164D02*
X24309170Y-11926951D01*
X5487603Y-6400975D02*
G75*
G03*
X5574672Y-6512416I99257J-12185D01*
G01*
X6152205Y-13737283D02*
X6354315Y-12091221D01*
X5659546Y-12005918D02*
G75*
G03*
X5572472Y-11894475I-99266J12178D01*
G01*
X5625289Y-12284864D02*
X5659540Y-12005917D01*
X21720071Y-6213315D02*
G75*
G03*
X21853807Y-6317795I119129J14655D01*
G01*
X6326340Y-13960166D02*
X11984498Y-14654900D01*
X24335684Y-6303549D02*
G75*
G03*
X23836896Y-6364792I-249394J-30621D01*
G01*
X23207331Y-12345393D02*
X23173081Y-12066446D01*
X7475087Y-6318200D02*
G75*
G03*
X7608817Y-6213720I14613J119120D01*
G01*
X19640428Y-6589563D02*
G75*
G03*
X19744910Y-6455834I-14608J119093D01*
G01*
X23207335Y-12345393D02*
G75*
G03*
X23703604Y-12284458I248135J30463D01*
G01*
X14013947Y-7735806D02*
X15313947Y-7735806D01*
X9583985Y-6456240D02*
G75*
G03*
X9688465Y-6589969I119085J-14640D01*
G01*
X13477932Y-7257363D02*
G75*
G03*
X13539500Y-7436170I61558J-78807D01*
G01*
X9609728Y-6246564D02*
G75*
G03*
X9505248Y-6112834I-119118J14614D01*
G01*
X25648849Y-6783501D02*
X26242538Y-11618705D01*
X15927151Y-6917230D02*
G75*
G03*
X15927151Y-6917230I-105000J0D01*
G01*
X12646321Y-6952766D02*
X13000263Y-6996607D01*
X15464069Y-9434813D02*
X15464069Y-13534813D01*
X13539500Y-7436170D02*
X15789529Y-7435847D01*
X24352305Y-6438942D02*
X25091641Y-6348163D01*
X16328630Y-6996201D02*
X16682573Y-6952360D01*
X15364069Y-13634813D02*
X13964069Y-13634813D01*
X13660985Y-7114383D02*
X13477930Y-7257360D01*
X5491997Y-6365198D02*
G75*
G03*
X4993213Y-6303955I-249392J30621D01*
G01*
X21853807Y-6317795D02*
X23495992Y-6116160D01*
X5625289Y-12284864D02*
G75*
G03*
X6121562Y-12345799I248137J-30467D01*
G01*
X16170920Y-6872985D02*
X16328630Y-6996201D01*
X4237252Y-6348569D02*
X4976589Y-6439348D01*
X5832901Y-6116571D02*
G75*
G03*
X5721460Y-6203634I-12191J-99249D01*
G01*
X12720579Y-13914988D02*
G75*
G03*
X12621475Y-14001701I11J-100002D01*
G01*
X12646323Y-6952766D02*
G75*
G03*
X12058733Y-6880619I-300253J-16524D01*
G01*
X23756422Y-11894072D02*
G75*
G03*
X23669354Y-12005511I12178J-99248D01*
G01*
X15976392Y-6720482D02*
X16170920Y-6872985D01*
X4237252Y-6348570D02*
G75*
G03*
X3680044Y-6783907I-60922J-496290D01*
G01*
X13864077Y-13534813D02*
G75*
G03*
X13964069Y-13634813I100023J23D01*
G01*
X19744910Y-6455834D02*
X19719165Y-6246158D01*
X23669354Y-12005511D02*
X23703604Y-12284458D01*
X23560468Y-12314926D02*
G75*
G03*
X23560468Y-12314926I-105000J0D01*
G01*
X5832902Y-6116566D02*
X7475087Y-6318201D01*
X15363954Y-7785806D02*
G75*
G03*
X15313947Y-7735806I-50004J-4D01*
G01*
X25807199Y-12175913D02*
X24460788Y-12341232D01*
X23607431Y-6203228D02*
G75*
G03*
X23495992Y-6116160I-99251J-12182D01*
G01*
X17272806Y-14699146D02*
X17055220Y-15032986D01*
X15363947Y-7785806D02*
X15363947Y-9085806D01*
X4868105Y-12341637D02*
G75*
G03*
X4979547Y-12254570I12185J99257D01*
G01*
X5582675Y-6513397D02*
G75*
G03*
X5694116Y-6426331I12185J99257D01*
G01*
X16707385Y-14001340D02*
X16774719Y-14503251D01*
X23634779Y-6425925D02*
G75*
G03*
X23746219Y-6512993I99261J12195D01*
G01*
X13964069Y-9334813D02*
X15364069Y-9334813D01*
X16707385Y-14001340D02*
G75*
G03*
X16608264Y-13914636I-99115J-13300D01*
G01*
X19823646Y-6112429D02*
X21560602Y-5899157D01*
X12588114Y-14896882D02*
G75*
G03*
X12588114Y-14896882I-105000J0D01*
G01*
X24191288Y-6334171D02*
G75*
G03*
X24191288Y-6334171I-105000J0D01*
G01*
X23836896Y-6364792D02*
X23841289Y-6400569D01*
X23607433Y-6203228D02*
X23634777Y-6425925D01*
X13964069Y-9334809D02*
G75*
G03*
X13864069Y-9434813I1J-100001D01*
G01*
X25648854Y-6783501D02*
G75*
G03*
X25091641Y-6348163I-496284J-60949D01*
G01*
X12273673Y-15033389D02*
G75*
G03*
X12692555Y-14760375I209444J136503D01*
G01*
X9688465Y-6589970D02*
X12058733Y-6880619D01*
X17270160Y-6880213D02*
X19640428Y-6589564D01*
X15313947Y-9135807D02*
G75*
G03*
X15363947Y-9085806I3J49997D01*
G01*
X24309168Y-11926952D02*
G75*
G03*
X24197729Y-11839884I-99248J-12178D01*
G01*
X15464067Y-9434813D02*
G75*
G03*
X15364069Y-9334813I-99997J3D01*
G01*
X16636338Y-14759969D02*
X16759388Y-14571135D01*
X15976392Y-6720483D02*
G75*
G03*
X15667909Y-7113977I-154242J-196747D01*
G01*
X13963947Y-9085806D02*
X13963947Y-7785806D01*
X15789529Y-7435849D02*
G75*
G03*
X15851070Y-7257038I-9J99999D01*
G01*
X16950780Y-14896476D02*
G75*
G03*
X16950780Y-14896476I-105000J0D01*
G01*
X4868105Y-12341638D02*
X3521694Y-12176319D01*
X23756422Y-11894069D02*
X24197729Y-11839884D01*
X5131165Y-11840290D02*
X5572472Y-11894475D01*
X12554177Y-14503658D02*
G75*
G03*
X12569505Y-14571541I99113J-13292D01*
G01*
X12569505Y-14571541D02*
X12692555Y-14760375D01*
X5487605Y-6400975D02*
X5491997Y-6365198D01*
X17344396Y-14654496D02*
G75*
G03*
X17272806Y-14699146I12184J-99254D01*
G01*
X17270160Y-6880213D02*
G75*
G03*
X16682573Y-6952360I-287335J-88673D01*
G01*
X21694332Y-6003638D02*
X21720076Y-6213314D01*
X23173082Y-12066442D02*
G75*
G03*
X22974578Y-12090815I-99252J-12188D01*
G01*
X24352260Y-6438580D02*
X24335681Y-6303549D01*
X16759388Y-14571135D02*
G75*
G03*
X16774719Y-14503251I-83778J54595D01*
G01*
X6152205Y-13737283D02*
G75*
G03*
X6326340Y-13960166I198505J-24377D01*
G01*
X13864069Y-13534813D02*
X13864069Y-9434813D01*
X19823646Y-6112427D02*
G75*
G03*
X19719165Y-6246158I14634J-119113D01*
G01*
X23746219Y-6512993D02*
X23754221Y-6512010D01*
X7608817Y-6213720D02*
X7634562Y-6004044D01*
X5978426Y-12315332D02*
G75*
G03*
X5978426Y-12315332I-105000J0D01*
G01*
X12554174Y-14503657D02*
X12621475Y-14001701D01*
X5694116Y-6426331D02*
X5721460Y-6203634D01*
X12056089Y-14699551D02*
G75*
G03*
X11984498Y-14654900I-83779J-54609D01*
G01*
X15851070Y-7257038D02*
X15667909Y-7113977D01*
X13963954Y-9085806D02*
G75*
G03*
X14013947Y-9135806I49996J-4D01*
G01*
X5347605Y-6334577D02*
G75*
G03*
X5347605Y-6334577I-105000J0D01*
G01*
X15364069Y-13634819D02*
G75*
G03*
X15464069Y-13534813I-9J100009D01*
G01*
X14013947Y-7735807D02*
G75*
G03*
X13963947Y-7785806I3J-50003D01*
G01*
X3086356Y-11619111D02*
X3680044Y-6783907D01*
X4993213Y-6303955D02*
X4976633Y-6438986D01*
X21694340Y-6003637D02*
G75*
G03*
X21560602Y-5899157I-119120J-14643D01*
G01*
X23754221Y-6512008D02*
G75*
G03*
X23841289Y-6400569I-12191J99258D01*
G01*
X22974578Y-12090815D02*
X23176689Y-13736877D01*
X6354308Y-12091220D02*
G75*
G03*
X6155813Y-12066848I-99248J12180D01*
G01*
X7768292Y-5899557D02*
G75*
G03*
X7634562Y-6004044I-14603J-119133D01*
G01*
X3333403Y-15468369D02*
X3333403Y-15268369D01*
X3333403Y-15268369D02*
X3381022Y-15268369D01*
X3381022Y-15268369D02*
X3409593Y-15277893D01*
X3409593Y-15277893D02*
X3428641Y-15296941D01*
X3428641Y-15296941D02*
X3438165Y-15315988D01*
X3438165Y-15315988D02*
X3447689Y-15354084D01*
X3447689Y-15354084D02*
X3447689Y-15382655D01*
X3447689Y-15382655D02*
X3438165Y-15420750D01*
X3438165Y-15420750D02*
X3428641Y-15439798D01*
X3428641Y-15439798D02*
X3409593Y-15458846D01*
X3409593Y-15458846D02*
X3381022Y-15468369D01*
X3381022Y-15468369D02*
X3333403Y-15468369D01*
X3533403Y-15468369D02*
X3533403Y-15335036D01*
X3533403Y-15373131D02*
X3542927Y-15354084D01*
X3542927Y-15354084D02*
X3552450Y-15344560D01*
X3552450Y-15344560D02*
X3571498Y-15335036D01*
X3571498Y-15335036D02*
X3590546Y-15335036D01*
X3657212Y-15468369D02*
X3657212Y-15335036D01*
X3657212Y-15268369D02*
X3647689Y-15277893D01*
X3647689Y-15277893D02*
X3657212Y-15287417D01*
X3657212Y-15287417D02*
X3666736Y-15277893D01*
X3666736Y-15277893D02*
X3657212Y-15268369D01*
X3657212Y-15268369D02*
X3657212Y-15287417D01*
X3781022Y-15468369D02*
X3761974Y-15458846D01*
X3761974Y-15458846D02*
X3752450Y-15439798D01*
X3752450Y-15439798D02*
X3752450Y-15268369D01*
X3885784Y-15468369D02*
X3866736Y-15458846D01*
X3866736Y-15458846D02*
X3857212Y-15439798D01*
X3857212Y-15439798D02*
X3857212Y-15268369D01*
X4114355Y-15468369D02*
X4114355Y-15268369D01*
X4114355Y-15268369D02*
X4181022Y-15411227D01*
X4181022Y-15411227D02*
X4247689Y-15268369D01*
X4247689Y-15268369D02*
X4247689Y-15468369D01*
X4428641Y-15468369D02*
X4428641Y-15363608D01*
X4428641Y-15363608D02*
X4419117Y-15344560D01*
X4419117Y-15344560D02*
X4400070Y-15335036D01*
X4400070Y-15335036D02*
X4361974Y-15335036D01*
X4361974Y-15335036D02*
X4342927Y-15344560D01*
X4428641Y-15458846D02*
X4409593Y-15468369D01*
X4409593Y-15468369D02*
X4361974Y-15468369D01*
X4361974Y-15468369D02*
X4342927Y-15458846D01*
X4342927Y-15458846D02*
X4333403Y-15439798D01*
X4333403Y-15439798D02*
X4333403Y-15420750D01*
X4333403Y-15420750D02*
X4342927Y-15401703D01*
X4342927Y-15401703D02*
X4361974Y-15392179D01*
X4361974Y-15392179D02*
X4409593Y-15392179D01*
X4409593Y-15392179D02*
X4428641Y-15382655D01*
X4523879Y-15335036D02*
X4523879Y-15535036D01*
X4523879Y-15344560D02*
X4542927Y-15335036D01*
X4542927Y-15335036D02*
X4581022Y-15335036D01*
X4581022Y-15335036D02*
X4600070Y-15344560D01*
X4600070Y-15344560D02*
X4609593Y-15354084D01*
X4609593Y-15354084D02*
X4619117Y-15373131D01*
X4619117Y-15373131D02*
X4619117Y-15430274D01*
X4619117Y-15430274D02*
X4609593Y-15449322D01*
X4609593Y-15449322D02*
X4600070Y-15458846D01*
X4600070Y-15458846D02*
X4581022Y-15468369D01*
X4581022Y-15468369D02*
X4542927Y-15468369D01*
X4542927Y-15468369D02*
X4523879Y-15458846D01*
X4704832Y-15449322D02*
X4714355Y-15458846D01*
X4714355Y-15458846D02*
X4704832Y-15468369D01*
X4704832Y-15468369D02*
X4695308Y-15458846D01*
X4695308Y-15458846D02*
X4704832Y-15449322D01*
X4704832Y-15449322D02*
X4704832Y-15468369D01*
X4704832Y-15344560D02*
X4714355Y-15354084D01*
X4714355Y-15354084D02*
X4704832Y-15363608D01*
X4704832Y-15363608D02*
X4695308Y-15354084D01*
X4695308Y-15354084D02*
X4704832Y-15344560D01*
X4704832Y-15344560D02*
X4704832Y-15363608D01*
M02*
