G04 #@! TF.GenerationSoftware,KiCad,Pcbnew,7.0.7-7.0.7~ubuntu23.04.1*
G04 #@! TF.CreationDate,2023-09-02T06:25:15+00:00*
G04 #@! TF.ProjectId,le_capybara_plate,6c655f63-6170-4796-9261-72615f706c61,v0.1*
G04 #@! TF.SameCoordinates,PX8bd8a70PY50733a9*
G04 #@! TF.FileFunction,Profile,NP*
%FSLAX46Y46*%
G04 Gerber Fmt 4.6, Leading zero omitted, Abs format (unit mm)*
G04 Created by KiCad (PCBNEW 7.0.7-7.0.7~ubuntu23.04.1) date 2023-09-02 06:25:15*
%MOMM*%
%LPD*%
G01*
G04 APERTURE LIST*
G04 #@! TA.AperFunction,Profile*
%ADD10C,0.200000*%
G04 #@! TD*
G04 APERTURE END LIST*
D10*
X77682917Y-58995632D02*
X95052477Y-61128345D01*
X130002631Y-69966074D02*
X133525011Y-67208887D01*
X243493502Y-122541636D02*
G75*
G03*
X244607885Y-123412317I992598J121936D01*
G01*
X173443954Y-146544944D02*
X230025537Y-139597600D01*
X153139472Y-91358057D02*
X140139472Y-91358057D01*
X50197233Y-119273574D02*
X49795467Y-122545699D01*
X30863549Y-116191113D02*
G75*
G03*
X35216943Y-121763192I4962551J-609487D01*
G01*
X136609867Y-71143852D02*
G75*
G03*
X133525011Y-67208887I-1542467J1967452D01*
G01*
X166363422Y-147599714D02*
G75*
G03*
X170552210Y-150329837I2094378J-1365086D01*
G01*
X136117430Y-69176357D02*
G75*
G03*
X136117430Y-69176357I-1050000J0D01*
G01*
X51311653Y-118402862D02*
G75*
G03*
X50197234Y-119273574I-121953J-992438D01*
G01*
X61558128Y-120668517D02*
X61215624Y-123457990D01*
X122736741Y-150333918D02*
X120560880Y-146995520D01*
X55746721Y-65124164D02*
X55826748Y-65133990D01*
X258071990Y-121759108D02*
G75*
G03*
X262425377Y-116187055I-609190J4962608D01*
G01*
X96097289Y-62465643D02*
X95839839Y-64562398D01*
X230025536Y-139597589D02*
G75*
G03*
X231766889Y-137368768I-243736J1985089D01*
G01*
X127205790Y-139149902D02*
X166082638Y-139146364D01*
X243493469Y-122541640D02*
X243091703Y-119269515D01*
X54876034Y-64009747D02*
G75*
G03*
X55746721Y-65124163I992566J-121853D01*
G01*
X61522046Y-137372827D02*
X63543155Y-120912212D01*
X56595463Y-120059178D02*
G75*
G03*
X55724720Y-118944754I-992663J121778D01*
G01*
X56252893Y-122848643D02*
X56595397Y-120059170D01*
X217200710Y-62133147D02*
G75*
G03*
X218538067Y-63177949I1191290J146547D01*
G01*
X63263399Y-139601659D02*
X119844982Y-146549003D01*
X243356838Y-63035489D02*
G75*
G03*
X238368964Y-63647923I-2493938J-306211D01*
G01*
X232073312Y-123453931D02*
X231730808Y-120664458D01*
X74750870Y-63182004D02*
G75*
G03*
X76088171Y-62137199I146130J1191204D01*
G01*
X196404283Y-65895631D02*
G75*
G03*
X197449097Y-64558339I-146083J1190931D01*
G01*
X232073347Y-123453927D02*
G75*
G03*
X237036042Y-122844584I2481353J304627D01*
G01*
X140139472Y-77358057D02*
X153139472Y-77358057D01*
X95839848Y-64562399D02*
G75*
G03*
X96884652Y-65899695I1190852J-146401D01*
G01*
X134779321Y-72573626D02*
G75*
G03*
X135394999Y-74361699I615579J-788074D01*
G01*
X96097284Y-62465642D02*
G75*
G03*
X95052475Y-61128345I-1191184J146142D01*
G01*
X256488493Y-67835015D02*
X262425377Y-116187055D01*
X159271506Y-69172298D02*
G75*
G03*
X159271506Y-69172298I-1050000J0D01*
G01*
X126463206Y-69527659D02*
X130002631Y-69966074D01*
X154640692Y-94348132D02*
X154640691Y-135348130D01*
X135394999Y-74361699D02*
X157895290Y-74358473D01*
X243523049Y-64389422D02*
X250916415Y-63481631D01*
X163286305Y-69962015D02*
X166825730Y-69523600D01*
X153640692Y-136348133D02*
X139640692Y-136348133D01*
X136609849Y-71143829D02*
X134779303Y-72573604D01*
X54919971Y-63651982D02*
G75*
G03*
X49932129Y-63039552I-2493921J306212D01*
G01*
X218538067Y-63177950D02*
X234959918Y-61161600D01*
X56252895Y-122848643D02*
G75*
G03*
X61215624Y-123457990I2481365J-304667D01*
G01*
X161709203Y-68729846D02*
X163286305Y-69962015D01*
X42372521Y-63485690D02*
X49765887Y-64393481D01*
X58329012Y-61165708D02*
G75*
G03*
X57214603Y-62036336I-121912J-992492D01*
G01*
X127205790Y-139149882D02*
G75*
G03*
X126214751Y-140017014I110J-1000018D01*
G01*
X126463228Y-69527658D02*
G75*
G03*
X120587334Y-68806191I-3002528J-165242D01*
G01*
X237564220Y-118940724D02*
G75*
G03*
X236693540Y-120055111I121780J-992476D01*
G01*
X159763925Y-67204825D02*
X161709203Y-68729846D01*
X42372519Y-63485705D02*
G75*
G03*
X36800443Y-67839074I-609219J-4962895D01*
G01*
X138640767Y-135348132D02*
G75*
G03*
X139640692Y-136348133I1000233J232D01*
G01*
X197449097Y-64558339D02*
X197191647Y-62461584D01*
X236693539Y-120055111D02*
X237036043Y-122844584D01*
X235604679Y-123149257D02*
G75*
G03*
X235604679Y-123149257I-1050001J0D01*
G01*
X58329018Y-61165659D02*
X74750869Y-63182009D01*
X153639543Y-77858057D02*
G75*
G03*
X153139472Y-77358057I-500043J-43D01*
G01*
X258071993Y-121759133D02*
X244607885Y-123412317D01*
X236074307Y-62032280D02*
G75*
G03*
X234959918Y-61161601I-992507J-121820D01*
G01*
X172728056Y-146991461D02*
X170552195Y-150329859D01*
X153639472Y-77858057D02*
X153639472Y-90858057D01*
X48681051Y-123416373D02*
G75*
G03*
X49795467Y-122545699I121849J992573D01*
G01*
X55826750Y-65133972D02*
G75*
G03*
X56941164Y-64263313I121850J992572D01*
G01*
X167073850Y-140013399D02*
X167747194Y-145032513D01*
X236347789Y-64259252D02*
G75*
G03*
X237462188Y-65129931I992611J121952D01*
G01*
X139640692Y-93348132D02*
X153640692Y-93348132D01*
X167073852Y-140013399D02*
G75*
G03*
X166082638Y-139146364I-991152J-133001D01*
G01*
X198236459Y-61124286D02*
X215606019Y-58991573D01*
X125881141Y-148968822D02*
G75*
G03*
X125881141Y-148968822I-1050001J0D01*
G01*
X241912885Y-63341708D02*
G75*
G03*
X241912885Y-63341708I-1050000J0D01*
G01*
X238368963Y-63647923D02*
X238412891Y-64005689D01*
X236074334Y-62032277D02*
X236347772Y-64259254D01*
X139640692Y-93348092D02*
G75*
G03*
X138640692Y-94348132I8J-1000008D01*
G01*
X256488543Y-67835009D02*
G75*
G03*
X250916415Y-63481632I-4962843J-609491D01*
G01*
X122736732Y-150333891D02*
G75*
G03*
X126925554Y-147603747I2094438J1365031D01*
G01*
X96884652Y-65899696D02*
X120587334Y-68806191D01*
X172701602Y-68802132D02*
X196404284Y-65895637D01*
X153139472Y-91358072D02*
G75*
G03*
X153639472Y-90858057I28J499972D01*
G01*
X243091677Y-119269518D02*
G75*
G03*
X241977287Y-118398839I-992477J-121782D01*
G01*
X154640668Y-94348132D02*
G75*
G03*
X153640692Y-93348132I-999968J32D01*
G01*
X166363381Y-147599689D02*
X167593882Y-145711350D01*
X159763919Y-67204835D02*
G75*
G03*
X156679087Y-71139770I-1542419J-1967465D01*
G01*
X139639472Y-90858057D02*
X139639472Y-77858057D01*
X157895290Y-74358488D02*
G75*
G03*
X158510700Y-72570378I-90J999988D01*
G01*
X169507797Y-148964763D02*
G75*
G03*
X169507797Y-148964763I-1050001J0D01*
G01*
X48681051Y-123416376D02*
X35216943Y-121763192D01*
X237564216Y-118940695D02*
X241977287Y-118398838D01*
X51311649Y-118402897D02*
X55724720Y-118944754D01*
X125541773Y-145036576D02*
G75*
G03*
X125695054Y-145715409I991127J-132924D01*
G01*
X125695054Y-145715409D02*
X126925555Y-147603748D01*
X54876045Y-64009748D02*
X54919973Y-63651982D01*
X173443957Y-146544965D02*
G75*
G03*
X172728057Y-146991461I121843J-992535D01*
G01*
X172701601Y-68802132D02*
G75*
G03*
X166825731Y-69523600I-2873351J-886728D01*
G01*
X216943315Y-60036384D02*
X217200764Y-62133140D01*
X231730816Y-120664421D02*
G75*
G03*
X229745781Y-120908153I-992516J-121879D01*
G01*
X243522605Y-64385805D02*
X243356807Y-63035493D01*
X167593876Y-145711346D02*
G75*
G03*
X167747194Y-145032513I-837776J545946D01*
G01*
X61522050Y-137372828D02*
G75*
G03*
X63263399Y-139601659I1985050J-243772D01*
G01*
X138640692Y-135348132D02*
X138640692Y-94348132D01*
X198236459Y-61124267D02*
G75*
G03*
X197191648Y-62461584I146341J-1191133D01*
G01*
X237462188Y-65129931D02*
X237542215Y-65120105D01*
X76088172Y-62137199D02*
X76345621Y-60040443D01*
X59784259Y-123153316D02*
G75*
G03*
X59784259Y-123153316I-1050001J0D01*
G01*
X125541742Y-145036572D02*
X126214750Y-140017014D01*
X56941164Y-64263313D02*
X57214602Y-62036336D01*
X120560891Y-146995513D02*
G75*
G03*
X119844982Y-146549003I-837791J-546087D01*
G01*
X158510700Y-72570378D02*
X156679087Y-71139770D01*
X139639543Y-90858057D02*
G75*
G03*
X140139472Y-91358057I499957J-43D01*
G01*
X53476051Y-63345767D02*
G75*
G03*
X53476051Y-63345767I-1050000J0D01*
G01*
X153640692Y-136348191D02*
G75*
G03*
X154640691Y-135348130I-92J1000091D01*
G01*
X140139472Y-77358072D02*
G75*
G03*
X139639472Y-77858057I28J-500028D01*
G01*
X30863559Y-116191114D02*
X36800443Y-67839074D01*
X49932129Y-63039552D02*
X49766331Y-64389864D01*
X216943396Y-60036375D02*
G75*
G03*
X215606019Y-58991574I-1191196J-146425D01*
G01*
X237542212Y-65120078D02*
G75*
G03*
X238412891Y-64005689I-121912J992578D01*
G01*
X229745781Y-120908153D02*
X231766890Y-137368768D01*
X63543082Y-120912203D02*
G75*
G03*
X61558132Y-120668481I-992482J121803D01*
G01*
X77682925Y-58995569D02*
G75*
G03*
X76345622Y-60040444I-146025J-1191331D01*
G01*
X187637054Y-108092549D02*
X199646863Y-106617930D01*
X200761278Y-107488607D02*
X202309019Y-120093943D01*
X188314118Y-121812301D02*
X186766377Y-109206965D01*
X201438342Y-121208359D02*
X189428533Y-122682978D01*
X200761277Y-107488607D02*
G75*
G03*
X199646863Y-106617931I-992544J-121868D01*
G01*
X187637054Y-108092551D02*
G75*
G03*
X186766378Y-109206965I121868J-992544D01*
G01*
X201438342Y-121208358D02*
G75*
G03*
X202309018Y-120093943I-121869J992545D01*
G01*
X188314119Y-121812301D02*
G75*
G03*
X189428533Y-122682977I992545J121869D01*
G01*
X205964656Y-101043937D02*
X217974465Y-99569318D01*
X219088880Y-100439995D02*
X220636621Y-113045331D01*
X206641720Y-114763689D02*
X205093979Y-102158353D01*
X219765944Y-114159747D02*
X207756135Y-115634366D01*
X219088879Y-100439995D02*
G75*
G03*
X217974465Y-99569319I-992544J-121868D01*
G01*
X205964656Y-101043939D02*
G75*
G03*
X205093980Y-102158353I121868J-992544D01*
G01*
X219765944Y-114159746D02*
G75*
G03*
X220636620Y-113045331I-121869J992545D01*
G01*
X206641721Y-114763689D02*
G75*
G03*
X207756135Y-115634365I992545J121869D01*
G01*
X127401637Y-87188581D02*
X115391828Y-85713962D01*
X114521151Y-84599546D02*
X116068892Y-71994210D01*
X130063793Y-73712568D02*
X128516052Y-86317904D01*
X117183307Y-71123533D02*
X129193116Y-72598152D01*
X114521151Y-84599546D02*
G75*
G03*
X115391828Y-85713961I992545J-121870D01*
G01*
X127401637Y-87188580D02*
G75*
G03*
X128516051Y-86317904I121870J992544D01*
G01*
X117183307Y-71123534D02*
G75*
G03*
X116068893Y-71994210I-121869J-992545D01*
G01*
X130063792Y-73712568D02*
G75*
G03*
X129193116Y-72598153I-992545J121870D01*
G01*
X125080026Y-106096585D02*
X113070217Y-104621966D01*
X112199540Y-103507550D02*
X113747281Y-90902214D01*
X127742182Y-92620572D02*
X126194441Y-105225908D01*
X114861696Y-90031537D02*
X126871505Y-91506156D01*
X112199540Y-103507550D02*
G75*
G03*
X113070217Y-104621965I992545J-121870D01*
G01*
X125080026Y-106096584D02*
G75*
G03*
X126194440Y-105225908I121870J992544D01*
G01*
X114861696Y-90031538D02*
G75*
G03*
X113747282Y-90902214I-121869J-992545D01*
G01*
X127742181Y-92620572D02*
G75*
G03*
X126871505Y-91506157I-992545J121870D01*
G01*
X83186825Y-125838301D02*
X81712206Y-137848110D01*
X80597790Y-138718787D02*
X67992454Y-137171046D01*
X69710812Y-123176145D02*
X82316148Y-124723886D01*
X67121777Y-136056631D02*
X68596396Y-124046822D01*
X80597790Y-138718787D02*
G75*
G03*
X81712205Y-137848110I121870J992545D01*
G01*
X83186824Y-125838301D02*
G75*
G03*
X82316148Y-124723887I-992544J121870D01*
G01*
X67121778Y-136056631D02*
G75*
G03*
X67992454Y-137171045I992545J-121869D01*
G01*
X69710812Y-123176146D02*
G75*
G03*
X68596397Y-124046822I-121870J-992545D01*
G01*
X225453063Y-103449327D02*
X237462872Y-101974708D01*
X238577287Y-102845385D02*
X240125028Y-115450721D01*
X226130127Y-117169079D02*
X224582386Y-104563743D01*
X239254351Y-116565137D02*
X227244542Y-118039756D01*
X238577286Y-102845385D02*
G75*
G03*
X237462872Y-101974709I-992544J-121868D01*
G01*
X225453063Y-103449329D02*
G75*
G03*
X224582387Y-104563743I121868J-992544D01*
G01*
X239254351Y-116565136D02*
G75*
G03*
X240125027Y-115450721I-121869J992545D01*
G01*
X226130128Y-117169079D02*
G75*
G03*
X227244542Y-118039755I992545J121869D01*
G01*
X223131452Y-84541323D02*
X235141261Y-83066704D01*
X236255676Y-83937381D02*
X237803417Y-96542717D01*
X223808516Y-98261075D02*
X222260775Y-85655739D01*
X236932740Y-97657133D02*
X224922931Y-99131752D01*
X236255675Y-83937381D02*
G75*
G03*
X235141261Y-83066705I-992544J-121868D01*
G01*
X223131452Y-84541325D02*
G75*
G03*
X222260776Y-85655739I121868J-992544D01*
G01*
X236932740Y-97657132D02*
G75*
G03*
X237803416Y-96542717I-121869J992545D01*
G01*
X223808517Y-98261075D02*
G75*
G03*
X224922931Y-99131751I992545J121869D01*
G01*
X66034403Y-118039756D02*
X54024594Y-116565137D01*
X53153917Y-115450721D02*
X54701658Y-102845385D01*
X68696559Y-104563743D02*
X67148818Y-117169079D01*
X55816073Y-101974708D02*
X67825882Y-103449327D01*
X53153917Y-115450721D02*
G75*
G03*
X54024594Y-116565136I992545J-121870D01*
G01*
X66034403Y-118039755D02*
G75*
G03*
X67148817Y-117169079I121870J992544D01*
G01*
X55816073Y-101974709D02*
G75*
G03*
X54701659Y-102845385I-121869J-992545D01*
G01*
X68696558Y-104563743D02*
G75*
G03*
X67825882Y-103449328I-992545J121870D01*
G01*
X168729050Y-110414160D02*
X180738859Y-108939541D01*
X181853274Y-109810218D02*
X183401015Y-122415554D01*
X169406114Y-124133912D02*
X167858373Y-111528576D01*
X182530338Y-123529970D02*
X170520529Y-125004589D01*
X181853273Y-109810218D02*
G75*
G03*
X180738859Y-108939542I-992544J-121868D01*
G01*
X168729050Y-110414162D02*
G75*
G03*
X167858374Y-111528576I121868J-992544D01*
G01*
X182530338Y-123529969D02*
G75*
G03*
X183401014Y-122415554I-121869J992545D01*
G01*
X169406115Y-124133912D02*
G75*
G03*
X170520529Y-125004588I992545J121869D01*
G01*
X108493633Y-84866970D02*
X96483824Y-83392351D01*
X95613147Y-82277935D02*
X97160888Y-69672599D01*
X111155789Y-71390957D02*
X109608048Y-83996293D01*
X98275303Y-68801922D02*
X110285112Y-70276541D01*
X95613147Y-82277935D02*
G75*
G03*
X96483824Y-83392350I992545J-121870D01*
G01*
X108493633Y-84866969D02*
G75*
G03*
X109608047Y-83996293I121870J992544D01*
G01*
X98275303Y-68801923D02*
G75*
G03*
X97160889Y-69672599I-121869J-992545D01*
G01*
X111155788Y-71390957D02*
G75*
G03*
X110285112Y-70276542I-992545J121870D01*
G01*
X122758415Y-125004589D02*
X110748606Y-123529970D01*
X109877929Y-122415554D02*
X111425670Y-109810218D01*
X125420571Y-111528576D02*
X123872830Y-124133912D01*
X112540085Y-108939541D02*
X124549894Y-110414160D01*
X109877929Y-122415554D02*
G75*
G03*
X110748606Y-123529969I992545J-121870D01*
G01*
X122758415Y-125004588D02*
G75*
G03*
X123872829Y-124133912I121870J992544D01*
G01*
X112540085Y-108939542D02*
G75*
G03*
X111425671Y-109810218I-121869J-992545D01*
G01*
X125420570Y-111528576D02*
G75*
G03*
X124549894Y-110414161I-992545J121870D01*
G01*
X90802450Y-125765811D02*
X122663182Y-129677817D01*
X89205962Y-138768165D02*
X90802450Y-125765811D01*
X119952278Y-143550848D02*
X90076639Y-139882581D01*
X122663182Y-129677817D02*
X121066693Y-142680171D01*
X89205962Y-138768165D02*
G75*
G03*
X90076639Y-139882580I992545J-121870D01*
G01*
X119952278Y-143550847D02*
G75*
G03*
X121066692Y-142680171I121869J992545D01*
G01*
X48867607Y-101537142D02*
X36857798Y-100062523D01*
X35987121Y-98948107D02*
X37534862Y-86342771D01*
X51529763Y-88061129D02*
X49982022Y-100666465D01*
X38649277Y-85472094D02*
X50659086Y-86946713D01*
X35987121Y-98948107D02*
G75*
G03*
X36857798Y-100062522I992545J-121870D01*
G01*
X48867607Y-101537141D02*
G75*
G03*
X49982021Y-100666465I121870J992544D01*
G01*
X38649277Y-85472095D02*
G75*
G03*
X37534863Y-86342771I-121869J-992545D01*
G01*
X51529762Y-88061129D02*
G75*
G03*
X50659086Y-86946714I-992545J121870D01*
G01*
X220809841Y-65633319D02*
X232819650Y-64158700D01*
X233934065Y-65029377D02*
X235481806Y-77634713D01*
X221486905Y-79353071D02*
X219939164Y-66747735D01*
X234611129Y-78749129D02*
X222601320Y-80223748D01*
X233934064Y-65029377D02*
G75*
G03*
X232819650Y-64158701I-992544J-121868D01*
G01*
X220809841Y-65633321D02*
G75*
G03*
X219939165Y-66747735I121868J-992544D01*
G01*
X234611129Y-78749128D02*
G75*
G03*
X235481805Y-77634713I-121869J992545D01*
G01*
X221486906Y-79353071D02*
G75*
G03*
X222601320Y-80223747I992545J121869D01*
G01*
X240298248Y-68038709D02*
X252308057Y-66564090D01*
X253422472Y-67434767D02*
X254970213Y-80040103D01*
X240975312Y-81758461D02*
X239427571Y-69153125D01*
X254099536Y-81154519D02*
X242089727Y-82629138D01*
X253422471Y-67434767D02*
G75*
G03*
X252308057Y-66564091I-992544J-121868D01*
G01*
X240298248Y-68038711D02*
G75*
G03*
X239427572Y-69153125I121868J-992544D01*
G01*
X254099536Y-81154518D02*
G75*
G03*
X254970212Y-80040103I-121869J992545D01*
G01*
X240975313Y-81758461D02*
G75*
G03*
X242089727Y-82629137I992545J121869D01*
G01*
X68356014Y-99131752D02*
X56346205Y-97657133D01*
X55475528Y-96542717D02*
X57023269Y-83937381D01*
X71018170Y-85655739D02*
X69470429Y-98261075D01*
X58137684Y-83066704D02*
X70147493Y-84541323D01*
X55475528Y-96542717D02*
G75*
G03*
X56346205Y-97657132I992545J-121870D01*
G01*
X68356014Y-99131751D02*
G75*
G03*
X69470428Y-98261075I121870J992544D01*
G01*
X58137684Y-83066705D02*
G75*
G03*
X57023270Y-83937381I-121869J-992545D01*
G01*
X71018169Y-85655739D02*
G75*
G03*
X70147493Y-84541324I-992545J121870D01*
G01*
X51189218Y-82629138D02*
X39179409Y-81154519D01*
X38308732Y-80040103D02*
X39856473Y-67434767D01*
X53851374Y-69153125D02*
X52303633Y-81758461D01*
X40970888Y-66564090D02*
X52980697Y-68038709D01*
X38308732Y-80040103D02*
G75*
G03*
X39179409Y-81154518I992545J-121870D01*
G01*
X51189218Y-82629137D02*
G75*
G03*
X52303632Y-81758461I121870J992544D01*
G01*
X40970888Y-66564091D02*
G75*
G03*
X39856474Y-67434767I-121869J-992545D01*
G01*
X53851373Y-69153125D02*
G75*
G03*
X52980697Y-68038710I-992545J121870D01*
G01*
X211574275Y-137844075D02*
X210099656Y-125834266D01*
X210970333Y-124719851D02*
X223575669Y-123172110D01*
X225294027Y-137167011D02*
X212688691Y-138714752D01*
X224690085Y-124042787D02*
X226164704Y-136052596D01*
X210970333Y-124719852D02*
G75*
G03*
X210099657Y-125834266I121868J-992544D01*
G01*
X211574277Y-137844075D02*
G75*
G03*
X212688691Y-138714751I992544J121868D01*
G01*
X224690084Y-124042787D02*
G75*
G03*
X223575669Y-123172111I-992545J-121869D01*
G01*
X225294027Y-137167010D02*
G75*
G03*
X226164703Y-136052596I-121869J992545D01*
G01*
X170615762Y-129677817D02*
X202476494Y-125765811D01*
X172212251Y-142680171D02*
X170615762Y-129677817D01*
X203202305Y-139882581D02*
X173326666Y-143550848D01*
X202476494Y-125765811D02*
X204072982Y-138768165D01*
X172212252Y-142680171D02*
G75*
G03*
X173326666Y-143550847I992544J121868D01*
G01*
X203202305Y-139882580D02*
G75*
G03*
X204072981Y-138768165I-121869J992545D01*
G01*
X70677625Y-80223748D02*
X58667816Y-78749129D01*
X57797139Y-77634713D02*
X59344880Y-65029377D01*
X73339781Y-66747735D02*
X71792040Y-79353071D01*
X60459295Y-64158700D02*
X72469104Y-65633319D01*
X57797139Y-77634713D02*
G75*
G03*
X58667816Y-78749128I992545J-121870D01*
G01*
X70677625Y-80223747D02*
G75*
G03*
X71792039Y-79353071I121870J992544D01*
G01*
X60459295Y-64158701D02*
G75*
G03*
X59344881Y-65029377I-121869J-992545D01*
G01*
X73339780Y-66747735D02*
G75*
G03*
X72469104Y-65633320I-992545J121870D01*
G01*
X87844421Y-96726362D02*
X75834612Y-95251743D01*
X74963935Y-94137327D02*
X76511676Y-81531991D01*
X90506577Y-83250349D02*
X88958836Y-95855685D01*
X77626091Y-80661314D02*
X89635900Y-82135933D01*
X74963935Y-94137327D02*
G75*
G03*
X75834612Y-95251742I992545J-121870D01*
G01*
X87844421Y-96726361D02*
G75*
G03*
X88958835Y-95855685I121870J992544D01*
G01*
X77626091Y-80661315D02*
G75*
G03*
X76511677Y-81531991I-121869J-992545D01*
G01*
X90506576Y-83250349D02*
G75*
G03*
X89635900Y-82135934I-992545J121870D01*
G01*
X244942838Y-105851503D02*
X256952647Y-104376884D01*
X258067062Y-105247561D02*
X259614803Y-117852897D01*
X245619902Y-119571255D02*
X244072161Y-106965919D01*
X258744126Y-118967313D02*
X246734317Y-120441932D01*
X258067061Y-105247561D02*
G75*
G03*
X256952647Y-104376885I-992544J-121868D01*
G01*
X244942838Y-105851505D02*
G75*
G03*
X244072162Y-106965919I121868J-992544D01*
G01*
X258744126Y-118967312D02*
G75*
G03*
X259614802Y-117852897I-121869J992545D01*
G01*
X245619903Y-119571255D02*
G75*
G03*
X246734317Y-120441931I992545J121869D01*
G01*
X46552164Y-120445966D02*
X34542355Y-118971347D01*
X33671678Y-117856931D02*
X35219419Y-105251595D01*
X49214320Y-106969953D02*
X47666579Y-119575289D01*
X36333834Y-104380918D02*
X48343643Y-105855537D01*
X33671678Y-117856931D02*
G75*
G03*
X34542355Y-118971346I992545J-121870D01*
G01*
X46552164Y-120445965D02*
G75*
G03*
X47666578Y-119575289I121870J992544D01*
G01*
X36333834Y-104380919D02*
G75*
G03*
X35219420Y-105251595I-121869J-992545D01*
G01*
X49214319Y-106969953D02*
G75*
G03*
X48343643Y-105855538I-992545J121870D01*
G01*
X103850411Y-122682978D02*
X91840602Y-121208359D01*
X90969925Y-120093943D02*
X92517666Y-107488607D01*
X106512567Y-109206965D02*
X104964826Y-121812301D01*
X93632081Y-106617930D02*
X105641890Y-108092549D01*
X90969925Y-120093943D02*
G75*
G03*
X91840602Y-121208358I992545J-121870D01*
G01*
X103850411Y-122682977D02*
G75*
G03*
X104964825Y-121812301I121870J992544D01*
G01*
X93632081Y-106617931D02*
G75*
G03*
X92517667Y-107488607I-121869J-992545D01*
G01*
X106512566Y-109206965D02*
G75*
G03*
X105641890Y-108092550I-992545J121870D01*
G01*
X85522810Y-115634366D02*
X73513001Y-114159747D01*
X72642324Y-113045331D02*
X74190065Y-100439995D01*
X88184966Y-102158353D02*
X86637225Y-114763689D01*
X75304480Y-99569318D02*
X87314289Y-101043937D01*
X72642324Y-113045331D02*
G75*
G03*
X73513001Y-114159746I992545J-121870D01*
G01*
X85522810Y-115634365D02*
G75*
G03*
X86637224Y-114763689I121870J992544D01*
G01*
X75304480Y-99569319D02*
G75*
G03*
X74190066Y-100439995I-121869J-992545D01*
G01*
X88184965Y-102158353D02*
G75*
G03*
X87314289Y-101043938I-992545J121870D01*
G01*
X242619859Y-86946713D02*
X254629668Y-85472094D01*
X255744083Y-86342771D02*
X257291824Y-98948107D01*
X243296923Y-100666465D02*
X241749182Y-88061129D01*
X256421147Y-100062523D02*
X244411338Y-101537142D01*
X255744082Y-86342771D02*
G75*
G03*
X254629668Y-85472095I-992544J-121868D01*
G01*
X242619859Y-86946715D02*
G75*
G03*
X241749183Y-88061129I121868J-992544D01*
G01*
X256421147Y-100062522D02*
G75*
G03*
X257291823Y-98948107I-121869J992545D01*
G01*
X243296924Y-100666465D02*
G75*
G03*
X244411338Y-101537141I992545J121869D01*
G01*
X164085828Y-72598152D02*
X176095637Y-71123533D01*
X177210052Y-71994210D02*
X178757793Y-84599546D01*
X164762892Y-86317904D02*
X163215151Y-73712568D01*
X177887116Y-85713962D02*
X165877307Y-87188581D01*
X177210051Y-71994210D02*
G75*
G03*
X176095637Y-71123534I-992544J-121868D01*
G01*
X164085828Y-72598154D02*
G75*
G03*
X163215152Y-73712568I121868J-992544D01*
G01*
X177887116Y-85713961D02*
G75*
G03*
X178757792Y-84599546I-121869J992545D01*
G01*
X164762893Y-86317904D02*
G75*
G03*
X165877307Y-87188580I992545J121869D01*
G01*
X185315443Y-89184545D02*
X197325252Y-87709926D01*
X198439667Y-88580603D02*
X199987408Y-101185939D01*
X185992507Y-102904297D02*
X184444766Y-90298961D01*
X199116731Y-102300355D02*
X187106922Y-103774974D01*
X198439666Y-88580603D02*
G75*
G03*
X197325252Y-87709927I-992544J-121868D01*
G01*
X185315443Y-89184547D02*
G75*
G03*
X184444767Y-90298961I121868J-992544D01*
G01*
X199116731Y-102300354D02*
G75*
G03*
X199987407Y-101185939I-121869J992545D01*
G01*
X185992508Y-102904297D02*
G75*
G03*
X187106922Y-103774973I992545J121869D01*
G01*
X166407439Y-91506156D02*
X178417248Y-90031537D01*
X179531663Y-90902214D02*
X181079404Y-103507550D01*
X167084503Y-105225908D02*
X165536762Y-92620572D01*
X180208727Y-104621966D02*
X168198918Y-106096585D01*
X179531662Y-90902214D02*
G75*
G03*
X178417248Y-90031538I-992544J-121868D01*
G01*
X166407439Y-91506158D02*
G75*
G03*
X165536763Y-92620572I121868J-992544D01*
G01*
X180208727Y-104621965D02*
G75*
G03*
X181079403Y-103507550I-121869J992545D01*
G01*
X167084504Y-105225908D02*
G75*
G03*
X168198918Y-106096584I992545J121869D01*
G01*
X201321434Y-63227929D02*
X213331243Y-61753310D01*
X214445658Y-62623987D02*
X215993399Y-75229323D01*
X201998498Y-76947681D02*
X200450757Y-64342345D01*
X215122722Y-76343739D02*
X203112913Y-77818358D01*
X214445657Y-62623987D02*
G75*
G03*
X213331243Y-61753311I-992544J-121868D01*
G01*
X201321434Y-63227931D02*
G75*
G03*
X200450758Y-64342345I121868J-992544D01*
G01*
X215122722Y-76343738D02*
G75*
G03*
X215993398Y-75229323I-121869J992545D01*
G01*
X201998499Y-76947681D02*
G75*
G03*
X203112913Y-77818357I992545J121869D01*
G01*
X182993832Y-70276541D02*
X195003641Y-68801922D01*
X196118056Y-69672599D02*
X197665797Y-82277935D01*
X183670896Y-83996293D02*
X182123155Y-71390957D01*
X196795120Y-83392351D02*
X184785311Y-84866970D01*
X196118055Y-69672599D02*
G75*
G03*
X195003641Y-68801923I-992544J-121868D01*
G01*
X182993832Y-70276543D02*
G75*
G03*
X182123156Y-71390957I121868J-992544D01*
G01*
X196795120Y-83392350D02*
G75*
G03*
X197665796Y-82277935I-121869J992545D01*
G01*
X183670897Y-83996293D02*
G75*
G03*
X184785311Y-84866969I992545J121869D01*
G01*
X90166032Y-77818358D02*
X78156223Y-76343739D01*
X77285546Y-75229323D02*
X78833287Y-62623987D01*
X92828188Y-64342345D02*
X91280447Y-76947681D01*
X79947702Y-61753310D02*
X91957511Y-63227929D01*
X77285546Y-75229323D02*
G75*
G03*
X78156223Y-76343738I992545J-121870D01*
G01*
X90166032Y-77818357D02*
G75*
G03*
X91280446Y-76947681I121870J992544D01*
G01*
X79947702Y-61753311D02*
G75*
G03*
X78833288Y-62623987I-121869J-992545D01*
G01*
X92828187Y-64342345D02*
G75*
G03*
X91957511Y-63227930I-992545J121870D01*
G01*
X106172022Y-103774974D02*
X94162213Y-102300355D01*
X93291536Y-101185939D02*
X94839277Y-88580603D01*
X108834178Y-90298961D02*
X107286437Y-102904297D01*
X95953692Y-87709926D02*
X107963501Y-89184545D01*
X93291536Y-101185939D02*
G75*
G03*
X94162213Y-102300354I992545J-121870D01*
G01*
X106172022Y-103774973D02*
G75*
G03*
X107286436Y-102904297I121870J992544D01*
G01*
X95953692Y-87709927D02*
G75*
G03*
X94839278Y-88580603I-121869J-992545D01*
G01*
X108834177Y-90298961D02*
G75*
G03*
X107963501Y-89184546I-992545J121870D01*
G01*
X203643045Y-82135933D02*
X215652854Y-80661314D01*
X216767269Y-81531991D02*
X218315010Y-94137327D01*
X204320109Y-95855685D02*
X202772368Y-83250349D01*
X217444333Y-95251743D02*
X205434524Y-96726362D01*
X216767268Y-81531991D02*
G75*
G03*
X215652854Y-80661315I-992544J-121868D01*
G01*
X203643045Y-82135935D02*
G75*
G03*
X202772369Y-83250349I121868J-992544D01*
G01*
X217444333Y-95251742D02*
G75*
G03*
X218315009Y-94137327I-121869J992545D01*
G01*
X204320110Y-95855685D02*
G75*
G03*
X205434524Y-96726361I992545J121869D01*
G01*
M02*
