M48
; DRILL file {KiCad 7.0.7-7.0.7~ubuntu23.04.1} date Mon Sep 11 03:24:58 2023
; FORMAT={-:-/ absolute / metric / decimal}
; #@! TF.CreationDate,2023-09-11T03:24:58+00:00
; #@! TF.GenerationSoftware,Kicad,Pcbnew,7.0.7-7.0.7~ubuntu23.04.1
; #@! TF.FileFunction,NonPlated,1,2,NPTH
FMAT,2
METRIC
; #@! TA.AperFunction,NonPlated,NPTH,ComponentDrill
T1C2.200
%
G90
G05
T1
X42.604Y-102.959
X44.925Y-84.051
X62.092Y-100.554
X64.414Y-81.646
X79.253Y-117.056
X81.574Y-98.148
X83.902Y-79.241
X84.602Y-132.107
X99.902Y-105.196
X102.23Y-86.289
X121.132Y-88.61
X123.459Y-69.703
X126.418Y-136.751
X129.467Y-118.423
X131.788Y-99.515
X134.11Y-80.607
X159.169Y-80.607
X161.491Y-99.515
X163.812Y-118.423
X166.861Y-136.751
X169.819Y-69.703
X172.147Y-88.61
X191.049Y-86.289
X193.377Y-105.196
X208.677Y-132.107
X209.377Y-79.241
X211.704Y-98.148
X214.026Y-117.056
X228.865Y-81.646
X231.187Y-100.554
X248.354Y-84.051
X250.675Y-102.959
T0
M30
