  0
SECTION
  2
HEADER
  9
$ANGBASE
  50
0.0
  9
$ANGDIR
  70
1
  9
$MEASUREMENT
  70
1
  0
ENDSEC
  0
SECTION
  2
TABLES
  0
TABLE
  2
LTYPE
  70
4
  0
LTYPE
  5
40F
  2
CONTINUOUS
  70
0
  3
Solid line
  72
65
  73
0
  40
0.0
  0
LTYPE
  5
410
  2
DASHDOT
 70
0
  3
Dash Dot ____ _ ____ _
 72
65
 73
4
 40
2.0
 49
1.25
 49
-0.25
 49
0.25
 49
-0.25
  0
LTYPE
  5
411
  2
DASHED
 70
0
  3
Dashed __ __ __ __ __
 72
65
 73
2
 40
0.75
 49
0.5
 49
-0.25
  0
LTYPE
  5
43B
  2
DOTTED
 70
0
  3
Dotted .  .  .  .
 72
65
 73
2
 40
0.2
 49
0.0
 49
-0.2
  0
ENDTAB
  0
TABLE
  2
STYLE
  70
4
  0
STYLE
  2
KICAD
  70
0
  40
0
  41
1
  42
1
  50
0
  71
0
  3
isocp.shx
  0
STYLE
  2
KICADB
  70
0
  40
0
  41
1
  42
1
  50
0
  71
0
  3
isocp.shx
  0
STYLE
  2
KICADI
  70
0
  40
0
  41
1
  42
1
  50
15
  71
0
  3
isocp.shx
  0
STYLE
  2
KICADBI
  70
0
  40
0
  41
1
  42
1
  50
15
  71
0
  3
isocp.shx
  0
ENDTAB
  0
TABLE
  2
LAYER
  70
1
  0
LAYER
  2
BLACK
  70
0
  62
7
  6
CONTINUOUS
  0
ENDTAB
  0
ENDSEC
  0
SECTION
  2
ENTITIES
0
LINE
8
BLACK
6
CONTINUOUS
10
-68.9566
20
25.3624
11
-51.587
21
23.2297
0
LINE
8
BLACK
6
CONTINUOUS
10
-16.6368
20
14.392
11
-13.1145
21
17.1492
0
ARC
8
BLACK
10
97.8466
20
-38.0616
40
1.00006
50
-172.997
51
-83.0053
0
LINE
8
BLACK
6
CONTINUOUS
10
26.8045
20
-62.1869
11
83.3861
21
-55.2395
0
LINE
8
BLACK
6
CONTINUOUS
10
6.5
20
-7
11
-6.5
21
-7
0
LINE
8
BLACK
6
CONTINUOUS
10
-96.4422
20
-34.9155
11
-96.844
21
-38.1876
0
ARC
8
BLACK
10
-110.813
20
-32.4425
40
4.99984
50
-187.002
51
-96.998
0
ARC
8
BLACK
10
-11.5721
20
15.1817
40
2.50001
50
-51.9038
51
128.094
0
ARC
8
BLACK
10
21.8183
20
-64.6067
40
2.49998
50
-213.096
51
-33.0944
0
CIRCLE
8
BLACK
10
-11.572
20
15.1817
40
1.05
0
ARC
8
BLACK
10
-95.4498
20
-35.0372
40
0.999903
50
82.9945
51
173.008
0
LINE
8
BLACK
6
CONTINUOUS
10
-85.0813
20
-36.3105
11
-85.4238
21
-39.0999
0
LINE
8
BLACK
6
CONTINUOUS
10
-23.9027
20
-65.9759
11
-26.0786
21
-62.6375
0
LINE
8
BLACK
6
CONTINUOUS
10
-90.8928
20
19.2339
11
-90.8127
21
19.2241
0
ARC
8
BLACK
10
110.823
20
-32.4384
40
4.99986
50
-83.0016
51
7.00133
0
LINE
8
BLACK
6
CONTINUOUS
10
-50.5422
20
21.8924
11
-50.7996
21
19.7957
0
ARC
8
BLACK
10
83.1423
20
-53.2544
40
2
50
-83.0001
51
6.99982
0
LINE
8
BLACK
6
CONTINUOUS
10
-19.4337
20
-54.7918
11
19.4432
21
-54.7883
0
LINE
8
BLACK
6
CONTINUOUS
10
96.854
20
-38.1836
11
96.4522
21
-34.9115
0
ARC
8
BLACK
10
-90.7709
20
20.2265
40
1.00002
50
-186.999
51
-97.0004
0
LINE
8
BLACK
6
CONTINUOUS
10
-85.1174
20
-53.0148
11
-83.0963
21
-36.5542
0
ARC
8
BLACK
10
-91.0367
20
-35.5793
40
1.00011
50
-6.994
51
82.9978
0
LINE
8
BLACK
6
CONTINUOUS
10
-90.3866
20
-38.4906
11
-90.0441
21
-35.7011
0
ARC
8
BLACK
10
71.7525
20
22.3715
40
1.20027
50
-172.987
51
-83.0101
0
LINE
8
BLACK
6
CONTINUOUS
10
-83.3761
20
-55.2436
11
-26.7945
21
-62.1909
0
ARC
8
BLACK
10
94.2234
20
21.0164
40
2.51267
50
-353
51
-173
0
LINE
8
BLACK
6
CONTINUOUS
10
85.4338
20
-39.0959
11
85.0913
21
-36.3064
0
ARC
8
BLACK
10
-71.7425
20
22.3673
40
1.20013
50
-96.9938
51
-7.0067
0
ARC
8
BLACK
10
49.6187
20
19.6534
40
1.19986
50
-83.0069
51
7.0065
0
ARC
8
BLACK
10
87.9152
20
-38.7912
40
2.49998
50
-173.001
51
7.00103
0
LINE
8
BLACK
6
CONTINUOUS
10
-6.5
20
7
11
6.5
21
7
0
ARC
8
BLACK
10
-49.6088
20
19.6493
40
1.19982
50
-187.009
51
-96.9917
0
ARC
8
BLACK
10
-11.2446
20
10.9964
40
0.999999
50
-232.006
51
-89.9943
0
ARC
8
BLACK
10
-51.7334
20
22.0386
40
1.20012
50
-6.99447
51
82.9943
0
LINE
8
BLACK
6
CONTINUOUS
10
109.849
20
16.523
11
115.786
21
-31.829
0
CIRCLE
8
BLACK
10
11.582
20
15.1858
40
1.05
0
LINE
8
BLACK
6
CONTINUOUS
10
-20.1763
20
14.8304
11
-16.6368
21
14.392
0
LINE
8
BLACK
6
CONTINUOUS
10
8.00122
20
-9.99007
11
8.00122
21
-50.9901
0
LINE
8
BLACK
6
CONTINUOUS
10
-11.2445
20
9.99636
11
11.2558
21
9.99958
0
LINE
8
BLACK
6
CONTINUOUS
10
96.8836
20
19.9686
11
104.277
21
20.8764
0
LINE
8
BLACK
6
CONTINUOUS
10
16.6468
20
14.396
11
20.1863
21
14.8345
0
LINE
8
BLACK
6
CONTINUOUS
10
7.00122
20
-51.9901
11
-6.99878
21
-51.9901
0
LINE
8
BLACK
6
CONTINUOUS
10
-10.0296
20
13.2142
11
-11.8602
21
11.7845
0
ARC
8
BLACK
10
-94.2134
20
21.0123
40
2.51265
50
-6.99993
51
173
0
LINE
8
BLACK
6
CONTINUOUS
10
71.8986
20
21.1801
11
88.3204
21
23.1965
0
ARC
8
BLACK
10
-87.9052
20
-38.7953
40
2.5
50
-187
51
-7.00015
0
LINE
8
BLACK
6
CONTINUOUS
10
15.0697
20
15.6282
11
16.6468
21
14.396
0
LINE
8
BLACK
6
CONTINUOUS
10
-104.267
20
20.8724
11
-96.8736
21
19.9646
0
ARC
8
BLACK
10
-88.4324
20
22.1999
40
0.999951
50
82.9972
51
173
0
ARC
8
BLACK
10
-19.4336
20
-55.7918
40
1.00002
50
90.0063
51
172.364
0
ARC
8
BLACK
10
-23.1788
20
14.6652
40
3.00707
50
3.15006
51
162.85
0
ARC
8
BLACK
10
91.0465
20
-35.5751
40
0.99992
50
-263.005
51
-172.997
0
LINE
8
BLACK
6
CONTINUOUS
10
13.1245
20
17.1532
11
15.0697
21
15.6282
0
ARC
8
BLACK
10
-104.876
20
15.9095
40
5.00015
50
83.0017
51
172.998
0
ARC
8
BLACK
10
-6.99847
20
-50.9898
40
1.00023
50
-179.987
51
-90.0176
0
LINE
8
BLACK
6
CONTINUOUS
10
50.8096
20
19.7997
11
50.5522
21
21.8965
0
LINE
8
BLACK
6
CONTINUOUS
10
90.0541
20
-35.6971
11
90.3966
21
-38.4865
0
CIRCLE
8
BLACK
10
87.9152
20
-38.7912
40
1.05
0
LINE
8
BLACK
6
CONTINUOUS
10
-88.3105
20
23.1924
11
-71.8886
21
21.176
0
ARC
8
BLACK
10
6.50003
20
6.49996
40
0.500043
50
0.00492771
51
90.0032
0
LINE
8
BLACK
6
CONTINUOUS
10
111.433
20
-37.4011
11
97.9684
21
-39.0543
0
ARC
8
BLACK
10
88.4423
20
22.204
40
0.999955
50
6.99745
51
97.001
0
LINE
8
BLACK
6
CONTINUOUS
10
26.0886
20
-62.6334
11
23.9127
21
-65.9718
0
LINE
8
BLACK
6
CONTINUOUS
10
7
20
6.5
11
7
21
-6.5
0
ARC
8
BLACK
10
-97.8366
20
-38.0657
40
1.00002
50
-96.9986
51
-7.00154
0
ARC
8
BLACK
10
-90.6909
20
20.2167
40
1.00002
50
-96.9987
51
-7.00236
0
LINE
8
BLACK
6
CONTINUOUS
10
20.4344
20
-55.6553
11
21.1077
21
-60.6745
0
ARC
8
BLACK
10
90.7009
20
20.2208
40
1.00007
50
-172.996
51
-83.0052
0
LINE
8
BLACK
6
CONTINUOUS
10
-6.99878
20
-8.99007
11
7.00122
21
-8.99007
0
ARC
8
BLACK
10
19.4432
20
-55.7883
40
1.00004
50
7.64278
51
90.0036
0
LINE
8
BLACK
6
CONTINUOUS
10
51.597
20
23.2338
11
68.9665
21
25.3665
0
CIRCLE
8
BLACK
10
-21.8083
20
-64.6108
40
1.05
0
CIRCLE
8
BLACK
10
94.2234
20
21.0163
40
1.05
0
LINE
8
BLACK
6
CONTINUOUS
10
91.7295
20
20.7101
11
91.7734
21
20.3524
0
LINE
8
BLACK
6
CONTINUOUS
10
89.4349
20
22.3258
11
89.7083
21
20.0988
0
ARC
8
BLACK
10
-6.99877
20
-9.99004
40
1.00001
50
-270
51
-179.998
0
ARC
8
BLACK
10
104.886
20
15.9136
40
5.00013
50
7.00149
51
96.9991
0
ARC
8
BLACK
10
-21.8083
20
-64.6108
40
2.5
50
-146.906
51
33.0962
0
LINE
8
BLACK
6
CONTINUOUS
10
-49.7548
20
18.4584
11
-26.0521
21
15.5519
0
LINE
8
BLACK
6
CONTINUOUS
10
26.0621
20
15.5559
11
49.7648
21
18.4624
0
ARC
8
BLACK
10
6.50003
20
-6.50004
40
0.499972
50
-90.0032
51
0.00492771
0
ARC
8
BLACK
10
95.4597
20
-35.0332
40
0.999921
50
6.9955
51
97.0031
0
ARC
8
BLACK
10
7.00123
20
-9.99004
40
0.999968
50
-0.00183348
51
90.0005
0
LINE
8
BLACK
6
CONTINUOUS
10
19.7239
20
-63.2416
11
20.9544
21
-61.3533
0
ARC
8
BLACK
10
11.582
20
15.1858
40
2.49999
50
-308.095
51
-128.095
0
LINE
8
BLACK
6
CONTINUOUS
10
-7
20
-6.5
11
-7
21
6.5
0
ARC
8
BLACK
10
11.2557
20
10.9996
40
0.999988
50
-89.9948
51
52.0112
0
CIRCLE
8
BLACK
10
21.8183
20
-64.6067
40
1.05
0
LINE
8
BLACK
6
CONTINUOUS
10
-97.9584
20
-39.0583
11
-111.423
21
-37.4051
0
LINE
8
BLACK
6
CONTINUOUS
10
90.9247
20
-34.5826
11
95.3378
21
-34.0408
0
LINE
8
BLACK
6
CONTINUOUS
10
-95.3278
20
-34.0448
11
-90.9148
21
-34.5867
0
ARC
8
BLACK
10
-20.1066
20
-60.8114
40
1
50
-187.639
51
-146.913
0
LINE
8
BLACK
6
CONTINUOUS
10
-20.9444
20
-61.3574
11
-19.7139
21
-63.2457
0
LINE
8
BLACK
6
CONTINUOUS
10
-91.7634
20
20.3483
11
-91.7195
21
20.7061
0
ARC
8
BLACK
10
26.9263
20
-63.1794
40
0.999986
50
96.9986
51
146.904
0
ARC
8
BLACK
10
23.1888
20
14.6692
40
3.00706
50
17.1504
51
176.85
0
LINE
8
BLACK
6
CONTINUOUS
10
70.3038
20
24.3217
11
70.5613
21
22.2249
0
ARC
8
BLACK
10
84.0988
20
-36.4282
40
0.999971
50
-352.999
51
-173.001
0
LINE
8
BLACK
6
CONTINUOUS
10
96.8831
20
19.9723
11
96.7173
21
21.3226
0
ARC
8
BLACK
10
20.1166
20
-60.8073
40
0.999963
50
-33.0907
51
7.63674
0
ARC
8
BLACK
10
-83.1324
20
-53.2585
40
1.99996
50
-187.001
51
-96.999
0
LINE
8
BLACK
6
CONTINUOUS
10
-7.99878
20
-50.9901
11
-7.99878
21
-9.99007
0
ARC
8
BLACK
10
51.7433
20
22.0427
40
1.20009
50
-262.996
51
-173.003
0
LINE
8
BLACK
6
CONTINUOUS
10
90.8227
20
19.2281
11
90.9027
21
19.238
0
LINE
8
BLACK
6
CONTINUOUS
10
-70.5513
20
22.2209
11
-70.2939
21
24.3176
0
CIRCLE
8
BLACK
10
-87.9052
20
-38.7953
40
1.05
0
LINE
8
BLACK
6
CONTINUOUS
10
-21.0977
20
-60.6785
11
-20.4247
21
-55.659
0
LINE
8
BLACK
6
CONTINUOUS
10
-89.6983
20
20.0947
11
-89.4249
21
22.3217
0
ARC
8
BLACK
10
-26.9164
20
-63.1835
40
1.00005
50
33.097
51
82.9996
0
LINE
8
BLACK
6
CONTINUOUS
10
11.8712
20
11.7877
11
10.0396
21
13.2183
0
ARC
8
BLACK
10
-6.49997
20
-6.50004
40
0.499957
50
-180.005
51
-90.0032
0
CIRCLE
8
BLACK
10
-94.2134
20
21.0123
40
1.05
0
ARC
8
BLACK
10
7.00113
20
-50.99
40
1.00009
50
-89.9947
51
-0.00171872
0
ARC
8
BLACK
10
-6.49997
20
6.49996
40
0.500028
50
90.0032
51
179.995
0
LINE
8
BLACK
6
CONTINUOUS
10
-115.776
20
-31.8331
11
-109.839
21
16.519
0
LINE
8
BLACK
6
CONTINUOUS
10
-96.7073
20
21.3185
11
-96.8731
21
19.9682
0
ARC
8
BLACK
10
69.1127
20
24.1753
40
1.20016
50
7.00779
51
96.9961
0
ARC
8
BLACK
10
90.7808
20
20.2306
40
1.00004
50
-82.9978
51
6.99637
0
LINE
8
BLACK
6
CONTINUOUS
10
83.1063
20
-36.5501
11
85.1274
21
-53.0107
0
ARC
8
BLACK
10
-84.0889
20
-36.4323
40
0.999928
50
-6.99668
51
172.997
0
ARC
8
BLACK
10
-69.1026
20
24.1712
40
1.20025
50
83.012
51
172.991
0
LINE
8
BLACK
6
CONTINUOUS
10
40.9976
20
-23.7345
11
53.0074
21
-22.2599
0
LINE
8
BLACK
6
CONTINUOUS
10
54.1218
20
-23.1305
11
55.6695
21
-35.7359
0
LINE
8
BLACK
6
CONTINUOUS
10
41.6746
20
-37.4542
11
40.1269
21
-24.8489
0
LINE
8
BLACK
6
CONTINUOUS
10
54.7989
20
-36.8503
11
42.7891
21
-38.3249
0
ARC
8
BLACK
10
53.1293
20
-23.2524
40
0.999998
50
6.99993
51
97
0
ARC
8
BLACK
10
41.1195
20
-24.727
40
0.999998
50
-263
51
-173
0
ARC
8
BLACK
10
54.677
20
-35.8578
40
0.999999
50
-83
51
7.00004
0
ARC
8
BLACK
10
42.6672
20
-37.3324
40
0.999999
50
-173
51
-83
0
LINE
8
BLACK
6
CONTINUOUS
10
59.3252
20
-16.6859
11
71.335
21
-15.2113
0
LINE
8
BLACK
6
CONTINUOUS
10
72.4494
20
-16.0819
11
73.9971
21
-28.6873
0
LINE
8
BLACK
6
CONTINUOUS
10
60.0022
20
-30.4056
11
58.4545
21
-17.8003
0
LINE
8
BLACK
6
CONTINUOUS
10
73.1265
20
-29.8017
11
61.1167
21
-31.2763
0
ARC
8
BLACK
10
71.4569
20
-16.2038
40
0.999998
50
6.99993
51
97
0
ARC
8
BLACK
10
59.4471
20
-17.6784
40
0.999998
50
-263
51
-173
0
ARC
8
BLACK
10
73.0046
20
-28.8091
40
0.999999
50
-83
51
7.00004
0
ARC
8
BLACK
10
60.9948
20
-30.2838
40
0.999999
50
-173
51
-83
0
LINE
8
BLACK
6
CONTINUOUS
10
-19.2378
20
-2.83052
11
-31.2476
21
-1.3559
0
LINE
8
BLACK
6
CONTINUOUS
10
-32.1183
20
-0.241489
11
-30.5706
21
12.3638
0
LINE
8
BLACK
6
CONTINUOUS
10
-16.5757
20
10.6455
11
-18.1234
21
-1.95985
0
LINE
8
BLACK
6
CONTINUOUS
10
-29.4562
20
13.2345
11
-17.4464
21
11.7599
0
ARC
8
BLACK
10
-31.1258
20
-0.363359
40
0.999999
50
-187
51
-96.9999
0
ARC
8
BLACK
10
-19.116
20
-1.83798
40
0.999998
50
-97
51
-6.99993
0
ARC
8
BLACK
10
-29.578
20
12.242
40
0.999999
50
83
51
173
0
ARC
8
BLACK
10
-17.5682
20
10.7674
40
0.999999
50
-7.00004
51
83
0
LINE
8
BLACK
6
CONTINUOUS
10
-21.5594
20
-21.7385
11
-33.5693
21
-20.2639
0
LINE
8
BLACK
6
CONTINUOUS
10
-34.4399
20
-19.1495
11
-32.8922
21
-6.54416
0
LINE
8
BLACK
6
CONTINUOUS
10
-18.8973
20
-8.26252
11
-20.445
21
-20.8679
0
LINE
8
BLACK
6
CONTINUOUS
10
-31.7778
20
-5.67348
11
-19.768
21
-7.1481
0
ARC
8
BLACK
10
-33.4474
20
-19.2714
40
0.999999
50
-187
51
-96.9999
0
ARC
8
BLACK
10
-21.4376
20
-20.746
40
0.999998
50
-97
51
-6.99993
0
ARC
8
BLACK
10
-31.8996
20
-6.66603
40
0.999999
50
83
51
173
0
ARC
8
BLACK
10
-19.8898
20
-8.14064
40
0.999999
50
-7.00004
51
83
0
LINE
8
BLACK
6
CONTINUOUS
10
-63.4526
20
-41.4802
11
-64.9273
21
-53.4901
0
LINE
8
BLACK
6
CONTINUOUS
10
-66.0417
20
-54.3607
11
-78.647
21
-52.813
0
LINE
8
BLACK
6
CONTINUOUS
10
-76.9287
20
-38.8181
11
-64.3233
21
-40.3658
0
LINE
8
BLACK
6
CONTINUOUS
10
-79.5177
20
-51.6986
11
-78.0431
21
-39.6888
0
ARC
8
BLACK
10
-65.9198
20
-53.3682
40
0.999999
50
-97
51
-6.99992
0
ARC
8
BLACK
10
-64.4452
20
-41.3584
40
0.999998
50
-7.00005
51
83.0001
0
ARC
8
BLACK
10
-78.5251
20
-51.8204
40
0.999999
50
-187
51
-97
0
ARC
8
BLACK
10
-77.0505
20
-39.8106
40
0.999999
50
83
51
173
0
LINE
8
BLACK
6
CONTINUOUS
10
78.8136
20
-19.0913
11
90.8234
21
-17.6167
0
LINE
8
BLACK
6
CONTINUOUS
10
91.9378
20
-18.4873
11
93.4856
21
-31.0927
0
LINE
8
BLACK
6
CONTINUOUS
10
79.4907
20
-32.811
11
77.9429
21
-20.2057
0
LINE
8
BLACK
6
CONTINUOUS
10
92.6149
20
-32.2071
11
80.6051
21
-33.6817
0
ARC
8
BLACK
10
90.9453
20
-18.6092
40
0.999998
50
6.99993
51
97
0
ARC
8
BLACK
10
78.9355
20
-20.0838
40
0.999998
50
-263
51
-173
0
ARC
8
BLACK
10
92.493
20
-31.2145
40
0.999999
50
-83
51
7.00004
0
ARC
8
BLACK
10
80.4832
20
-32.6892
40
0.999999
50
-173
51
-83
0
LINE
8
BLACK
6
CONTINUOUS
10
76.492
20
-0.183266
11
88.5018
21
1.29135
0
LINE
8
BLACK
6
CONTINUOUS
10
89.6162
20
0.420676
11
91.1639
21
-12.1847
0
LINE
8
BLACK
6
CONTINUOUS
10
77.169
20
-13.903
11
75.6213
21
-1.29768
0
LINE
8
BLACK
6
CONTINUOUS
10
90.2933
20
-13.2991
11
78.2835
21
-14.7737
0
ARC
8
BLACK
10
88.6237
20
0.298808
40
0.999998
50
6.99993
51
97
0
ARC
8
BLACK
10
76.6138
20
-1.17581
40
0.999998
50
-263
51
-173
0
ARC
8
BLACK
10
90.1714
20
-12.3065
40
0.999999
50
-83
51
7.00004
0
ARC
8
BLACK
10
78.1616
20
-13.7811
40
0.999999
50
-173
51
-83
0
LINE
8
BLACK
6
CONTINUOUS
10
-80.6051
20
-33.6817
11
-92.6149
21
-32.2071
0
LINE
8
BLACK
6
CONTINUOUS
10
-93.4856
20
-31.0927
11
-91.9378
21
-18.4873
0
LINE
8
BLACK
6
CONTINUOUS
10
-77.9429
20
-20.2057
11
-79.4907
21
-32.811
0
LINE
8
BLACK
6
CONTINUOUS
10
-90.8234
20
-17.6167
11
-78.8136
21
-19.0913
0
ARC
8
BLACK
10
-92.493
20
-31.2145
40
0.999999
50
-187
51
-96.9999
0
ARC
8
BLACK
10
-80.4832
20
-32.6892
40
0.999998
50
-97
51
-6.99993
0
ARC
8
BLACK
10
-90.9453
20
-18.6092
40
0.999999
50
83
51
173
0
ARC
8
BLACK
10
-78.9355
20
-20.0838
40
0.999999
50
-7.00004
51
83
0
LINE
8
BLACK
6
CONTINUOUS
10
22.0896
20
-26.0561
11
34.0994
21
-24.5815
0
LINE
8
BLACK
6
CONTINUOUS
10
35.2138
20
-25.4522
11
36.7615
21
-38.0575
0
LINE
8
BLACK
6
CONTINUOUS
10
22.7666
20
-39.7759
11
21.2189
21
-27.1705
0
LINE
8
BLACK
6
CONTINUOUS
10
35.8909
20
-39.1719
11
23.8811
21
-40.6465
0
ARC
8
BLACK
10
34.2213
20
-25.574
40
0.999998
50
6.99993
51
97
0
ARC
8
BLACK
10
22.2114
20
-27.0486
40
0.999998
50
-263
51
-173
0
ARC
8
BLACK
10
35.769
20
-38.1794
40
0.999999
50
-83
51
7.00004
0
ARC
8
BLACK
10
23.7592
20
-39.654
40
0.999999
50
-173
51
-83
0
LINE
8
BLACK
6
CONTINUOUS
10
-38.1458
20
-0.508913
11
-50.1556
21
0.965706
0
LINE
8
BLACK
6
CONTINUOUS
10
-51.0263
20
2.08012
11
-49.4786
21
14.6855
0
LINE
8
BLACK
6
CONTINUOUS
10
-35.4837
20
12.9671
11
-37.0314
21
0.361764
0
LINE
8
BLACK
6
CONTINUOUS
10
-48.3642
20
15.5561
11
-36.3544
21
14.0815
0
ARC
8
BLACK
10
-50.0338
20
1.95825
40
0.999999
50
-187
51
-96.9999
0
ARC
8
BLACK
10
-38.024
20
0.483632
40
0.999998
50
-97
51
-6.99993
0
ARC
8
BLACK
10
-48.486
20
14.5636
40
0.999999
50
83
51
173
0
ARC
8
BLACK
10
-36.4762
20
13.089
40
0.999999
50
-7.00004
51
83
0
LINE
8
BLACK
6
CONTINUOUS
10
-23.8811
20
-40.6465
11
-35.8909
21
-39.1719
0
LINE
8
BLACK
6
CONTINUOUS
10
-36.7615
20
-38.0575
11
-35.2138
21
-25.4522
0
LINE
8
BLACK
6
CONTINUOUS
10
-21.2189
20
-27.1705
11
-22.7666
21
-39.7759
0
LINE
8
BLACK
6
CONTINUOUS
10
-34.0994
20
-24.5815
11
-22.0896
21
-26.0561
0
ARC
8
BLACK
10
-35.769
20
-38.1794
40
0.999999
50
-187
51
-96.9999
0
ARC
8
BLACK
10
-23.7592
20
-39.654
40
0.999998
50
-97
51
-6.99993
0
ARC
8
BLACK
10
-34.2213
20
-25.574
40
0.999999
50
83
51
173
0
ARC
8
BLACK
10
-22.2114
20
-27.0486
40
0.999999
50
-7.00004
51
83
0
LINE
8
BLACK
6
CONTINUOUS
10
-55.837
20
-41.4078
11
-23.9763
21
-45.3198
0
LINE
8
BLACK
6
CONTINUOUS
10
-57.4335
20
-54.4101
11
-55.837
21
-41.4078
0
LINE
8
BLACK
6
CONTINUOUS
10
-26.6872
20
-59.1928
11
-56.5628
21
-55.5245
0
LINE
8
BLACK
6
CONTINUOUS
10
-23.9763
20
-45.3198
11
-25.5728
21
-58.3221
0
ARC
8
BLACK
10
-56.441
20
-54.532
40
0.999999
50
-187
51
-96.9999
0
ARC
8
BLACK
10
-26.5653
20
-58.2002
40
0.999999
50
-97
51
-6.99998
0
LINE
8
BLACK
6
CONTINUOUS
10
-97.7719
20
-17.1791
11
-109.782
21
-15.7045
0
LINE
8
BLACK
6
CONTINUOUS
10
-110.652
20
-14.59
11
-109.105
21
-1.98471
0
LINE
8
BLACK
6
CONTINUOUS
10
-95.1097
20
-3.70307
11
-96.6574
21
-16.3084
0
LINE
8
BLACK
6
CONTINUOUS
10
-107.99
20
-1.11404
11
-95.9804
21
-2.58866
0
ARC
8
BLACK
10
-109.66
20
-14.7119
40
0.999999
50
-187
51
-96.9999
0
ARC
8
BLACK
10
-97.65
20
-16.1865
40
0.999998
50
-97
51
-6.99993
0
ARC
8
BLACK
10
-108.112
20
-2.10658
40
0.999999
50
83
51
173
0
ARC
8
BLACK
10
-96.1023
20
-3.5812
40
0.999999
50
-7.00004
51
83
0
LINE
8
BLACK
6
CONTINUOUS
10
74.1704
20
18.7247
11
86.1802
21
20.1994
0
LINE
8
BLACK
6
CONTINUOUS
10
87.2946
20
19.3287
11
88.8423
21
6.72334
0
LINE
8
BLACK
6
CONTINUOUS
10
74.8474
20
5.00499
11
73.2997
21
17.6103
0
LINE
8
BLACK
6
CONTINUOUS
10
87.9717
20
5.60893
11
75.9618
21
4.13431
0
ARC
8
BLACK
10
86.302
20
19.2068
40
0.999998
50
6.99993
51
97
0
ARC
8
BLACK
10
74.2922
20
17.7322
40
0.999998
50
-263
51
-173
0
ARC
8
BLACK
10
87.8498
20
6.60147
40
0.999999
50
-83
51
7.00004
0
ARC
8
BLACK
10
75.84
20
5.12685
40
0.999999
50
-173
51
-83
0
LINE
8
BLACK
6
CONTINUOUS
10
93.6588
20
16.3193
11
105.669
21
17.794
0
LINE
8
BLACK
6
CONTINUOUS
10
106.783
20
16.9233
11
108.331
21
4.31795
0
LINE
8
BLACK
6
CONTINUOUS
10
94.3358
20
2.5996
11
92.7881
21
15.2049
0
LINE
8
BLACK
6
CONTINUOUS
10
107.46
20
3.20354
11
95.4503
21
1.72892
0
ARC
8
BLACK
10
105.79
20
16.8014
40
0.999998
50
6.99993
51
97
0
ARC
8
BLACK
10
93.7806
20
15.3268
40
0.999998
50
-263
51
-173
0
ARC
8
BLACK
10
107.338
20
4.19608
40
0.999999
50
-83
51
7.00004
0
ARC
8
BLACK
10
95.3284
20
2.72146
40
0.999999
50
-173
51
-83
0
LINE
8
BLACK
6
CONTINUOUS
10
-78.2835
20
-14.7737
11
-90.2933
21
-13.2991
0
LINE
8
BLACK
6
CONTINUOUS
10
-91.1639
20
-12.1847
11
-89.6162
21
0.420676
0
LINE
8
BLACK
6
CONTINUOUS
10
-75.6213
20
-1.29768
11
-77.169
21
-13.903
0
LINE
8
BLACK
6
CONTINUOUS
10
-88.5018
20
1.29135
11
-76.492
21
-0.183266
0
ARC
8
BLACK
10
-90.1714
20
-12.3065
40
0.999999
50
-187
51
-96.9999
0
ARC
8
BLACK
10
-78.1616
20
-13.7812
40
0.999998
50
-97
51
-6.99993
0
ARC
8
BLACK
10
-88.6237
20
0.298807
40
0.999999
50
83
51
173
0
ARC
8
BLACK
10
-76.6138
20
-1.17581
40
0.999999
50
-7.00004
51
83
0
LINE
8
BLACK
6
CONTINUOUS
10
-95.4503
20
1.72892
11
-107.46
21
3.20354
0
LINE
8
BLACK
6
CONTINUOUS
10
-108.331
20
4.31795
11
-106.783
21
16.9233
0
LINE
8
BLACK
6
CONTINUOUS
10
-92.7881
20
15.2049
11
-94.3358
21
2.5996
0
LINE
8
BLACK
6
CONTINUOUS
10
-105.669
20
17.794
11
-93.6588
21
16.3193
0
ARC
8
BLACK
10
-107.338
20
4.19608
40
0.999999
50
-187
51
-96.9999
0
ARC
8
BLACK
10
-95.3284
20
2.72146
40
0.999998
50
-97
51
-6.99993
0
ARC
8
BLACK
10
-105.79
20
16.8014
40
0.999999
50
83
51
173
0
ARC
8
BLACK
10
-93.7806
20
15.3268
40
0.999999
50
-7.00004
51
83
0
LINE
8
BLACK
6
CONTINUOUS
10
64.9348
20
-53.486
11
63.4602
21
-41.4762
0
LINE
8
BLACK
6
CONTINUOUS
10
64.3309
20
-40.3618
11
76.9362
21
-38.8141
0
LINE
8
BLACK
6
CONTINUOUS
10
78.6546
20
-52.809
11
66.0492
21
-54.3567
0
LINE
8
BLACK
6
CONTINUOUS
10
78.0506
20
-39.6847
11
79.5252
21
-51.6945
0
ARC
8
BLACK
10
64.4527
20
-41.3543
40
0.999998
50
-263
51
-173
0
ARC
8
BLACK
10
65.9273
20
-53.3641
40
0.999998
50
-173
51
-83
0
ARC
8
BLACK
10
77.0581
20
-39.8066
40
0.999999
50
6.99998
51
97
0
ARC
8
BLACK
10
78.5327
20
-51.8164
40
0.999999
50
-83
51
6.99998
0
LINE
8
BLACK
6
CONTINUOUS
10
23.9763
20
-45.3198
11
55.837
21
-41.4078
0
LINE
8
BLACK
6
CONTINUOUS
10
25.5728
20
-58.3221
11
23.9763
21
-45.3198
0
LINE
8
BLACK
6
CONTINUOUS
10
56.5628
20
-55.5245
11
26.6872
21
-59.1928
0
LINE
8
BLACK
6
CONTINUOUS
10
55.837
20
-41.4078
11
57.4335
21
-54.4101
0
ARC
8
BLACK
10
26.5653
20
-58.2002
40
0.999998
50
-173
51
-83
0
ARC
8
BLACK
10
56.441
20
-54.532
40
0.999999
50
-83
51
7.00004
0
LINE
8
BLACK
6
CONTINUOUS
10
-75.9618
20
4.13431
11
-87.9717
21
5.60893
0
LINE
8
BLACK
6
CONTINUOUS
10
-88.8423
20
6.72334
11
-87.2946
21
19.3287
0
LINE
8
BLACK
6
CONTINUOUS
10
-73.2997
20
17.6103
11
-74.8474
21
5.00499
0
LINE
8
BLACK
6
CONTINUOUS
10
-86.1802
20
20.1994
11
-74.1704
21
18.7247
0
ARC
8
BLACK
10
-87.8498
20
6.60147
40
0.999999
50
-187
51
-96.9999
0
ARC
8
BLACK
10
-75.84
20
5.12685
40
0.999998
50
-97
51
-6.99993
0
ARC
8
BLACK
10
-86.302
20
19.2068
40
0.999999
50
83
51
173
0
ARC
8
BLACK
10
-74.2922
20
17.7322
40
0.999999
50
-7.00004
51
83
0
LINE
8
BLACK
6
CONTINUOUS
10
-58.7951
20
-12.3683
11
-70.8049
21
-10.8937
0
LINE
8
BLACK
6
CONTINUOUS
10
-71.6755
20
-9.77927
11
-70.1278
21
2.82607
0
LINE
8
BLACK
6
CONTINUOUS
10
-56.1329
20
1.10771
11
-57.6806
21
-11.4976
0
LINE
8
BLACK
6
CONTINUOUS
10
-69.0134
20
3.69674
11
-57.0036
21
2.22212
0
ARC
8
BLACK
10
-70.683
20
-9.90114
40
0.999999
50
-187
51
-96.9999
0
ARC
8
BLACK
10
-58.6732
20
-11.3758
40
0.999998
50
-97
51
-6.99993
0
ARC
8
BLACK
10
-69.1352
20
2.7042
40
0.999999
50
83
51
173
0
ARC
8
BLACK
10
-57.1254
20
1.22958
40
0.999999
50
-7.00004
51
83
0
LINE
8
BLACK
6
CONTINUOUS
10
98.3034
20
-21.4934
11
110.313
21
-20.0188
0
LINE
8
BLACK
6
CONTINUOUS
10
111.428
20
-20.8895
11
112.975
21
-33.4948
0
LINE
8
BLACK
6
CONTINUOUS
10
98.9804
20
-35.2132
11
97.4327
21
-22.6079
0
LINE
8
BLACK
6
CONTINUOUS
10
112.105
20
-34.6093
11
100.095
21
-36.0839
0
ARC
8
BLACK
10
110.435
20
-21.0114
40
0.999998
50
6.99993
51
97
0
ARC
8
BLACK
10
98.4252
20
-22.486
40
0.999998
50
-263
51
-173
0
ARC
8
BLACK
10
111.983
20
-33.6167
40
0.999999
50
-83
51
7.00004
0
ARC
8
BLACK
10
99.973
20
-35.0913
40
0.999999
50
-173
51
-83
0
LINE
8
BLACK
6
CONTINUOUS
10
-100.087
20
-36.0879
11
-112.097
21
-34.6133
0
LINE
8
BLACK
6
CONTINUOUS
10
-112.968
20
-33.4989
11
-111.42
21
-20.8935
0
LINE
8
BLACK
6
CONTINUOUS
10
-97.4252
20
-22.6119
11
-98.9729
21
-35.2172
0
LINE
8
BLACK
6
CONTINUOUS
10
-110.306
20
-20.0229
11
-98.2958
21
-21.4975
0
ARC
8
BLACK
10
-111.975
20
-33.6207
40
0.999999
50
-187
51
-96.9999
0
ARC
8
BLACK
10
-99.9654
20
-35.0954
40
0.999998
50
-97
51
-6.99993
0
ARC
8
BLACK
10
-110.428
20
-21.0154
40
0.999999
50
83
51
173
0
ARC
8
BLACK
10
-98.4177
20
-22.49
40
0.999999
50
-7.00004
51
83
0
LINE
8
BLACK
6
CONTINUOUS
10
-42.7891
20
-38.3249
11
-54.7989
21
-36.8503
0
LINE
8
BLACK
6
CONTINUOUS
10
-55.6695
20
-35.7359
11
-54.1218
21
-23.1305
0
LINE
8
BLACK
6
CONTINUOUS
10
-40.1269
20
-24.8489
11
-41.6746
21
-37.4542
0
LINE
8
BLACK
6
CONTINUOUS
10
-53.0074
20
-22.2599
11
-40.9976
21
-23.7345
0
ARC
8
BLACK
10
-54.677
20
-35.8578
40
0.999999
50
-187
51
-96.9999
0
ARC
8
BLACK
10
-42.6672
20
-37.3324
40
0.999998
50
-97
51
-6.99993
0
ARC
8
BLACK
10
-53.1293
20
-23.2524
40
0.999999
50
83
51
173
0
ARC
8
BLACK
10
-41.1195
20
-24.727
40
0.999999
50
-7.00004
51
83
0
LINE
8
BLACK
6
CONTINUOUS
10
-61.1167
20
-31.2763
11
-73.1265
21
-29.8017
0
LINE
8
BLACK
6
CONTINUOUS
10
-73.9971
20
-28.6873
11
-72.4494
21
-16.0819
0
LINE
8
BLACK
6
CONTINUOUS
10
-58.4545
20
-17.8003
11
-60.0022
21
-30.4056
0
LINE
8
BLACK
6
CONTINUOUS
10
-71.335
20
-15.2113
11
-59.3252
21
-16.6859
0
ARC
8
BLACK
10
-73.0046
20
-28.8091
40
0.999999
50
-187
51
-96.9999
0
ARC
8
BLACK
10
-60.9948
20
-30.2838
40
0.999998
50
-97
51
-6.99993
0
ARC
8
BLACK
10
-71.4569
20
-16.2038
40
0.999999
50
83
51
173
0
ARC
8
BLACK
10
-59.4471
20
-17.6784
40
0.999999
50
-7.00004
51
83
0
LINE
8
BLACK
6
CONTINUOUS
10
95.9804
20
-2.58866
11
107.99
21
-1.11404
0
LINE
8
BLACK
6
CONTINUOUS
10
109.105
20
-1.98471
11
110.652
21
-14.59
0
LINE
8
BLACK
6
CONTINUOUS
10
96.6575
20
-16.3084
11
95.1097
21
-3.70307
0
LINE
8
BLACK
6
CONTINUOUS
10
109.782
20
-15.7045
11
97.7719
21
-17.1791
0
ARC
8
BLACK
10
108.112
20
-2.10658
40
0.999998
50
6.99993
51
97
0
ARC
8
BLACK
10
96.1023
20
-3.5812
40
0.999998
50
-263
51
-173
0
ARC
8
BLACK
10
109.66
20
-14.7119
40
0.999999
50
-83
51
7.00004
0
ARC
8
BLACK
10
97.65
20
-16.1865
40
0.999999
50
-173
51
-83
0
LINE
8
BLACK
6
CONTINUOUS
10
17.4464
20
11.7599
11
29.4562
21
13.2345
0
LINE
8
BLACK
6
CONTINUOUS
10
30.5706
20
12.3638
11
32.1183
21
-0.241489
0
LINE
8
BLACK
6
CONTINUOUS
10
18.1234
20
-1.95985
11
16.5757
21
10.6455
0
LINE
8
BLACK
6
CONTINUOUS
10
31.2476
20
-1.3559
11
19.2378
21
-2.83052
0
ARC
8
BLACK
10
29.578
20
12.242
40
0.999998
50
6.99993
51
97
0
ARC
8
BLACK
10
17.5682
20
10.7674
40
0.999998
50
-263
51
-173
0
ARC
8
BLACK
10
31.1258
20
-0.363359
40
0.999999
50
-83
51
7.00004
0
ARC
8
BLACK
10
19.116
20
-1.83798
40
0.999999
50
-173
51
-83
0
LINE
8
BLACK
6
CONTINUOUS
10
38.676
20
-4.82649
11
50.6858
21
-3.35187
0
LINE
8
BLACK
6
CONTINUOUS
10
51.8002
20
-4.22255
11
53.3479
21
-16.8279
0
LINE
8
BLACK
6
CONTINUOUS
10
39.353
20
-18.5462
11
37.8053
21
-5.9409
0
LINE
8
BLACK
6
CONTINUOUS
10
52.4773
20
-17.9423
11
40.4674
21
-19.4169
0
ARC
8
BLACK
10
50.8076
20
-4.34441
40
0.999998
50
6.99993
51
97
0
ARC
8
BLACK
10
38.7978
20
-5.81903
40
0.999998
50
-263
51
-173
0
ARC
8
BLACK
10
52.3554
20
-16.9498
40
0.999999
50
-83
51
7.00004
0
ARC
8
BLACK
10
40.3456
20
-18.4244
40
0.999999
50
-173
51
-83
0
LINE
8
BLACK
6
CONTINUOUS
10
19.768
20
-7.1481
11
31.7778
21
-5.67348
0
LINE
8
BLACK
6
CONTINUOUS
10
32.8922
20
-6.54416
11
34.4399
21
-19.1495
0
LINE
8
BLACK
6
CONTINUOUS
10
20.445
20
-20.8679
11
18.8973
21
-8.26252
0
LINE
8
BLACK
6
CONTINUOUS
10
33.5693
20
-20.2639
11
21.5594
21
-21.7385
0
ARC
8
BLACK
10
31.8996
20
-6.66602
40
0.999998
50
6.99993
51
97
0
ARC
8
BLACK
10
19.8898
20
-8.14064
40
0.999998
50
-263
51
-173
0
ARC
8
BLACK
10
33.4474
20
-19.2714
40
0.999999
50
-83
51
7.00004
0
ARC
8
BLACK
10
21.4376
20
-20.746
40
0.999999
50
-173
51
-83
0
LINE
8
BLACK
6
CONTINUOUS
10
54.682
20
21.1301
11
66.6918
21
22.6047
0
LINE
8
BLACK
6
CONTINUOUS
10
67.8062
20
21.7341
11
69.3539
21
9.12873
0
LINE
8
BLACK
6
CONTINUOUS
10
55.359
20
7.41038
11
53.8113
21
20.0157
0
LINE
8
BLACK
6
CONTINUOUS
10
68.4832
20
8.01432
11
56.4734
21
6.5397
0
ARC
8
BLACK
10
66.8136
20
21.6122
40
0.999998
50
6.99993
51
97
0
ARC
8
BLACK
10
54.8038
20
20.1376
40
0.999998
50
-263
51
-173
0
ARC
8
BLACK
10
68.3614
20
9.00686
40
0.999999
50
-83
51
7.00004
0
ARC
8
BLACK
10
56.3516
20
7.53224
40
0.999999
50
-173
51
-83
0
LINE
8
BLACK
6
CONTINUOUS
10
36.3544
20
14.0815
11
48.3642
21
15.5561
0
LINE
8
BLACK
6
CONTINUOUS
10
49.4786
20
14.6855
11
51.0263
21
2.08012
0
LINE
8
BLACK
6
CONTINUOUS
10
37.0314
20
0.361764
11
35.4837
21
12.9671
0
LINE
8
BLACK
6
CONTINUOUS
10
50.1556
20
0.965706
11
38.1458
21
-0.508913
0
ARC
8
BLACK
10
48.486
20
14.5636
40
0.999998
50
6.99993
51
97
0
ARC
8
BLACK
10
36.4762
20
13.089
40
0.999998
50
-263
51
-173
0
ARC
8
BLACK
10
50.0338
20
1.95825
40
0.999999
50
-83
51
7.00004
0
ARC
8
BLACK
10
38.024
20
0.483633
40
0.999999
50
-173
51
-83
0
LINE
8
BLACK
6
CONTINUOUS
10
-56.4734
20
6.5397
11
-68.4832
21
8.01432
0
LINE
8
BLACK
6
CONTINUOUS
10
-69.3539
20
9.12873
11
-67.8062
21
21.7341
0
LINE
8
BLACK
6
CONTINUOUS
10
-53.8113
20
20.0157
11
-55.359
21
7.41038
0
LINE
8
BLACK
6
CONTINUOUS
10
-66.6918
20
22.6047
11
-54.682
21
21.1301
0
ARC
8
BLACK
10
-68.3614
20
9.00686
40
0.999999
50
-187
51
-96.9999
0
ARC
8
BLACK
10
-56.3516
20
7.53224
40
0.999998
50
-97
51
-6.99993
0
ARC
8
BLACK
10
-66.8136
20
21.6122
40
0.999999
50
83
51
173
0
ARC
8
BLACK
10
-54.8038
20
20.1376
40
0.999999
50
-7.00004
51
83
0
LINE
8
BLACK
6
CONTINUOUS
10
-40.4674
20
-19.4169
11
-52.4773
21
-17.9423
0
LINE
8
BLACK
6
CONTINUOUS
10
-53.3479
20
-16.8279
11
-51.8002
21
-4.22255
0
LINE
8
BLACK
6
CONTINUOUS
10
-37.8053
20
-5.9409
11
-39.353
21
-18.5462
0
LINE
8
BLACK
6
CONTINUOUS
10
-50.6858
20
-3.35187
11
-38.676
21
-4.82649
0
ARC
8
BLACK
10
-52.3554
20
-16.9498
40
0.999999
50
-187
51
-96.9999
0
ARC
8
BLACK
10
-40.3456
20
-18.4244
40
0.999998
50
-97
51
-6.99993
0
ARC
8
BLACK
10
-50.8076
20
-4.34441
40
0.999999
50
83
51
173
0
ARC
8
BLACK
10
-38.7978
20
-5.81903
40
0.999999
50
-7.00004
51
83
0
LINE
8
BLACK
6
CONTINUOUS
10
57.0036
20
2.22212
11
69.0134
21
3.69674
0
LINE
8
BLACK
6
CONTINUOUS
10
70.1278
20
2.82607
11
71.6755
21
-9.77927
0
LINE
8
BLACK
6
CONTINUOUS
10
57.6806
20
-11.4976
11
56.1329
21
1.10771
0
LINE
8
BLACK
6
CONTINUOUS
10
70.8049
20
-10.8937
11
58.7951
21
-12.3683
0
ARC
8
BLACK
10
69.1353
20
2.7042
40
0.999998
50
6.99993
51
97
0
ARC
8
BLACK
10
57.1254
20
1.22958
40
0.999998
50
-263
51
-173
0
ARC
8
BLACK
10
70.683
20
-9.90114
40
0.999999
50
-83
51
7.00004
0
ARC
8
BLACK
10
58.6732
20
-11.3758
40
0.999999
50
-173
51
-83
  0
ENDSEC
  0
EOF
