  0
SECTION
  2
HEADER
  9
$ANGBASE
  50
0.0
  9
$ANGDIR
  70
1
  9
$MEASUREMENT
  70
1
  0
ENDSEC
  0
SECTION
  2
TABLES
  0
TABLE
  2
LTYPE
  70
4
  0
LTYPE
  5
40F
  2
CONTINUOUS
  70
0
  3
Solid line
  72
65
  73
0
  40
0.0
  0
LTYPE
  5
410
  2
DASHDOT
 70
0
  3
Dash Dot ____ _ ____ _
 72
65
 73
4
 40
2.0
 49
1.25
 49
-0.25
 49
0.25
 49
-0.25
  0
LTYPE
  5
411
  2
DASHED
 70
0
  3
Dashed __ __ __ __ __
 72
65
 73
2
 40
0.75
 49
0.5
 49
-0.25
  0
LTYPE
  5
43B
  2
DOTTED
 70
0
  3
Dotted .  .  .  .
 72
65
 73
2
 40
0.2
 49
0.0
 49
-0.2
  0
ENDTAB
  0
TABLE
  2
STYLE
  70
4
  0
STYLE
  2
KICAD
  70
0
  40
0
  41
1
  42
1
  50
0
  71
0
  3
isocp.shx
  0
STYLE
  2
KICADB
  70
0
  40
0
  41
1
  42
1
  50
0
  71
0
  3
isocp.shx
  0
STYLE
  2
KICADI
  70
0
  40
0
  41
1
  42
1
  50
15
  71
0
  3
isocp.shx
  0
STYLE
  2
KICADBI
  70
0
  40
0
  41
1
  42
1
  50
15
  71
0
  3
isocp.shx
  0
ENDTAB
  0
TABLE
  2
LAYER
  70
1
  0
LAYER
  2
BLACK
  70
0
  62
7
  6
CONTINUOUS
  0
ENDTAB
  0
ENDSEC
  0
SECTION
  2
ENTITIES
0
LINE
8
BLACK
6
CONTINUOUS
10
-68.9566
20
25.3624
11
-51.587
21
23.2297
0
LINE
8
BLACK
6
CONTINUOUS
10
-16.6368
20
14.392
11
-13.1145
21
17.1492
0
ARC
8
BLACK
10
97.8466
20
-38.0616
40
1.00006
50
-172.997
51
-83.0053
0
LINE
8
BLACK
6
CONTINUOUS
10
26.8045
20
-62.1869
11
83.3861
21
-55.2395
0
LINE
8
BLACK
6
CONTINUOUS
10
6.5
20
-7
11
-6.5
21
-7
0
LINE
8
BLACK
6
CONTINUOUS
10
-96.4422
20
-34.9155
11
-96.844
21
-38.1876
0
ARC
8
BLACK
10
-110.813
20
-32.4425
40
4.99984
50
-187.002
51
-96.998
0
ARC
8
BLACK
10
-11.5721
20
15.1817
40
2.50001
50
-51.9038
51
128.094
0
ARC
8
BLACK
10
21.8183
20
-64.6067
40
2.49998
50
-213.096
51
-33.0944
0
CIRCLE
8
BLACK
10
-11.572
20
15.1817
40
1.05
0
ARC
8
BLACK
10
-95.4498
20
-35.0372
40
0.999903
50
82.9945
51
173.008
0
LINE
8
BLACK
6
CONTINUOUS
10
-85.0813
20
-36.3105
11
-85.4238
21
-39.0999
0
LINE
8
BLACK
6
CONTINUOUS
10
-23.9027
20
-65.9759
11
-26.0786
21
-62.6375
0
LINE
8
BLACK
6
CONTINUOUS
10
-90.8928
20
19.2339
11
-90.8127
21
19.2241
0
ARC
8
BLACK
10
110.823
20
-32.4384
40
4.99986
50
-83.0016
51
7.00133
0
LINE
8
BLACK
6
CONTINUOUS
10
-50.5422
20
21.8924
11
-50.7996
21
19.7957
0
ARC
8
BLACK
10
83.1423
20
-53.2544
40
2
50
-83.0001
51
6.99982
0
LINE
8
BLACK
6
CONTINUOUS
10
-19.4337
20
-54.7918
11
19.4432
21
-54.7883
0
LINE
8
BLACK
6
CONTINUOUS
10
96.854
20
-38.1836
11
96.4522
21
-34.9115
0
ARC
8
BLACK
10
-90.7709
20
20.2265
40
1.00002
50
-186.999
51
-97.0004
0
LINE
8
BLACK
6
CONTINUOUS
10
-85.1174
20
-53.0148
11
-83.0963
21
-36.5542
0
ARC
8
BLACK
10
-91.0367
20
-35.5793
40
1.00011
50
-6.994
51
82.9978
0
LINE
8
BLACK
6
CONTINUOUS
10
-90.3866
20
-38.4906
11
-90.0441
21
-35.7011
0
ARC
8
BLACK
10
71.7525
20
22.3715
40
1.20027
50
-172.987
51
-83.0101
0
LINE
8
BLACK
6
CONTINUOUS
10
-83.3761
20
-55.2436
11
-26.7945
21
-62.1909
0
ARC
8
BLACK
10
94.2234
20
21.0164
40
2.51267
50
-353
51
-173
0
LINE
8
BLACK
6
CONTINUOUS
10
85.4338
20
-39.0959
11
85.0913
21
-36.3064
0
ARC
8
BLACK
10
-71.7425
20
22.3673
40
1.20013
50
-96.9938
51
-7.0067
0
ARC
8
BLACK
10
49.6187
20
19.6534
40
1.19986
50
-83.0069
51
7.0065
0
ARC
8
BLACK
10
87.9152
20
-38.7912
40
2.49998
50
-173.001
51
7.00103
0
LINE
8
BLACK
6
CONTINUOUS
10
-6.5
20
7
11
6.5
21
7
0
ARC
8
BLACK
10
-49.6088
20
19.6493
40
1.19982
50
-187.009
51
-96.9917
0
ARC
8
BLACK
10
-11.2446
20
10.9964
40
0.999999
50
-232.006
51
-89.9943
0
ARC
8
BLACK
10
-51.7334
20
22.0386
40
1.20012
50
-6.99447
51
82.9943
0
LINE
8
BLACK
6
CONTINUOUS
10
109.849
20
16.523
11
115.786
21
-31.829
0
CIRCLE
8
BLACK
10
11.582
20
15.1858
40
1.05
0
LINE
8
BLACK
6
CONTINUOUS
10
-20.1763
20
14.8304
11
-16.6368
21
14.392
0
LINE
8
BLACK
6
CONTINUOUS
10
8.00122
20
-9.99007
11
8.00122
21
-50.9901
0
LINE
8
BLACK
6
CONTINUOUS
10
-11.2445
20
9.99636
11
11.2558
21
9.99958
0
LINE
8
BLACK
6
CONTINUOUS
10
96.8836
20
19.9686
11
104.277
21
20.8764
0
LINE
8
BLACK
6
CONTINUOUS
10
16.6468
20
14.396
11
20.1863
21
14.8345
0
LINE
8
BLACK
6
CONTINUOUS
10
7.00122
20
-51.9901
11
-6.99878
21
-51.9901
0
LINE
8
BLACK
6
CONTINUOUS
10
-10.0296
20
13.2142
11
-11.8602
21
11.7845
0
ARC
8
BLACK
10
-94.2134
20
21.0123
40
2.51265
50
-6.99993
51
173
0
LINE
8
BLACK
6
CONTINUOUS
10
71.8986
20
21.1801
11
88.3204
21
23.1965
0
ARC
8
BLACK
10
-87.9052
20
-38.7953
40
2.5
50
-187
51
-7.00015
0
LINE
8
BLACK
6
CONTINUOUS
10
15.0697
20
15.6282
11
16.6468
21
14.396
0
LINE
8
BLACK
6
CONTINUOUS
10
-104.267
20
20.8724
11
-96.8736
21
19.9646
0
ARC
8
BLACK
10
-88.4324
20
22.1999
40
0.999951
50
82.9972
51
173
0
ARC
8
BLACK
10
-19.4336
20
-55.7918
40
1.00002
50
90.0063
51
172.364
0
ARC
8
BLACK
10
-23.1788
20
14.6652
40
3.00707
50
3.15006
51
162.85
0
ARC
8
BLACK
10
91.0465
20
-35.5751
40
0.99992
50
-263.005
51
-172.997
0
LINE
8
BLACK
6
CONTINUOUS
10
13.1245
20
17.1532
11
15.0697
21
15.6282
0
ARC
8
BLACK
10
-104.876
20
15.9095
40
5.00015
50
83.0017
51
172.998
0
ARC
8
BLACK
10
-6.99847
20
-50.9898
40
1.00023
50
-179.987
51
-90.0176
0
LINE
8
BLACK
6
CONTINUOUS
10
50.8096
20
19.7997
11
50.5522
21
21.8965
0
LINE
8
BLACK
6
CONTINUOUS
10
90.0541
20
-35.6971
11
90.3966
21
-38.4865
0
CIRCLE
8
BLACK
10
87.9152
20
-38.7912
40
1.05
0
LINE
8
BLACK
6
CONTINUOUS
10
-88.3105
20
23.1924
11
-71.8886
21
21.176
0
ARC
8
BLACK
10
6.50003
20
6.49996
40
0.500043
50
0.00492771
51
90.0032
0
LINE
8
BLACK
6
CONTINUOUS
10
111.433
20
-37.4011
11
97.9684
21
-39.0543
0
ARC
8
BLACK
10
88.4423
20
22.204
40
0.999955
50
6.99745
51
97.001
0
LINE
8
BLACK
6
CONTINUOUS
10
26.0886
20
-62.6334
11
23.9127
21
-65.9718
0
LINE
8
BLACK
6
CONTINUOUS
10
7
20
6.5
11
7
21
-6.5
0
ARC
8
BLACK
10
-97.8366
20
-38.0657
40
1.00002
50
-96.9986
51
-7.00154
0
ARC
8
BLACK
10
-90.6909
20
20.2167
40
1.00002
50
-96.9987
51
-7.00236
0
LINE
8
BLACK
6
CONTINUOUS
10
20.4344
20
-55.6553
11
21.1077
21
-60.6745
0
ARC
8
BLACK
10
90.7009
20
20.2208
40
1.00007
50
-172.996
51
-83.0052
0
LINE
8
BLACK
6
CONTINUOUS
10
-6.99878
20
-8.99007
11
7.00122
21
-8.99007
0
ARC
8
BLACK
10
19.4432
20
-55.7883
40
1.00004
50
7.64278
51
90.0036
0
LINE
8
BLACK
6
CONTINUOUS
10
51.597
20
23.2338
11
68.9665
21
25.3665
0
CIRCLE
8
BLACK
10
-21.8083
20
-64.6108
40
1.05
0
CIRCLE
8
BLACK
10
94.2234
20
21.0163
40
1.05
0
LINE
8
BLACK
6
CONTINUOUS
10
91.7295
20
20.7101
11
91.7734
21
20.3524
0
LINE
8
BLACK
6
CONTINUOUS
10
89.4349
20
22.3258
11
89.7083
21
20.0988
0
ARC
8
BLACK
10
-6.99877
20
-9.99004
40
1.00001
50
-270
51
-179.998
0
ARC
8
BLACK
10
104.886
20
15.9136
40
5.00013
50
7.00149
51
96.9991
0
ARC
8
BLACK
10
-21.8083
20
-64.6108
40
2.5
50
-146.906
51
33.0962
0
LINE
8
BLACK
6
CONTINUOUS
10
-49.7548
20
18.4584
11
-26.0521
21
15.5519
0
LINE
8
BLACK
6
CONTINUOUS
10
26.0621
20
15.5559
11
49.7648
21
18.4624
0
ARC
8
BLACK
10
6.50003
20
-6.50004
40
0.499972
50
-90.0032
51
0.00492771
0
ARC
8
BLACK
10
95.4597
20
-35.0332
40
0.999921
50
6.9955
51
97.0031
0
ARC
8
BLACK
10
7.00123
20
-9.99004
40
0.999968
50
-0.00183348
51
90.0005
0
LINE
8
BLACK
6
CONTINUOUS
10
19.7239
20
-63.2416
11
20.9544
21
-61.3533
0
ARC
8
BLACK
10
11.582
20
15.1858
40
2.49999
50
-308.095
51
-128.095
0
LINE
8
BLACK
6
CONTINUOUS
10
-7
20
-6.5
11
-7
21
6.5
0
ARC
8
BLACK
10
11.2557
20
10.9996
40
0.999988
50
-89.9948
51
52.0112
0
CIRCLE
8
BLACK
10
21.8183
20
-64.6067
40
1.05
0
LINE
8
BLACK
6
CONTINUOUS
10
-97.9584
20
-39.0583
11
-111.423
21
-37.4051
0
LINE
8
BLACK
6
CONTINUOUS
10
90.9247
20
-34.5826
11
95.3378
21
-34.0408
0
LINE
8
BLACK
6
CONTINUOUS
10
-95.3278
20
-34.0448
11
-90.9148
21
-34.5867
0
ARC
8
BLACK
10
-20.1066
20
-60.8114
40
1
50
-187.639
51
-146.913
0
LINE
8
BLACK
6
CONTINUOUS
10
-20.9444
20
-61.3574
11
-19.7139
21
-63.2457
0
LINE
8
BLACK
6
CONTINUOUS
10
-91.7634
20
20.3483
11
-91.7195
21
20.7061
0
ARC
8
BLACK
10
26.9263
20
-63.1794
40
0.999986
50
96.9986
51
146.904
0
ARC
8
BLACK
10
23.1888
20
14.6692
40
3.00706
50
17.1504
51
176.85
0
LINE
8
BLACK
6
CONTINUOUS
10
70.3038
20
24.3217
11
70.5613
21
22.2249
0
ARC
8
BLACK
10
84.0988
20
-36.4282
40
0.999971
50
-352.999
51
-173.001
0
LINE
8
BLACK
6
CONTINUOUS
10
96.8831
20
19.9723
11
96.7173
21
21.3226
0
ARC
8
BLACK
10
20.1166
20
-60.8073
40
0.999963
50
-33.0907
51
7.63674
0
ARC
8
BLACK
10
-83.1324
20
-53.2585
40
1.99996
50
-187.001
51
-96.999
0
LINE
8
BLACK
6
CONTINUOUS
10
-7.99878
20
-50.9901
11
-7.99878
21
-9.99007
0
ARC
8
BLACK
10
51.7433
20
22.0427
40
1.20009
50
-262.996
51
-173.003
0
LINE
8
BLACK
6
CONTINUOUS
10
90.8227
20
19.2281
11
90.9027
21
19.238
0
LINE
8
BLACK
6
CONTINUOUS
10
-70.5513
20
22.2209
11
-70.2939
21
24.3176
0
CIRCLE
8
BLACK
10
-87.9052
20
-38.7953
40
1.05
0
LINE
8
BLACK
6
CONTINUOUS
10
-21.0977
20
-60.6785
11
-20.4247
21
-55.659
0
LINE
8
BLACK
6
CONTINUOUS
10
-89.6983
20
20.0947
11
-89.4249
21
22.3217
0
ARC
8
BLACK
10
-26.9164
20
-63.1835
40
1.00005
50
33.097
51
82.9996
0
LINE
8
BLACK
6
CONTINUOUS
10
11.8712
20
11.7877
11
10.0396
21
13.2183
0
ARC
8
BLACK
10
-6.49997
20
-6.50004
40
0.499957
50
-180.005
51
-90.0032
0
CIRCLE
8
BLACK
10
-94.2134
20
21.0123
40
1.05
0
ARC
8
BLACK
10
7.00113
20
-50.99
40
1.00009
50
-89.9947
51
-0.00171872
0
ARC
8
BLACK
10
-6.49997
20
6.49996
40
0.500028
50
90.0032
51
179.995
0
LINE
8
BLACK
6
CONTINUOUS
10
-115.776
20
-31.8331
11
-109.839
21
16.519
0
LINE
8
BLACK
6
CONTINUOUS
10
-96.7073
20
21.3185
11
-96.8731
21
19.9682
0
ARC
8
BLACK
10
69.1127
20
24.1753
40
1.20016
50
7.00779
51
96.9961
0
ARC
8
BLACK
10
90.7808
20
20.2306
40
1.00004
50
-82.9978
51
6.99637
0
LINE
8
BLACK
6
CONTINUOUS
10
83.1063
20
-36.5501
11
85.1274
21
-53.0107
0
ARC
8
BLACK
10
-84.0889
20
-36.4323
40
0.999928
50
-6.99668
51
172.997
0
ARC
8
BLACK
10
-69.1026
20
24.1712
40
1.20025
50
83.012
51
172.991
0
LINE
8
BLACK
6
CONTINUOUS
10
52.9639
20
-22.3156
11
41.0533
21
-23.778
0
LINE
8
BLACK
6
CONTINUOUS
10
52.9639
20
-22.3156
11
54.0783
21
-23.1863
0
LINE
8
BLACK
6
CONTINUOUS
10
40.1826
20
-24.8924
11
41.0533
21
-23.778
0
LINE
8
BLACK
6
CONTINUOUS
10
40.1826
20
-24.8924
11
41.7182
21
-37.3985
0
LINE
8
BLACK
6
CONTINUOUS
10
55.6138
20
-35.6924
11
54.0783
21
-23.1863
0
LINE
8
BLACK
6
CONTINUOUS
10
41.7182
20
-37.3985
11
42.8326
21
-38.2692
0
LINE
8
BLACK
6
CONTINUOUS
10
54.7431
20
-36.8068
11
55.6138
21
-35.6924
0
LINE
8
BLACK
6
CONTINUOUS
10
42.8326
20
-38.2692
11
54.7431
21
-36.8068
0
CIRCLE
8
BLACK
10
20.2213
20
-52.3926
40
1.1
0
LINE
8
BLACK
6
CONTINUOUS
10
71.2915
20
-15.267
11
59.3809
21
-16.7294
0
LINE
8
BLACK
6
CONTINUOUS
10
71.2915
20
-15.267
11
72.4059
21
-16.1377
0
LINE
8
BLACK
6
CONTINUOUS
10
58.5102
20
-17.8438
11
59.3809
21
-16.7294
0
LINE
8
BLACK
6
CONTINUOUS
10
58.5102
20
-17.8438
11
60.0458
21
-30.3499
0
LINE
8
BLACK
6
CONTINUOUS
10
73.9414
20
-28.6437
11
72.4059
21
-16.1377
0
LINE
8
BLACK
6
CONTINUOUS
10
60.0458
20
-30.3499
11
61.1602
21
-31.2206
0
LINE
8
BLACK
6
CONTINUOUS
10
73.0708
20
-29.7582
11
73.9414
21
-28.6437
0
LINE
8
BLACK
6
CONTINUOUS
10
61.1602
20
-31.2206
11
73.0708
21
-29.7582
0
LINE
8
BLACK
6
CONTINUOUS
10
-31.1919
20
-1.31237
11
-19.2814
21
-2.7748
0
LINE
8
BLACK
6
CONTINUOUS
10
-31.1919
20
-1.31237
11
-32.0626
21
-0.197955
0
LINE
8
BLACK
6
CONTINUOUS
10
-18.167
20
-1.90413
11
-19.2814
21
-2.7748
0
LINE
8
BLACK
6
CONTINUOUS
10
-18.167
20
-1.90413
11
-16.6314
21
10.602
0
LINE
8
BLACK
6
CONTINUOUS
10
-30.527
20
12.3081
11
-32.0626
21
-0.197955
0
LINE
8
BLACK
6
CONTINUOUS
10
-16.6314
20
10.602
11
-17.5021
21
11.7164
0
LINE
8
BLACK
6
CONTINUOUS
10
-29.4126
20
13.1788
11
-30.527
21
12.3081
0
LINE
8
BLACK
6
CONTINUOUS
10
-17.5021
20
11.7164
11
-29.4126
21
13.1788
0
LINE
8
BLACK
6
CONTINUOUS
10
-33.5135
20
-20.2204
11
-21.603
21
-21.6828
0
LINE
8
BLACK
6
CONTINUOUS
10
-33.5135
20
-20.2204
11
-34.3842
21
-19.106
0
LINE
8
BLACK
6
CONTINUOUS
10
-20.4886
20
-20.8121
11
-21.603
21
-21.6828
0
LINE
8
BLACK
6
CONTINUOUS
10
-20.4886
20
-20.8121
11
-18.953
21
-8.30605
0
LINE
8
BLACK
6
CONTINUOUS
10
-32.8487
20
-6.59988
11
-34.3842
21
-19.106
0
LINE
8
BLACK
6
CONTINUOUS
10
-18.953
20
-8.30605
11
-19.8237
21
-7.19163
0
LINE
8
BLACK
6
CONTINUOUS
10
-31.7342
20
-5.7292
11
-32.8487
21
-6.59988
0
LINE
8
BLACK
6
CONTINUOUS
10
-19.8237
20
-7.19163
11
-31.7342
21
-5.7292
0
LINE
8
BLACK
6
CONTINUOUS
10
-64.9708
20
-53.4343
11
-63.5084
21
-41.5238
0
LINE
8
BLACK
6
CONTINUOUS
10
-64.9708
20
-53.4343
11
-66.0852
21
-54.305
0
LINE
8
BLACK
6
CONTINUOUS
10
-64.379
20
-40.4094
11
-63.5084
21
-41.5238
0
LINE
8
BLACK
6
CONTINUOUS
10
-64.379
20
-40.4094
11
-76.8851
21
-38.8738
0
LINE
8
BLACK
6
CONTINUOUS
10
-78.5913
20
-52.7695
11
-66.0852
21
-54.305
0
LINE
8
BLACK
6
CONTINUOUS
10
-76.8851
20
-38.8738
11
-77.9995
21
-39.7445
0
LINE
8
BLACK
6
CONTINUOUS
10
-79.462
20
-51.655
11
-78.5913
21
-52.7695
0
LINE
8
BLACK
6
CONTINUOUS
10
-77.9995
20
-39.7445
11
-79.462
21
-51.655
0
LINE
8
BLACK
6
CONTINUOUS
10
90.7799
20
-17.6724
11
78.8693
21
-19.1348
0
LINE
8
BLACK
6
CONTINUOUS
10
90.7799
20
-17.6724
11
91.8943
21
-18.543
0
LINE
8
BLACK
6
CONTINUOUS
10
77.9986
20
-20.2492
11
78.8693
21
-19.1348
0
LINE
8
BLACK
6
CONTINUOUS
10
77.9986
20
-20.2492
11
79.5342
21
-32.7553
0
LINE
8
BLACK
6
CONTINUOUS
10
93.4298
20
-31.0491
11
91.8943
21
-18.543
0
LINE
8
BLACK
6
CONTINUOUS
10
79.5342
20
-32.7553
11
80.6486
21
-33.626
0
LINE
8
BLACK
6
CONTINUOUS
10
92.5592
20
-32.1635
11
93.4298
21
-31.0491
0
LINE
8
BLACK
6
CONTINUOUS
10
80.6486
20
-33.626
11
92.5592
21
-32.1635
0
CIRCLE
8
BLACK
10
12.5295
20
3.75099
40
1.1
0
LINE
8
BLACK
6
CONTINUOUS
10
88.4583
20
1.23563
11
76.5477
21
-0.2268
0
LINE
8
BLACK
6
CONTINUOUS
10
88.4583
20
1.23563
11
89.5727
21
0.364955
0
LINE
8
BLACK
6
CONTINUOUS
10
75.677
20
-1.34122
11
76.5477
21
-0.2268
0
LINE
8
BLACK
6
CONTINUOUS
10
75.677
20
-1.34122
11
77.2126
21
-13.8473
0
LINE
8
BLACK
6
CONTINUOUS
10
91.1082
20
-12.1411
11
89.5727
21
0.364955
0
LINE
8
BLACK
6
CONTINUOUS
10
77.2126
20
-13.8473
11
78.327
21
-14.718
0
LINE
8
BLACK
6
CONTINUOUS
10
90.2375
20
-13.2555
11
91.1082
21
-12.1411
0
LINE
8
BLACK
6
CONTINUOUS
10
78.327
20
-14.718
11
90.2375
21
-13.2555
0
CIRCLE
8
BLACK
10
-20.2213
20
-52.3926
40
1.1
0
CIRCLE
8
BLACK
10
-65.065
20
-13.7898
40
1.1
0
CIRCLE
8
BLACK
10
84.5473
20
-16.196
40
1.1
0
CIRCLE
8
BLACK
10
-17.1727
20
-34.065
40
1.1
0
LINE
8
BLACK
6
CONTINUOUS
10
-92.5592
20
-32.1635
11
-80.6486
21
-33.626
0
LINE
8
BLACK
6
CONTINUOUS
10
-92.5592
20
-32.1635
11
-93.4298
21
-31.0491
0
LINE
8
BLACK
6
CONTINUOUS
10
-79.5342
20
-32.7553
11
-80.6486
21
-33.626
0
LINE
8
BLACK
6
CONTINUOUS
10
-79.5342
20
-32.7553
11
-77.9986
21
-20.2492
0
LINE
8
BLACK
6
CONTINUOUS
10
-91.8943
20
-18.543
11
-93.4298
21
-31.0491
0
LINE
8
BLACK
6
CONTINUOUS
10
-77.9986
20
-20.2492
11
-78.8693
21
-19.1348
0
LINE
8
BLACK
6
CONTINUOUS
10
-90.7799
20
-17.6724
11
-91.8943
21
-18.543
0
LINE
8
BLACK
6
CONTINUOUS
10
-78.8693
20
-19.1348
11
-90.7799
21
-17.6724
0
LINE
8
BLACK
6
CONTINUOUS
10
34.0559
20
-24.6372
11
22.1453
21
-26.0996
0
LINE
8
BLACK
6
CONTINUOUS
10
34.0559
20
-24.6372
11
35.1703
21
-25.5079
0
LINE
8
BLACK
6
CONTINUOUS
10
21.2746
20
-27.2141
11
22.1453
21
-26.0996
0
LINE
8
BLACK
6
CONTINUOUS
10
21.2746
20
-27.2141
11
22.8102
21
-39.7201
0
LINE
8
BLACK
6
CONTINUOUS
10
36.7058
20
-38.014
11
35.1703
21
-25.5079
0
LINE
8
BLACK
6
CONTINUOUS
10
22.8102
20
-39.7201
11
23.9246
21
-40.5908
0
LINE
8
BLACK
6
CONTINUOUS
10
35.8351
20
-39.1284
11
36.7058
21
-38.014
0
LINE
8
BLACK
6
CONTINUOUS
10
23.9246
20
-40.5908
11
35.8351
21
-39.1284
0
LINE
8
BLACK
6
CONTINUOUS
10
-50.0999
20
1.00924
11
-38.1894
21
-0.453192
0
LINE
8
BLACK
6
CONTINUOUS
10
-50.0999
20
1.00924
11
-50.9706
21
2.12366
0
LINE
8
BLACK
6
CONTINUOUS
10
-37.075
20
0.417485
11
-38.1894
21
-0.453192
0
LINE
8
BLACK
6
CONTINUOUS
10
-37.075
20
0.417485
11
-35.5394
21
12.9236
0
LINE
8
BLACK
6
CONTINUOUS
10
-49.435
20
14.6297
11
-50.9706
21
2.12366
0
LINE
8
BLACK
6
CONTINUOUS
10
-35.5394
20
12.9236
11
-36.4101
21
14.038
0
LINE
8
BLACK
6
CONTINUOUS
10
-48.3206
20
15.5004
11
-49.435
21
14.6297
0
LINE
8
BLACK
6
CONTINUOUS
10
-36.4101
20
14.038
11
-48.3206
21
15.5004
0
CIRCLE
8
BLACK
10
-104.036
20
-18.6014
40
1.1
0
CIRCLE
8
BLACK
10
101.714
20
0.306622
40
1.1
0
LINE
8
BLACK
6
CONTINUOUS
10
-35.8351
20
-39.1284
11
-23.9246
21
-40.5908
0
LINE
8
BLACK
6
CONTINUOUS
10
-35.8351
20
-39.1284
11
-36.7058
21
-38.014
0
LINE
8
BLACK
6
CONTINUOUS
10
-22.8102
20
-39.7201
11
-23.9246
21
-40.5908
0
LINE
8
BLACK
6
CONTINUOUS
10
-22.8102
20
-39.7201
11
-21.2746
21
-27.2141
0
LINE
8
BLACK
6
CONTINUOUS
10
-35.1703
20
-25.5079
11
-36.7058
21
-38.014
0
LINE
8
BLACK
6
CONTINUOUS
10
-21.2746
20
-27.2141
11
-22.1453
21
-26.0996
0
LINE
8
BLACK
6
CONTINUOUS
10
-34.0559
20
-24.6372
11
-35.1703
21
-25.5079
0
LINE
8
BLACK
6
CONTINUOUS
10
-22.1453
20
-26.0996
11
-34.0559
21
-24.6372
0
CIRCLE
8
BLACK
10
62.7372
20
5.11741
40
1.1
0
LINE
8
BLACK
6
CONTINUOUS
10
-57.2772
20
-53.5477
11
-55.9184
21
-42.4808
0
LINE
8
BLACK
6
CONTINUOUS
10
-57.2772
20
-53.5477
11
-54.519
21
-55.6999
0
LINE
8
BLACK
6
CONTINUOUS
10
-54.804
20
-41.6102
11
-25.0276
21
-45.2662
0
LINE
8
BLACK
6
CONTINUOUS
10
-28.7128
20
-58.8685
11
-54.519
21
-55.6999
0
LINE
8
BLACK
6
CONTINUOUS
10
-24.1569
20
-46.3807
11
-25.5158
21
-57.4475
0
LINE
8
BLACK
6
CONTINUOUS
10
-25.5158
20
-57.4475
11
-28.7128
21
-58.8685
0
ARC
8
BLACK
10
-54.9259
20
-42.6027
40
0.999998
50
83
51
173
0
ARC
8
BLACK
10
-25.1495
20
-46.2588
40
0.999999
50
-6.99998
51
83
0
LINE
8
BLACK
6
CONTINUOUS
10
-109.726
20
-15.6609
11
-97.8154
21
-17.1234
0
LINE
8
BLACK
6
CONTINUOUS
10
-109.726
20
-15.6609
11
-110.597
21
-14.5465
0
LINE
8
BLACK
6
CONTINUOUS
10
-96.701
20
-16.2527
11
-97.8154
21
-17.1234
0
LINE
8
BLACK
6
CONTINUOUS
10
-96.701
20
-16.2527
11
-95.1654
21
-3.74661
0
LINE
8
BLACK
6
CONTINUOUS
10
-109.061
20
-2.04043
11
-110.597
21
-14.5465
0
LINE
8
BLACK
6
CONTINUOUS
10
-95.1654
20
-3.74661
11
-96.0361
21
-2.63219
0
LINE
8
BLACK
6
CONTINUOUS
10
-107.947
20
-1.16976
11
-109.061
21
-2.04043
0
LINE
8
BLACK
6
CONTINUOUS
10
-96.0361
20
-2.63219
11
-107.947
21
-1.16976
0
CIRCLE
8
BLACK
10
17.1727
20
-34.065
40
1.1
0
LINE
8
BLACK
6
CONTINUOUS
10
86.1366
20
20.1436
11
74.2261
21
18.6812
0
LINE
8
BLACK
6
CONTINUOUS
10
86.1366
20
20.1436
11
87.2511
21
19.273
0
LINE
8
BLACK
6
CONTINUOUS
10
73.3554
20
17.5668
11
74.2261
21
18.6812
0
LINE
8
BLACK
6
CONTINUOUS
10
73.3554
20
17.5668
11
74.891
21
5.06071
0
LINE
8
BLACK
6
CONTINUOUS
10
88.7866
20
6.76688
11
87.2511
21
19.273
0
LINE
8
BLACK
6
CONTINUOUS
10
74.891
20
5.06071
11
76.0054
21
4.19003
0
LINE
8
BLACK
6
CONTINUOUS
10
87.9159
20
5.65246
11
88.7866
21
6.76688
0
LINE
8
BLACK
6
CONTINUOUS
10
76.0054
20
4.19003
11
87.9159
21
5.65246
0
LINE
8
BLACK
6
CONTINUOUS
10
105.625
20
17.7382
11
93.7145
21
16.2758
0
LINE
8
BLACK
6
CONTINUOUS
10
105.625
20
17.7382
11
106.739
21
16.8676
0
LINE
8
BLACK
6
CONTINUOUS
10
92.8438
20
15.1614
11
93.7145
21
16.2758
0
LINE
8
BLACK
6
CONTINUOUS
10
92.8438
20
15.1614
11
94.3794
21
2.65532
0
LINE
8
BLACK
6
CONTINUOUS
10
108.275
20
4.36149
11
106.739
21
16.8676
0
LINE
8
BLACK
6
CONTINUOUS
10
94.3794
20
2.65532
11
95.4938
21
1.78464
0
LINE
8
BLACK
6
CONTINUOUS
10
107.404
20
3.24707
11
108.275
21
4.36149
0
LINE
8
BLACK
6
CONTINUOUS
10
95.4938
20
1.78464
11
107.404
21
3.24707
0
LINE
8
BLACK
6
CONTINUOUS
10
-90.2375
20
-13.2555
11
-78.327
21
-14.718
0
LINE
8
BLACK
6
CONTINUOUS
10
-90.2375
20
-13.2555
11
-91.1082
21
-12.1411
0
LINE
8
BLACK
6
CONTINUOUS
10
-77.2126
20
-13.8473
11
-78.327
21
-14.718
0
LINE
8
BLACK
6
CONTINUOUS
10
-77.2126
20
-13.8473
11
-75.677
21
-1.34122
0
LINE
8
BLACK
6
CONTINUOUS
10
-89.5727
20
0.364955
11
-91.1082
21
-12.1411
0
LINE
8
BLACK
6
CONTINUOUS
10
-75.677
20
-1.34122
11
-76.5477
21
-0.2268
0
LINE
8
BLACK
6
CONTINUOUS
10
-88.4583
20
1.23563
11
-89.5727
21
0.364955
0
LINE
8
BLACK
6
CONTINUOUS
10
-76.5477
20
-0.2268
11
-88.4583
21
1.23563
0
LINE
8
BLACK
6
CONTINUOUS
10
-107.404
20
3.24707
11
-95.4938
21
1.78464
0
LINE
8
BLACK
6
CONTINUOUS
10
-107.404
20
3.24707
11
-108.275
21
4.36149
0
LINE
8
BLACK
6
CONTINUOUS
10
-94.3794
20
2.65532
11
-95.4938
21
1.78464
0
LINE
8
BLACK
6
CONTINUOUS
10
-94.3794
20
2.65532
11
-92.8438
21
15.1614
0
LINE
8
BLACK
6
CONTINUOUS
10
-106.739
20
16.8676
11
-108.275
21
4.36149
0
LINE
8
BLACK
6
CONTINUOUS
10
-92.8438
20
15.1614
11
-93.7145
21
16.2758
0
LINE
8
BLACK
6
CONTINUOUS
10
-105.625
20
17.7382
11
-106.739
21
16.8676
0
LINE
8
BLACK
6
CONTINUOUS
10
-93.7145
20
16.2758
11
-105.625
21
17.7382
0
LINE
8
BLACK
6
CONTINUOUS
10
63.5159
20
-41.5197
11
64.9783
21
-53.4303
0
LINE
8
BLACK
6
CONTINUOUS
10
63.5159
20
-41.5197
11
64.3866
21
-40.4053
0
LINE
8
BLACK
6
CONTINUOUS
10
66.0928
20
-54.301
11
64.9783
21
-53.4303
0
LINE
8
BLACK
6
CONTINUOUS
10
66.0928
20
-54.301
11
78.5988
21
-52.7654
0
LINE
8
BLACK
6
CONTINUOUS
10
76.8927
20
-38.8698
11
64.3866
21
-40.4053
0
LINE
8
BLACK
6
CONTINUOUS
10
78.5988
20
-52.7654
11
79.4695
21
-51.651
0
LINE
8
BLACK
6
CONTINUOUS
10
78.0071
20
-39.7405
11
76.8927
21
-38.8698
0
LINE
8
BLACK
6
CONTINUOUS
10
79.4695
20
-51.651
11
78.0071
21
-39.7405
0
CIRCLE
8
BLACK
10
44.4096
20
-1.93121
40
1.1
0
CIRCLE
8
BLACK
10
-82.2256
20
2.71201
40
1.1
0
CIRCLE
8
BLACK
10
-23.18
20
14.6552
40
1.1
0
LINE
8
BLACK
6
CONTINUOUS
10
25.5158
20
-57.4475
11
24.1569
21
-46.3807
0
LINE
8
BLACK
6
CONTINUOUS
10
25.5158
20
-57.4475
11
28.7128
21
-58.8685
0
LINE
8
BLACK
6
CONTINUOUS
10
25.0276
20
-45.2662
11
54.804
21
-41.6102
0
LINE
8
BLACK
6
CONTINUOUS
10
54.519
20
-55.6999
11
28.7128
21
-58.8685
0
LINE
8
BLACK
6
CONTINUOUS
10
55.9184
20
-42.4808
11
57.2772
21
-53.5477
0
LINE
8
BLACK
6
CONTINUOUS
10
57.2772
20
-53.5477
11
54.519
21
-55.6999
0
ARC
8
BLACK
10
25.1495
20
-46.2588
40
0.999998
50
-263
51
-173
0
ARC
8
BLACK
10
54.9259
20
-42.6027
40
1
50
7.00004
51
97
0
LINE
8
BLACK
6
CONTINUOUS
10
-87.9159
20
5.65246
11
-76.0054
21
4.19003
0
LINE
8
BLACK
6
CONTINUOUS
10
-87.9159
20
5.65246
11
-88.7866
21
6.76688
0
LINE
8
BLACK
6
CONTINUOUS
10
-74.891
20
5.06071
11
-76.0054
21
4.19003
0
LINE
8
BLACK
6
CONTINUOUS
10
-74.891
20
5.06071
11
-73.3554
21
17.5668
0
LINE
8
BLACK
6
CONTINUOUS
10
-87.2511
20
19.273
11
-88.7866
21
6.76688
0
LINE
8
BLACK
6
CONTINUOUS
10
-73.3554
20
17.5668
11
-74.2261
21
18.6812
0
LINE
8
BLACK
6
CONTINUOUS
10
-86.1366
20
20.1436
11
-87.2511
21
19.273
0
LINE
8
BLACK
6
CONTINUOUS
10
-74.2261
20
18.6812
11
-86.1366
21
20.1436
0
LINE
8
BLACK
6
CONTINUOUS
10
-70.7491
20
-10.8502
11
-58.8386
21
-12.3126
0
LINE
8
BLACK
6
CONTINUOUS
10
-70.7491
20
-10.8502
11
-71.6198
21
-9.73574
0
LINE
8
BLACK
6
CONTINUOUS
10
-57.7242
20
-11.4419
11
-58.8386
21
-12.3126
0
LINE
8
BLACK
6
CONTINUOUS
10
-57.7242
20
-11.4419
11
-56.1886
21
1.06417
0
LINE
8
BLACK
6
CONTINUOUS
10
-70.0843
20
2.77034
11
-71.6198
21
-9.73574
0
LINE
8
BLACK
6
CONTINUOUS
10
-56.1886
20
1.06417
11
-57.0593
21
2.17859
0
LINE
8
BLACK
6
CONTINUOUS
10
-68.9698
20
3.64102
11
-70.0843
21
2.77034
0
LINE
8
BLACK
6
CONTINUOUS
10
-57.0593
20
2.17859
11
-68.9698
21
3.64102
0
CIRCLE
8
BLACK
10
-46.7374
20
-20.8384
40
1.1
0
CIRCLE
8
BLACK
10
104.036
20
-18.6014
40
1.1
0
LINE
8
BLACK
6
CONTINUOUS
10
110.27
20
-20.0745
11
98.3591
21
-21.537
0
LINE
8
BLACK
6
CONTINUOUS
10
110.27
20
-20.0745
11
111.384
21
-20.9452
0
LINE
8
BLACK
6
CONTINUOUS
10
97.4884
20
-22.6514
11
98.3591
21
-21.537
0
LINE
8
BLACK
6
CONTINUOUS
10
97.4884
20
-22.6514
11
99.024
21
-35.1575
0
LINE
8
BLACK
6
CONTINUOUS
10
112.92
20
-33.4513
11
111.384
21
-20.9452
0
LINE
8
BLACK
6
CONTINUOUS
10
99.024
20
-35.1575
11
100.138
21
-36.0282
0
LINE
8
BLACK
6
CONTINUOUS
10
112.049
20
-34.5657
11
112.92
21
-33.4513
0
LINE
8
BLACK
6
CONTINUOUS
10
100.138
20
-36.0282
11
112.049
21
-34.5657
0
CIRCLE
8
BLACK
10
14.8511
20
-15.157
40
1.1
0
CIRCLE
8
BLACK
10
-62.7372
20
5.1174
40
1.1
0
CIRCLE
8
BLACK
10
-12.5295
20
3.75099
40
1.1
0
CIRCLE
8
BLACK
10
-67.3866
20
-32.6978
40
1.1
0
CIRCLE
8
BLACK
10
-62.0373
20
-47.7494
40
1.1
0
CIRCLE
8
BLACK
10
25.5078
20
-4.252
40
1.1
0
CIRCLE
8
BLACK
10
-44.4096
20
-1.93121
40
1.1
0
LINE
8
BLACK
6
CONTINUOUS
10
-112.041
20
-34.5698
11
-100.131
21
-36.0322
0
LINE
8
BLACK
6
CONTINUOUS
10
-112.041
20
-34.5698
11
-112.912
21
-33.4553
0
LINE
8
BLACK
6
CONTINUOUS
10
-99.0164
20
-35.1615
11
-100.131
21
-36.0322
0
LINE
8
BLACK
6
CONTINUOUS
10
-99.0164
20
-35.1615
11
-97.4809
21
-22.6554
0
LINE
8
BLACK
6
CONTINUOUS
10
-111.377
20
-20.9493
11
-112.912
21
-33.4553
0
LINE
8
BLACK
6
CONTINUOUS
10
-97.4809
20
-22.6554
11
-98.3515
21
-21.541
0
LINE
8
BLACK
6
CONTINUOUS
10
-110.262
20
-20.0786
11
-111.377
21
-20.9493
0
LINE
8
BLACK
6
CONTINUOUS
10
-98.3515
20
-21.541
11
-110.262
21
-20.0786
0
CIRCLE
8
BLACK
10
67.3866
20
-32.6978
40
1.1
0
CIRCLE
8
BLACK
10
82.2256
20
2.71201
40
1.1
0
LINE
8
BLACK
6
CONTINUOUS
10
-54.7431
20
-36.8068
11
-42.8326
21
-38.2692
0
LINE
8
BLACK
6
CONTINUOUS
10
-54.7431
20
-36.8068
11
-55.6138
21
-35.6924
0
LINE
8
BLACK
6
CONTINUOUS
10
-41.7182
20
-37.3985
11
-42.8326
21
-38.2692
0
LINE
8
BLACK
6
CONTINUOUS
10
-41.7182
20
-37.3985
11
-40.1826
21
-24.8924
0
LINE
8
BLACK
6
CONTINUOUS
10
-54.0783
20
-23.1863
11
-55.6138
21
-35.6924
0
LINE
8
BLACK
6
CONTINUOUS
10
-40.1826
20
-24.8924
11
-41.0533
21
-23.778
0
LINE
8
BLACK
6
CONTINUOUS
10
-52.9639
20
-22.3156
11
-54.0783
21
-23.1863
0
LINE
8
BLACK
6
CONTINUOUS
10
-41.0533
20
-23.778
11
-52.9639
21
-22.3156
0
CIRCLE
8
BLACK
10
62.0373
20
-47.7494
40
1.1
0
CIRCLE
8
BLACK
10
-14.8511
20
-15.157
40
1.1
0
LINE
8
BLACK
6
CONTINUOUS
10
-73.0707
20
-29.7582
11
-61.1602
21
-31.2206
0
LINE
8
BLACK
6
CONTINUOUS
10
-73.0707
20
-29.7582
11
-73.9414
21
-28.6437
0
LINE
8
BLACK
6
CONTINUOUS
10
-60.0458
20
-30.3499
11
-61.1602
21
-31.2206
0
LINE
8
BLACK
6
CONTINUOUS
10
-60.0458
20
-30.3499
11
-58.5102
21
-17.8438
0
LINE
8
BLACK
6
CONTINUOUS
10
-72.4059
20
-16.1377
11
-73.9414
21
-28.6437
0
LINE
8
BLACK
6
CONTINUOUS
10
-58.5102
20
-17.8438
11
-59.3809
21
-16.7294
0
LINE
8
BLACK
6
CONTINUOUS
10
-71.2915
20
-15.267
11
-72.4059
21
-16.1377
0
LINE
8
BLACK
6
CONTINUOUS
10
-59.3809
20
-16.7294
11
-71.2915
21
-15.267
0
LINE
8
BLACK
6
CONTINUOUS
10
107.947
20
-1.16976
11
96.0361
21
-2.63219
0
LINE
8
BLACK
6
CONTINUOUS
10
107.947
20
-1.16976
11
109.061
21
-2.04043
0
LINE
8
BLACK
6
CONTINUOUS
10
95.1654
20
-3.74661
11
96.0361
21
-2.63219
0
LINE
8
BLACK
6
CONTINUOUS
10
95.1654
20
-3.74661
11
96.701
21
-16.2527
0
LINE
8
BLACK
6
CONTINUOUS
10
110.597
20
-14.5465
11
109.061
21
-2.04043
0
LINE
8
BLACK
6
CONTINUOUS
10
96.701
20
-16.2527
11
97.8154
21
-17.1234
0
LINE
8
BLACK
6
CONTINUOUS
10
109.726
20
-15.6609
11
110.597
21
-14.5465
0
LINE
8
BLACK
6
CONTINUOUS
10
97.8154
20
-17.1234
11
109.726
21
-15.6609
0
LINE
8
BLACK
6
CONTINUOUS
10
29.4126
20
13.1788
11
17.5021
21
11.7164
0
LINE
8
BLACK
6
CONTINUOUS
10
29.4126
20
13.1788
11
30.527
21
12.3081
0
LINE
8
BLACK
6
CONTINUOUS
10
16.6314
20
10.602
11
17.5021
21
11.7164
0
LINE
8
BLACK
6
CONTINUOUS
10
16.6314
20
10.602
11
18.167
21
-1.90413
0
LINE
8
BLACK
6
CONTINUOUS
10
32.0626
20
-0.197955
11
30.527
21
12.3081
0
LINE
8
BLACK
6
CONTINUOUS
10
18.167
20
-1.90413
11
19.2814
21
-2.7748
0
LINE
8
BLACK
6
CONTINUOUS
10
31.1919
20
-1.31237
11
32.0626
21
-0.197955
0
LINE
8
BLACK
6
CONTINUOUS
10
19.2814
20
-2.7748
11
31.1919
21
-1.31237
0
LINE
8
BLACK
6
CONTINUOUS
10
50.6422
20
-3.40759
11
38.7317
21
-4.87002
0
LINE
8
BLACK
6
CONTINUOUS
10
50.6422
20
-3.40759
11
51.7567
21
-4.27827
0
LINE
8
BLACK
6
CONTINUOUS
10
37.861
20
-5.98444
11
38.7317
21
-4.87002
0
LINE
8
BLACK
6
CONTINUOUS
10
37.861
20
-5.98444
11
39.3966
21
-18.4905
0
LINE
8
BLACK
6
CONTINUOUS
10
53.2922
20
-16.7843
11
51.7567
21
-4.27827
0
LINE
8
BLACK
6
CONTINUOUS
10
39.3966
20
-18.4905
11
40.511
21
-19.3612
0
LINE
8
BLACK
6
CONTINUOUS
10
52.4215
20
-17.8988
11
53.2922
21
-16.7843
0
LINE
8
BLACK
6
CONTINUOUS
10
40.511
20
-19.3612
11
52.4215
21
-17.8988
0
LINE
8
BLACK
6
CONTINUOUS
10
31.7342
20
-5.7292
11
19.8237
21
-7.19163
0
LINE
8
BLACK
6
CONTINUOUS
10
31.7342
20
-5.7292
11
32.8487
21
-6.59988
0
LINE
8
BLACK
6
CONTINUOUS
10
18.953
20
-8.30605
11
19.8237
21
-7.19163
0
LINE
8
BLACK
6
CONTINUOUS
10
18.953
20
-8.30605
11
20.4886
21
-20.8121
0
LINE
8
BLACK
6
CONTINUOUS
10
34.3842
20
-19.106
11
32.8487
21
-6.59988
0
LINE
8
BLACK
6
CONTINUOUS
10
20.4886
20
-20.8121
11
21.603
21
-21.6828
0
LINE
8
BLACK
6
CONTINUOUS
10
33.5135
20
-20.2204
11
34.3842
21
-19.106
0
LINE
8
BLACK
6
CONTINUOUS
10
21.603
20
-21.6828
11
33.5135
21
-20.2204
0
CIRCLE
8
BLACK
10
46.7374
20
-20.8384
40
1.1
0
CIRCLE
8
BLACK
10
-101.714
20
0.30662
40
1.1
0
LINE
8
BLACK
6
CONTINUOUS
10
66.6482
20
22.549
11
54.7377
21
21.0866
0
LINE
8
BLACK
6
CONTINUOUS
10
66.6482
20
22.549
11
67.7627
21
21.6783
0
LINE
8
BLACK
6
CONTINUOUS
10
53.867
20
19.9722
11
54.7377
21
21.0866
0
LINE
8
BLACK
6
CONTINUOUS
10
53.867
20
19.9722
11
55.4026
21
7.4661
0
LINE
8
BLACK
6
CONTINUOUS
10
69.2982
20
9.17227
11
67.7627
21
21.6783
0
LINE
8
BLACK
6
CONTINUOUS
10
55.4026
20
7.4661
11
56.517
21
6.59542
0
LINE
8
BLACK
6
CONTINUOUS
10
68.4275
20
8.05785
11
69.2982
21
9.17227
0
LINE
8
BLACK
6
CONTINUOUS
10
56.517
20
6.59542
11
68.4275
21
8.05785
0
CIRCLE
8
BLACK
10
65.065
20
-13.7898
40
1.1
0
LINE
8
BLACK
6
CONTINUOUS
10
48.3206
20
15.5004
11
36.4101
21
14.038
0
LINE
8
BLACK
6
CONTINUOUS
10
48.3206
20
15.5004
11
49.435
21
14.6297
0
LINE
8
BLACK
6
CONTINUOUS
10
35.5394
20
12.9236
11
36.4101
21
14.038
0
LINE
8
BLACK
6
CONTINUOUS
10
35.5394
20
12.9236
11
37.075
21
0.417485
0
LINE
8
BLACK
6
CONTINUOUS
10
50.9706
20
2.12366
11
49.435
21
14.6297
0
LINE
8
BLACK
6
CONTINUOUS
10
37.075
20
0.417485
11
38.1894
21
-0.453192
0
LINE
8
BLACK
6
CONTINUOUS
10
50.0999
20
1.00924
11
50.9706
21
2.12366
0
LINE
8
BLACK
6
CONTINUOUS
10
38.1894
20
-0.453192
11
50.0999
21
1.00924
0
CIRCLE
8
BLACK
10
-25.5078
20
-4.252
40
1.1
0
CIRCLE
8
BLACK
10
-84.5473
20
-16.196
40
1.1
0
CIRCLE
8
BLACK
10
23.18
20
14.6552
40
1.1
0
LINE
8
BLACK
6
CONTINUOUS
10
-68.4275
20
8.05785
11
-56.517
21
6.59542
0
LINE
8
BLACK
6
CONTINUOUS
10
-68.4275
20
8.05785
11
-69.2982
21
9.17227
0
LINE
8
BLACK
6
CONTINUOUS
10
-55.4026
20
7.4661
11
-56.517
21
6.59542
0
LINE
8
BLACK
6
CONTINUOUS
10
-55.4026
20
7.4661
11
-53.867
21
19.9722
0
LINE
8
BLACK
6
CONTINUOUS
10
-67.7627
20
21.6783
11
-69.2982
21
9.17227
0
LINE
8
BLACK
6
CONTINUOUS
10
-53.867
20
19.9722
11
-54.7377
21
21.0866
0
LINE
8
BLACK
6
CONTINUOUS
10
-66.6482
20
22.549
11
-67.7627
21
21.6783
0
LINE
8
BLACK
6
CONTINUOUS
10
-54.7377
20
21.0866
11
-66.6482
21
22.549
0
LINE
8
BLACK
6
CONTINUOUS
10
-52.4215
20
-17.8988
11
-40.511
21
-19.3612
0
LINE
8
BLACK
6
CONTINUOUS
10
-52.4215
20
-17.8988
11
-53.2922
21
-16.7843
0
LINE
8
BLACK
6
CONTINUOUS
10
-39.3966
20
-18.4905
11
-40.511
21
-19.3612
0
LINE
8
BLACK
6
CONTINUOUS
10
-39.3966
20
-18.4905
11
-37.861
21
-5.98444
0
LINE
8
BLACK
6
CONTINUOUS
10
-51.7567
20
-4.27827
11
-53.2922
21
-16.7843
0
LINE
8
BLACK
6
CONTINUOUS
10
-37.861
20
-5.98444
11
-38.7317
21
-4.87002
0
LINE
8
BLACK
6
CONTINUOUS
10
-50.6422
20
-3.40759
11
-51.7567
21
-4.27827
0
LINE
8
BLACK
6
CONTINUOUS
10
-38.7317
20
-4.87002
11
-50.6422
21
-3.40759
0
LINE
8
BLACK
6
CONTINUOUS
10
68.9698
20
3.64102
11
57.0593
21
2.17859
0
LINE
8
BLACK
6
CONTINUOUS
10
68.9698
20
3.64102
11
70.0843
21
2.77034
0
LINE
8
BLACK
6
CONTINUOUS
10
56.1886
20
1.06417
11
57.0593
21
2.17859
0
LINE
8
BLACK
6
CONTINUOUS
10
56.1886
20
1.06417
11
57.7242
21
-11.4419
0
LINE
8
BLACK
6
CONTINUOUS
10
71.6198
20
-9.73574
11
70.0843
21
2.77034
0
LINE
8
BLACK
6
CONTINUOUS
10
57.7242
20
-11.4419
11
58.8386
21
-12.3126
0
LINE
8
BLACK
6
CONTINUOUS
10
70.7491
20
-10.8502
11
71.6198
21
-9.73574
0
LINE
8
BLACK
6
CONTINUOUS
10
58.8386
20
-12.3126
11
70.7491
21
-10.8502
  0
ENDSEC
  0
EOF
