  0
SECTION
  2
HEADER
  9
$ANGBASE
  50
0.0
  9
$ANGDIR
  70
1
  9
$MEASUREMENT
  70
1
  0
ENDSEC
  0
SECTION
  2
TABLES
  0
TABLE
  2
LTYPE
  70
4
  0
LTYPE
  5
40F
  2
CONTINUOUS
  70
0
  3
Solid line
  72
65
  73
0
  40
0.0
  0
LTYPE
  5
410
  2
DASHDOT
 70
0
  3
Dash Dot ____ _ ____ _
 72
65
 73
4
 40
2.0
 49
1.25
 49
-0.25
 49
0.25
 49
-0.25
  0
LTYPE
  5
411
  2
DASHED
 70
0
  3
Dashed __ __ __ __ __
 72
65
 73
2
 40
0.75
 49
0.5
 49
-0.25
  0
LTYPE
  5
43B
  2
DOTTED
 70
0
  3
Dotted .  .  .  .
 72
65
 73
2
 40
0.2
 49
0.0
 49
-0.2
  0
ENDTAB
  0
TABLE
  2
STYLE
  70
4
  0
STYLE
  2
KICAD
  70
0
  40
0
  41
1
  42
1
  50
0
  71
0
  3
isocp.shx
  0
STYLE
  2
KICADB
  70
0
  40
0
  41
1
  42
1
  50
0
  71
0
  3
isocp.shx
  0
STYLE
  2
KICADI
  70
0
  40
0
  41
1
  42
1
  50
15
  71
0
  3
isocp.shx
  0
STYLE
  2
KICADBI
  70
0
  40
0
  41
1
  42
1
  50
15
  71
0
  3
isocp.shx
  0
ENDTAB
  0
TABLE
  2
LAYER
  70
1
  0
LAYER
  2
BLACK
  70
0
  62
7
  6
CONTINUOUS
  0
ENDTAB
  0
ENDSEC
  0
SECTION
  2
ENTITIES
0
ARC
8
BLACK
10
8.01003
20
7.99996
40
2.00004
50
0.00123188
51
90.001
0
LINE
8
BLACK
6
CONTINUOUS
10
-68.9566
20
25.3624
11
-51.587
21
23.2297
0
LINE
8
BLACK
6
CONTINUOUS
10
-16.6368
20
14.392
11
-15.0597
21
15.6242
0
ARC
8
BLACK
10
97.8466
20
-38.0616
40
1.00006
50
-172.997
51
-83.0053
0
LINE
8
BLACK
6
CONTINUOUS
10
26.8045
20
-62.1869
11
83.3861
21
-55.2395
0
LINE
8
BLACK
6
CONTINUOUS
10
-96.4422
20
-34.9155
11
-96.844
21
-38.1876
0
ARC
8
BLACK
10
-110.813
20
-32.4425
40
4.99984
50
-187.002
51
-96.998
0
ARC
8
BLACK
10
-11.5721
20
15.1817
40
2.50001
50
-51.9038
51
128.094
0
ARC
8
BLACK
10
21.8183
20
-64.6067
40
2.49998
50
-213.096
51
-33.0944
0
CIRCLE
8
BLACK
10
-11.572
20
15.1817
40
1.05
0
LINE
8
BLACK
6
CONTINUOUS
10
-89.6983
20
20.0947
11
-89.4249
21
22.3217
0
ARC
8
BLACK
10
-95.4498
20
-35.0372
40
0.999903
50
82.9945
51
173.008
0
ARC
8
BLACK
10
-12.2624
20
8.93216
40
1.99975
50
127.998
51
173.005
0
LINE
8
BLACK
6
CONTINUOUS
10
-85.0813
20
-36.3105
11
-85.4238
21
-39.0999
0
ARC
8
BLACK
10
-12
20
-4.24334
40
1.99997
50
-108.076
51
-0.00131782
0
LINE
8
BLACK
6
CONTINUOUS
10
-23.9027
20
-65.9759
11
-26.0786
21
-62.6375
0
LINE
8
BLACK
6
CONTINUOUS
10
-90.8928
20
19.2339
11
-90.8127
21
19.2241
0
ARC
8
BLACK
10
110.823
20
-32.4384
40
4.99986
50
-83.0016
51
7.00133
0
LINE
8
BLACK
6
CONTINUOUS
10
-50.5422
20
21.8924
11
-50.7996
21
19.7957
0
ARC
8
BLACK
10
83.1423
20
-53.2544
40
2
50
-83.0001
51
6.99982
0
LINE
8
BLACK
6
CONTINUOUS
10
-19.4337
20
-54.7918
11
19.4432
21
-54.7883
0
LINE
8
BLACK
6
CONTINUOUS
10
96.854
20
-38.1836
11
96.4522
21
-34.9115
0
ARC
8
BLACK
10
-90.7709
20
20.2265
40
1.00002
50
-186.999
51
-97.0004
0
LINE
8
BLACK
6
CONTINUOUS
10
-85.1174
20
-53.0148
11
-83.0963
21
-36.5542
0
ARC
8
BLACK
10
-91.0367
20
-35.5793
40
1.00011
50
-6.994
51
82.9978
0
LINE
8
BLACK
6
CONTINUOUS
10
-90.3866
20
-38.4906
11
-90.0441
21
-35.7011
0
ARC
8
BLACK
10
71.7525
20
22.3715
40
1.20027
50
-172.987
51
-83.0101
0
LINE
8
BLACK
6
CONTINUOUS
10
-83.3761
20
-55.2436
11
-26.7945
21
-62.1909
0
ARC
8
BLACK
10
94.2234
20
21.0164
40
2.51267
50
-353
51
-173
0
LINE
8
BLACK
6
CONTINUOUS
10
85.4338
20
-39.0959
11
85.0913
21
-36.3064
0
ARC
8
BLACK
10
49.6187
20
19.6534
40
1.19986
50
-83.0069
51
7.0065
0
ARC
8
BLACK
10
13.6552
20
-2.32604
40
1.99971
50
-37.8364
51
7.00312
0
ARC
8
BLACK
10
87.9152
20
-38.7912
40
2.49998
50
-173.001
51
7.00103
0
ARC
8
BLACK
10
12.2724
20
8.93616
40
1.99971
50
6.99706
51
52.0042
0
LINE
8
BLACK
6
CONTINUOUS
10
-70.5513
20
22.2209
11
-70.2939
21
24.3176
0
ARC
8
BLACK
10
-71.7427
20
22.3675
40
1.20036
50
-96.9832
51
-7.01501
0
ARC
8
BLACK
10
-49.6088
20
19.6493
40
1.19982
50
-187.009
51
-96.9917
0
ARC
8
BLACK
10
-51.7334
20
22.0386
40
1.20012
50
-6.99447
51
82.9943
0
LINE
8
BLACK
6
CONTINUOUS
10
12.8436
20
-6.07109
11
12.6306
21
-6.14062
0
LINE
8
BLACK
6
CONTINUOUS
10
109.849
20
16.523
11
115.786
21
-31.829
0
CIRCLE
8
BLACK
10
11.582
20
15.1858
40
1.05
0
LINE
8
BLACK
6
CONTINUOUS
10
-20.1763
20
14.8304
11
-16.6368
21
14.392
0
LINE
8
BLACK
6
CONTINUOUS
10
8.00122
20
-9.99007
11
8.00122
21
-50.9901
0
ARC
8
BLACK
10
-88.4324
20
22.2
40
0.999939
50
82.9965
51
173.006
0
LINE
8
BLACK
6
CONTINUOUS
10
-8
20
10
11
8.00999
21
10
0
LINE
8
BLACK
6
CONTINUOUS
10
96.8836
20
19.9686
11
104.277
21
20.8764
0
ARC
8
BLACK
10
12.01
20
-4.23934
40
1.99998
50
-180
51
-71.9248
0
LINE
8
BLACK
6
CONTINUOUS
10
16.6468
20
14.396
11
20.1863
21
14.8345
0
LINE
8
BLACK
6
CONTINUOUS
10
7.00122
20
-51.9901
11
-6.99878
21
-51.9901
0
ARC
8
BLACK
10
-94.2134
20
21.0123
40
2.51265
50
-6.99993
51
173
0
ARC
8
BLACK
10
-12.2132
20
-4.17414
40
1.99968
50
-142.171
51
-108.075
0
LINE
8
BLACK
6
CONTINUOUS
10
71.8986
20
21.1801
11
88.3204
21
23.1965
0
ARC
8
BLACK
10
-87.9052
20
-38.7953
40
2.5
50
-187
51
-7.00015
0
LINE
8
BLACK
6
CONTINUOUS
10
-15.0597
20
15.6242
11
-13.1145
21
17.1492
0
ARC
8
BLACK
10
-7.99997
20
7.99996
40
2.00003
50
90.0008
51
179.999
0
LINE
8
BLACK
6
CONTINUOUS
10
15.0697
20
15.6282
11
16.6468
21
14.396
0
LINE
8
BLACK
6
CONTINUOUS
10
-104.267
20
20.8724
11
-96.8736
21
19.9646
0
LINE
8
BLACK
6
CONTINUOUS
10
-13.7926
20
-5.40058
11
-15.2245
21
-3.55675
0
ARC
8
BLACK
10
-19.4336
20
-55.7918
40
1.00002
50
90.0063
51
172.364
0
ARC
8
BLACK
10
-23.1788
20
14.6652
40
3.00707
50
3.15006
51
162.85
0
ARC
8
BLACK
10
91.0465
20
-35.5751
40
0.99992
50
-263.005
51
-172.997
0
LINE
8
BLACK
6
CONTINUOUS
10
13.1245
20
17.1532
11
15.0697
21
15.6282
0
ARC
8
BLACK
10
-104.876
20
15.9095
40
5.00015
50
83.0017
51
172.998
0
LINE
8
BLACK
6
CONTINUOUS
10
-88.3105
20
23.1924
11
-71.8886
21
21.176
0
ARC
8
BLACK
10
-6.99847
20
-50.9898
40
1.00023
50
-179.987
51
-90.0176
0
LINE
8
BLACK
6
CONTINUOUS
10
50.8096
20
19.7997
11
50.5522
21
21.8965
0
LINE
8
BLACK
6
CONTINUOUS
10
90.0541
20
-35.6971
11
90.3966
21
-38.4865
0
CIRCLE
8
BLACK
10
87.9152
20
-38.7912
40
1.05
0
ARC
8
BLACK
10
-13.6453
20
-2.33014
40
1.99967
50
-187.004
51
-142.164
0
LINE
8
BLACK
6
CONTINUOUS
10
-10.0296
20
13.2142
11
-13.4935
21
10.508
0
LINE
8
BLACK
6
CONTINUOUS
10
-10
20
8
11
-10
21
-4.24339
0
LINE
8
BLACK
6
CONTINUOUS
10
111.433
20
-37.4011
11
97.9684
21
-39.0543
0
ARC
8
BLACK
10
88.4423
20
22.204
40
0.999955
50
6.99745
51
97.001
0
LINE
8
BLACK
6
CONTINUOUS
10
26.0886
20
-62.6334
11
23.9127
21
-65.9718
0
LINE
8
BLACK
6
CONTINUOUS
10
-12.6206
20
-6.14468
11
-12.8336
21
-6.07515
0
ARC
8
BLACK
10
-97.8366
20
-38.0657
40
1.00002
50
-96.9986
51
-7.00154
0
ARC
8
BLACK
10
-90.6909
20
20.2167
40
1.00002
50
-96.9987
51
-7.00236
0
LINE
8
BLACK
6
CONTINUOUS
10
10.01
20
-4.23933
11
10.01
21
8
0
LINE
8
BLACK
6
CONTINUOUS
10
20.4344
20
-55.6553
11
21.1077
21
-60.6745
0
ARC
8
BLACK
10
90.7009
20
20.2208
40
1.00007
50
-172.996
51
-83.0052
0
LINE
8
BLACK
6
CONTINUOUS
10
-6.99878
20
-8.99007
11
7.00122
21
-8.99007
0
ARC
8
BLACK
10
19.4432
20
-55.7883
40
1.00004
50
7.64278
51
90.0036
0
LINE
8
BLACK
6
CONTINUOUS
10
51.597
20
23.2338
11
68.9665
21
25.3665
0
CIRCLE
8
BLACK
10
-21.8083
20
-64.6108
40
1.05
0
CIRCLE
8
BLACK
10
94.2234
20
21.0163
40
1.05
0
LINE
8
BLACK
6
CONTINUOUS
10
91.7295
20
20.7101
11
91.7734
21
20.3524
0
LINE
8
BLACK
6
CONTINUOUS
10
89.4349
20
22.3258
11
89.7083
21
20.0988
0
ARC
8
BLACK
10
-6.99877
20
-9.99004
40
1.00001
50
-270
51
-179.998
0
ARC
8
BLACK
10
104.886
20
15.9136
40
5.00013
50
7.00149
51
96.9991
0
ARC
8
BLACK
10
-21.8083
20
-64.6108
40
2.5
50
-146.906
51
33.0962
0
LINE
8
BLACK
6
CONTINUOUS
10
-49.7548
20
18.4584
11
-26.0521
21
15.5519
0
LINE
8
BLACK
6
CONTINUOUS
10
26.0621
20
15.5559
11
49.7648
21
18.4624
0
LINE
8
BLACK
6
CONTINUOUS
10
14.2572
20
9.17976
11
15.64
21
-2.08223
0
ARC
8
BLACK
10
95.4597
20
-35.0332
40
0.999921
50
6.9955
51
97.0031
0
ARC
8
BLACK
10
7.00123
20
-9.99004
40
0.999968
50
-0.00183348
51
90.0005
0
LINE
8
BLACK
6
CONTINUOUS
10
19.7239
20
-63.2416
11
20.9544
21
-61.3533
0
LINE
8
BLACK
6
CONTINUOUS
10
-15.63
20
-2.08629
11
-14.2472
21
9.1757
0
ARC
8
BLACK
10
11.582
20
15.1858
40
2.49999
50
-308.095
51
-128.095
0
CIRCLE
8
BLACK
10
21.8183
20
-64.6067
40
1.05
0
LINE
8
BLACK
6
CONTINUOUS
10
-97.9584
20
-39.0583
11
-111.423
21
-37.4051
0
LINE
8
BLACK
6
CONTINUOUS
10
90.9247
20
-34.5826
11
95.3378
21
-34.0408
0
LINE
8
BLACK
6
CONTINUOUS
10
-95.3278
20
-34.0448
11
-90.9148
21
-34.5867
0
ARC
8
BLACK
10
-20.1066
20
-60.8114
40
1
50
-187.639
51
-146.913
0
LINE
8
BLACK
6
CONTINUOUS
10
-20.9444
20
-61.3574
11
-19.7139
21
-63.2457
0
LINE
8
BLACK
6
CONTINUOUS
10
-91.7634
20
20.3483
11
-91.7195
21
20.7061
0
ARC
8
BLACK
10
26.9263
20
-63.1794
40
0.999986
50
96.9986
51
146.904
0
ARC
8
BLACK
10
23.1888
20
14.6692
40
3.00706
50
17.1504
51
176.85
0
LINE
8
BLACK
6
CONTINUOUS
10
-7
20
7
11
7
21
7
0
LINE
8
BLACK
6
CONTINUOUS
10
7
20
7
11
7
21
-7
0
LINE
8
BLACK
6
CONTINUOUS
10
7
20
-7
11
-7
21
-7
0
LINE
8
BLACK
6
CONTINUOUS
10
-7
20
-7
11
-7
21
7
0
LINE
8
BLACK
6
CONTINUOUS
10
70.3038
20
24.3217
11
70.5613
21
22.2249
0
ARC
8
BLACK
10
84.0988
20
-36.4282
40
0.999971
50
-352.999
51
-173.001
0
LINE
8
BLACK
6
CONTINUOUS
10
96.8831
20
19.9723
11
96.7173
21
21.3226
0
ARC
8
BLACK
10
20.1166
20
-60.8073
40
0.999963
50
-33.0907
51
7.63674
0
ARC
8
BLACK
10
-83.1324
20
-53.2585
40
1.99996
50
-187.001
51
-96.999
0
LINE
8
BLACK
6
CONTINUOUS
10
-7.99878
20
-50.9901
11
-7.99878
21
-9.99007
0
ARC
8
BLACK
10
51.7433
20
22.0427
40
1.20009
50
-262.996
51
-173.003
0
LINE
8
BLACK
6
CONTINUOUS
10
90.8227
20
19.2281
11
90.9027
21
19.238
0
CIRCLE
8
BLACK
10
-87.9052
20
-38.7953
40
1.05
0
LINE
8
BLACK
6
CONTINUOUS
10
-21.0977
20
-60.6785
11
-20.4247
21
-55.659
0
LINE
8
BLACK
6
CONTINUOUS
10
15.2345
20
-3.55269
11
13.8026
21
-5.39652
0
ARC
8
BLACK
10
-26.9164
20
-63.1835
40
1.00005
50
33.097
51
82.9996
0
LINE
8
BLACK
6
CONTINUOUS
10
13.5035
20
10.512
11
10.0396
21
13.2183
0
CIRCLE
8
BLACK
10
-94.2134
20
21.0123
40
1.05
0
ARC
8
BLACK
10
7.00113
20
-50.99
40
1.00009
50
-89.9947
51
-0.00171872
0
LINE
8
BLACK
6
CONTINUOUS
10
-115.776
20
-31.8331
11
-109.839
21
16.519
0
LINE
8
BLACK
6
CONTINUOUS
10
-96.7073
20
21.3185
11
-96.8731
21
19.9682
0
ARC
8
BLACK
10
69.1127
20
24.1753
40
1.20016
50
7.00779
51
96.9961
0
ARC
8
BLACK
10
12.2231
20
-4.16994
40
1.99982
50
-71.9257
51
-37.8315
0
ARC
8
BLACK
10
90.7808
20
20.2306
40
1.00004
50
-82.9978
51
6.99637
0
LINE
8
BLACK
6
CONTINUOUS
10
83.1063
20
-36.5501
11
85.1274
21
-53.0107
0
ARC
8
BLACK
10
-84.0889
20
-36.4323
40
0.999928
50
-6.99668
51
172.997
0
ARC
8
BLACK
10
-69.1026
20
24.1712
40
1.20025
50
83.012
51
172.991
0
LINE
8
BLACK
6
CONTINUOUS
10
-66.6774
20
22.2604
11
-54.7669
21
20.7979
0
LINE
8
BLACK
6
CONTINUOUS
10
-53.8962
20
19.6835
11
-55.3586
21
7.77296
0
LINE
8
BLACK
6
CONTINUOUS
10
-69.2543
20
9.47913
11
-67.7918
21
21.3897
0
LINE
8
BLACK
6
CONTINUOUS
10
-56.473
20
6.90229
11
-68.3836
21
8.36472
0
ARC
8
BLACK
10
-54.8887
20
19.8054
40
0.999998
50
-7.00005
51
83.0001
0
ARC
8
BLACK
10
-66.7993
20
21.2678
40
0.999998
50
83
51
173
0
ARC
8
BLACK
10
-56.3512
20
7.89483
40
0.999999
50
-97
51
-6.99998
0
ARC
8
BLACK
10
-68.2617
20
9.35727
40
0.999999
50
-187
51
-97
0
LINE
8
BLACK
6
CONTINUOUS
10
-50.6714
20
-3.69625
11
-38.7609
21
-5.15868
0
LINE
8
BLACK
6
CONTINUOUS
10
-37.8902
20
-6.2731
11
-39.3526
21
-18.1837
0
LINE
8
BLACK
6
CONTINUOUS
10
-53.2483
20
-16.4775
11
-51.7858
21
-4.56693
0
LINE
8
BLACK
6
CONTINUOUS
10
-40.467
20
-19.0543
11
-52.3776
21
-17.5919
0
ARC
8
BLACK
10
-38.8827
20
-6.15123
40
0.999998
50
-7.00005
51
83.0001
0
ARC
8
BLACK
10
-50.7933
20
-4.6888
40
0.999998
50
83
51
173
0
ARC
8
BLACK
10
-40.3452
20
-18.0618
40
0.999999
50
-97
51
-6.99998
0
ARC
8
BLACK
10
-52.2557
20
-16.5994
40
0.999999
50
-187
51
-97
0
LINE
8
BLACK
6
CONTINUOUS
10
-86.1658
20
19.855
11
-74.2553
21
18.3925
0
LINE
8
BLACK
6
CONTINUOUS
10
-73.3846
20
17.2781
11
-74.847
21
5.36758
0
LINE
8
BLACK
6
CONTINUOUS
10
-88.7427
20
7.07375
11
-87.2802
21
18.9843
0
LINE
8
BLACK
6
CONTINUOUS
10
-75.9614
20
4.4969
11
-87.872
21
5.95933
0
ARC
8
BLACK
10
-74.3771
20
17.4
40
0.999998
50
-7.00005
51
83.0001
0
ARC
8
BLACK
10
-86.2877
20
18.8624
40
0.999998
50
83
51
173
0
ARC
8
BLACK
10
-75.8396
20
5.48945
40
0.999999
50
-97
51
-6.99998
0
ARC
8
BLACK
10
-87.7501
20
6.95188
40
0.999999
50
-187
51
-97
0
LINE
8
BLACK
6
CONTINUOUS
10
-110.297
20
-20.3664
11
-98.3869
21
-21.8289
0
LINE
8
BLACK
6
CONTINUOUS
10
-97.5162
20
-22.9433
11
-98.9786
21
-34.8538
0
LINE
8
BLACK
6
CONTINUOUS
10
-112.874
20
-33.1477
11
-111.412
21
-21.2371
0
LINE
8
BLACK
6
CONTINUOUS
10
-100.093
20
-35.7245
11
-112.004
21
-34.2621
0
ARC
8
BLACK
10
-98.5088
20
-22.8214
40
0.999998
50
-7.00005
51
83.0001
0
ARC
8
BLACK
10
-110.419
20
-21.359
40
0.999998
50
83
51
173
0
ARC
8
BLACK
10
-99.9712
20
-34.732
40
0.999999
50
-97
51
-6.99998
0
ARC
8
BLACK
10
-111.882
20
-33.2695
40
0.999999
50
-187
51
-97
0
LINE
8
BLACK
6
CONTINUOUS
10
-107.976
20
-1.45842
11
-96.0653
21
-2.92085
0
LINE
8
BLACK
6
CONTINUOUS
10
-95.1946
20
-4.03527
11
-96.657
21
-15.9458
0
LINE
8
BLACK
6
CONTINUOUS
10
-110.553
20
-14.2396
11
-109.09
21
-2.3291
0
LINE
8
BLACK
6
CONTINUOUS
10
-97.7714
20
-16.8165
11
-109.682
21
-15.3541
0
ARC
8
BLACK
10
-96.1871
20
-3.9134
40
0.999998
50
-7.00005
51
83.0001
0
ARC
8
BLACK
10
-108.098
20
-2.45096
40
0.999998
50
83
51
173
0
ARC
8
BLACK
10
-97.6496
20
-15.824
40
0.999999
50
-97
51
-6.99998
0
ARC
8
BLACK
10
-109.56
20
-14.3615
40
0.999999
50
-187
51
-97
0
LINE
8
BLACK
6
CONTINUOUS
10
-105.654
20
17.4496
11
-93.7437
21
15.9872
0
LINE
8
BLACK
6
CONTINUOUS
10
-92.873
20
14.8727
11
-94.3354
21
2.96219
0
LINE
8
BLACK
6
CONTINUOUS
10
-108.231
20
4.66836
11
-106.769
21
16.5789
0
LINE
8
BLACK
6
CONTINUOUS
10
-95.4498
20
2.09151
11
-107.36
21
3.55394
0
ARC
8
BLACK
10
-93.8655
20
14.9946
40
0.999998
50
-7.00005
51
83.0001
0
ARC
8
BLACK
10
-105.776
20
16.457
40
0.999998
50
83
51
173
0
ARC
8
BLACK
10
-95.328
20
3.08405
40
0.999999
50
-97
51
-6.99998
0
ARC
8
BLACK
10
-107.239
20
4.54649
40
0.999999
50
-187
51
-97
0
LINE
8
BLACK
6
CONTINUOUS
10
-52.993
20
-22.6043
11
-41.0825
21
-24.0667
0
LINE
8
BLACK
6
CONTINUOUS
10
-40.2118
20
-25.1811
11
-41.6742
21
-37.0917
0
LINE
8
BLACK
6
CONTINUOUS
10
-55.5699
20
-35.3855
11
-54.1074
21
-23.4749
0
LINE
8
BLACK
6
CONTINUOUS
10
-42.7886
20
-37.9623
11
-54.6992
21
-36.4999
0
ARC
8
BLACK
10
-41.2043
20
-25.0592
40
0.999998
50
-7.00005
51
83.0001
0
ARC
8
BLACK
10
-53.1149
20
-23.5968
40
0.999998
50
83
51
173
0
ARC
8
BLACK
10
-42.6668
20
-36.9698
40
0.999999
50
-97
51
-6.99998
0
ARC
8
BLACK
10
-54.5773
20
-35.5074
40
0.999999
50
-187
51
-97
0
LINE
8
BLACK
6
CONTINUOUS
10
-31.7634
20
-6.01786
11
-19.8529
21
-7.48029
0
LINE
8
BLACK
6
CONTINUOUS
10
-18.9822
20
-8.59471
11
-20.4446
21
-20.5053
0
LINE
8
BLACK
6
CONTINUOUS
10
-34.3403
20
-18.7991
11
-32.8778
21
-6.88854
0
LINE
8
BLACK
6
CONTINUOUS
10
-21.559
20
-21.3759
11
-33.4696
21
-19.9135
0
ARC
8
BLACK
10
-19.9747
20
-8.47284
40
0.999998
50
-7.00005
51
83.0001
0
ARC
8
BLACK
10
-31.8853
20
-7.01041
40
0.999998
50
83
51
173
0
ARC
8
BLACK
10
-21.4372
20
-20.3834
40
0.999999
50
-97
51
-6.99998
0
ARC
8
BLACK
10
-33.3477
20
-18.921
40
0.999999
50
-187
51
-97
0
LINE
8
BLACK
6
CONTINUOUS
10
-71.3206
20
-15.5556
11
-59.4101
21
-17.0181
0
LINE
8
BLACK
6
CONTINUOUS
10
-58.5394
20
-18.1325
11
-60.0018
21
-30.043
0
LINE
8
BLACK
6
CONTINUOUS
10
-73.8975
20
-28.3369
11
-72.435
21
-16.4263
0
LINE
8
BLACK
6
CONTINUOUS
10
-61.1162
20
-30.9137
11
-73.0268
21
-29.4513
0
ARC
8
BLACK
10
-59.5319
20
-18.0106
40
0.999998
50
-7.00005
51
83.0001
0
ARC
8
BLACK
10
-71.4425
20
-16.5482
40
0.999998
50
83
51
173
0
ARC
8
BLACK
10
-60.9944
20
-29.9212
40
0.999999
50
-97
51
-6.99998
0
ARC
8
BLACK
10
-72.9049
20
-28.4587
40
0.999999
50
-187
51
-97
0
LINE
8
BLACK
6
CONTINUOUS
10
-34.085
20
-24.9259
11
-22.1745
21
-26.3883
0
LINE
8
BLACK
6
CONTINUOUS
10
-21.3038
20
-27.5027
11
-22.7662
21
-39.4133
0
LINE
8
BLACK
6
CONTINUOUS
10
-36.6619
20
-37.7071
11
-35.1994
21
-25.7965
0
LINE
8
BLACK
6
CONTINUOUS
10
-23.8806
20
-40.2839
11
-35.7912
21
-38.8215
0
ARC
8
BLACK
10
-22.2963
20
-27.3808
40
0.999998
50
-7.00005
51
83.0001
0
ARC
8
BLACK
10
-34.2069
20
-25.9184
40
0.999998
50
83
51
173
0
ARC
8
BLACK
10
-23.7588
20
-39.2914
40
0.999999
50
-97
51
-6.99998
0
ARC
8
BLACK
10
-35.6693
20
-37.829
40
0.999999
50
-187
51
-97
0
LINE
8
BLACK
6
CONTINUOUS
10
-90.809
20
-17.961
11
-78.8985
21
-19.4235
0
LINE
8
BLACK
6
CONTINUOUS
10
-78.0278
20
-20.5379
11
-79.4902
21
-32.4484
0
LINE
8
BLACK
6
CONTINUOUS
10
-93.3859
20
-30.7423
11
-91.9235
21
-18.8317
0
LINE
8
BLACK
6
CONTINUOUS
10
-80.6047
20
-33.3191
11
-92.5152
21
-31.8567
0
ARC
8
BLACK
10
-79.0204
20
-20.416
40
0.999998
50
-7.00005
51
83.0001
0
ARC
8
BLACK
10
-90.9309
20
-18.9536
40
0.999998
50
83
51
173
0
ARC
8
BLACK
10
-80.4828
20
-32.3266
40
0.999999
50
-97
51
-6.99998
0
ARC
8
BLACK
10
-92.3933
20
-30.8641
40
0.999999
50
-187
51
-97
0
LINE
8
BLACK
6
CONTINUOUS
10
-48.3498
20
15.2118
11
-36.4393
21
13.7493
0
LINE
8
BLACK
6
CONTINUOUS
10
-35.5686
20
12.6349
11
-37.031
21
0.724353
0
LINE
8
BLACK
6
CONTINUOUS
10
-50.9267
20
2.43052
11
-49.4642
21
14.3411
0
LINE
8
BLACK
6
CONTINUOUS
10
-38.1454
20
-0.146324
11
-50.056
21
1.31611
0
ARC
8
BLACK
10
-36.5611
20
12.7568
40
0.999998
50
-7.00005
51
83.0001
0
ARC
8
BLACK
10
-48.4717
20
14.2192
40
0.999998
50
83
51
173
0
ARC
8
BLACK
10
-38.0236
20
0.846222
40
0.999999
50
-97
51
-6.99998
0
ARC
8
BLACK
10
-49.9341
20
2.30865
40
0.999999
50
-187
51
-97
0
LINE
8
BLACK
6
CONTINUOUS
10
-68.999
20
3.35237
11
-57.0885
21
1.88993
0
LINE
8
BLACK
6
CONTINUOUS
10
-56.2178
20
0.775519
11
-57.6802
21
-11.135
0
LINE
8
BLACK
6
CONTINUOUS
10
-71.5759
20
-9.42887
11
-70.1134
21
2.48169
0
LINE
8
BLACK
6
CONTINUOUS
10
-58.7946
20
-12.0057
11
-70.7052
21
-10.5433
0
ARC
8
BLACK
10
-57.2103
20
0.897389
40
0.999998
50
-7.00005
51
83.0001
0
ARC
8
BLACK
10
-69.1209
20
2.35982
40
0.999998
50
83
51
173
0
ARC
8
BLACK
10
-58.6728
20
-11.0132
40
0.999999
50
-97
51
-6.99998
0
ARC
8
BLACK
10
-70.5833
20
-9.55073
40
0.999999
50
-187
51
-97
0
LINE
8
BLACK
6
CONTINUOUS
10
-76.5861
20
-38.9004
11
-64.6756
21
-40.3629
0
LINE
8
BLACK
6
CONTINUOUS
10
-63.8049
20
-41.4773
11
-65.2673
21
-53.3878
0
LINE
8
BLACK
6
CONTINUOUS
10
-79.163
20
-51.6817
11
-77.7006
21
-39.7711
0
LINE
8
BLACK
6
CONTINUOUS
10
-66.3818
20
-54.2585
11
-78.2923
21
-52.7961
0
ARC
8
BLACK
10
-64.7975
20
-41.3554
40
0.999998
50
-7.00005
51
83.0001
0
ARC
8
BLACK
10
-76.708
20
-39.893
40
0.999998
50
83
51
173
0
ARC
8
BLACK
10
-66.2599
20
-53.266
40
0.999999
50
-97
51
-6.99998
0
ARC
8
BLACK
10
-78.1704
20
-51.8035
40
0.999999
50
-187
51
-97
0
LINE
8
BLACK
6
CONTINUOUS
10
-88.4874
20
0.94697
11
-76.5769
21
-0.515462
0
LINE
8
BLACK
6
CONTINUOUS
10
-75.7062
20
-1.62988
11
-77.1686
21
-13.5404
0
LINE
8
BLACK
6
CONTINUOUS
10
-91.0643
20
-11.8343
11
-89.6018
21
0.076293
0
LINE
8
BLACK
6
CONTINUOUS
10
-78.283
20
-14.4111
11
-90.1936
21
-12.9487
0
ARC
8
BLACK
10
-76.6987
20
-1.50801
40
0.999998
50
-7.00005
51
83.0001
0
ARC
8
BLACK
10
-88.6093
20
-0.045575
40
0.999998
50
83
51
173
0
ARC
8
BLACK
10
-78.1612
20
-13.4186
40
0.999999
50
-97
51
-6.99998
0
ARC
8
BLACK
10
-90.0717
20
-11.9561
40
0.999999
50
-187
51
-97
0
LINE
8
BLACK
6
CONTINUOUS
10
-29.4418
20
12.8901
11
-17.5313
21
11.4277
0
LINE
8
BLACK
6
CONTINUOUS
10
-16.6606
20
10.3133
11
-18.123
21
-1.59726
0
LINE
8
BLACK
6
CONTINUOUS
10
-32.0187
20
0.108913
11
-30.5562
21
12.0195
0
LINE
8
BLACK
6
CONTINUOUS
10
-19.2374
20
-2.46793
11
-31.148
21
-1.0055
0
ARC
8
BLACK
10
-17.6531
20
10.4352
40
0.999998
50
-7.00005
51
83.0001
0
ARC
8
BLACK
10
-29.5637
20
11.8976
40
0.999998
50
83
51
173
0
ARC
8
BLACK
10
-19.1156
20
-1.47539
40
0.999999
50
-97
51
-6.99998
0
ARC
8
BLACK
10
-31.0261
20
-0.012956
40
0.999999
50
-187
51
-97
0
LINE
8
BLACK
6
CONTINUOUS
10
-45.8606
20
-42.6731
11
-33.9501
21
-44.1355
0
LINE
8
BLACK
6
CONTINUOUS
10
-33.0794
20
-45.2499
11
-34.5418
21
-57.1605
0
LINE
8
BLACK
6
CONTINUOUS
10
-48.4375
20
-55.4543
11
-46.9751
21
-43.5437
0
LINE
8
BLACK
6
CONTINUOUS
10
-35.6563
20
-58.0311
11
-47.5668
21
-56.5687
0
ARC
8
BLACK
10
-34.072
20
-45.128
40
0.999998
50
-7.00005
51
83.0001
0
ARC
8
BLACK
10
-45.9825
20
-43.6656
40
0.999998
50
83
51
173
0
ARC
8
BLACK
10
-35.5344
20
-57.0386
40
0.999999
50
-97
51
-6.99998
0
ARC
8
BLACK
10
-47.4449
20
-55.5762
40
0.999999
50
-187
51
-97
0
LINE
8
BLACK
6
CONTINUOUS
10
110.307
20
-20.3624
11
98.3969
21
-21.8248
0
LINE
8
BLACK
6
CONTINUOUS
10
97.5262
20
-22.9392
11
98.9886
21
-34.8498
0
LINE
8
BLACK
6
CONTINUOUS
10
112.884
20
-33.1436
11
111.422
21
-21.2331
0
LINE
8
BLACK
6
CONTINUOUS
10
100.103
20
-35.7205
11
112.014
21
-34.258
0
ARC
8
BLACK
10
110.429
20
-21.3549
40
0.999998
50
6.99993
51
97
0
ARC
8
BLACK
10
98.5187
20
-22.8174
40
0.999998
50
-263
51
-173
0
ARC
8
BLACK
10
111.892
20
-33.2655
40
0.999999
50
-83
51
6.99998
0
ARC
8
BLACK
10
99.9812
20
-34.7279
40
0.999999
50
-173
51
-83
0
LINE
8
BLACK
6
CONTINUOUS
10
90.819
20
-17.957
11
78.9085
21
-19.4194
0
LINE
8
BLACK
6
CONTINUOUS
10
78.0378
20
-20.5338
11
79.5002
21
-32.4444
0
LINE
8
BLACK
6
CONTINUOUS
10
93.3959
20
-30.7382
11
91.9334
21
-18.8277
0
LINE
8
BLACK
6
CONTINUOUS
10
80.6146
20
-33.3151
11
92.5252
21
-31.8526
0
ARC
8
BLACK
10
90.9409
20
-18.9495
40
0.999998
50
6.99993
51
97
0
ARC
8
BLACK
10
79.0303
20
-20.412
40
0.999998
50
-263
51
-173
0
ARC
8
BLACK
10
92.4033
20
-30.8601
40
0.999999
50
-83
51
6.99998
0
ARC
8
BLACK
10
80.4928
20
-32.3225
40
0.999999
50
-173
51
-83
0
LINE
8
BLACK
6
CONTINUOUS
10
29.4518
20
12.8942
11
17.5412
21
11.4317
0
LINE
8
BLACK
6
CONTINUOUS
10
16.6705
20
10.3173
11
18.133
21
-1.59322
0
LINE
8
BLACK
6
CONTINUOUS
10
32.0286
20
0.112947
11
30.5662
21
12.0235
0
LINE
8
BLACK
6
CONTINUOUS
10
19.2474
20
-2.4639
11
31.158
21
-1.00147
0
ARC
8
BLACK
10
29.5737
20
11.9016
40
0.999998
50
6.99993
51
97
0
ARC
8
BLACK
10
17.6631
20
10.4392
40
0.999998
50
-263
51
-173
0
ARC
8
BLACK
10
31.0361
20
-0.008922
40
0.999999
50
-83
51
6.99998
0
ARC
8
BLACK
10
19.1255
20
-1.47135
40
0.999999
50
-173
51
-83
0
LINE
8
BLACK
6
CONTINUOUS
10
45.8706
20
-42.669
11
33.9601
21
-44.1315
0
LINE
8
BLACK
6
CONTINUOUS
10
33.0894
20
-45.2459
11
34.5518
21
-57.1564
0
LINE
8
BLACK
6
CONTINUOUS
10
48.4475
20
-55.4503
11
46.985
21
-43.5397
0
LINE
8
BLACK
6
CONTINUOUS
10
35.6662
20
-58.0271
11
47.5768
21
-56.5647
0
ARC
8
BLACK
10
45.9925
20
-43.6616
40
0.999998
50
6.99993
51
97
0
ARC
8
BLACK
10
34.0819
20
-45.124
40
0.999998
50
-263
51
-173
0
ARC
8
BLACK
10
47.4549
20
-55.5721
40
0.999999
50
-83
51
6.99998
0
ARC
8
BLACK
10
35.5444
20
-57.0346
40
0.999999
50
-173
51
-83
0
LINE
8
BLACK
6
CONTINUOUS
10
71.3306
20
-15.5516
11
59.4201
21
-17.014
0
LINE
8
BLACK
6
CONTINUOUS
10
58.5494
20
-18.1285
11
60.0118
21
-30.039
0
LINE
8
BLACK
6
CONTINUOUS
10
73.9075
20
-28.3328
11
72.445
21
-16.4223
0
LINE
8
BLACK
6
CONTINUOUS
10
61.1262
20
-30.9097
11
73.0368
21
-29.4473
0
ARC
8
BLACK
10
71.4525
20
-16.5442
40
0.999998
50
6.99993
51
97
0
ARC
8
BLACK
10
59.5419
20
-18.0066
40
0.999998
50
-263
51
-173
0
ARC
8
BLACK
10
72.9149
20
-28.4547
40
0.999999
50
-83
51
6.99998
0
ARC
8
BLACK
10
61.0044
20
-29.9171
40
0.999999
50
-173
51
-83
0
LINE
8
BLACK
6
CONTINUOUS
10
53.003
20
-22.6002
11
41.0925
21
-24.0627
0
LINE
8
BLACK
6
CONTINUOUS
10
40.2218
20
-25.1771
11
41.6842
21
-37.0876
0
LINE
8
BLACK
6
CONTINUOUS
10
55.5799
20
-35.3815
11
54.1174
21
-23.4709
0
LINE
8
BLACK
6
CONTINUOUS
10
42.7986
20
-37.9583
11
54.7092
21
-36.4959
0
ARC
8
BLACK
10
53.1249
20
-23.5928
40
0.999998
50
6.99993
51
97
0
ARC
8
BLACK
10
41.2143
20
-25.0552
40
0.999998
50
-263
51
-173
0
ARC
8
BLACK
10
54.5873
20
-35.5033
40
0.999999
50
-83
51
6.99998
0
ARC
8
BLACK
10
42.6768
20
-36.9658
40
0.999999
50
-173
51
-83
0
LINE
8
BLACK
6
CONTINUOUS
10
69.009
20
3.3564
11
57.0984
21
1.89397
0
LINE
8
BLACK
6
CONTINUOUS
10
56.2278
20
0.779553
11
57.6902
21
-11.131
0
LINE
8
BLACK
6
CONTINUOUS
10
71.5858
20
-9.42483
11
70.1234
21
2.48572
0
LINE
8
BLACK
6
CONTINUOUS
10
58.8046
20
-12.0017
11
70.7152
21
-10.5392
0
ARC
8
BLACK
10
69.1309
20
2.36386
40
0.999998
50
6.99993
51
97
0
ARC
8
BLACK
10
57.2203
20
0.901423
40
0.999998
50
-263
51
-173
0
ARC
8
BLACK
10
70.5933
20
-9.5467
40
0.999999
50
-83
51
6.99998
0
ARC
8
BLACK
10
58.6827
20
-11.0091
40
0.999999
50
-173
51
-83
0
LINE
8
BLACK
6
CONTINUOUS
10
105.664
20
17.4536
11
93.7536
21
15.9912
0
LINE
8
BLACK
6
CONTINUOUS
10
92.883
20
14.8768
11
94.3454
21
2.96622
0
LINE
8
BLACK
6
CONTINUOUS
10
108.241
20
4.67239
11
106.779
21
16.5829
0
LINE
8
BLACK
6
CONTINUOUS
10
95.4598
20
2.09554
11
107.37
21
3.55797
0
ARC
8
BLACK
10
105.786
20
16.4611
40
0.999998
50
6.99993
51
97
0
ARC
8
BLACK
10
93.8755
20
14.9986
40
0.999998
50
-263
51
-173
0
ARC
8
BLACK
10
107.249
20
4.55052
40
0.999999
50
-83
51
6.99998
0
ARC
8
BLACK
10
95.3379
20
3.08809
40
0.999999
50
-173
51
-83
0
LINE
8
BLACK
6
CONTINUOUS
10
50.6814
20
-3.69222
11
38.7708
21
-5.15465
0
LINE
8
BLACK
6
CONTINUOUS
10
37.9002
20
-6.26906
11
39.3626
21
-18.1796
0
LINE
8
BLACK
6
CONTINUOUS
10
53.2582
20
-16.4734
11
51.7958
21
-4.5629
0
LINE
8
BLACK
6
CONTINUOUS
10
40.477
20
-19.0503
11
52.3876
21
-17.5879
0
ARC
8
BLACK
10
50.8033
20
-4.68476
40
0.999998
50
6.99993
51
97
0
ARC
8
BLACK
10
38.8927
20
-6.14719
40
0.999998
50
-263
51
-173
0
ARC
8
BLACK
10
52.2657
20
-16.5953
40
0.999999
50
-83
51
6.99998
0
ARC
8
BLACK
10
40.3551
20
-18.0577
40
0.999999
50
-173
51
-83
0
LINE
8
BLACK
6
CONTINUOUS
10
66.6874
20
22.2644
11
54.7768
21
20.802
0
LINE
8
BLACK
6
CONTINUOUS
10
53.9062
20
19.6876
11
55.3686
21
7.777
0
LINE
8
BLACK
6
CONTINUOUS
10
69.2642
20
9.48317
11
67.8018
21
21.3937
0
LINE
8
BLACK
6
CONTINUOUS
10
56.483
20
6.90632
11
68.3936
21
8.36875
0
ARC
8
BLACK
10
66.8093
20
21.2719
40
0.999998
50
6.99993
51
97
0
ARC
8
BLACK
10
54.8987
20
19.8094
40
0.999998
50
-263
51
-173
0
ARC
8
BLACK
10
68.2717
20
9.3613
40
0.999999
50
-83
51
6.99998
0
ARC
8
BLACK
10
56.3611
20
7.89887
40
0.999999
50
-173
51
-83
0
LINE
8
BLACK
6
CONTINUOUS
10
76.5961
20
-38.8964
11
64.6856
21
-40.3588
0
LINE
8
BLACK
6
CONTINUOUS
10
63.8149
20
-41.4733
11
65.2773
21
-53.3838
0
LINE
8
BLACK
6
CONTINUOUS
10
79.173
20
-51.6776
11
77.7105
21
-39.7671
0
LINE
8
BLACK
6
CONTINUOUS
10
66.3917
20
-54.2545
11
78.3023
21
-52.7921
0
ARC
8
BLACK
10
76.718
20
-39.889
40
0.999998
50
6.99993
51
97
0
ARC
8
BLACK
10
64.8074
20
-41.3514
40
0.999998
50
-263
51
-173
0
ARC
8
BLACK
10
78.1804
20
-51.7995
40
0.999999
50
-83
51
6.99998
0
ARC
8
BLACK
10
66.2699
20
-53.2619
40
0.999999
50
-173
51
-83
0
LINE
8
BLACK
6
CONTINUOUS
10
34.095
20
-24.9218
11
22.1844
21
-26.3843
0
LINE
8
BLACK
6
CONTINUOUS
10
21.3138
20
-27.4987
11
22.7762
21
-39.4092
0
LINE
8
BLACK
6
CONTINUOUS
10
36.6718
20
-37.7031
11
35.2094
21
-25.7925
0
LINE
8
BLACK
6
CONTINUOUS
10
23.8906
20
-40.2799
11
35.8012
21
-38.8175
0
ARC
8
BLACK
10
34.2169
20
-25.9144
40
0.999998
50
6.99993
51
97
0
ARC
8
BLACK
10
22.3063
20
-27.3768
40
0.999998
50
-263
51
-173
0
ARC
8
BLACK
10
35.6793
20
-37.8249
40
0.999999
50
-83
51
6.99998
0
ARC
8
BLACK
10
23.7687
20
-39.2874
40
0.999999
50
-173
51
-83
0
LINE
8
BLACK
6
CONTINUOUS
10
88.4974
20
0.951004
11
76.5868
21
-0.511428
0
LINE
8
BLACK
6
CONTINUOUS
10
75.7162
20
-1.62584
11
77.1786
21
-13.5364
0
LINE
8
BLACK
6
CONTINUOUS
10
91.0742
20
-11.8302
11
89.6118
21
0.080327
0
LINE
8
BLACK
6
CONTINUOUS
10
78.293
20
-14.4071
11
90.2036
21
-12.9446
0
ARC
8
BLACK
10
88.6193
20
-0.041541
40
0.999998
50
6.99993
51
97
0
ARC
8
BLACK
10
76.7087
20
-1.50397
40
0.999998
50
-263
51
-173
0
ARC
8
BLACK
10
90.0817
20
-11.9521
40
0.999999
50
-83
51
6.99998
0
ARC
8
BLACK
10
78.1711
20
-13.4145
40
0.999999
50
-173
51
-83
0
LINE
8
BLACK
6
CONTINUOUS
10
86.1758
20
19.859
11
74.2652
21
18.3966
0
LINE
8
BLACK
6
CONTINUOUS
10
73.3946
20
17.2822
11
74.857
21
5.37161
0
LINE
8
BLACK
6
CONTINUOUS
10
88.7526
20
7.07778
11
87.2902
21
18.9883
0
LINE
8
BLACK
6
CONTINUOUS
10
75.9714
20
4.50093
11
87.882
21
5.96337
0
ARC
8
BLACK
10
86.2977
20
18.8665
40
0.999998
50
6.99993
51
97
0
ARC
8
BLACK
10
74.3871
20
17.404
40
0.999998
50
-263
51
-173
0
ARC
8
BLACK
10
87.7601
20
6.95591
40
0.999999
50
-83
51
6.99998
0
ARC
8
BLACK
10
75.8495
20
5.49348
40
0.999999
50
-173
51
-83
0
LINE
8
BLACK
6
CONTINUOUS
10
48.3598
20
15.2158
11
36.4492
21
13.7534
0
LINE
8
BLACK
6
CONTINUOUS
10
35.5786
20
12.6389
11
37.041
21
0.728387
0
LINE
8
BLACK
6
CONTINUOUS
10
50.9366
20
2.43456
11
49.4742
21
14.3451
0
LINE
8
BLACK
6
CONTINUOUS
10
38.1554
20
-0.14229
11
50.066
21
1.32014
0
ARC
8
BLACK
10
48.4817
20
14.2232
40
0.999998
50
6.99993
51
97
0
ARC
8
BLACK
10
36.5711
20
12.7608
40
0.999998
50
-263
51
-173
0
ARC
8
BLACK
10
49.9441
20
2.31269
40
0.999999
50
-83
51
6.99998
0
ARC
8
BLACK
10
38.0335
20
0.850256
40
0.999999
50
-173
51
-83
0
LINE
8
BLACK
6
CONTINUOUS
10
31.7734
20
-6.01383
11
19.8628
21
-7.47626
0
LINE
8
BLACK
6
CONTINUOUS
10
18.9922
20
-8.59067
11
20.4546
21
-20.5012
0
LINE
8
BLACK
6
CONTINUOUS
10
34.3502
20
-18.7951
11
32.8878
21
-6.8845
0
LINE
8
BLACK
6
CONTINUOUS
10
21.569
20
-21.3719
11
33.4796
21
-19.9095
0
ARC
8
BLACK
10
31.8953
20
-7.00637
40
0.999998
50
6.99993
51
97
0
ARC
8
BLACK
10
19.9847
20
-8.4688
40
0.999998
50
-263
51
-173
0
ARC
8
BLACK
10
33.3577
20
-18.9169
40
0.999999
50
-83
51
6.99998
0
ARC
8
BLACK
10
21.4471
20
-20.3794
40
0.999999
50
-173
51
-83
0
LINE
8
BLACK
6
CONTINUOUS
10
107.986
20
-1.45439
11
96.0753
21
-2.91682
0
LINE
8
BLACK
6
CONTINUOUS
10
95.2046
20
-4.03123
11
96.667
21
-15.9418
0
LINE
8
BLACK
6
CONTINUOUS
10
110.563
20
-14.2356
11
109.1
21
-2.32506
0
LINE
8
BLACK
6
CONTINUOUS
10
97.7814
20
-16.8125
11
109.692
21
-15.35
0
ARC
8
BLACK
10
108.108
20
-2.44693
40
0.999998
50
6.99993
51
97
0
ARC
8
BLACK
10
96.1971
20
-3.90936
40
0.999998
50
-263
51
-173
0
ARC
8
BLACK
10
109.57
20
-14.3575
40
0.999999
50
-83
51
6.99998
0
ARC
8
BLACK
10
97.6596
20
-15.8199
40
0.999999
50
-173
51
-83
  0
ENDSEC
  0
EOF
