  0
SECTION
  2
HEADER
  9
$ANGBASE
  50
0.0
  9
$ANGDIR
  70
1
  9
$MEASUREMENT
  70
1
  0
ENDSEC
  0
SECTION
  2
TABLES
  0
TABLE
  2
LTYPE
  70
4
  0
LTYPE
  5
40F
  2
CONTINUOUS
  70
0
  3
Solid line
  72
65
  73
0
  40
0.0
  0
LTYPE
  5
410
  2
DASHDOT
 70
0
  3
Dash Dot ____ _ ____ _
 72
65
 73
4
 40
2.0
 49
1.25
 49
-0.25
 49
0.25
 49
-0.25
  0
LTYPE
  5
411
  2
DASHED
 70
0
  3
Dashed __ __ __ __ __
 72
65
 73
2
 40
0.75
 49
0.5
 49
-0.25
  0
LTYPE
  5
43B
  2
DOTTED
 70
0
  3
Dotted .  .  .  .
 72
65
 73
2
 40
0.2
 49
0.0
 49
-0.2
  0
ENDTAB
  0
TABLE
  2
STYLE
  70
4
  0
STYLE
  2
KICAD
  70
0
  40
0
  41
1
  42
1
  50
0
  71
0
  3
isocp.shx
  0
STYLE
  2
KICADB
  70
0
  40
0
  41
1
  42
1
  50
0
  71
0
  3
isocp.shx
  0
STYLE
  2
KICADI
  70
0
  40
0
  41
1
  42
1
  50
15
  71
0
  3
isocp.shx
  0
STYLE
  2
KICADBI
  70
0
  40
0
  41
1
  42
1
  50
15
  71
0
  3
isocp.shx
  0
ENDTAB
  0
TABLE
  2
LAYER
  70
1
  0
LAYER
  2
BLACK
  70
0
  62
7
  6
CONTINUOUS
  0
ENDTAB
  0
ENDSEC
  0
SECTION
  2
ENTITIES
0
LINE
8
BLACK
6
CONTINUOUS
10
54.157905999999997
20
96.0043679999999995
11
71.5274659999999898
21
93.8716549999999899
0
LINE
8
BLACK
6
CONTINUOUS
10
106.4776200000000017
20
85.0339259999999939
11
110.
21
87.7911129999999957
0
ARC
8
BLACK
10
220.9610699999999781
20
32.5803149999999988
40
1.0000764369787154
50
-172.99563541
51
-83.00435164
0
LINE
8
BLACK
6
CONTINUOUS
10
149.9189429999999845
20
8.455055999999999
11
206.5005259999999794
21
15.4024000000000001
0
LINE
8
BLACK
6
CONTINUOUS
10
129.6144610000000057
20
63.6419429999999977
11
116.6144609999999915
21
63.6419429999999977
0
LINE
8
BLACK
6
CONTINUOUS
10
26.6722219999999979
20
35.7264259999999965
11
26.2704559999999994
21
32.454301000000001
0
ARC
8
BLACK
10
12.3010929999999998
20
38.1993949999999955
40
4.9998338957348993
50
-187.00190954
51
-96.99809623
0
ARC
8
BLACK
10
111.5423799999999943
20
85.8236119999999971
40
2.4999997019708755
50
-51.90383053
51
128.09389954
0
ARC
8
BLACK
10
144.9327679999999816
20
6.0352139999999999
40
2.5000007897457297
50
-213.09574612
51
-33.09438702
0
CIRCLE
8
BLACK
10
111.5424189999999953
20
85.8236429999999899
40
1.05
0
ARC
8
BLACK
10
27.6646679999999989
20
35.6046849999999964
40
0.9998858026929788
50
82.99342847
51
173.00655858
0
LINE
8
BLACK
6
CONTINUOUS
10
38.0331169999999972
20
34.3314829999999986
11
37.690612999999999
21
31.5420099999999977
0
LINE
8
BLACK
6
CONTINUOUS
10
99.2117299999999886
20
4.6660819999999994
11
97.035868999999991
21
8.0044799999999992
0
LINE
8
BLACK
6
CONTINUOUS
10
32.2217100000000016
20
89.8758359999999925
11
32.3017369999999957
21
89.8660100000000028
0
ARC
8
BLACK
10
233.9377779999999802
20
38.2034869999999955
40
4.9998718029702154
50
-83.00146935
51
7.00147511
0
LINE
8
BLACK
6
CONTINUOUS
10
72.5722779999999972
20
92.534357
11
72.3148279999999914
21
90.4376019999999983
0
ARC
8
BLACK
10
206.2567839999999819
20
17.3874949999999977
40
2.0000021663715799
50
-82.99992394
51
6.99996881
0
LINE
8
BLACK
6
CONTINUOUS
10
103.6807790000000011
20
15.8500979999999991
11
142.5576269999999965
21
15.8536359999999998
0
LINE
8
BLACK
6
CONTINUOUS
10
219.9684579999999983
20
32.458359999999999
11
219.5666919999999891
21
35.7304850000000016
0
ARC
8
BLACK
10
32.343593999999996
20
90.868393999999995
40
1.0000127805474766
50
-186.99930210
51
-97.00077469
0
LINE
8
BLACK
6
CONTINUOUS
10
37.9970349999999968
20
17.6271729999999991
11
40.0181439999999995
21
34.0877879999999962
0
ARC
8
BLACK
10
32.0777590000000004
20
35.0626379999999997
40
1.0000718225575977
50
-6.99591269
51
82.99589974
0
LINE
8
BLACK
6
CONTINUOUS
10
32.727882000000001
20
32.1513569999999973
11
33.0703859999999992
21
34.9408299999999983
0
ARC
8
BLACK
10
194.8670189999999991
20
93.0133759999999938
40
1.2002432185195235
50
-172.98831348
51
-83.01138790
0
LINE
8
BLACK
6
CONTINUOUS
10
39.7383880000000005
20
15.3983409999999985
11
96.3199709999999953
21
8.4509969999999992
0
ARC
8
BLACK
10
217.3378730000000019
20
91.6582989999999995
40
2.5126509045918874
50
-353.00014204
51
-172.99986328
0
LINE
8
BLACK
6
CONTINUOUS
10
208.5483009999999808
20
31.5460689999999992
11
208.2057969999999898
21
34.3355419999999967
0
ARC
8
BLACK
10
51.3719859999999997
20
93.0091989999999953
40
1.200136773790913
50
-96.99369206
51
-7.00660656
0
ARC
8
BLACK
10
172.7331859999999892
20
90.2952980000000025
40
1.1998596372196011
50
-83.00673306
51
7.00662263
0
ARC
8
BLACK
10
211.0296709999999791
20
31.8506979999999977
40
2.5000001376421603
50
-173.00102673
51
7.00103249
0
LINE
8
BLACK
6
CONTINUOUS
10
116.6144609999999915
20
77.6419429999999977
11
129.6144610000000057
21
77.6419429999999977
0
ARC
8
BLACK
10
73.5056840000000022
20
90.2912060000000025
40
1.199821733876693
50
-187.00843310
51
-96.99145647
0
ARC
8
BLACK
10
111.869883999999999
20
81.6383149999999915
40
1.0000132451556258
50
-232.00563709
51
-89.99404686
0
ARC
8
BLACK
10
71.3810900000000004
20
92.680498
40
1.2001181748292391
50
-6.99436698
51
82.99444748
0
LINE
8
BLACK
6
CONTINUOUS
10
232.9634819999999991
20
87.1649850000000015
11
238.9003659999999911
21
38.8129449999999991
0
CIRCLE
8
BLACK
10
134.6964949999999988
20
85.8277020000000022
40
1.05
0
LINE
8
BLACK
6
CONTINUOUS
10
131.115680999999995
20
60.6518680000000003
11
131.1156799999999976
21
19.6518699999999988
0
LINE
8
BLACK
6
CONTINUOUS
10
111.8699879999999922
20
80.6383009999999985
11
134.3702789999999823
21
80.6415269999999964
0
LINE
8
BLACK
6
CONTINUOUS
10
219.9980379999999798
20
90.6105779999999896
11
227.3914039999999943
21
91.5183689999999928
0
LINE
8
BLACK
6
CONTINUOUS
10
130.115680999999995
20
18.6518669999999993
11
116.115680999999995
21
18.6518669999999993
0
LINE
8
BLACK
6
CONTINUOUS
10
113.0848379999999906
20
83.8561709999999891
11
111.2542919999999924
21
82.4263959999999969
0
ARC
8
BLACK
10
28.9010389999999973
20
91.6542299999999983
40
2.5126509045863519
50
-6.99992666
51
172.99993199
0
LINE
8
BLACK
6
CONTINUOUS
10
195.0130559999999775
20
91.8220499999999902
11
211.4349069999999813
21
93.8383999999999929
0
ARC
8
BLACK
10
35.2092479999999952
20
31.8466909999999999
40
2.500000137247302
50
-186.99985083
51
-7.00015493
0
LINE
8
BLACK
6
CONTINUOUS
10
138.1841919999999959
20
86.2701539999999909
11
139.7612939999999924
21
85.0379849999999919
0
LINE
8
BLACK
6
CONTINUOUS
10
18.8475099999999998
20
91.5143099999999947
11
26.2408760000000001
21
90.6065189999999916
0
ARC
8
BLACK
10
34.6821160000000006
20
92.8418219999999934
40
0.9999761865860609
50
82.99860817
51
173.00137889
0
ARC
8
BLACK
10
103.6808769999999953
20
14.8500899999999998
40
1.0000082557447489
50
90.00563121
51
172.36307561
0
ARC
8
BLACK
10
214.1610009999999988
20
35.0668159999999958
40
0.9999346591973208
50
-263.00375855
51
-172.99622850
0
LINE
8
BLACK
6
CONTINUOUS
10
136.2389139999999941
20
87.7951750000000004
11
138.1841919999999959
21
86.2701539999999909
0
ARC
8
BLACK
10
18.2382969999999993
20
86.5514069999999975
40
5.0001548696929277
50
83.00176857
51
172.99822567
0
ARC
8
BLACK
10
116.1159509999999955
20
19.6521380000000008
40
1.0002705364590134
50
-179.98456297
51
-90.01549433
0
LINE
8
BLACK
6
CONTINUOUS
10
173.9240859999999884
20
90.4416609999999963
11
173.6666359999999827
21
92.538415999999998
0
LINE
8
BLACK
6
CONTINUOUS
10
213.1685279999999807
20
34.9448889999999963
11
213.5110320000000002
21
32.1554159999999953
0
CIRCLE
8
BLACK
10
211.0296669999999892
20
31.8507429999999978
40
1.050001
0
LINE
8
BLACK
6
CONTINUOUS
10
34.8040069999999986
20
93.8343409999999949
11
51.2258579999999952
21
91.8179909999999921
0
ARC
8
BLACK
10
129.6144529999999975
20
77.1419360000000012
40
0.5000075000562492
50
0.00085942
51
89.99914058
0
LINE
8
BLACK
6
CONTINUOUS
10
234.5469819999999856
20
33.2408670000000015
11
221.0828740000000039
21
31.5876829999999984
0
ARC
8
BLACK
10
211.5568030000000022
20
92.8458889999999997
40
0.9999690134458594
50
6.99821009
51
97.00180286
0
LINE
8
BLACK
6
CONTINUOUS
10
149.203045000000003
20
8.008538999999999
11
147.0271840000000054
21
4.6701410000000001
0
LINE
8
BLACK
6
CONTINUOUS
10
130.1144610000000057
20
77.1419429999999977
11
130.1144610000000057
21
64.1419429999999977
0
ARC
8
BLACK
10
25.2778869999999998
20
32.5761989999999955
40
1.0000257272337922
50
-96.99855337
51
-7.00145957
0
ARC
8
BLACK
10
32.4235779999999991
20
90.8585929999999991
40
1.0000322223137252
50
-96.99818126
51
-7.00183168
0
LINE
8
BLACK
6
CONTINUOUS
10
143.5488389999999868
20
14.9866009999999985
11
144.2221830000000011
21
9.9674870000000002
0
ARC
8
BLACK
10
213.8153789999999788
20
90.8627079999999978
40
1.0000829323879441
50
-172.99526334
51
-83.00472371
0
LINE
8
BLACK
6
CONTINUOUS
10
116.115680999999995
20
61.6518680000000003
11
130.115680999999995
21
61.6518680000000003
0
ARC
8
BLACK
10
142.5576869999999872
20
14.8536019999999986
40
1.0000348977999212
50
7.64271112
51
90.00347990
0
LINE
8
BLACK
6
CONTINUOUS
10
174.7114479999999901
20
93.8757140000000021
11
192.0810079999999971
21
96.0084269999999975
0
CIRCLE
8
BLACK
10
101.3061289999999985
20
6.0311779999999997
40
1.050001
0
CIRCLE
8
BLACK
10
217.3378739999999993
20
91.6582919999999888
40
1.05
0
LINE
8
BLACK
6
CONTINUOUS
10
214.8439520000000016
20
91.3520769999999942
11
214.8878799999999956
21
90.9943109999999962
0
LINE
8
BLACK
6
CONTINUOUS
10
212.5493229999999869
20
92.9677229999999923
11
212.8227609999999856
21
90.7407460000000015
0
ARC
8
BLACK
10
116.1156689999999969
20
60.6518799999999985
40
0.9999880000720008
50
-270.00068756
51
-179.99931244
0
ARC
8
BLACK
10
228.0006599999999821
20
86.5555229999999938
40
5.0001041612076929
50
7.00119330
51
96.99881246
0
ARC
8
BLACK
10
101.3061549999999897
20
6.0311379999999994
40
2.5000007900511347
50
-146.90605766
51
33.09619080
0
LINE
8
BLACK
6
CONTINUOUS
10
73.3596409999999963
20
89.1003039999999942
11
106.4776200000000017
21
85.0339259999999939
0
LINE
8
BLACK
6
CONTINUOUS
10
139.7612939999999924
20
85.0379849999999919
11
172.8792729999999835
21
89.1043629999999922
0
ARC
8
BLACK
10
129.6144960000000026
20
64.1419080000000008
40
0.4999645012603394
50
-90.00406829
51
0.00406829
0
ARC
8
BLACK
10
218.5742019999999854
20
35.6086899999999957
40
0.9999343457490697
50
6.99622348
51
97.00378946
0
ARC
8
BLACK
10
130.1157010000000014
20
60.6518879999999996
40
0.9999800002000039
50
-0.00114594
51
90.00114594
0
LINE
8
BLACK
6
CONTINUOUS
10
142.8383699999999976
20
7.4003109999999994
11
144.0688710000000015
21
9.2886499999999987
0
ARC
8
BLACK
10
134.6964909999999804
20
85.8277039999999971
40
2.4999997014837572
50
-308.09512858
51
-128.09494042
0
LINE
8
BLACK
6
CONTINUOUS
10
116.1144609999999915
20
64.1419429999999977
11
116.1144609999999915
21
77.1419429999999977
0
ARC
8
BLACK
10
134.3701910000000055
20
81.6415080000000017
40
0.9999806362081999
50
-89.99499379
51
52.01106434
0
CIRCLE
8
BLACK
10
144.9327849999999955
20
6.0352369999999995
40
1.050001
0
LINE
8
BLACK
6
CONTINUOUS
10
25.1560399999999973
20
31.5836239999999968
11
11.6919319999999995
21
33.2368079999999964
0
LINE
8
BLACK
6
CONTINUOUS
10
214.0392049999999813
20
36.0593049999999948
11
218.4522759999999835
21
36.6011619999999951
0
LINE
8
BLACK
6
CONTINUOUS
10
27.7866379999999999
20
36.5971029999999971
11
32.1997089999999986
21
36.0552459999999968
0
ARC
8
BLACK
10
103.0078789999999884
20
9.8305439999999997
40
1.000016646422222
50
-187.63620466
51
-146.91087171
0
LINE
8
BLACK
6
CONTINUOUS
10
102.1700429999999926
20
9.2845909999999989
11
103.4005439999999965
21
7.3962519999999996
0
LINE
8
BLACK
6
CONTINUOUS
10
31.3510339999999985
20
90.9902519999999981
11
31.3949619999999996
21
91.3480179999999962
0
ARC
8
BLACK
10
150.0408089999999959
20
7.4625129999999995
40
0.9999968646877068
50
96.99984316
51
146.90505259
0
LINE
8
BLACK
6
CONTINUOUS
10
193.4183039999999778
20
94.9636160000000018
11
193.6757529999999861
21
92.8668600000000026
0
ARC
8
BLACK
10
207.2132829999999899
20
34.2136999999999958
40
0.9999651383422942
50
-352.99921336
51
-173.00073987
0
LINE
8
BLACK
6
CONTINUOUS
10
219.9975939999999923
20
90.6141949999999952
11
219.8317959999999971
21
91.9645069999999976
0
ARC
8
BLACK
10
143.2310860000000048
20
9.8345909999999996
40
0.9999665877998432
50
-33.09019285
51
7.63726923
0
ARC
8
BLACK
10
39.9820869999999999
20
17.3834029999999977
40
1.9999642583446877
50
-187.00105482
51
-96.99899005
0
LINE
8
BLACK
6
CONTINUOUS
10
115.115680999999995
20
19.6518680000000003
11
115.115680999999995
21
60.6518680000000003
0
ARC
8
BLACK
10
174.8577799999999911
20
92.68459
40
1.2000802633691905
50
-262.99625718
51
-173.00382333
0
LINE
8
BLACK
6
CONTINUOUS
10
213.9371769999999913
20
89.8700690000000009
11
214.0172039999999924
21
89.8798949999999905
0
LINE
8
BLACK
6
CONTINUOUS
10
52.5631610000000009
20
92.8628009999999904
11
52.820609999999995
21
94.9595569999999896
0
CIRCLE
8
BLACK
10
35.2092469999999977
20
31.8466839999999998
40
1.050001
0
LINE
8
BLACK
6
CONTINUOUS
10
102.0167309999999929
20
9.9634280000000004
11
102.6897389999999888
21
14.9829859999999986
0
LINE
8
BLACK
6
CONTINUOUS
10
33.4161530000000013
20
90.7366869999999892
11
33.6895910000000001
21
92.9636639999999943
0
ARC
8
BLACK
10
96.1980760000000004
20
7.4584079999999995
40
1.0000456791272971
50
33.09624873
51
82.99885553
0
LINE
8
BLACK
6
CONTINUOUS
10
134.9856890000000078
20
82.4296219999999948
11
133.1540760000000034
21
83.8602300000000014
0
ARC
8
BLACK
10
116.6144529999999975
20
64.1419360000000012
40
0.4999925000562508
50
-180.00085945
51
-89.99914055
0
CIRCLE
8
BLACK
10
28.9010399999999983
20
91.6542329999999907
40
1.05
0
ARC
8
BLACK
10
130.1156169999999861
20
19.6519289999999991
40
1.0000620019203943
50
-89.99639058
51
-0.00338024
0
ARC
8
BLACK
10
116.6144959999999884
20
77.1419080000000008
40
0.5000355012601605
50
90.00406771
51
179.99593229
0
LINE
8
BLACK
6
CONTINUOUS
10
7.3385479999999994
20
38.8088860000000011
11
13.2754319999999986
21
87.1609259999999892
0
LINE
8
BLACK
6
CONTINUOUS
10
26.4071180000000005
20
91.9604479999999995
11
26.2413199999999982
21
90.6101359999999971
0
ARC
8
BLACK
10
192.2271419999999864
20
94.8172359999999941
40
1.2001214394612987
50
7.00582056
51
96.99408064
0
ARC
8
BLACK
10
213.895276999999993
20
90.872485999999995
40
1.0000506901017536
50
-82.99705345
51
6.99713025
0
LINE
8
BLACK
6
CONTINUOUS
10
206.2207699999999875
20
34.0918470000000013
11
208.2418789999999831
21
17.6312320000000007
0
ARC
8
BLACK
10
39.025624999999998
20
34.2095959999999977
40
0.9999651399590662
50
-6.99667705
51
172.99663027
0
ARC
8
BLACK
10
54.011852999999995
20
94.8130719999999911
40
1.2002156938942927
50
83.01041777
51
172.98968103
0
LINE
8
BLACK
6
CONTINUOUS
10
176.0783179999999959
20
48.3263490000000004
11
164.1677640000000054
21
46.8639170000000007
0
LINE
8
BLACK
6
CONTINUOUS
10
176.0783179999999959
20
48.3263490000000004
11
177.192733000000004
21
47.4556719999999999
0
LINE
8
BLACK
6
CONTINUOUS
10
163.2970870000000048
20
45.7495009999999951
11
164.1677640000000054
21
46.8639170000000007
0
LINE
8
BLACK
6
CONTINUOUS
10
163.2970870000000048
20
45.7495009999999951
11
164.8326409999999953
21
33.2434200000000004
0
LINE
8
BLACK
6
CONTINUOUS
10
178.7282869999999946
20
34.9495909999999981
11
177.192733000000004
21
47.4556719999999999
0
LINE
8
BLACK
6
CONTINUOUS
10
164.8326409999999953
20
33.2434200000000004
11
165.9470560000000035
21
32.3727429999999998
0
LINE
8
BLACK
6
CONTINUOUS
10
177.857609999999994
20
33.8351749999999996
11
178.7282869999999946
21
34.9495909999999981
0
LINE
8
BLACK
6
CONTINUOUS
10
165.9470560000000035
20
32.3727429999999998
11
177.857609999999994
21
33.8351749999999996
0
CIRCLE
8
BLACK
10
143.3357919999999979
20
18.2493269999999974
40
1.0999999999999999
0
LINE
8
BLACK
6
CONTINUOUS
10
194.4059199999999805
20
55.374960999999999
11
182.49536599999999
21
53.9125289999999993
0
LINE
8
BLACK
6
CONTINUOUS
10
194.4059199999999805
20
55.374960999999999
11
195.5203349999999887
21
54.5042839999999984
0
LINE
8
BLACK
6
CONTINUOUS
10
181.6246889999999894
20
52.7981130000000007
11
182.49536599999999
21
53.9125289999999993
0
LINE
8
BLACK
6
CONTINUOUS
10
181.6246889999999894
20
52.7981130000000007
11
183.1602429999999799
21
40.292031999999999
0
LINE
8
BLACK
6
CONTINUOUS
10
197.0558889999999792
20
41.9982029999999966
11
195.5203349999999887
21
54.5042839999999984
0
LINE
8
BLACK
6
CONTINUOUS
10
183.1602429999999799
20
40.292031999999999
11
184.2746579999999881
21
39.4213549999999984
0
LINE
8
BLACK
6
CONTINUOUS
10
196.1852119999999786
20
40.8837869999999981
11
197.0558889999999792
21
41.9982029999999966
0
LINE
8
BLACK
6
CONTINUOUS
10
184.2746579999999881
20
39.4213549999999984
11
196.1852119999999786
21
40.8837869999999981
0
LINE
8
BLACK
6
CONTINUOUS
10
91.9225379999999888
20
69.3295719999999989
11
103.8330919999999935
21
67.867139999999992
0
LINE
8
BLACK
6
CONTINUOUS
10
91.9225379999999888
20
69.3295719999999989
11
91.0518610000000024
21
70.4439879999999903
0
LINE
8
BLACK
6
CONTINUOUS
10
104.9475070000000017
20
68.7378169999999926
11
103.8330919999999935
21
67.867139999999992
0
LINE
8
BLACK
6
CONTINUOUS
10
104.9475070000000017
20
68.7378169999999926
11
106.4830609999999922
21
81.2438980000000015
0
LINE
8
BLACK
6
CONTINUOUS
10
92.5874149999999929
20
82.9500689999999992
11
91.0518610000000024
21
70.4439879999999903
0
LINE
8
BLACK
6
CONTINUOUS
10
106.4830609999999922
20
81.2438980000000015
11
105.6123839999999916
21
82.3583139999999929
0
LINE
8
BLACK
6
CONTINUOUS
10
93.7018300000000011
20
83.8207459999999998
11
92.5874149999999929
21
82.9500689999999992
0
LINE
8
BLACK
6
CONTINUOUS
10
105.6123839999999916
20
82.3583139999999929
11
93.7018300000000011
21
83.8207459999999998
0
LINE
8
BLACK
6
CONTINUOUS
10
89.6009269999999987
20
50.4215680000000006
11
101.5114809999999892
21
48.9591360000000009
0
LINE
8
BLACK
6
CONTINUOUS
10
89.6009269999999987
20
50.4215680000000006
11
88.7302499999999981
21
51.5359839999999991
0
LINE
8
BLACK
6
CONTINUOUS
10
102.6258959999999973
20
49.8298129999999944
11
101.5114809999999892
21
48.9591360000000009
0
LINE
8
BLACK
6
CONTINUOUS
10
102.6258959999999973
20
49.8298129999999944
11
104.1614500000000021
21
62.3358939999999961
0
LINE
8
BLACK
6
CONTINUOUS
10
90.2658040000000028
20
64.0420649999999938
11
88.7302499999999981
21
51.5359839999999991
0
LINE
8
BLACK
6
CONTINUOUS
10
104.1614500000000021
20
62.3358939999999961
11
103.2907730000000015
21
63.4503099999999947
0
LINE
8
BLACK
6
CONTINUOUS
10
91.3802189999999968
20
64.9127419999999944
11
90.2658040000000028
21
64.0420649999999938
0
LINE
8
BLACK
6
CONTINUOUS
10
103.2907730000000015
20
63.4503099999999947
11
91.3802189999999968
21
64.9127419999999944
0
LINE
8
BLACK
6
CONTINUOUS
10
213.8943270000000041
20
52.9695709999999949
11
201.9837729999999851
21
51.5071389999999951
0
LINE
8
BLACK
6
CONTINUOUS
10
213.8943270000000041
20
52.9695709999999949
11
215.0087419999999838
21
52.0988939999999943
0
LINE
8
BLACK
6
CONTINUOUS
10
201.1130959999999845
20
50.3927229999999966
11
201.9837729999999851
21
51.5071389999999951
0
LINE
8
BLACK
6
CONTINUOUS
10
201.1130959999999845
20
50.3927229999999966
11
202.6486500000000035
21
37.8866419999999948
0
LINE
8
BLACK
6
CONTINUOUS
10
216.5442960000000028
20
39.5928129999999996
11
215.0087419999999838
21
52.0988939999999943
0
LINE
8
BLACK
6
CONTINUOUS
10
202.6486500000000035
20
37.8866419999999948
11
203.7630649999999832
21
37.0159650000000013
0
LINE
8
BLACK
6
CONTINUOUS
10
215.6736190000000022
20
38.4783970000000011
11
216.5442960000000028
21
39.5928129999999996
0
LINE
8
BLACK
6
CONTINUOUS
10
203.7630649999999832
20
37.0159650000000013
11
215.6736190000000022
21
38.4783970000000011
0
CIRCLE
8
BLACK
10
135.6439560000000029
20
74.3929380000000009
40
1.0999999999999999
0
LINE
8
BLACK
6
CONTINUOUS
10
211.5727159999999856
20
71.8775749999999931
11
199.662161999999995
21
70.4151430000000005
0
LINE
8
BLACK
6
CONTINUOUS
10
211.5727159999999856
20
71.8775749999999931
11
212.6871309999999937
21
71.0068979999999925
0
LINE
8
BLACK
6
CONTINUOUS
10
198.7914849999999944
20
69.3007269999999949
11
199.662161999999995
21
70.4151430000000005
0
LINE
8
BLACK
6
CONTINUOUS
10
198.7914849999999944
20
69.3007269999999949
11
200.327038999999985
21
56.7946460000000002
0
LINE
8
BLACK
6
CONTINUOUS
10
214.2226849999999843
20
58.5008169999999978
11
212.6871309999999937
21
71.0068979999999925
0
LINE
8
BLACK
6
CONTINUOUS
10
200.327038999999985
20
56.7946460000000002
11
201.4414539999999931
21
55.9239689999999996
0
LINE
8
BLACK
6
CONTINUOUS
10
213.3520079999999837
20
57.3864009999999993
11
214.2226849999999843
21
58.5008169999999978
0
LINE
8
BLACK
6
CONTINUOUS
10
201.4414539999999931
20
55.9239689999999996
11
213.3520079999999837
21
57.3864009999999993
0
CIRCLE
8
BLACK
10
102.8931299999999993
20
18.2493269999999974
40
1.0999999999999999
0
LINE
8
BLACK
6
CONTINUOUS
10
188.9925020000000018
20
29.4091829999999987
11
190.4549339999999802
21
17.4986289999999975
0
LINE
8
BLACK
6
CONTINUOUS
10
188.9925020000000018
20
29.4091829999999987
11
189.8631790000000024
21
30.5235979999999998
0
LINE
8
BLACK
6
CONTINUOUS
10
191.5693499999999858
20
16.6279520000000005
11
190.4549339999999802
21
17.4986289999999975
0
LINE
8
BLACK
6
CONTINUOUS
10
191.5693499999999858
20
16.6279520000000005
11
204.0754309999999805
21
18.1635059999999982
0
LINE
8
BLACK
6
CONTINUOUS
10
202.369259999999997
20
32.0591519999999974
11
189.8631790000000024
21
30.5235979999999998
0
LINE
8
BLACK
6
CONTINUOUS
10
204.0754309999999805
20
18.1635059999999982
11
204.9461079999999811
21
19.2779209999999992
0
LINE
8
BLACK
6
CONTINUOUS
10
203.4836760000000027
20
31.1884749999999968
11
202.369259999999997
21
32.0591519999999974
0
LINE
8
BLACK
6
CONTINUOUS
10
204.9461079999999811
20
19.2779209999999992
11
203.4836760000000027
21
31.1884749999999968
0
CIRCLE
8
BLACK
10
58.7136199999999988
20
23.1827469999999991
40
1.0999999999999999
0
CIRCLE
8
BLACK
10
58.049439999999997
20
56.8521629999999973
40
1.0999999999999999
0
CIRCLE
8
BLACK
10
207.6617189999999766
20
54.4459489999999988
40
1.0999999999999999
0
CIRCLE
8
BLACK
10
105.9417439999999999
20
36.5769269999999977
40
1.0999999999999999
0
LINE
8
BLACK
6
CONTINUOUS
10
30.5553039999999996
20
38.4783970000000011
11
42.4658579999999972
21
37.0159650000000013
0
LINE
8
BLACK
6
CONTINUOUS
10
30.5553039999999996
20
38.4783970000000011
11
29.684626999999999
21
39.5928129999999996
0
LINE
8
BLACK
6
CONTINUOUS
10
43.5802729999999983
20
37.8866419999999948
11
42.4658579999999972
21
37.0159650000000013
0
LINE
8
BLACK
6
CONTINUOUS
10
43.5802729999999983
20
37.8866419999999948
11
45.1158269999999959
21
50.3927229999999966
0
LINE
8
BLACK
6
CONTINUOUS
10
31.2201810000000002
20
52.0988939999999943
11
29.684626999999999
21
39.5928129999999996
0
LINE
8
BLACK
6
CONTINUOUS
10
45.1158269999999959
20
50.3927229999999966
11
44.2451499999999953
21
51.5071389999999951
0
LINE
8
BLACK
6
CONTINUOUS
10
32.3345959999999977
20
52.9695709999999949
11
31.2201810000000002
21
52.0988939999999943
0
LINE
8
BLACK
6
CONTINUOUS
10
44.2451499999999953
20
51.5071389999999951
11
32.3345959999999977
21
52.9695709999999949
0
LINE
8
BLACK
6
CONTINUOUS
10
157.1703139999999905
20
46.0047379999999961
11
145.25976
21
44.5423059999999964
0
LINE
8
BLACK
6
CONTINUOUS
10
157.1703139999999905
20
46.0047379999999961
11
158.2847289999999987
21
45.1340609999999955
0
LINE
8
BLACK
6
CONTINUOUS
10
144.3890829999999994
20
43.4278899999999979
11
145.25976
21
44.5423059999999964
0
LINE
8
BLACK
6
CONTINUOUS
10
144.3890829999999994
20
43.4278899999999979
11
145.9246369999999899
21
30.9218089999999997
0
LINE
8
BLACK
6
CONTINUOUS
10
159.8202829999999892
20
32.6279800000000009
11
158.2847289999999987
21
45.1340609999999955
0
LINE
8
BLACK
6
CONTINUOUS
10
145.9246369999999899
20
30.9218089999999997
11
147.0390519999999981
21
30.0511319999999991
0
LINE
8
BLACK
6
CONTINUOUS
10
158.9496059999999886
20
31.5135639999999988
11
159.8202829999999892
21
32.6279800000000009
0
LINE
8
BLACK
6
CONTINUOUS
10
147.0390519999999981
20
30.0511319999999991
11
158.9496059999999886
21
31.5135639999999988
0
LINE
8
BLACK
6
CONTINUOUS
10
73.0145339999999976
20
71.6511830000000032
11
84.9250880000000024
21
70.1887509999999963
0
LINE
8
BLACK
6
CONTINUOUS
10
73.0145339999999976
20
71.6511830000000032
11
72.143856999999997
21
72.7655989999999946
0
LINE
8
BLACK
6
CONTINUOUS
10
86.0395029999999963
20
71.0594279999999969
11
84.9250880000000024
21
70.1887509999999963
0
LINE
8
BLACK
6
CONTINUOUS
10
86.0395029999999963
20
71.0594279999999969
11
87.575057000000001
21
83.5655089999999916
0
LINE
8
BLACK
6
CONTINUOUS
10
73.6794110000000018
20
85.2716799999999893
11
72.143856999999997
21
72.7655989999999946
0
LINE
8
BLACK
6
CONTINUOUS
10
87.575057000000001
20
83.5655089999999916
11
86.7043800000000005
21
84.6799249999999972
0
LINE
8
BLACK
6
CONTINUOUS
10
74.7938259999999957
20
86.1423569999999899
11
73.6794110000000018
21
85.2716799999999893
0
LINE
8
BLACK
6
CONTINUOUS
10
86.7043800000000005
20
84.6799249999999972
11
74.7938259999999957
21
86.1423569999999899
0
LINE
8
BLACK
6
CONTINUOUS
10
82.9247569999999996
20
26.2550549999999987
11
81.4623249999999928
21
14.3445009999999993
0
LINE
8
BLACK
6
CONTINUOUS
10
82.9247569999999996
20
26.2550549999999987
11
84.039172999999991
21
27.1257319999999993
0
LINE
8
BLACK
6
CONTINUOUS
10
82.3330019999999934
20
13.230086
11
81.4623249999999928
21
14.3445009999999993
0
LINE
8
BLACK
6
CONTINUOUS
10
82.3330019999999934
20
13.230086
11
94.8390830000000022
21
11.6945319999999988
0
LINE
8
BLACK
6
CONTINUOUS
10
96.5452539999999999
20
25.5901779999999981
11
84.039172999999991
21
27.1257319999999993
0
LINE
8
BLACK
6
CONTINUOUS
10
94.8390830000000022
20
11.6945319999999988
11
95.9534989999999937
21
12.5652089999999994
0
LINE
8
BLACK
6
CONTINUOUS
10
97.4159310000000005
20
24.4757630000000006
11
96.5452539999999999
21
25.5901779999999981
0
LINE
8
BLACK
6
CONTINUOUS
10
95.9534989999999937
20
12.5652089999999994
11
97.4159310000000005
21
24.4757630000000006
0
CIRCLE
8
BLACK
10
19.0787899999999979
20
52.0405599999999993
40
1.0999999999999999
0
CIRCLE
8
BLACK
10
224.8285139999999842
20
70.9485650000000021
40
1.0999999999999999
0
LINE
8
BLACK
6
CONTINUOUS
10
87.2793159999999943
20
31.5135639999999988
11
99.1898699999999991
21
30.0511319999999991
0
LINE
8
BLACK
6
CONTINUOUS
10
87.2793159999999943
20
31.5135639999999988
11
86.4086389999999938
21
32.6279800000000009
0
LINE
8
BLACK
6
CONTINUOUS
10
100.304284999999993
20
30.9218089999999997
11
99.1898699999999991
21
30.0511319999999991
0
LINE
8
BLACK
6
CONTINUOUS
10
100.304284999999993
20
30.9218089999999997
11
101.8398389999999978
21
43.4278899999999979
0
LINE
8
BLACK
6
CONTINUOUS
10
87.9441929999999985
20
45.1340609999999955
11
86.4086389999999938
21
32.6279800000000009
0
LINE
8
BLACK
6
CONTINUOUS
10
101.8398389999999978
20
43.4278899999999979
11
100.9691619999999972
21
44.5423059999999964
0
LINE
8
BLACK
6
CONTINUOUS
10
89.0586079999999924
20
46.0047379999999961
11
87.9441929999999985
21
45.1340609999999955
0
LINE
8
BLACK
6
CONTINUOUS
10
100.9691619999999972
20
44.5423059999999964
11
89.0586079999999924
21
46.0047379999999961
0
CIRCLE
8
BLACK
10
185.8517039999999838
20
75.7593499999999977
40
1.0999999999999999
0
LINE
8
BLACK
6
CONTINUOUS
10
13.3885079999999999
20
54.9810109999999952
11
25.2990619999999993
21
53.5185789999999955
0
LINE
8
BLACK
6
CONTINUOUS
10
13.3885079999999999
20
54.9810109999999952
11
12.5178309999999993
21
56.0954270000000008
0
LINE
8
BLACK
6
CONTINUOUS
10
26.4134770000000003
20
54.389255999999996
11
25.2990619999999993
21
53.5185789999999955
0
LINE
8
BLACK
6
CONTINUOUS
10
26.4134770000000003
20
54.389255999999996
11
27.949030999999998
21
66.8953369999999978
0
LINE
8
BLACK
6
CONTINUOUS
10
14.0533849999999987
20
68.6015079999999955
11
12.5178309999999993
21
56.0954270000000008
0
LINE
8
BLACK
6
CONTINUOUS
10
27.949030999999998
20
66.8953369999999978
11
27.0783539999999974
21
68.0097530000000035
0
LINE
8
BLACK
6
CONTINUOUS
10
15.1677999999999997
20
69.4721849999999961
11
14.0533849999999987
21
68.6015079999999955
0
LINE
8
BLACK
6
CONTINUOUS
10
27.0783539999999974
20
68.0097530000000035
11
15.1677999999999997
21
69.4721849999999961
0
CIRCLE
8
BLACK
10
140.2871779999999831
20
36.5769269999999977
40
1.0999999999999999
0
LINE
8
BLACK
6
CONTINUOUS
10
209.2511049999999955
20
90.7855789999999985
11
197.3405510000000049
21
89.3231469999999916
0
LINE
8
BLACK
6
CONTINUOUS
10
209.2511049999999955
20
90.7855789999999985
11
210.3655200000000036
21
89.9149019999999979
0
LINE
8
BLACK
6
CONTINUOUS
10
196.4698740000000043
20
88.2087310000000002
11
197.3405510000000049
21
89.3231469999999916
0
LINE
8
BLACK
6
CONTINUOUS
10
196.4698740000000043
20
88.2087310000000002
11
198.0054279999999949
21
75.7026499999999913
0
LINE
8
BLACK
6
CONTINUOUS
10
211.9010739999999942
20
77.4088210000000032
11
210.3655200000000036
21
89.9149019999999979
0
LINE
8
BLACK
6
CONTINUOUS
10
198.0054279999999949
20
75.7026499999999913
11
199.119843000000003
21
74.8319729999999907
0
LINE
8
BLACK
6
CONTINUOUS
10
211.0303969999999936
20
76.2944049999999976
11
211.9010739999999942
21
77.4088210000000032
0
LINE
8
BLACK
6
CONTINUOUS
10
199.119843000000003
20
74.8319729999999907
11
211.0303969999999936
21
76.2944049999999976
0
LINE
8
BLACK
6
CONTINUOUS
10
228.7395119999999906
20
88.3801890000000014
11
216.8289580000000001
21
86.9177569999999946
0
LINE
8
BLACK
6
CONTINUOUS
10
228.7395119999999906
20
88.3801890000000014
11
229.8539269999999988
21
87.5095120000000009
0
LINE
8
BLACK
6
CONTINUOUS
10
215.9582809999999995
20
85.8033410000000032
11
216.8289580000000001
21
86.9177569999999946
0
LINE
8
BLACK
6
CONTINUOUS
10
215.9582809999999995
20
85.8033410000000032
11
217.49383499999999
21
73.2972599999999943
0
LINE
8
BLACK
6
CONTINUOUS
10
231.3894809999999893
20
75.003430999999992
11
229.8539269999999988
21
87.5095120000000009
0
LINE
8
BLACK
6
CONTINUOUS
10
217.49383499999999
20
73.2972599999999943
11
218.6082499999999982
21
72.4265829999999937
0
LINE
8
BLACK
6
CONTINUOUS
10
230.5188039999999887
20
73.8890150000000006
11
231.3894809999999893
21
75.003430999999992
0
LINE
8
BLACK
6
CONTINUOUS
10
218.6082499999999982
20
72.4265829999999937
11
230.5188039999999887
21
73.8890150000000006
0
LINE
8
BLACK
6
CONTINUOUS
10
32.8769149999999968
20
57.3864009999999993
11
44.7874689999999944
21
55.9239689999999996
0
LINE
8
BLACK
6
CONTINUOUS
10
32.8769149999999968
20
57.3864009999999993
11
32.0062379999999962
21
58.5008169999999978
0
LINE
8
BLACK
6
CONTINUOUS
10
45.9018839999999955
20
56.7946460000000002
11
44.7874689999999944
21
55.9239689999999996
0
LINE
8
BLACK
6
CONTINUOUS
10
45.9018839999999955
20
56.7946460000000002
11
47.4374380000000002
21
69.3007269999999949
0
LINE
8
BLACK
6
CONTINUOUS
10
33.5417920000000009
20
71.0068979999999925
11
32.0062379999999962
21
58.5008169999999978
0
LINE
8
BLACK
6
CONTINUOUS
10
47.4374380000000002
20
69.3007269999999949
11
46.5667609999999996
21
70.4151430000000005
0
LINE
8
BLACK
6
CONTINUOUS
10
34.656207000000002
20
71.8775749999999931
11
33.5417920000000009
21
71.0068979999999925
0
LINE
8
BLACK
6
CONTINUOUS
10
46.5667609999999996
20
70.4151430000000005
11
34.656207000000002
21
71.8775749999999931
0
LINE
8
BLACK
6
CONTINUOUS
10
15.7101189999999988
20
73.8890150000000006
11
27.620673
21
72.4265829999999937
0
LINE
8
BLACK
6
CONTINUOUS
10
15.7101189999999988
20
73.8890150000000006
11
14.839442
21
75.003430999999992
0
LINE
8
BLACK
6
CONTINUOUS
10
28.7350879999999975
20
73.2972599999999943
11
27.620673
21
72.4265829999999937
0
LINE
8
BLACK
6
CONTINUOUS
10
28.7350879999999975
20
73.2972599999999943
11
30.2706419999999987
21
85.8033410000000032
0
LINE
8
BLACK
6
CONTINUOUS
10
16.3749959999999994
20
87.5095120000000009
11
14.839442
21
75.003430999999992
0
LINE
8
BLACK
6
CONTINUOUS
10
30.2706419999999987
20
85.8033410000000032
11
29.3999649999999981
21
86.9177569999999946
0
LINE
8
BLACK
6
CONTINUOUS
10
17.4894110000000005
20
88.3801890000000014
11
16.3749959999999994
21
87.5095120000000009
0
LINE
8
BLACK
6
CONTINUOUS
10
29.3999649999999981
20
86.9177569999999946
11
17.4894110000000005
21
88.3801890000000014
0
CIRCLE
8
BLACK
10
167.5241010000000017
20
68.7107329999999905
40
1.0999999999999999
0
CIRCLE
8
BLACK
10
40.888812999999999
20
73.3539569999999941
40
1.0999999999999999
0
LINE
8
BLACK
6
CONTINUOUS
10
35.1985260000000011
20
76.2944049999999976
11
47.1090799999999987
21
74.8319729999999907
0
LINE
8
BLACK
6
CONTINUOUS
10
35.1985260000000011
20
76.2944049999999976
11
34.3278490000000005
21
77.4088210000000032
0
LINE
8
BLACK
6
CONTINUOUS
10
48.2234949999999998
20
75.7026499999999913
11
47.1090799999999987
21
74.8319729999999907
0
LINE
8
BLACK
6
CONTINUOUS
10
48.2234949999999998
20
75.7026499999999913
11
49.7590489999999974
21
88.2087310000000002
0
LINE
8
BLACK
6
CONTINUOUS
10
35.8634029999999981
20
89.9149019999999979
11
34.3278490000000005
21
77.4088210000000032
0
LINE
8
BLACK
6
CONTINUOUS
10
49.7590489999999974
20
88.2087310000000002
11
48.8883719999999968
21
89.3231469999999916
0
LINE
8
BLACK
6
CONTINUOUS
10
36.9778179999999992
20
90.7855789999999985
11
35.8634029999999981
21
89.9149019999999979
0
LINE
8
BLACK
6
CONTINUOUS
10
48.8883719999999968
20
89.3231469999999916
11
36.9778179999999992
21
90.7855789999999985
0
LINE
8
BLACK
6
CONTINUOUS
10
52.365321999999999
20
59.7917909999999964
11
64.2758759999999967
21
58.3293589999999966
0
LINE
8
BLACK
6
CONTINUOUS
10
52.365321999999999
20
59.7917909999999964
11
51.4946449999999984
21
60.9062069999999949
0
LINE
8
BLACK
6
CONTINUOUS
10
65.3902909999999906
20
59.2000359999999972
11
64.2758759999999967
21
58.3293589999999966
0
LINE
8
BLACK
6
CONTINUOUS
10
65.3902909999999906
20
59.2000359999999972
11
66.9258449999999954
21
71.7061169999999919
0
LINE
8
BLACK
6
CONTINUOUS
10
53.0301989999999961
20
73.4122880000000038
11
51.4946449999999984
21
60.9062069999999949
0
LINE
8
BLACK
6
CONTINUOUS
10
66.9258449999999954
20
71.7061169999999919
11
66.0551679999999948
21
72.8205329999999975
0
LINE
8
BLACK
6
CONTINUOUS
10
54.1446139999999971
20
74.2829649999999901
11
53.0301989999999961
21
73.4122880000000038
0
LINE
8
BLACK
6
CONTINUOUS
10
66.0551679999999948
20
72.8205329999999975
11
54.1446139999999971
21
74.2829649999999901
0
CIRCLE
8
BLACK
10
76.3770399999999938
20
49.8035449999999997
40
1.0999999999999999
0
CIRCLE
8
BLACK
10
227.1501299999999901
20
52.0405619999999942
40
1.0999999999999999
0
LINE
8
BLACK
6
CONTINUOUS
10
233.3841019999999844
20
50.5673949999999977
11
221.4735479999999939
21
49.1049629999999979
0
LINE
8
BLACK
6
CONTINUOUS
10
233.3841019999999844
20
50.5673949999999977
11
234.4985169999999925
21
49.6967179999999971
0
LINE
8
BLACK
6
CONTINUOUS
10
220.6028709999999933
20
47.9905469999999994
11
221.4735479999999939
21
49.1049629999999979
0
LINE
8
BLACK
6
CONTINUOUS
10
220.6028709999999933
20
47.9905469999999994
11
222.1384249999999838
21
35.4844659999999976
0
LINE
8
BLACK
6
CONTINUOUS
10
236.0340709999999831
20
37.1906369999999953
11
234.4985169999999925
21
49.6967179999999971
0
LINE
8
BLACK
6
CONTINUOUS
10
222.1384249999999838
20
35.4844659999999976
11
223.252839999999992
21
34.613788999999997
0
LINE
8
BLACK
6
CONTINUOUS
10
235.1633939999999825
20
36.0762209999999968
11
236.0340709999999831
21
37.1906369999999953
0
LINE
8
BLACK
6
CONTINUOUS
10
223.252839999999992
20
34.613788999999997
11
235.1633939999999825
21
36.0762209999999968
0
CIRCLE
8
BLACK
10
137.965564999999998
20
55.4849320000000006
40
1.0999999999999999
0
CIRCLE
8
BLACK
10
60.3772159999999971
20
75.7593480000000028
40
1.0999999999999999
0
CIRCLE
8
BLACK
10
110.5849659999999943
20
74.3929380000000009
40
1.0999999999999999
0
CIRCLE
8
BLACK
10
55.7278299999999973
20
37.9441539999999975
40
1.0999999999999999
0
LINE
8
BLACK
6
CONTINUOUS
10
42.7452469999999991
20
31.1884749999999968
11
41.2828149999999994
21
19.2779209999999992
0
LINE
8
BLACK
6
CONTINUOUS
10
42.7452469999999991
20
31.1884749999999968
11
43.8596629999999976
21
32.0591519999999974
0
LINE
8
BLACK
6
CONTINUOUS
10
42.153492
20
18.1635059999999982
11
41.2828149999999994
21
19.2779209999999992
0
LINE
8
BLACK
6
CONTINUOUS
10
42.153492
20
18.1635059999999982
11
54.6595729999999946
21
16.6279520000000005
0
LINE
8
BLACK
6
CONTINUOUS
10
56.3657439999999994
20
30.5235979999999998
11
43.8596629999999976
21
32.0591519999999974
0
LINE
8
BLACK
6
CONTINUOUS
10
54.6595729999999946
20
16.6279520000000005
11
55.7739890000000003
21
17.4986289999999975
0
LINE
8
BLACK
6
CONTINUOUS
10
57.236421
20
29.4091829999999987
11
56.3657439999999994
21
30.5235979999999998
0
LINE
8
BLACK
6
CONTINUOUS
10
55.7739890000000003
20
17.4986289999999975
11
57.236421
21
29.4091829999999987
0
CIRCLE
8
BLACK
10
148.6222630000000038
20
66.3899409999999932
40
1.0999999999999999
0
CIRCLE
8
BLACK
10
78.7048209999999955
20
68.7107329999999905
40
1.0999999999999999
0
LINE
8
BLACK
6
CONTINUOUS
10
170.0844969999999989
20
27.0875749999999975
11
171.5469290000000058
21
15.1770209999999999
0
LINE
8
BLACK
6
CONTINUOUS
10
170.0844969999999989
20
27.0875749999999975
11
170.9551739999999995
21
28.2019899999999986
0
LINE
8
BLACK
6
CONTINUOUS
10
172.661344999999983
20
14.3063439999999993
11
171.5469290000000058
21
15.1770209999999999
0
LINE
8
BLACK
6
CONTINUOUS
10
172.661344999999983
20
14.3063439999999993
11
185.1674259999999776
21
15.8418979999999987
0
LINE
8
BLACK
6
CONTINUOUS
10
183.4612549999999942
20
29.7375439999999998
11
170.9551739999999995
21
28.2019899999999986
0
LINE
8
BLACK
6
CONTINUOUS
10
185.1674259999999776
20
15.8418979999999987
11
186.0381029999999782
21
16.956312999999998
0
LINE
8
BLACK
6
CONTINUOUS
10
184.5756709999999998
20
28.8668669999999992
11
183.4612549999999942
21
29.7375439999999998
0
LINE
8
BLACK
6
CONTINUOUS
10
186.0381029999999782
20
16.956312999999998
11
184.5756709999999998
21
28.8668669999999992
0
LINE
8
BLACK
6
CONTINUOUS
10
11.0730649999999997
20
36.0721869999999996
11
22.9836189999999974
21
34.6097549999999998
0
LINE
8
BLACK
6
CONTINUOUS
10
11.0730649999999997
20
36.0721869999999996
11
10.2023879999999991
21
37.1866029999999981
0
LINE
8
BLACK
6
CONTINUOUS
10
24.0980339999999984
20
35.4804320000000004
11
22.9836189999999974
21
34.6097549999999998
0
LINE
8
BLACK
6
CONTINUOUS
10
24.0980339999999984
20
35.4804320000000004
11
25.6335879999999996
21
47.9865129999999951
0
LINE
8
BLACK
6
CONTINUOUS
10
11.7379420000000003
20
49.6926839999999999
11
10.2023879999999991
21
37.1866029999999981
0
LINE
8
BLACK
6
CONTINUOUS
10
25.6335879999999996
20
47.9865129999999951
11
24.762910999999999
21
49.1009290000000007
0
LINE
8
BLACK
6
CONTINUOUS
10
12.8523569999999996
20
50.5633610000000004
11
11.7379420000000003
21
49.6926839999999999
0
LINE
8
BLACK
6
CONTINUOUS
10
24.762910999999999
20
49.1009290000000007
11
12.8523569999999996
21
50.5633610000000004
0
CIRCLE
8
BLACK
10
190.5010900000000049
20
37.9441559999999996
40
1.0999999999999999
0
CIRCLE
8
BLACK
10
205.340108999999984
20
73.3539569999999941
40
1.0999999999999999
0
LINE
8
BLACK
6
CONTINUOUS
10
68.3713120000000032
20
33.8351749999999996
11
80.2818659999999937
21
32.3727429999999998
0
LINE
8
BLACK
6
CONTINUOUS
10
68.3713120000000032
20
33.8351749999999996
11
67.5006350000000026
21
34.9495909999999981
0
LINE
8
BLACK
6
CONTINUOUS
10
81.3962810000000019
20
33.2434200000000004
11
80.2818659999999937
21
32.3727429999999998
0
LINE
8
BLACK
6
CONTINUOUS
10
81.3962810000000019
20
33.2434200000000004
11
82.9318349999999924
21
45.7495009999999951
0
LINE
8
BLACK
6
CONTINUOUS
10
69.0361889999999931
20
47.4556719999999999
11
67.5006350000000026
21
34.9495909999999981
0
LINE
8
BLACK
6
CONTINUOUS
10
82.9318349999999924
20
45.7495009999999951
11
82.0611579999999918
21
46.8639170000000007
0
LINE
8
BLACK
6
CONTINUOUS
10
70.1506040000000013
20
48.3263490000000004
11
69.0361889999999931
21
47.4556719999999999
0
LINE
8
BLACK
6
CONTINUOUS
10
82.0611579999999918
20
46.8639170000000007
11
70.1506040000000013
21
48.3263490000000004
0
CIRCLE
8
BLACK
10
108.2633569999999992
20
55.4849320000000006
40
1.0999999999999999
0
LINE
8
BLACK
6
CONTINUOUS
10
50.0437109999999947
20
40.8837869999999981
11
61.9542649999999995
21
39.4213549999999984
0
LINE
8
BLACK
6
CONTINUOUS
10
50.0437109999999947
20
40.8837869999999981
11
49.1730340000000012
21
41.9982029999999966
0
LINE
8
BLACK
6
CONTINUOUS
10
63.0686800000000005
20
40.292031999999999
11
61.9542649999999995
21
39.4213549999999984
0
LINE
8
BLACK
6
CONTINUOUS
10
63.0686800000000005
20
40.292031999999999
11
64.6042339999999911
21
52.7981130000000007
0
LINE
8
BLACK
6
CONTINUOUS
10
50.7085879999999989
20
54.5042839999999984
11
49.1730340000000012
21
41.9982029999999966
0
LINE
8
BLACK
6
CONTINUOUS
10
64.6042339999999911
20
52.7981130000000007
11
63.7335569999999976
21
53.9125289999999993
0
LINE
8
BLACK
6
CONTINUOUS
10
51.8230029999999999
20
55.374960999999999
11
50.7085879999999989
21
54.5042839999999984
0
LINE
8
BLACK
6
CONTINUOUS
10
63.7335569999999976
20
53.9125289999999993
11
51.8230029999999999
21
55.374960999999999
0
LINE
8
BLACK
6
CONTINUOUS
10
231.0611229999999807
20
69.4721849999999961
11
219.1505689999999902
21
68.0097530000000035
0
LINE
8
BLACK
6
CONTINUOUS
10
231.0611229999999807
20
69.4721849999999961
11
232.1755379999999889
21
68.6015079999999955
0
LINE
8
BLACK
6
CONTINUOUS
10
218.2798919999999896
20
66.8953369999999978
11
219.1505689999999902
21
68.0097530000000035
0
LINE
8
BLACK
6
CONTINUOUS
10
218.2798919999999896
20
66.8953369999999978
11
219.8154459999999801
21
54.389255999999996
0
LINE
8
BLACK
6
CONTINUOUS
10
233.7110919999999794
20
56.0954270000000008
11
232.1755379999999889
21
68.6015079999999955
0
LINE
8
BLACK
6
CONTINUOUS
10
219.8154459999999801
20
54.389255999999996
11
220.9298609999999883
21
53.5185789999999955
0
LINE
8
BLACK
6
CONTINUOUS
10
232.8404149999999788
20
54.9810109999999952
11
233.7110919999999794
21
56.0954270000000008
0
LINE
8
BLACK
6
CONTINUOUS
10
220.9298609999999883
20
53.5185789999999955
11
232.8404149999999788
21
54.9810109999999952
0
LINE
8
BLACK
6
CONTINUOUS
10
61.6532519999999948
20
28.8668669999999992
11
60.1908199999999951
21
16.956312999999998
0
LINE
8
BLACK
6
CONTINUOUS
10
61.6532519999999948
20
28.8668669999999992
11
62.7676680000000005
21
29.7375439999999998
0
LINE
8
BLACK
6
CONTINUOUS
10
61.0614969999999957
20
15.8418979999999987
11
60.1908199999999951
21
16.956312999999998
0
LINE
8
BLACK
6
CONTINUOUS
10
61.0614969999999957
20
15.8418979999999987
11
73.5675779999999975
21
14.3063439999999993
0
LINE
8
BLACK
6
CONTINUOUS
10
75.2737489999999951
20
28.2019899999999986
11
62.7676680000000005
21
29.7375439999999998
0
LINE
8
BLACK
6
CONTINUOUS
10
73.5675779999999975
20
14.3063439999999993
11
74.6819940000000031
21
15.1770209999999999
0
LINE
8
BLACK
6
CONTINUOUS
10
76.1444259999999957
20
27.0875749999999975
11
75.2737489999999951
21
28.2019899999999986
0
LINE
8
BLACK
6
CONTINUOUS
10
74.6819940000000031
20
15.1770209999999999
11
76.1444259999999957
21
27.0875749999999975
0
LINE
8
BLACK
6
CONTINUOUS
10
152.5270919999999819
20
83.8207459999999998
11
140.6165379999999914
21
82.3583139999999929
0
LINE
8
BLACK
6
CONTINUOUS
10
152.5270919999999819
20
83.8207459999999998
11
153.6415069999999901
21
82.9500689999999992
0
LINE
8
BLACK
6
CONTINUOUS
10
139.7458609999999908
20
81.2438980000000015
11
140.6165379999999914
21
82.3583139999999929
0
LINE
8
BLACK
6
CONTINUOUS
10
139.7458609999999908
20
81.2438980000000015
11
141.2814149999999813
21
68.7378169999999926
0
LINE
8
BLACK
6
CONTINUOUS
10
155.1770609999999806
20
70.4439879999999903
11
153.6415069999999901
21
82.9500689999999992
0
LINE
8
BLACK
6
CONTINUOUS
10
141.2814149999999813
20
68.7378169999999926
11
142.3958299999999895
21
67.867139999999992
0
LINE
8
BLACK
6
CONTINUOUS
10
154.30638399999998
20
69.3295719999999989
11
155.1770609999999806
21
70.4439879999999903
0
LINE
8
BLACK
6
CONTINUOUS
10
142.3958299999999895
20
67.867139999999992
11
154.30638399999998
21
69.3295719999999989
0
LINE
8
BLACK
6
CONTINUOUS
10
173.7567070000000058
20
67.2343529999999987
11
161.8461529999999868
21
65.7719209999999919
0
LINE
8
BLACK
6
CONTINUOUS
10
173.7567070000000058
20
67.2343529999999987
11
174.8711219999999855
21
66.3636759999999981
0
LINE
8
BLACK
6
CONTINUOUS
10
160.9754759999999862
20
64.6575050000000005
11
161.8461529999999868
21
65.7719209999999919
0
LINE
8
BLACK
6
CONTINUOUS
10
160.9754759999999862
20
64.6575050000000005
11
162.5110300000000052
21
52.1514239999999987
0
LINE
8
BLACK
6
CONTINUOUS
10
176.4066760000000045
20
53.8575949999999963
11
174.8711219999999855
21
66.3636759999999981
0
LINE
8
BLACK
6
CONTINUOUS
10
162.5110300000000052
20
52.1514239999999987
11
163.6254449999999849
21
51.2807469999999981
0
LINE
8
BLACK
6
CONTINUOUS
10
175.5359990000000039
20
52.7431789999999978
11
176.4066760000000045
21
53.8575949999999963
0
LINE
8
BLACK
6
CONTINUOUS
10
163.6254449999999849
20
51.2807469999999981
11
175.5359990000000039
21
52.7431789999999978
0
LINE
8
BLACK
6
CONTINUOUS
10
148.81299199999998
20
24.4757630000000006
11
150.2754239999999868
21
12.5652089999999994
0
LINE
8
BLACK
6
CONTINUOUS
10
148.81299199999998
20
24.4757630000000006
11
149.6836689999999805
21
25.5901779999999981
0
LINE
8
BLACK
6
CONTINUOUS
10
151.3898399999999924
20
11.6945319999999988
11
150.2754239999999868
21
12.5652089999999994
0
LINE
8
BLACK
6
CONTINUOUS
10
151.3898399999999924
20
11.6945319999999988
11
163.8959209999999871
21
13.230086
0
LINE
8
BLACK
6
CONTINUOUS
10
162.1897500000000036
20
27.1257319999999993
11
149.6836689999999805
21
25.5901779999999981
0
LINE
8
BLACK
6
CONTINUOUS
10
163.8959209999999871
20
13.230086
11
164.7665979999999877
21
14.3445009999999993
0
LINE
8
BLACK
6
CONTINUOUS
10
163.3041659999999808
20
26.2550549999999987
11
162.1897500000000036
21
27.1257319999999993
0
LINE
8
BLACK
6
CONTINUOUS
10
164.7665979999999877
20
14.3445009999999993
11
163.3041659999999808
21
26.2550549999999987
0
LINE
8
BLACK
6
CONTINUOUS
10
154.8487030000000004
20
64.9127419999999944
11
142.9381489999999815
21
63.4503099999999947
0
LINE
8
BLACK
6
CONTINUOUS
10
154.8487030000000004
20
64.9127419999999944
11
155.9631179999999802
21
64.0420649999999938
0
LINE
8
BLACK
6
CONTINUOUS
10
142.0674719999999809
20
62.3358939999999961
11
142.9381489999999815
21
63.4503099999999947
0
LINE
8
BLACK
6
CONTINUOUS
10
142.0674719999999809
20
62.3358939999999961
11
143.6030259999999998
21
49.8298129999999944
0
LINE
8
BLACK
6
CONTINUOUS
10
157.4986719999999991
20
51.5359839999999991
11
155.9631179999999802
21
64.0420649999999938
0
LINE
8
BLACK
6
CONTINUOUS
10
143.6030259999999998
20
49.8298129999999944
11
144.7174409999999796
21
48.9591360000000009
0
LINE
8
BLACK
6
CONTINUOUS
10
156.6279949999999985
20
50.4215680000000006
11
157.4986719999999991
21
51.5359839999999991
0
LINE
8
BLACK
6
CONTINUOUS
10
144.7174409999999796
20
48.9591360000000009
11
156.6279949999999985
21
50.4215680000000006
0
CIRCLE
8
BLACK
10
169.8518799999999942
20
49.8035469999999947
40
1.0999999999999999
0
CIRCLE
8
BLACK
10
21.4004060000000003
20
70.9485629999999929
40
1.0999999999999999
0
LINE
8
BLACK
6
CONTINUOUS
10
189.7626980000000003
20
93.1909689999999955
11
177.8521439999999814
21
91.7285370000000029
0
LINE
8
BLACK
6
CONTINUOUS
10
189.7626980000000003
20
93.1909689999999955
11
190.87711299999998
21
92.3202919999999949
0
LINE
8
BLACK
6
CONTINUOUS
10
176.9814669999999808
20
90.6141209999999973
11
177.8521439999999814
21
91.7285370000000029
0
LINE
8
BLACK
6
CONTINUOUS
10
176.9814669999999808
20
90.6141209999999973
11
178.5170209999999997
21
78.1080400000000026
0
LINE
8
BLACK
6
CONTINUOUS
10
192.412666999999999
20
79.8142110000000002
11
190.87711299999998
21
92.3202919999999949
0
LINE
8
BLACK
6
CONTINUOUS
10
178.5170209999999997
20
78.1080400000000026
11
179.6314359999999795
21
77.237363000000002
0
LINE
8
BLACK
6
CONTINUOUS
10
191.5419899999999984
20
78.6997949999999946
11
192.412666999999999
21
79.8142110000000002
0
LINE
8
BLACK
6
CONTINUOUS
10
179.6314359999999795
20
77.237363000000002
11
191.5419899999999984
21
78.6997949999999946
0
CIRCLE
8
BLACK
10
188.1794799999999839
20
56.8521649999999994
40
1.0999999999999999
0
LINE
8
BLACK
6
CONTINUOUS
10
171.4350959999999873
20
86.1423569999999899
11
159.5245419999999967
21
84.6799249999999972
0
LINE
8
BLACK
6
CONTINUOUS
10
171.4350959999999873
20
86.1423569999999899
11
172.5495109999999954
21
85.2716799999999893
0
LINE
8
BLACK
6
CONTINUOUS
10
158.6538649999999961
20
83.5655089999999916
11
159.5245419999999967
21
84.6799249999999972
0
LINE
8
BLACK
6
CONTINUOUS
10
158.6538649999999961
20
83.5655089999999916
11
160.1894189999999867
21
71.0594279999999969
0
LINE
8
BLACK
6
CONTINUOUS
10
174.085064999999986
20
72.7655989999999946
11
172.5495109999999954
21
85.2716799999999893
0
LINE
8
BLACK
6
CONTINUOUS
10
160.1894189999999867
20
71.0594279999999969
11
161.3038339999999948
21
70.1887509999999963
0
LINE
8
BLACK
6
CONTINUOUS
10
173.2143879999999854
20
71.6511830000000032
11
174.085064999999986
21
72.7655989999999946
0
LINE
8
BLACK
6
CONTINUOUS
10
161.3038339999999948
20
70.1887509999999963
11
173.2143879999999854
21
71.6511830000000032
0
CIRCLE
8
BLACK
10
97.6066569999999984
20
66.3899389999999983
40
1.0999999999999999
0
CIRCLE
8
BLACK
10
38.5672009999999972
20
54.4459469999999968
40
1.0999999999999999
0
CIRCLE
8
BLACK
10
187.5153029999999887
20
23.1827469999999991
40
1.0999999999999999
0
LINE
8
BLACK
6
CONTINUOUS
10
54.6869329999999962
20
78.6997949999999946
11
66.597487000000001
21
77.237363000000002
0
LINE
8
BLACK
6
CONTINUOUS
10
54.6869329999999962
20
78.6997949999999946
11
53.8162559999999957
21
79.8142110000000002
0
LINE
8
BLACK
6
CONTINUOUS
10
67.7119019999999949
20
78.1080400000000026
11
66.597487000000001
21
77.237363000000002
0
LINE
8
BLACK
6
CONTINUOUS
10
67.7119019999999949
20
78.1080400000000026
11
69.2474559999999997
21
90.6141209999999973
0
LINE
8
BLACK
6
CONTINUOUS
10
55.3518100000000004
20
92.3202919999999949
11
53.8162559999999957
21
79.8142110000000002
0
LINE
8
BLACK
6
CONTINUOUS
10
69.2474559999999997
20
90.6141209999999973
11
68.3767789999999991
21
91.7285370000000029
0
LINE
8
BLACK
6
CONTINUOUS
10
56.4662249999999943
20
93.1909689999999955
11
55.3518100000000004
21
92.3202919999999949
0
LINE
8
BLACK
6
CONTINUOUS
10
68.3767789999999991
20
91.7285370000000029
11
56.4662249999999943
21
93.1909689999999955
0
LINE
8
BLACK
6
CONTINUOUS
10
70.6929229999999933
20
52.7431789999999978
11
82.603476999999998
21
51.2807469999999981
0
LINE
8
BLACK
6
CONTINUOUS
10
70.6929229999999933
20
52.7431789999999978
11
69.8222459999999927
21
53.8575949999999963
0
LINE
8
BLACK
6
CONTINUOUS
10
83.717891999999992
20
52.1514239999999987
11
82.603476999999998
21
51.2807469999999981
0
LINE
8
BLACK
6
CONTINUOUS
10
83.717891999999992
20
52.1514239999999987
11
85.2534459999999967
21
64.6575050000000005
0
LINE
8
BLACK
6
CONTINUOUS
10
71.3577999999999975
20
66.3636759999999981
11
69.8222459999999927
21
53.8575949999999963
0
LINE
8
BLACK
6
CONTINUOUS
10
85.2534459999999967
20
64.6575050000000005
11
84.3827689999999961
21
65.7719209999999919
0
LINE
8
BLACK
6
CONTINUOUS
10
72.4722149999999914
20
67.2343529999999987
11
71.3577999999999975
21
66.3636759999999981
0
LINE
8
BLACK
6
CONTINUOUS
10
84.3827689999999961
20
65.7719209999999919
11
72.4722149999999914
21
67.2343529999999987
0
LINE
8
BLACK
6
CONTINUOUS
10
192.0843089999999904
20
74.2829649999999901
11
180.1737549999999999
21
72.8205329999999975
0
LINE
8
BLACK
6
CONTINUOUS
10
192.0843089999999904
20
74.2829649999999901
11
193.1987239999999986
21
73.4122880000000038
0
LINE
8
BLACK
6
CONTINUOUS
10
179.3030779999999993
20
71.7061169999999919
11
180.1737549999999999
21
72.8205329999999975
0
LINE
8
BLACK
6
CONTINUOUS
10
179.3030779999999993
20
71.7061169999999919
11
180.8386319999999898
21
59.2000359999999972
0
LINE
8
BLACK
6
CONTINUOUS
10
194.7342779999999891
20
60.9062069999999949
11
193.1987239999999986
21
73.4122880000000038
0
LINE
8
BLACK
6
CONTINUOUS
10
180.8386319999999898
20
59.2000359999999972
11
181.953046999999998
21
58.3293589999999966
0
LINE
8
BLACK
6
CONTINUOUS
10
193.8636009999999885
20
59.7917909999999964
11
194.7342779999999891
21
60.9062069999999949
0
LINE
8
BLACK
6
CONTINUOUS
10
181.953046999999998
20
58.3293589999999966
11
193.8636009999999885
21
59.7917909999999964
  0
ENDSEC
  0
EOF
