G04 #@! TF.GenerationSoftware,KiCad,Pcbnew,7.0.10-7.0.10~ubuntu23.04.1*
G04 #@! TF.CreationDate,2024-03-02T22:43:59+00:00*
G04 #@! TF.ProjectId,plate_36keys,706c6174-655f-4333-966b-6579732e6b69,1.0*
G04 #@! TF.SameCoordinates,Original*
G04 #@! TF.FileFunction,Legend,Bot*
G04 #@! TF.FilePolarity,Positive*
%FSLAX46Y46*%
G04 Gerber Fmt 4.6, Leading zero omitted, Abs format (unit mm)*
G04 Created by KiCad (PCBNEW 7.0.10-7.0.10~ubuntu23.04.1) date 2024-03-02 22:43:59*
%MOMM*%
%LPD*%
G01*
G04 APERTURE LIST*
%ADD10C,0.150000*%
G04 APERTURE END LIST*
D10*
X151258520Y-137327876D02*
X151258520Y-138042161D01*
X151258520Y-138042161D02*
X151306139Y-138185018D01*
X151306139Y-138185018D02*
X151401377Y-138280257D01*
X151401377Y-138280257D02*
X151544234Y-138327876D01*
X151544234Y-138327876D02*
X151639472Y-138327876D01*
X150306139Y-138327876D02*
X150782329Y-138327876D01*
X150782329Y-138327876D02*
X150782329Y-137327876D01*
X149401377Y-138232637D02*
X149448996Y-138280257D01*
X149448996Y-138280257D02*
X149591853Y-138327876D01*
X149591853Y-138327876D02*
X149687091Y-138327876D01*
X149687091Y-138327876D02*
X149829948Y-138280257D01*
X149829948Y-138280257D02*
X149925186Y-138185018D01*
X149925186Y-138185018D02*
X149972805Y-138089780D01*
X149972805Y-138089780D02*
X150020424Y-137899304D01*
X150020424Y-137899304D02*
X150020424Y-137756447D01*
X150020424Y-137756447D02*
X149972805Y-137565971D01*
X149972805Y-137565971D02*
X149925186Y-137470733D01*
X149925186Y-137470733D02*
X149829948Y-137375495D01*
X149829948Y-137375495D02*
X149687091Y-137327876D01*
X149687091Y-137327876D02*
X149591853Y-137327876D01*
X149591853Y-137327876D02*
X149448996Y-137375495D01*
X149448996Y-137375495D02*
X149401377Y-137423114D01*
X148687091Y-137327876D02*
X148687091Y-138042161D01*
X148687091Y-138042161D02*
X148734710Y-138185018D01*
X148734710Y-138185018D02*
X148829948Y-138280257D01*
X148829948Y-138280257D02*
X148972805Y-138327876D01*
X148972805Y-138327876D02*
X149068043Y-138327876D01*
X147734710Y-138327876D02*
X148210900Y-138327876D01*
X148210900Y-138327876D02*
X148210900Y-137327876D01*
X146829948Y-138232637D02*
X146877567Y-138280257D01*
X146877567Y-138280257D02*
X147020424Y-138327876D01*
X147020424Y-138327876D02*
X147115662Y-138327876D01*
X147115662Y-138327876D02*
X147258519Y-138280257D01*
X147258519Y-138280257D02*
X147353757Y-138185018D01*
X147353757Y-138185018D02*
X147401376Y-138089780D01*
X147401376Y-138089780D02*
X147448995Y-137899304D01*
X147448995Y-137899304D02*
X147448995Y-137756447D01*
X147448995Y-137756447D02*
X147401376Y-137565971D01*
X147401376Y-137565971D02*
X147353757Y-137470733D01*
X147353757Y-137470733D02*
X147258519Y-137375495D01*
X147258519Y-137375495D02*
X147115662Y-137327876D01*
X147115662Y-137327876D02*
X147020424Y-137327876D01*
X147020424Y-137327876D02*
X146877567Y-137375495D01*
X146877567Y-137375495D02*
X146829948Y-137423114D01*
X146115662Y-137327876D02*
X146115662Y-138042161D01*
X146115662Y-138042161D02*
X146163281Y-138185018D01*
X146163281Y-138185018D02*
X146258519Y-138280257D01*
X146258519Y-138280257D02*
X146401376Y-138327876D01*
X146401376Y-138327876D02*
X146496614Y-138327876D01*
X145163281Y-138327876D02*
X145639471Y-138327876D01*
X145639471Y-138327876D02*
X145639471Y-137327876D01*
X144258519Y-138232637D02*
X144306138Y-138280257D01*
X144306138Y-138280257D02*
X144448995Y-138327876D01*
X144448995Y-138327876D02*
X144544233Y-138327876D01*
X144544233Y-138327876D02*
X144687090Y-138280257D01*
X144687090Y-138280257D02*
X144782328Y-138185018D01*
X144782328Y-138185018D02*
X144829947Y-138089780D01*
X144829947Y-138089780D02*
X144877566Y-137899304D01*
X144877566Y-137899304D02*
X144877566Y-137756447D01*
X144877566Y-137756447D02*
X144829947Y-137565971D01*
X144829947Y-137565971D02*
X144782328Y-137470733D01*
X144782328Y-137470733D02*
X144687090Y-137375495D01*
X144687090Y-137375495D02*
X144544233Y-137327876D01*
X144544233Y-137327876D02*
X144448995Y-137327876D01*
X144448995Y-137327876D02*
X144306138Y-137375495D01*
X144306138Y-137375495D02*
X144258519Y-137423114D01*
X143544233Y-137327876D02*
X143544233Y-138042161D01*
X143544233Y-138042161D02*
X143591852Y-138185018D01*
X143591852Y-138185018D02*
X143687090Y-138280257D01*
X143687090Y-138280257D02*
X143829947Y-138327876D01*
X143829947Y-138327876D02*
X143925185Y-138327876D01*
X142591852Y-138327876D02*
X143068042Y-138327876D01*
X143068042Y-138327876D02*
X143068042Y-137327876D01*
X141687090Y-138232637D02*
X141734709Y-138280257D01*
X141734709Y-138280257D02*
X141877566Y-138327876D01*
X141877566Y-138327876D02*
X141972804Y-138327876D01*
X141972804Y-138327876D02*
X142115661Y-138280257D01*
X142115661Y-138280257D02*
X142210899Y-138185018D01*
X142210899Y-138185018D02*
X142258518Y-138089780D01*
X142258518Y-138089780D02*
X142306137Y-137899304D01*
X142306137Y-137899304D02*
X142306137Y-137756447D01*
X142306137Y-137756447D02*
X142258518Y-137565971D01*
X142258518Y-137565971D02*
X142210899Y-137470733D01*
X142210899Y-137470733D02*
X142115661Y-137375495D01*
X142115661Y-137375495D02*
X141972804Y-137327876D01*
X141972804Y-137327876D02*
X141877566Y-137327876D01*
X141877566Y-137327876D02*
X141734709Y-137375495D01*
X141734709Y-137375495D02*
X141687090Y-137423114D01*
%LPC*%
%LPD*%
M02*
