0
SECTION
2
HEADER
9
$INSUNITS
70
4
0
ENDSEC
0
SECTION
2
TABLES
0
TABLE
2
LTYPE
0
LTYPE
72
65
70
64
2
CONTINUOUS
3
______
73
0
40
0
0
ENDTAB
0
TABLE
2
LAYER
0
ENDTAB
0
ENDSEC
0
SECTION
2
ENTITIES
0
CIRCLE
8
0
10
106.9186039
20
-113.8789364
40
1
0
CIRCLE
8
0
10
109.2402148
20
-94.9709322
40
1
0
CIRCLE
8
0
10
111.5618258
20
-76.062928
40
1
0
CIRCLE
8
0
10
126.4070108
20
-111.4735463
40
1
0
CIRCLE
8
0
10
128.7286218
20
-92.5655421
40
1
0
CIRCLE
8
0
10
131.0502328
20
-73.6575379
40
1
0
CIRCLE
8
0
10
145.8954177
20
-109.0681563
40
1
0
CIRCLE
8
0
10
148.2170287
20
-90.1601521
40
1
0
CIRCLE
8
0
10
150.5386397
20
-71.2521479
40
1
0
CIRCLE
8
0
10
164.2230192
20
-116.1167683
40
1
0
CIRCLE
8
0
10
166.5446302
20
-97.2087641
40
1
0
CIRCLE
8
0
10
168.8662412
20
-78.3007599
40
1
0
CIRCLE
8
0
10
183.1310234
20
-118.4383793
40
1
0
CIRCLE
8
0
10
185.4526344
20
-99.5303751
40
1
0
CIRCLE
8
0
10
187.7742453
20
-80.6223709
40
1
0
CIRCLE
8
0
10
317.3238867
20
-113.8789364
40
1
0
CIRCLE
8
0
10
315.0022758
20
-94.9709322
40
1
0
CIRCLE
8
0
10
312.6806648
20
-76.062928
40
1
0
CIRCLE
8
0
10
297.8354798
20
-111.4735463
40
1
0
CIRCLE
8
0
10
295.5138688
20
-92.5655421
40
1
0
CIRCLE
8
0
10
293.1922578
20
-73.6575379
40
1
0
CIRCLE
8
0
10
278.3470729
20
-109.0681563
40
1
0
CIRCLE
8
0
10
276.0254619
20
-90.1601521
40
1
0
CIRCLE
8
0
10
273.7038509
20
-71.2521479
40
1
0
CIRCLE
8
0
10
260.0194714
20
-116.1167683
40
1
0
CIRCLE
8
0
10
257.6978604
20
-97.2087641
40
1
0
CIRCLE
8
0
10
255.3762494
20
-78.3007599
40
1
0
CIRCLE
8
0
10
241.1114672
20
-118.4383793
40
1
0
CIRCLE
8
0
10
238.7898562
20
-99.5303751
40
1
0
CIRCLE
8
0
10
236.4682453
20
-80.6223709
40
1
0
CIRCLE
8
0
10
138.2664029
20
-132.1227587
40
1
0
CIRCLE
8
0
10
157.1744071
20
-134.4443697
40
1
0
CIRCLE
8
0
10
178.4459118
20
-137.0561821
40
1
0
CIRCLE
8
0
10
285.9760877
20
-132.1227587
40
1
0
CIRCLE
8
0
10
267.0680835
20
-134.4443697
40
1
0
CIRCLE
8
0
10
245.7965788
20
-137.0561821
40
1
0
CIRCLE
8
0
10
140.6299035
20
-132.4129601
40
1
0
CIRCLE
8
0
10
171.3554103
20
-136.185578
40
1
0
CIRCLE
8
0
10
283.6125871
20
-132.4129601
40
1
0
CIRCLE
8
0
10
252.8870803
20
-136.185578
40
1
0
CIRCLE
8
0
10
212.1212453
20
-85.8243709
40
1
0
ENDSEC
0
EOF