  0
SECTION
  2
HEADER
  9
$ANGBASE
  50
0.0
  9
$ANGDIR
  70
1
  9
$MEASUREMENT
  70
1
  0
ENDSEC
  0
SECTION
  2
TABLES
  0
TABLE
  2
LTYPE
  70
4
  0
LTYPE
  5
40F
  2
CONTINUOUS
  70
0
  3
Solid line
  72
65
  73
0
  40
0.0
  0
LTYPE
  5
410
  2
DASHDOT
 70
0
  3
Dash Dot ____ _ ____ _
 72
65
 73
4
 40
2.0
 49
1.25
 49
-0.25
 49
0.25
 49
-0.25
  0
LTYPE
  5
411
  2
DASHED
 70
0
  3
Dashed __ __ __ __ __
 72
65
 73
2
 40
0.75
 49
0.5
 49
-0.25
  0
LTYPE
  5
43B
  2
DOTTED
 70
0
  3
Dotted .  .  .  .
 72
65
 73
2
 40
0.2
 49
0.0
 49
-0.2
  0
ENDTAB
  0
TABLE
  2
STYLE
  70
4
  0
STYLE
  2
KICAD
  70
0
  40
0
  41
1
  42
1
  50
0
  71
0
  3
isocp.shx
  0
STYLE
  2
KICADB
  70
0
  40
0
  41
1
  42
1
  50
0
  71
0
  3
isocp.shx
  0
STYLE
  2
KICADI
  70
0
  40
0
  41
1
  42
1
  50
15
  71
0
  3
isocp.shx
  0
STYLE
  2
KICADBI
  70
0
  40
0
  41
1
  42
1
  50
15
  71
0
  3
isocp.shx
  0
ENDTAB
  0
TABLE
  2
LAYER
  70
1
  0
LAYER
  2
BLACK
  70
0
  62
7
  6
CONTINUOUS
  0
ENDTAB
  0
ENDSEC
  0
SECTION
  2
ENTITIES
0
LINE
8
BLACK
6
CONTINUOUS
10
-81.0630709999999937
20
-35.6730829999999983
11
-108.0471069999999969
21
-36.3056459999999959
0
ARC
8
BLACK
10
-84.0775330000000025
20
17.3463569999999976
40
5.4999972885058339
50
88.24625506
51
170.21011414
0
LINE
8
BLACK
6
CONTINUOUS
10
-89.5323589999999996
20
18.0791620000000002
11
-89.4974380000000025
21
18.2815519999999978
0
ARC
8
BLACK
10
108.167396999999994
20
-30.912074999999998
40
5.5000134671819634
50
-91.29712978
51
5.12355480
0
ARC
8
BLACK
10
5.2250209999999999
20
21.9355639999999994
40
1.4999785001540853
50
-0.00082125
51
90.00082125
0
ARC
8
BLACK
10
-23.5824040000000004
20
38.5494589999999988
40
99.999853058581337
50
-97.10614406
51
-90.09590279
0
ARC
8
BLACK
10
89.5346409999999935
20
18.2014479999999992
40
0.1999709948470838
50
-168.69751188
51
-82.87791051
0
ARC
8
BLACK
10
15.7251189999999994
20
14.2267469999999996
40
1.0001192328426243
50
100.40673089
51
179.99429810
0
ARC
8
BLACK
10
-5.2487769999999996
20
21.9285529999999973
40
1.4999998944755453
50
-269.84313384
51
-179.97407452
0
LINE
8
BLACK
6
CONTINUOUS
10
36.1145449999999997
20
-60.7603019999999958
11
76.9750729999999947
21
-55.6624929999999978
0
LINE
8
BLACK
6
CONTINUOUS
10
-43.579823999999995
20
20.4373919999999991
11
-15.5620009999999986
21
15.2220779999999998
0
LINE
8
BLACK
6
CONTINUOUS
10
-6.7450000000000001
20
13.5899989999999988
11
-6.7487759999999994
21
21.9278739999999992
0
ARC
8
BLACK
10
-81.0513619999999975
20
-36.1729529999999997
40
0.5000080580731152
50
-4.95462230
51
91.34188409
0
ARC
8
BLACK
10
23.7344499999999989
20
38.4699589999999958
40
99.9995565638402013
50
-90.09593460
51
-82.88845124
0
LINE
8
BLACK
6
CONTINUOUS
10
-7.7449999999999992
20
12.5899999999999999
11
-13.744999
21
12.5899999999999999
0
LINE
8
BLACK
6
CONTINUOUS
10
109.5935549999999949
20
14.7682739999999999
11
113.645434999999992
21
-30.4209040000000002
0
LINE
8
BLACK
6
CONTINUOUS
10
-4.415
20
17.6785469999999982
11
-4.414371
21
23.4285469999999982
0
LINE
8
BLACK
6
CONTINUOUS
10
23.5670140000000004
20
-61.5294579999999982
11
-23.7497849999999993
21
-61.4502539999999939
0
LINE
8
BLACK
6
CONTINUOUS
10
89.3385490000000004
20
18.1622549999999983
11
89.3071839999999924
21
18.3190789999999986
0
ARC
8
BLACK
10
104.1154259999999994
20
14.2769589999999997
40
5.5001167520294212
50
5.12496184
51
97.11303650
0
LINE
8
BLACK
6
CONTINUOUS
10
-35.9531739999999971
20
-60.682262999999999
11
-76.9183459999999997
21
-55.5753229999999974
0
ARC
8
BLACK
10
-76.2378420000000006
20
-50.1174809999999979
40
5.500102275634065
50
-184.95460347
51
-97.10718105
0
LINE
8
BLACK
6
CONTINUOUS
10
-14.7449999999999992
20
13.5899999999999999
11
-14.7449999999999992
21
14.2389649999999985
0
ARC
8
BLACK
10
7.7249429999999997
20
13.5799419999999991
40
0.9999425016169761
50
-180.00329470
51
-89.99676260
0
ARC
8
BLACK
10
-108.1759950000000003
20
-30.80715
40
5.5000059078966537
50
-185.13260426
51
-88.65720544
0
ARC
8
BLACK
10
13.7250350000000001
20
13.5799649999999996
40
0.9999655006301467
50
-90.00203407
51
0.00203407
0
LINE
8
BLACK
6
CONTINUOUS
10
81.1898449999999912
20
-35.8025650000000013
11
108.0428919999999948
21
-36.4106799999999993
0
ARC
8
BLACK
10
81.1784260000000017
20
-36.3023439999999979
40
0.4999095539280431
50
-271.30876562
51
-175.31874276
0
LINE
8
BLACK
6
CONTINUOUS
10
4.5249999999999995
20
23.4355419999999981
11
5.2249999999999996
21
23.4355419999999981
0
ARC
8
BLACK
10
-15.7450469999999996
20
14.2389269999999986
40
1.0000464723549825
50
0.00221832
51
79.45329532
0
LINE
8
BLACK
6
CONTINUOUS
10
-81.7173919999999896
20
-49.6424570000000003
11
-80.553221999999991
21
-36.2161380000000008
0
LINE
8
BLACK
6
CONTINUOUS
10
15.5444629999999986
20
15.2104140000000001
11
43.6517829999999947
21
20.3696009999999994
0
LINE
8
BLACK
6
CONTINUOUS
10
-109.6072589999999991
20
14.7369969999999988
11
-113.6539469999999881
21
-30.3151139999999977
0
LINE
8
BLACK
6
CONTINUOUS
10
81.7759080000000012
20
-49.7570199999999971
11
80.6801849999999945
21
-36.3431429999999978
0
LINE
8
BLACK
6
CONTINUOUS
10
13.7249999999999996
20
12.579998999999999
11
7.7250009999999998
21
12.579998999999999
0
LINE
8
BLACK
6
CONTINUOUS
10
103.434361999999993
20
19.7347450000000002
11
89.5594349999999935
21
18.0030189999999983
0
ARC
8
BLACK
10
83.9140609999999896
20
17.2405310000000007
40
5.4999128398233328
50
11.30915304
51
91.75182307
0
ARC
8
BLACK
10
-61.8563720000000004
20
-77.8801429999999897
40
100.0018493921573537
50
79.46931467
51
88.24620455
0
ARC
8
BLACK
10
-89.7294979999999924
20
18.1132390000000001
40
0.2000616832497606
50
-97.42215823
51
-9.80698198
0
LINE
8
BLACK
6
CONTINUOUS
10
-103.4172289999999919
20
19.6986619999999988
11
-89.7553410000000014
21
17.9148530000000008
0
ARC
8
BLACK
10
76.2942219999999907
20
-50.2048489999999958
40
5.4999479314854787
50
-82.88898956
51
4.67044277
0
LINE
8
BLACK
6
CONTINUOUS
10
4.5256289999999995
20
17.6785469999999982
11
4.5256289999999995
21
23.4355419999999981
0
ARC
8
BLACK
10
61.735443999999994
20
-77.9829409999999967
40
100.0012069228055651
50
91.75111136
51
100.41836719
0
LINE
8
BLACK
6
CONTINUOUS
10
4.5256289999999995
20
17.6785469999999982
11
-4.415
21
17.6785469999999982
0
ARC
8
BLACK
10
-104.1293239999999969
20
14.244966999999999
40
5.4999887677403141
50
82.56092273
51
174.86743848
0
LINE
8
BLACK
6
CONTINUOUS
10
83.7459269999999947
20
22.7378730000000004
11
58.6796179999999978
21
21.9715649999999982
0
LINE
8
BLACK
6
CONTINUOUS
10
14.7250009999999989
20
13.5800000000000001
11
14.7249999999999996
21
14.2268460000000001
0
ARC
8
BLACK
10
-7.7449649999999997
20
13.5899649999999994
40
0.9999645006088858
50
-90.00203407
51
0.00197678
0
ARC
8
BLACK
10
-13.7449579999999987
20
13.5900429999999997
40
1.0000425008893403
50
-179.99756503
51
-90.00237767
0
LINE
8
BLACK
6
CONTINUOUS
10
-5.2528829999999997
20
23.4285469999999982
11
-4.415
21
23.4285469999999982
0
LINE
8
BLACK
6
CONTINUOUS
10
-83.9092109999999991
20
22.8437780000000004
11
-58.7958420000000004
21
22.0748619999999995
0
LINE
8
BLACK
6
CONTINUOUS
10
6.7250009999999998
20
13.579998999999999
11
6.7249999999999996
21
21.9355419999999981
0
CIRCLE
8
BLACK
10
-25.5078040000000001
20
-4.2520039999999995
40
1.0999999999999999
0
CIRCLE
8
BLACK
10
-104.0356709999999936
20
-18.6013829999999984
40
1.0999999999999999
0
CIRCLE
8
BLACK
10
-14.8511039999999994
20
-15.1570109999999989
40
1.0999999999999999
0
CIRCLE
8
BLACK
10
12.5294949999999989
20
3.7509949999999996
40
1.0999999999999999
0
CIRCLE
8
BLACK
10
-67.3866309999999942
20
-32.6977890000000002
40
1.0999999999999999
0
CIRCLE
8
BLACK
10
84.5472579999999994
20
-16.1959939999999989
40
1.0999999999999999
0
CIRCLE
8
BLACK
10
-62.7372449999999944
20
5.1174049999999998
40
1.0999999999999999
0
CIRCLE
8
BLACK
10
-17.1727169999999987
20
-34.065016
40
1.0999999999999999
0
CIRCLE
8
BLACK
10
-12.5294949999999989
20
3.7509949999999996
40
1.0999999999999999
0
CIRCLE
8
BLACK
10
-20.2213309999999993
20
-52.3926159999999967
40
1.0999999999999999
0
CIRCLE
8
BLACK
10
62.7372429999999994
20
5.117407
40
1.0999999999999999
0
CIRCLE
8
BLACK
10
-82.2256479999999925
20
2.7120139999999999
40
1.0999999999999999
0
CIRCLE
8
BLACK
10
-44.409639999999996
20
-1.9312099999999999
40
1.0999999999999999
0
CIRCLE
8
BLACK
10
-65.0650210000000015
20
-13.7897799999999986
40
1.0999999999999999
0
CIRCLE
8
BLACK
10
104.0356689999999986
20
-18.6013809999999999
40
1.0999999999999999
0
CIRCLE
8
BLACK
10
-101.7140550000000019
20
0.30662
40
1.0999999999999999
0
CIRCLE
8
BLACK
10
25.5078019999999981
20
-4.2520020000000001
40
1.0999999999999999
0
CIRCLE
8
BLACK
10
-46.7374209999999977
20
-20.838397999999998
40
1.0999999999999999
0
CIRCLE
8
BLACK
10
67.3866289999999992
20
-32.6977869999999982
40
1.0999999999999999
0
CIRCLE
8
BLACK
10
-84.5472599999999943
20
-16.1959960000000009
40
1.0999999999999999
0
CIRCLE
8
BLACK
10
20.2213309999999993
20
-52.3926159999999967
40
1.0999999999999999
0
CIRCLE
8
BLACK
10
46.7374189999999956
20
-20.8383959999999995
40
1.0999999999999999
0
CIRCLE
8
BLACK
10
65.0650189999999924
20
-13.7897780000000001
40
1.0999999999999999
0
CIRCLE
8
BLACK
10
82.2256479999999925
20
2.7120139999999999
40
1.0999999999999999
0
CIRCLE
8
BLACK
10
44.409639999999996
20
-1.9312099999999999
40
1.0999999999999999
0
CIRCLE
8
BLACK
10
14.8511039999999994
20
-15.1570109999999989
40
1.0999999999999999
0
CIRCLE
8
BLACK
10
101.7140529999999927
20
0.306622
40
1.0999999999999999
0
CIRCLE
8
BLACK
10
17.1727169999999987
20
-34.065016
40
1.0999999999999999
  0
ENDSEC
  0
EOF
