  0
SECTION
  2
HEADER
  9
$ANGBASE
  50
0.0
  9
$ANGDIR
  70
1
  9
$MEASUREMENT
  70
1
  0
ENDSEC
  0
SECTION
  2
TABLES
  0
TABLE
  2
LTYPE
  70
4
  0
LTYPE
  5
40F
  2
CONTINUOUS
  70
0
  3
Solid line
  72
65
  73
0
  40
0.0
  0
LTYPE
  5
410
  2
DASHDOT
 70
0
  3
Dash Dot ____ _ ____ _
 72
65
 73
4
 40
2.0
 49
1.25
 49
-0.25
 49
0.25
 49
-0.25
  0
LTYPE
  5
411
  2
DASHED
 70
0
  3
Dashed __ __ __ __ __
 72
65
 73
2
 40
0.75
 49
0.5
 49
-0.25
  0
LTYPE
  5
43B
  2
DOTTED
 70
0
  3
Dotted .  .  .  .
 72
65
 73
2
 40
0.2
 49
0.0
 49
-0.2
  0
ENDTAB
  0
TABLE
  2
STYLE
  70
4
  0
STYLE
  2
KICAD
  70
0
  40
0
  41
1
  42
1
  50
0
  71
0
  3
isocp.shx
  0
STYLE
  2
KICADB
  70
0
  40
0
  41
1
  42
1
  50
0
  71
0
  3
isocp.shx
  0
STYLE
  2
KICADI
  70
0
  40
0
  41
1
  42
1
  50
15
  71
0
  3
isocp.shx
  0
STYLE
  2
KICADBI
  70
0
  40
0
  41
1
  42
1
  50
15
  71
0
  3
isocp.shx
  0
ENDTAB
  0
TABLE
  2
LAYER
  70
1
  0
LAYER
  2
BLACK
  70
0
  62
7
  6
CONTINUOUS
  0
ENDTAB
  0
ENDSEC
  0
SECTION
  2
ENTITIES
0
LINE
8
BLACK
6
CONTINUOUS
10
-81.0631
20
-35.6731
11
-108.047
21
-36.3056
0
ARC
8
BLACK
10
-84.0775
20
17.3464
40
5.5
50
88.2463
51
170.21
0
LINE
8
BLACK
6
CONTINUOUS
10
-89.5324
20
18.0792
11
-89.4974
21
18.2816
0
ARC
8
BLACK
10
108.167
20
-30.912
40
5.49998
50
-91.2974
51
5.12324
0
ARC
8
BLACK
10
5.22503
20
21.9356
40
1.49998
50
-0.000572968
51
90.0011
0
ARC
8
BLACK
10
-23.5824
20
38.5495
40
99.9999
50
-97.1062
51
-90.0959
0
ARC
8
BLACK
10
89.5346
20
18.2015
40
0.199982
50
-168.694
51
-82.8743
0
ARC
8
BLACK
10
15.7251
20
14.2268
40
1.00013
50
100.407
51
179.995
0
ARC
8
BLACK
10
-5.24877
20
21.9286
40
1.5
50
-269.843
51
-179.974
0
LINE
8
BLACK
6
CONTINUOUS
10
36.1145
20
-60.7603
11
76.9751
21
-55.6625
0
LINE
8
BLACK
6
CONTINUOUS
10
-43.5798
20
20.4374
11
-15.562
21
15.2221
0
LINE
8
BLACK
6
CONTINUOUS
10
-6.745
20
13.59
11
-6.74878
21
21.9279
0
ARC
8
BLACK
10
-81.0514
20
-36.1729
40
0.499996
50
-4.95577
51
91.3407
0
ARC
8
BLACK
10
23.7344
20
38.47
40
99.9996
50
-90.0959
51
-82.8884
0
LINE
8
BLACK
6
CONTINUOUS
10
-7.745
20
12.59
11
-13.745
21
12.59
0
LINE
8
BLACK
6
CONTINUOUS
10
109.594
20
14.7683
11
113.645
21
-30.4209
0
LINE
8
BLACK
6
CONTINUOUS
10
-4.415
20
17.6785
11
-4.41437
21
23.4285
0
LINE
8
BLACK
6
CONTINUOUS
10
23.567
20
-61.5295
11
-23.7498
21
-61.4503
0
LINE
8
BLACK
6
CONTINUOUS
10
89.3385
20
18.1623
11
89.3072
21
18.3191
0
ARC
8
BLACK
10
104.115
20
14.277
40
5.50012
50
5.12498
51
97.1131
0
LINE
8
BLACK
6
CONTINUOUS
10
-35.9532
20
-60.6823
11
-76.9183
21
-55.5753
0
ARC
8
BLACK
10
-76.2379
20
-50.1174
40
5.50014
50
-184.954
51
-97.1068
0
LINE
8
BLACK
6
CONTINUOUS
10
-14.745
20
13.59
11
-14.745
21
14.239
0
ARC
8
BLACK
10
7.72493
20
13.58
40
0.999958
50
-180.002
51
-89.9959
0
ARC
8
BLACK
10
-108.176
20
-30.8072
40
5.5
50
-185.133
51
-88.6572
0
ARC
8
BLACK
10
13.725
20
13.58
40
0.999973
50
-90.0016
51
0.00246379
0
LINE
8
BLACK
6
CONTINUOUS
10
81.1898
20
-35.8026
11
108.043
21
-36.4107
0
ARC
8
BLACK
10
81.1784
20
-36.3023
40
0.49991
50
-271.309
51
-175.319
0
LINE
8
BLACK
6
CONTINUOUS
10
4.525
20
23.4355
11
5.225
21
23.4355
0
ARC
8
BLACK
10
-15.7451
20
14.239
40
1.00002
50
0.000458333
51
79.4515
0
LINE
8
BLACK
6
CONTINUOUS
10
-81.7174
20
-49.6425
11
-80.5532
21
-36.2161
0
LINE
8
BLACK
6
CONTINUOUS
10
15.5445
20
15.2104
11
43.6518
21
20.3696
0
LINE
8
BLACK
6
CONTINUOUS
10
-109.607
20
14.737
11
-113.654
21
-30.3151
0
LINE
8
BLACK
6
CONTINUOUS
10
81.7759
20
-49.757
11
80.6802
21
-36.3431
0
LINE
8
BLACK
6
CONTINUOUS
10
13.725
20
12.58
11
7.725
21
12.58
0
LINE
8
BLACK
6
CONTINUOUS
10
103.434
20
19.7347
11
89.5594
21
18.003
0
ARC
8
BLACK
10
83.914
20
17.2406
40
5.49988
50
11.3088
51
91.7515
0
ARC
8
BLACK
10
-61.8564
20
-77.8801
40
100.002
50
79.4693
51
88.2462
0
ARC
8
BLACK
10
-89.7295
20
18.1133
40
0.20004
50
-97.4286
51
-9.81346
0
LINE
8
BLACK
6
CONTINUOUS
10
-103.417
20
19.6987
11
-89.7553
21
17.9149
0
ARC
8
BLACK
10
76.2942
20
-50.2048
40
5.49994
50
-82.8891
51
4.67038
0
LINE
8
BLACK
6
CONTINUOUS
10
4.52563
20
17.6785
11
4.52563
21
23.4355
0
ARC
8
BLACK
10
61.7354
20
-77.9829
40
100.001
50
91.7511
51
100.418
0
LINE
8
BLACK
6
CONTINUOUS
10
4.52563
20
17.6785
11
-4.415
21
17.6785
0
ARC
8
BLACK
10
-104.129
20
14.245
40
5.49999
50
82.5609
51
174.867
0
LINE
8
BLACK
6
CONTINUOUS
10
83.7459
20
22.7379
11
58.6796
21
21.9716
0
LINE
8
BLACK
6
CONTINUOUS
10
14.725
20
13.58
11
14.725
21
14.2268
0
ARC
8
BLACK
10
-7.74497
20
13.59
40
0.999972
50
-90.0016
51
0.00240649
0
ARC
8
BLACK
10
-13.745
20
13.5901
40
1.00006
50
-179.997
51
-90.0015
0
LINE
8
BLACK
6
CONTINUOUS
10
-5.25288
20
23.4285
11
-4.415
21
23.4285
0
LINE
8
BLACK
6
CONTINUOUS
10
-83.9092
20
22.8438
11
-58.7958
21
22.0749
0
LINE
8
BLACK
6
CONTINUOUS
10
6.725
20
13.58
11
6.725
21
21.9355
0
CIRCLE
8
BLACK
10
-25.5078
20
-4.252
40
1.1
0
CIRCLE
8
BLACK
10
-104.036
20
-18.6014
40
1.1
0
CIRCLE
8
BLACK
10
-14.8511
20
-15.157
40
1.1
0
CIRCLE
8
BLACK
10
12.5295
20
3.75099
40
1.1
0
CIRCLE
8
BLACK
10
-67.3866
20
-32.6978
40
1.1
0
CIRCLE
8
BLACK
10
84.5473
20
-16.196
40
1.1
0
CIRCLE
8
BLACK
10
-62.7372
20
5.1174
40
1.1
0
CIRCLE
8
BLACK
10
-17.1727
20
-34.065
40
1.1
0
CIRCLE
8
BLACK
10
-12.5295
20
3.75099
40
1.1
0
CIRCLE
8
BLACK
10
-20.2213
20
-52.3926
40
1.1
0
CIRCLE
8
BLACK
10
62.7372
20
5.11741
40
1.1
0
CIRCLE
8
BLACK
10
-23.18
20
14.6552
40
1.1
0
CIRCLE
8
BLACK
10
-82.2256
20
2.71201
40
1.1
0
CIRCLE
8
BLACK
10
-44.4096
20
-1.93121
40
1.1
0
CIRCLE
8
BLACK
10
-65.065
20
-13.7898
40
1.1
0
CIRCLE
8
BLACK
10
104.036
20
-18.6014
40
1.1
0
CIRCLE
8
BLACK
10
23.18
20
14.6552
40
1.1
0
CIRCLE
8
BLACK
10
-101.714
20
0.30662
40
1.1
0
CIRCLE
8
BLACK
10
25.5078
20
-4.252
40
1.1
0
CIRCLE
8
BLACK
10
-46.7374
20
-20.8384
40
1.1
0
CIRCLE
8
BLACK
10
67.3866
20
-32.6978
40
1.1
0
CIRCLE
8
BLACK
10
-84.5473
20
-16.196
40
1.1
0
CIRCLE
8
BLACK
10
20.2213
20
-52.3926
40
1.1
0
CIRCLE
8
BLACK
10
46.7374
20
-20.8384
40
1.1
0
CIRCLE
8
BLACK
10
65.065
20
-13.7898
40
1.1
0
CIRCLE
8
BLACK
10
82.2256
20
2.71201
40
1.1
0
CIRCLE
8
BLACK
10
44.4096
20
-1.93121
40
1.1
0
CIRCLE
8
BLACK
10
14.8511
20
-15.157
40
1.1
0
CIRCLE
8
BLACK
10
101.714
20
0.306622
40
1.1
0
CIRCLE
8
BLACK
10
17.1727
20
-34.065
40
1.1
  0
ENDSEC
  0
EOF
